<svg xmlns="http://www.w3.org/2000/svg" xmlns:xlink="http://www.w3.org/1999/xlink" viewBox="0 0 6990 1532.84"><defs><style>.cls-1{fill:url(#linear-gradient);}.cls-2{fill:url(#linear-gradient-2);}.cls-3{fill:url(#linear-gradient-3);}.cls-4{fill:url(#linear-gradient-4);}.cls-5{fill:url(#linear-gradient-5);}.cls-6{fill:url(#linear-gradient-6);}.cls-7{fill:url(#linear-gradient-7);}.cls-8{fill:url(#linear-gradient-8);}.cls-9{fill:url(#linear-gradient-9);}.cls-10{fill:url(#linear-gradient-10);}.cls-11{fill:url(#linear-gradient-11);}.cls-12{fill:url(#linear-gradient-12);}.cls-13{fill:url(#linear-gradient-13);}.cls-14{fill:url(#linear-gradient-14);}.cls-15{fill:url(#linear-gradient-15);}.cls-16{fill:url(#linear-gradient-16);}.cls-17{fill:url(#linear-gradient-17);}.cls-18{fill:url(#linear-gradient-18);}.cls-19{fill:url(#linear-gradient-19);}.cls-20{fill:url(#linear-gradient-20);}.cls-21{fill:url(#linear-gradient-21);}.cls-22{fill:url(#linear-gradient-22);}.cls-23{fill:url(#linear-gradient-23);}.cls-24{fill:url(#linear-gradient-24);}</style><linearGradient id="linear-gradient" x1="3495" y1="1532.84" x2="3495" y2="1328.3" gradientUnits="userSpaceOnUse"><stop offset="0" stop-color="#ffab1c"/><stop offset="0.17" stop-color="#f0a11a"/><stop offset="0.48" stop-color="#ca8816"/><stop offset="0.92" stop-color="#8d5e0f"/><stop offset="1" stop-color="#80560e"/></linearGradient><linearGradient id="linear-gradient-2" x1="3495" y1="1469.37" x2="3495" y2="1274.83" xlink:href="#linear-gradient"/><linearGradient id="linear-gradient-3" x1="3495" y1="1399.45" x2="3495" y2="1224.24" xlink:href="#linear-gradient"/><linearGradient id="linear-gradient-4" x1="3495" y1="1353.33" x2="3495" y2="1147.74" xlink:href="#linear-gradient"/><linearGradient id="linear-gradient-5" x1="3495" y1="1307.08" x2="3495" y2="1076.35" xlink:href="#linear-gradient"/><linearGradient id="linear-gradient-6" x1="3495" y1="1250.25" x2="3495" y2="1021.15" xlink:href="#linear-gradient"/><linearGradient id="linear-gradient-7" x1="3495" y1="1179.75" x2="3495" y2="979.58" xlink:href="#linear-gradient"/><linearGradient id="linear-gradient-8" x1="3495" y1="1102.36" x2="3495" y2="940.63" xlink:href="#linear-gradient"/><linearGradient id="linear-gradient-9" x1="3495" y1="1056.55" x2="3495" y2="873.49" xlink:href="#linear-gradient"/><linearGradient id="linear-gradient-10" x1="3495" y1="1006.26" x2="3495" y2="809.37" xlink:href="#linear-gradient"/><linearGradient id="linear-gradient-11" x1="3495" y1="945.87" x2="3495" y2="756.5" xlink:href="#linear-gradient"/><linearGradient id="linear-gradient-12" x1="3495" y1="876.7" x2="3495" y2="686.18" xlink:href="#linear-gradient"/><linearGradient id="linear-gradient-13" x1="3495" y1="804.36" x2="3495" y2="615.3" xlink:href="#linear-gradient"/><linearGradient id="linear-gradient-14" x1="3495" y1="733.65" x2="3495" y2="543.09" xlink:href="#linear-gradient"/><linearGradient id="linear-gradient-15" x1="3495" y1="669.9" x2="3495" y2="481.46" xlink:href="#linear-gradient"/><linearGradient id="linear-gradient-16" x1="3495" y1="613.97" x2="3495" y2="430.25" xlink:href="#linear-gradient"/><linearGradient id="linear-gradient-17" x1="3495" y1="563.46" x2="3495" y2="377.11" xlink:href="#linear-gradient"/><linearGradient id="linear-gradient-18" x1="3495" y1="514.25" x2="3495" y2="324.5" xlink:href="#linear-gradient"/><linearGradient id="linear-gradient-19" x1="3495" y1="462.88" x2="3495" y2="269.47" xlink:href="#linear-gradient"/><linearGradient id="linear-gradient-20" x1="3495" y1="406.16" x2="3495" y2="212.56" xlink:href="#linear-gradient"/><linearGradient id="linear-gradient-21" x1="3495" y1="348.09" x2="3495" y2="159.85" xlink:href="#linear-gradient"/><linearGradient id="linear-gradient-22" x1="3495" y1="289.99" x2="3495" y2="109.63" xlink:href="#linear-gradient"/><linearGradient id="linear-gradient-23" x1="3495" y1="233.77" x2="3495" y2="56.14" xlink:href="#linear-gradient"/><linearGradient id="linear-gradient-24" x1="3495" y1="175.94" x2="3495" y2="0" xlink:href="#linear-gradient"/></defs><g id="Layer_2" data-name="Layer 2"><g id="Layer_1-2" data-name="Layer 1"><path class="cls-1" d="M6480.39,1345.14c-63.49-14.43-128.64-24.66-192.84-8.94-53.92,13.2-103,40.09-151.44,66.31-45.26,24.49-91,49.39-140.85,63.13-53.56,14.75-107.48,12.77-161.06-.82-108.83-27.62-205-89.92-313.13-119.64-98.47-27.07-185.07-7.57-274,38.41-84.27,43.59-163.23,90.24-261.37,87.5-107.44-3-209.87-40.92-313.29-66.07-105.19-25.57-207.48-34.3-309.23,8.74-51.15,21.64-99,50.45-150.8,70.62-62,24.14-124.71,30.32-190.56,21.31-184.79-25.3-358.34-121.57-546.38-124.88h-.17c-175.69,3.17-334.59,98.89-506.53,124.59-65.73,9.82-129.2,3.12-191.11-21-52.31-20.4-100.59-49.55-152.32-71.26-209-87.68-408.63,50.7-618.38,57.93-97.63,3.36-176.44-41.79-260.21-85.45-41.75-21.76-85.08-41.64-131.7-50.15-50.26-9.17-100.75-3.06-149.57,10.73-107.13,30.28-202.77,92-311,119-52.41,13.06-104.94,15.12-157.39,1.17-50.46-13.42-96.73-38.64-142.36-63.36-47.27-25.61-95.08-51.87-147.45-65.54-66.86-17.45-134.75-6.82-201,8.46C418.49,1366.12,333,1395,246.62,1420.47,166.39,1444.14,84.17,1468.15,0,1470.3v22.36c84.63-2,167.59-26.59,248.29-50.19,87.88-25.71,175-54.8,264.37-75.21,64.37-14.7,130.19-25,195.29-9.08,52.37,12.83,99.86,39.3,146.6,65.33,45.15,25.15,90.71,50.79,140.83,64.68,52.31,14.49,105.81,13.14,158.32.3,108.94-26.65,204.48-90,312-120.88,50.78-14.55,103.5-20.24,155.67-10,44.6,8.76,86,28,125.81,49.31,83.38,44.58,161,89.33,258.86,85.28,106.8-4.41,208.78-40.88,312-65.14,105.09-24.69,206.45-33.43,307.83,9.81,50.46,21.53,97.75,49.86,148.81,70,61.88,24.45,125.08,31.43,190.93,21.72,172.87-25.5,332.95-120.32,509.39-124.11,188.52,4,363.27,98.61,548.63,124.18,65.79,9.07,128.17,3,190.11-21.14,52.05-20.32,100.11-49.35,151.5-71.15,208.7-88.53,412.1,48.74,622.29,55.94,97.86,3.36,175.5-43.14,258.92-87.37,87.92-46.62,175.43-65.69,273.21-38.66,108.25,29.92,204,93.49,313,121.24,53.52,13.63,108.17,15.48,161.66.71,49.46-13.65,94.46-38.79,139-63.58,47.73-26.57,96.08-53.69,149.57-66.77,64.11-15.68,129.27-5.37,192.64,9,88,19.95,173.93,48.45,260.45,73.92,82.47,24.27,167.42,49.86,254,51.85V1470.3c-86.37-2.19-170.85-27.29-253.11-51.74C6651.69,1393.23,6567.14,1364.85,6480.39,1345.14Z"/><path class="cls-2" d="M6327.22,1282.27c-57.15,12.91-110.45,38.53-163.14,63.41-49.27,23.26-99,47-152,60.36-54.38,13.71-108.25,12.3-162.67-.46-108.35-25.4-206-82.78-313.72-110.11-48.93-12.42-98.83-17.46-148.78-8.42-48,8.7-93.45,27.53-137.59,47.79-90.61,41.59-179.56,90.62-282.26,87.5-108.75-3.31-211.32-47-314.84-75.73-104.23-28.95-206.35-38-308.19,4.29-49.88,20.73-96.54,48.53-147,67.83-61.24,23.4-123.93,29.63-188.8,20.21-179.57-26.1-345.58-127.42-528.89-130.58h-.14c-173.35,3.07-327.37,103.62-496.5,130.27a364,364,0,0,1-189.54-19.91c-51-19.51-98.09-47.65-148.53-68.44-101.19-41.72-202.8-32.5-306.24-3.81-102.91,28.54-204.67,71.7-312.68,75.81-102,3.88-190.66-43.88-280.61-85.45-46-21.27-93.48-41.34-143.72-50.14-50.54-8.85-101.1-3.16-150.44,9.7-106.81,27.83-203.84,84.69-311.58,109.5-53.2,12.25-105.68,13.78-158.89.8-53.63-13.09-103.87-37.14-153.56-60.58-51.48-24.29-103.42-49.32-159.05-62.67-66.23-15.88-132.18-7.38-197.68,8.21C314.16,1328.78,162.35,1407.35,0,1411.54v22.35c167.66-4.44,325.78-84.21,487.12-122,66-15.46,132.86-25,199.48-8.32,54.08,13.55,104.14,39.13,153.71,64,47.84,24,96.28,48.56,148.42,61.86,52.84,13.47,105.07,11.63,157.88-1,107.93-25.88,204.39-84.82,311.32-113.83,49-13.3,99.4-19.34,149.72-10.32,48.51,8.7,94,28.7,138.07,50.14,87,42.38,171.06,88.9,270.89,85.5,107.4-3.66,209.12-44.37,312-71.3,103.85-27.18,205.68-35.92,306.77,6.09,51,21.21,98.65,49.8,150.24,69.72Q2878,1480,2976,1464.91c170.52-26.11,326.81-124.72,501.33-127.58,185.62,3,355.15,102.28,537.26,127.87,65.39,9.19,128.22,2.93,189.87-20.83,51.09-19.7,98.29-47.95,148.73-69.09,101.74-42.64,204.08-34,308.74-6.59,103.45,27.12,206,68.31,314.11,71.21,100.41,2.69,184.68-45.17,272.32-87.54,42.24-20.42,85.84-39.2,132.2-47.79,49.72-9.21,99.44-3.83,148,9,107.88,28.49,204.91,88,313.45,114.47,54,13.19,107.63,14.93,161.61.69,51.56-13.6,99.46-37.82,146.9-61.63,50.74-25.47,102.14-51.64,157.75-64.74,63.92-15.07,128.15-5.79,191.32,8.79,162.57,37.52,321.57,118.3,490.36,122.74v-22.35c-163.45-4.19-316.11-83.77-473.25-120.6C6454.05,1276.24,6390.74,1267.93,6327.22,1282.27Z"/><path class="cls-3" d="M6387,1231.18c-62.4,12.38-121.81,36.51-180.78,59.72-108,42.53-213.28,79.18-330.47,56.34-108.41-21.13-208-72.77-315.68-96.59-50.38-11.14-101.41-15-152.52-6.61-55.53,9.12-108.82,29.22-160.86,50-98.63,39.45-201.22,90.49-310.22,85.14-111.06-5.45-214.11-57.15-318.28-90.82-103.34-33.4-204.29-44-306.74-2-46.69,19.14-90.53,44.65-137.83,62.39-59.68,22.39-121.71,28.79-184.71,18.69-172.12-27.58-327.08-135.3-503.55-139.56h-.09c-169.61,4.14-316.43,110.26-481.12,139-63.2,11-126.07,4.74-186.11-17.56-49.18-18.26-94.6-45-143.24-64.5-101.68-40.79-202.3-29.18-304.4,4.06-103.16,33.58-205.08,84.07-315,90.25-109.64,6.17-213.1-45.5-312.26-85.14-52.39-20.94-106-41.08-161.92-50.14-51.43-8.34-102.92-4-153.53,7.34-106.51,24-205.17,74.63-312.43,95.86-118,23.35-223.9-13.84-332.69-56.64-57.43-22.59-115.25-46-175.89-58.48-64.52-13.31-127.8-8.17-191.34,7.86-138.48,34.92-270.07,109.92-415.3,113v22.35c152-3.53,291.69-79.94,437.11-115.74,64.39-15.84,128.64-22.3,193.91-8,58.63,12.85,114.13,36.89,169.21,60.14,106,44.77,208.38,82.38,324.61,57.87,107.43-22.66,205.47-75.74,312.08-101.26,50.11-12,101.18-16.85,152.25-8.31,53.65,9,104.79,29.1,154.67,50.14,95.54,40.32,193.06,90.45,299.65,85.28,109.15-5.31,211-52.92,314.07-84.52,102.65-31.46,203.68-42,305.15-.89,49.35,20,95.43,47.31,145.33,66.07,60.52,22.75,123.65,29.21,187.51,18.51,166.47-27.88,316.18-131.87,487.3-135.51,179.42,3.77,339,109.27,514.32,136.07,63.77,9.74,126.12,3.23,186.39-19.65,48-18.22,92.47-44.26,139.85-63.89,102.27-42.37,203.63-32.77,307.54-1.15,104.09,31.68,207.06,80.42,317.35,85,105.9,4.43,202.64-45.17,297.62-85.25,49.54-20.92,100.37-41,153.64-50,50.73-8.6,101.33-4.19,151.19,7.54,107.82,25.34,206.75,79.48,315.34,102,115.41,24,217.14-13.09,322.45-57.57,56.56-23.9,113.6-48.7,173.94-61.43,62.68-13.21,124.27-7.05,186.09,7.74,147.17,35.19,287.83,113.21,441.43,116.75v-22.35c-146.75-3.09-279.24-79.7-419.42-114C6509.57,1223.84,6448.92,1218.89,6387,1231.18Z"/><path class="cls-4" d="M6249.62,1235.1c-114.77,38-228.3,73.17-350.24,53.23-108-17.66-209.09-62.94-316.51-83-117.08-21.88-224.07,6.75-334.33,45.62-107.68,38-224.49,92.53-341.34,84.89-113-7.4-216.29-66.59-320.58-105.16-101.87-37.67-201.85-50.77-304.8-9.77-45,17.91-87.22,42.08-132.77,58.63-58.24,21.15-119.59,27.34-180.71,16.4-164.31-29.43-307.58-143-477.08-148.19h0c-165.58,5.1-304.79,116.1-464.55,147.29-61.5,12-123.79,6.5-182.71-14.44-47.31-16.82-91-42.06-137.63-60.43-101.49-39.93-200.53-27.26-300.93,9.74-104.86,38.65-208.22,97.82-321.71,105.82-119.17,8.4-238.72-48.51-348.52-87-108.73-38.09-214-64.91-329.21-43.22-106,20-205.75,64.22-312.13,82.28-124.58,21.14-240.23-15.19-357.47-54-120.94-40-242.77-80.22-370.27-47.23C242.49,1218.53,130.66,1291.86,0,1294v22.36c136.45-2.44,255.91-77.16,385.53-109.9,128-32.34,245.7,6.11,366.33,48.59,114.82,40.43,227.51,77.37,350.35,55.14,106.52-19.28,205.79-65.84,311.83-87.09,113.1-22.66,215.76,3.54,322.11,42.46,106.57,39,220.87,94.63,337.22,87.07,112.76-7.32,216.07-63.78,320.89-100.67,100.92-35.53,200.27-47.4,301.58-7.1,47.3,18.81,91.55,44.56,139.51,61.81,59.33,21.35,121.78,27,183.85,15.23,161.27-30.5,303.14-139.46,469.93-144.25,171.93,4.94,319.46,116.31,486.51,145.12,61.77,10.66,123.33,4.41,182.06-17.18,46.18-17,89-41.63,134.59-60,102.77-41.37,203.08-29.09,305.48,7.08,104.26,36.82,207.45,93.28,319.76,100,114.05,6.87,225.83-46.48,330.31-85,107.8-39.7,212.05-67.73,327-44.88,107.52,21.39,208.08,69,316.21,87.88,120.21,21,230.88-14.76,343.26-54.36,122.33-43.1,241.55-82.73,371.42-49.64,129.12,32.91,248.3,107.17,384.31,109.59V1294c-130.25-2.12-241.79-75-364.93-107.15C6495.73,1153.07,6372.26,1194.47,6249.62,1235.1Z"/><path class="cls-5" d="M6279.51,1176.82c-121.49,35.76-241.73,71.13-369.35,51.69-106.07-16.16-206.95-55.54-312.68-73.37-52-8.77-104.34-11.54-156.68-3.83-62.67,9.23-123.7,28.42-183.8,47.89-65.87,21.34-131.21,44.58-198.05,62.8-54.8,14.93-112.69,28.31-169.87,24.22-114.91-8.22-218.43-73.16-323.18-115-99.45-39.7-198.24-52.81-300-13.61-45.44,17.52-88,41.77-134.06,57.77-58.29,20.25-120.6,25.86-181.25,13.51-157.5-32.06-291.92-147.73-455.85-152.57h0c-163.84,4.81-297.86,120.55-455.24,152.56-60.69,12.35-123.06,6.75-181.4-13.51-46.07-16-88.62-40.25-134.06-57.77-101.73-39.2-200.52-26.09-300,13.61-104.75,41.81-208.27,106.75-323.18,115-57.18,4.09-115.07-9.29-169.87-24.22-66.84-18.22-132.18-41.46-198-62.8-60.1-19.47-121.13-38.66-183.8-47.89-52.34-7.71-104.64-4.94-156.68,3.83-105.73,17.83-206.61,57.21-312.68,73.37C952.22,1248,832,1212.58,710.49,1176.82c-121.9-35.89-251.34-79.16-378.44-44.77-113.7,30.76-210.71,101.08-332,103.18v22.36c123.65-2,225.09-73.27,341.32-104.34,127.05-34,254.34,8.41,375.8,45.46,120.34,36.7,239.49,72.26,366.32,52.43,106.18-16.6,206.71-57.59,312.52-75.94,117.89-20.45,226,6.94,337.79,44,64.41,21.36,128.27,44.66,193.71,62.8,54.49,15.11,112.14,28.37,169.06,24.15,114.48-8.48,217.92-71.51,322.77-112.43,99.72-38.91,198.48-52.23,300.17-12.8,45.8,17.76,88.68,42.32,135.12,58.56,58.46,20.44,120.68,25.92,181.54,13.62,158-31.91,293.54-146,457.75-151.14,166.66,5.24,304.18,122.06,465.18,152.07,60.38,11.25,121.66,5,179.34-15.58,44.71-16,86.19-39.49,130.34-56.82,103.16-40.48,202.85-26.71,304,12.91,104.25,40.82,207.63,103.89,321.63,111.72,120.44,8.28,243.43-47.57,355.23-84.85,113.42-37.82,223.42-67,343.27-46.38,107.29,18.47,209.15,60.39,316.91,76.62,124.15,18.7,241.08-15.7,358.89-51.65,123.15-37.58,252.25-81.23,381.1-46.45,115.78,31.26,216.94,102.1,340.22,104v-22.36c-121.34-2.1-218.35-72.42-332.05-103.18C6530.85,1097.66,6401.41,1140.93,6279.51,1176.82Z"/><path class="cls-6" d="M6274.88,1120.67c-116.36,37-231.83,71.07-354.94,52.25-108.46-16.59-210.64-60-318.6-78.93-119.64-21-230.56,9-344,46-62.53,20.42-124.63,42.42-188.13,59.72-54.29,14.78-111.75,28.31-168.41,24.32-115.12-8.12-220.89-70.53-326.75-110.79-52-19.78-106.8-37.52-162.92-39.23-48.72-1.5-97.19,9.29-142.64,26.18-45.27,16.81-88.19,39.39-133.95,55-58.31,19.83-119.28,26.52-180.09,15.2-159.54-29.71-295.67-143-460.71-149.23h0c-162.56,6.07-296.6,116.78-453.09,148.31-61.32,12.35-123.13,6.4-182.24-13.28-47.5-15.82-91.88-39.4-138.82-56.64-44.22-16.24-91-26.42-138.26-25.49-56.21,1.1-111.26,18.67-163.37,38.42-106.5,40.37-212.31,102.67-327.93,111.49-56.72,4.32-114.49-9.24-168.83-24.07-65.92-18-130.35-41-195.31-62-111.75-36.29-220.73-64.48-338.42-43.68-106.48,18.82-207.33,61.26-314.21,78.24-125.76,20-243.39-15.23-362.24-53-120.5-38.33-245.49-79.54-372-45.92-115.6,30.72-216.14,100.63-339,103v22.36c121.19-2.36,218.06-72.15,331.66-102.84,127.14-34.34,255.87,8.4,377.64,44.81,121,36.2,241,71.41,368.28,52,106.31-16.24,207.26-56.24,313.22-74.18,118.67-20.1,227.64,7.82,340.41,44.12,66,21.25,131.51,44.37,198.47,62.54,54.64,14.83,112.56,28.43,169.57,24.24,115.14-8.45,219.46-73,324.68-114.62,51.76-20.45,106.43-38.22,162.57-39.21,47.05-.82,93.42,9.06,137.27,25.66,45.84,17.35,88.94,41.24,135.37,57.13,58.6,20,120.62,25.85,181.53,13.43,157-32,290.64-146.29,454.06-151.77,163.53,5.5,297.59,119.69,454.76,151.77,60.86,12.42,122.82,6.61,181.37-13.43,46.43-15.89,89.53-39.78,135.37-57.13,43.85-16.6,90.22-26.48,137.27-25.66,56.14,1,110.81,18.76,162.57,39.21,105.22,41.57,209.54,106.17,324.68,114.62,57,4.19,114.93-9.41,169.57-24.24,67-18.17,132.46-41.29,198.47-62.54,112.77-36.3,221.74-64.22,340.41-44.12,106,17.94,206.91,57.94,313.22,74.18,127.33,19.44,247.24-15.77,368.28-52,121.77-36.41,250.5-79.15,377.64-44.81,113.6,30.69,210.47,100.48,331.66,102.84v-22.36c-122.52-2.37-222.77-71.82-337.94-102.72C6523.75,1039.32,6397,1081.79,6274.88,1120.67Z"/><path class="cls-7" d="M6441,1007.64c-60.43,11.84-117.59,35.83-174.29,59.13-106.23,43.64-209.57,77.94-325.46,56-110.73-21-212.76-72.71-322.81-96.27-115.57-24.73-223.34,4.77-332.84,41.87-107.39,36.39-223,88.2-338.78,81.39-118.18-7-229.93-61.45-341.31-96.71-54.35-17.2-110.85-32.72-168.2-34.13-50.92-1.25-101.42,9.44-149.57,25.24-111.13,36.46-212.78,88-333.48,68.21-159.9-26.17-301-127.67-465.28-132.8h0c-159.14,5-294.33,104.31-448.5,132-123.1,22.1-226.8-31.23-340.22-68-46.8-15.2-95.59-25.32-145-24.57-57.42.87-114.13,16.24-168.55,33.42-112,35.33-223.89,89.76-342.59,97.32-118.12,7.52-236.41-46.52-345.94-83.41-108-36.38-214-64.06-327.76-39.53-108.55,23.4-209.28,74.1-318.38,95.41-118.55,23.16-223.52-12.19-332.17-56.8-55-22.59-110.5-45.63-169.06-57.36-59.48-11.91-118.83-8.54-177.53,5.89C247.33,1044.82,132.32,1115.12,0,1117.69v22.36c128.05-2.49,237-72.63,358.29-103.46,124.93-31.76,240.57,6,357.65,49,113.11,41.57,223.87,77,345.47,55.25,108.15-19.37,208.92-66.67,316.59-88,115.43-22.89,223,5.18,332.53,41.5,111.45,36.94,233.87,93.09,353.9,84.56,117.27-8.34,226.58-66,336.21-103.49,53.37-18.25,109.36-34.68,166.18-35.71,48.4-.87,96.28,9.39,141.89,25,49.54,16.94,96.83,39.91,146.86,55.5,60.29,18.79,122.66,25.13,185,13.29C3195.74,1104,3330.5,1000,3491.1,994.31c164.53,5.88,303.59,112.16,463.29,140,118.84,20.73,216.48-31.47,325-69,46.9-16.22,96.5-27.07,146.38-25.66,56.74,1.61,112.48,18.18,165.78,36.47,109,37.4,218.22,95.17,335,102.83,117.72,7.73,237.23-46.07,346.56-82.52,111.12-37,220.51-66.93,337.8-43.85,109.17,21.49,211.25,69.78,321,88.81,118.94,20.62,227.88-13.76,338.52-54.45,118.7-43.65,235.77-82.6,362.51-50.09,120.86,31,229.48,100.7,357.14,103.17v-22.36c-131.9-2.55-246.61-72.41-372.05-103.52C6559.52,999.68,6500.31,996,6441,1007.64Z"/><path class="cls-8" d="M6396.64,949c-50.59,12.81-95.92,39.43-140.65,65.41-41.77,24.26-84.14,48.51-131.06,61.34-51.67,14.13-104.13,11.28-155.89-.94C5855.48,1048,5753.62,986.67,5641,956.91c-110.7-29.25-213.06-1.66-318.14,35.79-101.66,36.24-205.88,82.12-316,78.14-122.73-4.43-241.59-49.83-359.79-78.84-57.38-14.09-116.14-26.53-175.47-27.1-54.15-.53-107.29,9.25-159.23,24-119.17,33.79-231.65,82.67-358.49,66.1-160.68-21-307.3-109.31-471.16-111.64h-.12c-155.54,2.25-292.13,89.3-444,111.19-129.06,18.6-244.19-33.15-365.49-66.92-50.64-14.09-102.48-23.32-155.19-22.67-59.78.74-118.91,13.18-176.73,27.47-117.1,28.92-234.69,73.26-356.23,78.36-110.81,4.64-215.82-41.72-318.09-78.16-105.9-37.73-208.84-65.16-320.27-35.06s-212.33,90.22-324.7,117c-52.15,12.4-104.87,15.39-157,1.21-47.22-12.85-89.89-37.5-131.89-61.91-43.51-25.29-87.59-51-136.61-64-61-16.22-124.23-8.6-184.85,5.53C274.05,987.34,143.36,1056.1,0,1058.92v22.36C138.37,1078.57,262.71,1010,395,978c60.75-14.67,123.26-20.75,184.6-6,52.66,12.67,101.19,37.41,149.24,61.69,46.37,23.44,93.34,47.19,144.09,59.64,53,13,106.6,11.05,159.69-.62,111.29-24.47,212.34-81.07,322.7-108.73,113.28-28.4,218.36-.1,325.9,37.45,104.46,36.48,213.86,85.19,326.85,79.39,119.76-6.15,234.65-53.85,349.18-85.17,56.67-15.5,114.9-29.14,173.9-30.2,51.51-.94,102.37,8.64,151.62,23.12,118.33,34.79,229.27,87.55,356,67.7,153-24,289.19-116,446.31-119.28,164,3.4,308.57,96.79,468.95,119.78,124.38,17.82,232.83-32.14,348.88-66.91,50.51-15.13,102.58-25.23,155.5-24.46,58.54.85,116.46,14.53,172.67,29.8,115.6,31.42,231.77,80.29,352.69,85.71,112.33,5,220.85-43.09,324.75-79.39,106.74-37.28,211.24-65.71,323.79-38.13,111.64,27.35,213.57,85,326,109.56,52.7,11.5,106,13.33,158.6.37,50.42-12.42,97.05-35.81,143.16-59.09,49.4-24.95,99.27-50.49,153.56-63,59-13.6,119-7.82,177.4,5.85,133.87,31.31,259.11,101.43,398.92,104.15v-22.36c-144.85-2.83-276.51-73.09-415.68-104.54C6515.92,941.18,6455.42,934.08,6396.64,949Z"/><path class="cls-9" d="M6359,889.71c-42.84,13.4-77.29,41.81-111,70.29-31.35,26.49-63.31,52.87-102.46,66.91-50.59,18.14-104,12.21-154.83-2.08-115.58-32.55-216.8-101.8-331.54-136.69-104-31.63-200.29-7.53-299.36,29.37-97.73,36.39-193.8,79.09-300.14,77.07-126.49-2.4-250.94-39.23-374.49-62.71-118.51-22.53-230.39-28.64-348.23.52-128,31.67-250.52,79-384.82,64.69-160.85-17.17-311.66-92.51-474.84-93.06h-.16c-152,.55-289.55,75.32-438.84,92.85-134.6,15.81-258.85-33.31-387.07-64.94-116.92-28.83-228.28-22.49-345.82-.18-122.9,23.33-246.56,59.77-372.33,62.79-105.68,2.55-201.14-38.89-298.21-75.27-102-38.24-200.57-63.49-307.68-30-113.65,35.54-214.35,104.09-329.32,135.92-49.79,13.78-101.83,19.56-151.54,2.42-39.7-13.69-72.2-40.4-103.8-67.15C709.78,932.74,676.31,904.92,635,891c-59.47-20-125.89-8.31-185.61,4.61C299.82,928,154.82,997.1,0,1000.16v22.35c150.94-3,291.09-72,436.59-104.22,60.11-13.32,125.22-23.58,185.29-4.88,43.81,13.63,81,40.73,117.49,67.61,35.23,25.92,71.27,51.92,113.42,65.35,50.56,16.12,102.53,11.32,153.15-2,114-30.13,214.9-95.72,327.73-129.42,108.6-32.44,208.49-6.48,311.86,31.59,98.85,36.41,197.52,79.45,304.94,76.27,124.33-3.67,245.9-42.82,366.86-68.08,116-24.23,225.7-31.11,341.31-1.43,125.89,32.31,247.05,82.37,379.76,65.66,150.2-18.91,287.41-98.15,440.65-99,163.26.91,312.56,80.78,473.18,99.26,132.3,15.23,251.88-33,377.39-65.42,116.44-30.11,226.75-23.35,343.66,1.1,121.56,25.42,244,65.12,369,68,108.2,2.49,207.39-41.67,307-78.1,100.42-36.72,197.91-61.52,303.41-30.9,113.89,33.07,215.28,99.33,330,130.14,51.67,13.88,105,18.77,156.54,1.72,41.6-13.77,77.09-39.45,112-65.12,37.53-27.57,75.74-55.26,121.07-68.41,57.95-16.82,120.34-7.06,178.14,5.53,146.6,32,287.57,101.87,439.53,104.84v-22.35c-155.86-3.06-301.71-73.08-452.39-105.15C6480.1,882.77,6416.51,871.73,6359,889.71Z"/><path class="cls-10" d="M6340.45,830.41c-40,13.36-68.62,42.73-96.38,73.05-25.69,28.06-52.17,55.47-88.37,69.56-49.48,19.26-105.16,12.51-154.88-2.15-117.18-34.54-217.72-109.3-333.92-146.44C5459,758,5286.06,934,5081.3,928.35c-128.55-3.55-255.66-34.85-382.14-55.35-62.37-10.11-125.63-19.61-188.95-19.76-55.21-.14-109.74,9.29-163.36,21.77-131,30.47-258,77-394.64,63.09-161-16.45-314.23-82.61-477.12-84.87h-.18c-150.64,2.14-289.45,68.51-437.94,84.83-135.29,14.87-262.8-32.29-392.44-62.73C2590.24,862.59,2534.9,853,2479,853.24c-62,.31-123.91,9.44-185,19.26-126.42,20.32-253.15,51.33-381.54,55.73-103.38,3.55-195.85-37.13-290.27-73.66-100-38.69-198.89-63.31-303.92-28.56-115.33,38.17-215.65,112.74-332.83,146-48.74,13.83-103,19.8-151.32.94-36.66-14.33-63.32-42.32-89.32-70.76-27.21-29.75-55.43-58.21-94.54-71.47-57.63-19.55-124.3-6.66-182.12,5.4C312.77,868.52,160.31,938.31,0,941.39v22.36c159-3.14,309.6-72.38,463.54-104.86,59.25-12.5,127.51-25.8,186.3-4.52,38.8,14,67.8,42.69,96,71.62,27.18,27.87,55.41,55.4,92.63,69.23,48.8,18.14,101.94,11.51,150.85-2.62,116.16-33.55,216.48-106,331.16-143.55,105.21-34.42,203.21-9.73,303.4,28.73,94.81,36.4,187.23,76.67,290.82,74.07,127.44-3.21,253.3-35.8,378.5-56.83,61-10.26,122.78-19.35,184.8-19.67,55.85-.28,110.82,8.58,165.06,21.33,130.81,30.74,258.57,79,395.22,63.84,148.29-16.45,286.41-85,437-86.08,163.05,1.14,315.72,70.06,476.81,86.27,136.34,13.72,262.41-32.81,393-63.59,53.7-12.66,108.09-21.75,163.39-21.79,63.4-.06,126.56,9.29,188.94,19.79,125.86,21.18,252.49,54.1,380.64,56.77,205.34,4.27,379.45-170.28,587.82-104,115.82,36.81,216.64,110,333.4,144.35,49.84,14.65,104.44,21.5,154,2.28,36.64-14.2,64.34-41.4,91.31-69,29.08-29.75,59-58.94,99.37-72.46,57-19.07,122.2-6.64,179.36,5.24,155.1,32.2,306.58,102.35,466.64,105.48V941.39c-160.85-3-313.81-73.34-469.74-105.59C6463.11,824,6397.45,811.36,6340.45,830.41Z"/><path class="cls-11" d="M6364.91,766.11c-44.13,13.95-79.71,43.75-114.45,73.13-32.37,27.36-65.39,55-105.77,69.64-50.51,18.33-104.29,12.17-155-2-115.46-32.32-216.71-101.15-331.33-135.79-102.27-30.91-198-8.24-295.73,27.32-95.3,34.67-189.54,75.33-292.95,72.86-128.48-3.06-255.38-37.18-381.41-59.18-62.29-10.87-125.39-20.66-188.77-20.77-54.71-.1-108.37,9.12-161.3,22.39-128.3,32.18-251.18,80.45-386,65.85-160.88-17.43-311.3-94.49-474.6-94.87h-.16c-152.32.39-289.59,76.84-439.08,94.66-135.11,16.1-259.73-34-388.27-66.1-53.49-13.37-107.74-22.32-163-21.89-62,.48-123.7,10-184.66,20.62-125.4,21.86-251.5,55.55-379.29,59.25-102.8,3-196.49-36.49-291.19-71.17-100.66-36.85-198.58-60.56-303.86-27.83-113.53,35.29-214.25,103.42-329.09,135-49.73,13.68-102.11,19.7-151.73,2.39-40.93-14.28-74.51-42.26-107.11-69.88-33.8-28.64-68.39-57.8-111-72.3-59.21-20.15-126-8.65-185.33,5-147.76,34-290,108.27-443.82,110.18V905c157.22-2,304.57-74.22,456.22-107.35,59.1-12.91,127.1-25.5,185.86-4.64,40.22,14.29,71.35,43.38,101.69,72.26C773,893.09,803.29,921,841.9,935.09c48.92,17.84,101.69,11.15,150.69-2.8C1108.24,899.37,1208.76,828.6,1323,791.84c105.11-33.82,203-9.56,303.3,28.18,94.32,35.48,187.28,75.53,290.08,72.62,127.82-3.62,254.07-36.09,379.68-57.19,61-10.26,122.77-19.46,184.78-19.94,55.67-.43,110.43,8.48,164.43,21.47,130.12,31.31,256.75,80.22,393,64.86,148.75-16.77,286.48-88.72,437.77-89.15,163.2.44,315,72.89,476.07,89.35,136,13.89,260.9-33.24,390.79-64.6,53.45-12.91,107.63-22.06,162.77-22,63.38.11,126.52,9.58,188.89,20.08,126.25,21.24,253.29,54.11,381.8,57.13,103.39,2.42,196.91-38.89,291.81-74.36,97.42-36.4,193.09-59.61,295.19-27.67,115.36,36.08,216.4,107.57,332.65,141.23,50,14.47,104.17,21.36,153.92,2.46,38.05-14.45,67.79-42,96.82-69.6,31.22-29.66,63.29-59.35,105.06-73.09,56.91-18.71,121.92-6.9,178.9,5.34,152.8,32.82,301,106,459.28,108V882.62c-154.9-1.89-297.91-77.18-446.8-110.83C6486.06,758.87,6422.14,748,6364.91,766.11Z"/><path class="cls-12" d="M6411.55,695.4c-53.74,14.93-101.47,45-148.54,74-44,27-88.63,54.57-138.47,69.39-51.9,15.44-104.79,12.53-157.07.32-113.4-26.48-215.26-87.23-327.75-116.63-104.67-27.36-203.34-5.4-303.75,28-95.52,31.76-190.95,68.77-293.31,65.48-128.88-4.15-255.68-42.6-381.54-67.21C4601,737,4539.79,726,4478.37,725.47c-54.79-.5-108.4,9.82-160.84,25.06-120.49,35-235,86.67-363.62,69.21-160.81-21.84-306.6-113.32-470.83-115.82H3483c-156.15,2.41-292.11,92.57-444.33,115.35-130.82,19.58-248.13-35.06-370.76-70.06-51.11-14.59-103.41-24.34-156.72-23.71-61.91.74-123.51,11.63-184.1,23.55-124.71,24.53-250.19,62-377.86,66.79-103.09,3.83-199.23-33.52-295.4-65.49-101.21-33.64-200.53-55.44-305.9-27.27-111.19,29.72-212.2,89.34-324.41,115.74-52.67,12.39-105.82,15.44-158.16-.05-50.16-14.84-95.16-42.83-139.36-70-45.8-28.19-92.26-57.32-144.34-72.44-60.81-17.66-123.89-10-184,6.8C264.43,740.4,141.48,821,0,823.85v22.36c146.55-2.35,277.59-80.46,416.82-116.36,59.89-15.44,124.27-24.63,184.5-6,48,14.85,89.68,44,130.59,72.38,39.47,27.34,79.81,55.34,126.06,70,51.23,16.21,103.8,11.94,155.26-1,113.27-28.58,214.21-91.65,326.34-123.69,105.38-30.1,204-7.5,305.06,27.45,95.56,33.07,190.71,71.29,293.65,67.87,127.71-4.25,253.45-40.23,378.45-63.66,60.75-11.39,122.38-21.7,184.34-22.31,54.15-.53,107.25,8.85,159.4,22.93,125.09,33.79,245.44,86.57,378,68.47,151.12-20.62,287.62-105.38,442.21-106.73,163.56,1.38,311.11,86.84,471.63,107,132.11,16.57,250.81-34.31,375.48-68.23,51.57-14,104-23.55,157.65-23.46,63.3.09,126.4,10.82,188.44,22.46,125.62,23.58,252.17,60,380.58,63.61,103.57,2.89,199.27-36.44,295.46-69.5,98.22-33.77,194.45-55.24,296.9-26.92,113.21,31.31,214.65,95.14,328.55,124.38,52.59,13.5,106.54,17.8,158.79.65,45.68-15,85.45-42.63,124.63-69.73,42-29,84.72-58.9,134.33-73.22,58-16.74,119.72-7.9,177.22,6.66,140.34,35.55,272.1,114.71,419.64,117.05V823.85C6847,821,6723.31,738.63,6588.4,702,6530.54,686.35,6470.11,679.11,6411.55,695.4Z"/><path class="cls-13" d="M6278.73,696.78c-56.3,26.71-113.23,54.27-173.91,69.55-54.7,13.77-109.76,13.58-165,3.26-110.57-20.65-212.61-71.88-322.53-95.11-104.72-22.13-205.1-2.57-306.06,27.42C5214,730.76,5116,765.38,5013.16,761c-128.78-5.51-254.86-48.12-379.94-75.68-59.65-13.15-120.81-25.72-182.11-26.58-52.43-.73-103.78,10.58-153.22,27.27-113.61,38.34-219.75,94.79-343.6,73.47-160.19-27.57-300-133.58-465-139.16h-.06c-160,5.41-294.18,109.16-448.81,138.31C2914.19,782.41,2805.92,724,2690,685.27c-48-16-97.73-26.9-148.54-26.54-61.31.44-122.55,12.9-182.2,26-125.69,27.62-252.12,70.22-381.46,76.17-105,4.83-205-31.3-304.19-60.56-99.72-29.4-198.78-47.62-302-25.64C1263.16,697.79,1162.42,748,1053.47,769c-57.27,11-114.67,11.42-171.31-3.38-60.89-15.91-118-43.72-174.61-70.58-114.28-54.2-230.08-106.79-357-64.06C231,671.18,130.67,760.93,0,765.08v22.36c135.17-3.71,244.64-90.9,370-129.69,58.26-18,117.15-22.4,176.57-7.13,59,15.15,113.41,44,167.16,71.87,52,27,104.52,54.82,161.27,70.52,55.61,15.39,112.11,14.07,168.27,2.25,110-23.15,210.67-76.86,320-102.19,103.21-23.91,201.68-4.84,301.21,25.79,98.6,30.36,197.56,67.4,302.4,63,129.37-5.45,256.08-46.48,382.06-73,59.83-12.59,121.07-24.41,182.43-24.79,51.65-.32,102.22,10.24,151.28,25.74,118.26,37.38,229.93,94.2,357.67,71.78,153.53-26.94,288.26-125.4,446.67-129.71,164.65,4.47,306.77,105,467.17,130.5,125.52,19.93,234.89-34.8,351-71.87,50.55-16.14,102.74-27.11,156-26.46,61.35.75,122.53,12.72,182.35,25.35,125.38,26.46,251.72,67.51,380.54,72.53,102.66,4,199.71-31.51,296.27-61.45,100.73-31.23,200.53-51.72,305.21-27.64,110.87,25.5,212.85,80.33,324.47,103.12,54.25,11.07,108.4,12.11,162.14-2.2,56.59-15.06,109-42.65,160.73-69.49,55.37-28.73,111.42-58.76,172.31-74.08,59.26-14.91,118.06-10.14,176,8,124.81,39,234,125.63,368.78,129.32V765.08c-130.26-4.13-230.42-93.32-349.41-133.75C6511.83,587.58,6394.55,641.82,6278.73,696.78Z"/><path class="cls-14" d="M6290.34,627.75c-120.85,48.4-239.07,94.71-371.21,74.66C5810.77,686,5708.58,643,5600.71,624.2c-105.11-18.29-206.06-.85-307.85,26.59-98.41,26.53-198.37,59.23-301.59,54.34-128.76-6.1-254.3-52.34-378.72-82.2-59.31-14.24-120.4-27.95-181.67-28.91-50.91-.8-100.56,10.81-147.92,28.81-108.68,41.3-207.37,100.8-328.47,77.09C3794.5,668.59,3660,549.67,3494,543.09h0c-163.64,6.46-296.29,122.62-453.27,155.86-123.87,26.23-224.32-35-335.62-76.88-46-17.28-94.06-28.44-143.39-28-61.27.5-122.45,14.1-181.76,28.3-125,29.93-250.91,76.15-380.22,82.72-105.38,5.36-207.4-28.8-307.85-55.69s-200.11-43.14-303.71-25c-106.39,18.65-207.25,60.7-314,77.53-59.17,9.33-117.74,8.58-176.16-5.22C828.22,680.22,761.55,652.52,695.24,626,577.1,578.69,437.9,511.86,310.67,563.06,202.41,606.62,123.25,701.91,0,706.31v22.36c125.19-4.51,211.55-98,323.21-140.38C450.71,539.94,581.72,602,699,651.49c63.2,26.67,126.79,54.41,193.65,70.67,57.93,14.08,116.39,14.67,175.05,4.79C1175.22,708.84,1276,664,1383.08,644c103.4-19.31,203-2.39,303.17,25.3s201.42,62.48,306.7,57.18c235.87-11.86,471.81-165.89,707.37-80.67,112.73,40.79,215.82,101.24,340.32,75.66,156.22-32.1,289.44-143.87,451.88-150.36,165.6,6.64,301.94,121,461.93,151.3,121.8,23.08,223-35.57,333.2-75.86,237-86.64,473,68.88,710.35,80,103.13,4.84,202.45-28.49,300.48-55.79,101.43-28.25,202.37-46.41,307.28-27,108.54,20.12,210.65,66,319.75,83.67,129.41,20.92,243.86-24.65,361.27-74.22,118.87-50.19,251.81-114.06,381.05-64.57,111.17,42.57,197.36,135.49,322.17,140V706.31c-122.89-4.38-201.89-99-309.66-142.84C6551.41,511.06,6410,579.82,6290.34,627.75Z"/><path class="cls-15" d="M6290.43,567.11c-68.13,26.25-136.71,53.7-208.11,69.82-56.45,12.74-111.87,13.16-169,4.76-108-15.88-210.69-56-318.28-74-105.44-17.64-205.76-1-308,26.09C5188.28,620,5088.27,652,4984.8,647.54c-235.36-10.07-469.28-175.59-704.35-84.22-108,42-205.06,101.77-326,77.89-160.06-31.61-293.4-153.74-459.79-159.75h0c-164.36,5.92-296.6,125.12-454,158.77-62.69,13.41-125.76,5.95-185.87-15.09-50.41-17.65-97.41-43.44-147.21-62.58-233.77-89.87-467.47,74.14-701.43,84.9-105.64,4.86-207.68-28.5-308.55-55.08s-199.9-42-303.83-24.5c-106.11,17.88-207.44,57.1-313.9,73.33-59.21,9-117.07,8.63-175.56-5C832.53,619.44,763.58,591.76,695,565.33c-118.7-45.72-263.1-115.66-390.23-63C197.83,546.54,122.94,643.74,0,647.54V669.9c62.11-1.75,114.63-25.34,165.18-60,43.61-29.94,84.86-64.39,134-85.19,128.63-54.47,277.62,18.67,398,64.38,68.77,26.13,138,53.49,209.91,69.71,56.44,12.73,111.52,13,168.61,4.67,107.58-15.78,210-55.17,317.17-73,105.59-17.57,205.85-.9,308.34,25.79,98.71,25.7,199.27,57.75,302.49,53.28,128.77-5.59,254.24-53.44,378.37-84,111.58-27.48,219.37-43.43,328.91-.2,47.56,18.77,92.45,43.74,140.57,61.16,59.17,21.4,122,29.56,184.11,17.42,160.22-31.32,292.58-156.56,459.38-161.3,0-3.67,0-6.54,0-9.18,0,2.64,0,5.51,0,9.18,166.79,4.74,299.18,130,459.4,161.3,62.14,12.15,124.92,4,184.09-17.42,48.12-17.42,93-42.39,140.57-61.16C4388.6,542,4496.39,558,4608,585.47c124.13,30.57,249.6,78.42,378.37,84,103.22,4.47,203.78-27.58,302.49-53.28,102.49-26.69,202.75-43.36,308.34-25.79,107.17,17.84,209.59,57.23,317.17,73,57.09,8.37,112.17,8.06,168.61-4.67,71.94-16.22,141.14-43.58,209.91-69.71,120.35-45.71,269.34-118.85,398-64.38,49.13,20.8,90.38,55.25,134,85.19,50.56,34.71,103.07,58.3,165.18,60V647.54c-122.59-3.78-197.33-100.33-303.72-144.84C6557.47,448.83,6410.71,520.77,6290.43,567.11Z"/><path class="cls-16" d="M6262.06,513.24c-63.53,26.72-127.6,54.56-194.88,70.54-55.9,13.27-111.28,13.37-167.86,4.35-110.79-17.66-215.46-61.27-325.78-81.11-105.23-18.93-204.28-1.74-305.6,28.23C5170.87,564,5073.3,598,4970.61,593.53c-120.95-5.25-236.75-53.06-352.49-84-56.68-15.17-115.09-28.52-174-29.21-51.94-.61-102.62,10.72-151.4,27.86-111.84,39.3-215.55,96.91-338.3,74.65-160.07-29-298.17-139.1-463.41-145.34h0C3329.69,443.53,3196,551.21,3040.56,581.9c-125.32,24.75-231-34.73-345.31-74.48-47.33-16.46-96.43-27.37-146.74-27.11-59,.3-117.59,13.43-174.37,28.57-116.27,31-232.38,78.94-353.8,84.57-104.86,4.87-204.35-30.63-303.46-59.73-100-29.37-197.87-45.3-301.6-26.51-108.82,19.72-212.13,62.43-321.33,80.39-58.66,9.65-116.43,9.68-174.36-4.56-67.59-16.63-132-44.7-195.92-71.6-119.8-50.37-249.32-111.38-379.58-64.28C226.67,489.62,130.05,584.67,0,588.78v22.35c126.09-4.1,213.27-100.2,325.4-143.34,128.91-49.59,264.86,15.4,384.26,63.63,66.12,26.7,132.6,54.61,202.14,71.25C970,616.61,1028,616.89,1087,607.54c108-17.12,210.33-58.32,317.92-77.14,103.74-18.15,202.26-2.5,302.62,25.59,100.08,28,200.65,62.34,306,57.5,124.78-5.74,244.81-53.66,364.65-84.57,58.07-15,117.94-28.3,178.2-28.58,49.75-.23,98.17,10.76,144.73,27.71,112.48,41,215.15,101.55,339.53,75.85,156.35-32.31,289.48-144.76,452.12-151.29,165.65,6.68,301.71,121.72,461.69,152.23,121.67,23.21,222.49-35.6,332.4-76,48-17.65,98-29.12,149.34-28.48,60.22.76,119.92,14.2,177.95,29.21,119.28,30.88,239,78.69,363.26,84,103.2,4.44,201.82-28.48,299.83-56.11,101.67-28.66,201.44-45.53,306.69-27.25,109.08,18.95,212.8,61.11,322.33,77.84,56.88,8.68,112.44,8.36,168.64-4.64,69.2-16,135.36-43.67,201-70.2,121-48.91,259.06-115.77,389.73-65C6777.28,511.56,6864.3,607.05,6990,611.13V588.78c-129.64-4.08-226.08-98.55-343-141.22C6514.92,399.35,6383.5,462.16,6262.06,513.24Z"/><path class="cls-17" d="M6403.88,386.05c-65.74,16.31-127.13,47.16-187.87,76.35C6159.25,489.68,6101.86,518,6040.68,534c-54.86,14.34-109.13,13.16-164.66,3.24-114.82-20.51-222.48-68.78-336.76-91.54-105.5-21-201.68-3-302.14,31.32-93.6,31.93-188.07,70-288.83,65.44-110.24-5-213.39-52.77-317.66-84-52.14-15.63-105.79-28.33-160.48-29.21-54-.88-107.11,10.09-158.51,25.72-118.41,36-230.52,89.12-357.61,70.48C3793.42,501.87,3649.36,406.05,3485,402.61h-.1c-157.45,3.33-293,97.75-446.09,122.32-129.46,20.77-244.23-35.32-364.9-71.33-50.13-15-101.92-25.25-154.45-24.32-55.06,1-109.06,13.76-161.54,29.6-103.24,31.17-205.27,77.88-314.37,83.51-101.41,5.24-196.71-33.32-290.86-65.43-101.2-34.51-198.14-52.47-304.35-30.75-113,23.11-219.71,70.4-333.34,90.85-55.81,10-110.61,11.53-165.77-3-61.6-16.26-119.36-44.81-176.56-72.28C713.44,433.32,653.69,403.44,589.8,387c-64.33-16.58-127.13-11-190.14,8.59C266.14,437.07,143.44,526.36,0,530v22.36c139-3.9,252.27-96.95,380.64-138.25,60-19.31,119.16-22.93,180.61-8,66.2,16.1,128.55,45.53,190.3,73.62C811.4,507,871.68,535.38,935.55,552c57.27,14.91,114.39,14.09,172.39,3.87,111.6-19.66,216.71-65.11,327.88-86.61,103.84-20.08,200.12-3.63,299.65,28.25,97,31.09,194.55,69.08,298.23,64.14,114.93-5.48,223.4-53.4,332.74-84.58,54.12-15.43,109.9-28.18,166.44-28.57,51.51-.36,102,10.29,150.88,25.87,117.9,37.57,229.07,94.64,356.57,72,153.7-27.28,288.35-126.53,447-131,164.7,4.65,306.47,106,466.85,131.83,125.25,20.14,234.14-34.86,349.89-72.12,50.37-16.22,102.48-27.29,155.64-26.59,56.38.74,112,13.78,166,29.21,108.84,31.14,217.06,79,331.54,84,101.56,4.5,197.24-31.91,292.26-62.59,100.75-32.52,198.18-50.32,303.51-30.09,112.7,21.65,219.18,68,332.4,87.4,56,9.57,110.69,10.19,166-3.7,63.59-16,123.65-44.13,183.1-71.19,63.63-29,127.87-59.6,196.17-75.9,61.24-14.61,120.29-10.52,179.93,8.83C6738.4,456,6851.44,548.5,6990,552.37V530c-145-3.67-268.33-94.85-403.64-135.62C6525.85,376.16,6465.68,370.72,6403.88,386.05Z"/><path class="cls-18" d="M6339,333.57c-59.31,15.92-113.41,47.08-166.66,76.77C6122.4,438.18,6072,466.82,6017,483.43c-55.22,16.68-110.54,13.69-166.53,2.41-118.3-23.84-228.66-76.08-346.5-101.71-51.05-11.11-102.3-15.83-154.15-7.77C5302,383.79,5256,399.63,5211,417.05c-91.3,35.33-183.76,79-284.09,74.34-99.66-4.61-189.43-51.63-282.09-83.44-49-16.83-99.61-29.27-151.66-29.84-54.06-.59-107.5,9.29-159.64,22.84-126.71,32.94-247.68,82.38-381.32,66.93-160.72-18.57-309.85-99.52-473.26-100.24h-.14c-153.33.71-290.23,81-440.44,100-134,17-256.71-34.29-383.71-67.18-52.61-13.63-106.62-23.32-161.16-22.29-50.76,1-100.12,13.2-147.92,29.6-92,31.57-181.12,78.15-280,83.51C1966,496.7,1873.87,454,1783.3,418.73c-46.94-18.29-94.89-35.16-144.9-42.68-52.49-7.91-104.52-2.6-156.07,8.93-116.87,26.15-226.57,77.84-344.17,101.14-54.74,10.85-108.55,13.8-162.63-1.9-55.61-16.15-106.64-45.34-156.93-73.36-52.08-29-104.81-59.43-162.52-75.88-65.43-18.66-131.77-9.57-196.62,7.35C307.05,382.08,160.18,468.05,0,471.24V493.6c154.11-3.33,292.47-90.53,438.12-130.89,64.26-17.81,129.26-25.67,194.36-7.77,59.9,16.47,115.16,46.69,169.81,75.48,52.8,27.82,106.23,56.7,164,73,54.43,15.34,108.6,12.85,163.68,2.28,116.17-22.28,224.8-72.37,340.28-97.44,51.43-11.16,103.35-16.05,155.67-8.55,50.42,7.24,98.94,23.54,146.52,41.23,91.82,34.12,185.15,75.37,285.33,70C2160.2,505.47,2254,458.82,2350,427.42c49.45-16.16,100.45-28.65,152.7-29.6,53.85-1,107,8.9,158.81,23,124.74,34,244.66,87,377,68.7,151.28-20.93,287.71-106.49,442.53-108,164.09,1.54,311.7,88.35,472.75,108.4,130.2,16.21,247.28-33.83,370-67.84,53.08-14.71,107.79-25.35,163.1-24.33,51.92,1,102.57,13.21,151.73,29.21,96.95,31.54,191.87,79.24,295.39,84,99.57,4.61,192.07-36.08,283.37-70,47.24-17.56,95.45-33.84,145.5-41.12,52-7.57,103.26-3,154.43,7.83,116.79,24.71,226.38,75.84,343.76,98.19,54.81,10.44,108.43,12.6,162.56-2.51,57.35-16,110.45-44.67,162.86-72.3C6242.55,401.51,6299.33,370.3,6361,354c62.55-16.54,124.84-9,186.54,7.56,147.49,39.67,286.71,128.7,442.45,132V471.24c-161.27-3.18-308.92-90.26-462.54-129.68C6465.43,325.65,6401.74,316.73,6339,333.57Z"/><path class="cls-19" d="M6489.22,286.33c-62.82-14.6-128.47-25.42-191.72-7.52-55.4,15.67-104.66,47.22-153,77.51-45.22,28.35-91.12,57.51-142.34,73.82-54.57,17.37-110,13.69-165.41,2-121-25.58-233.31-81.18-353.82-108.67-51.11-11.66-102.68-16.83-154.66-8.26-47.18,7.78-92.15,24.62-136,43.18-89.54,37.89-179.16,83.54-279.17,78.88-93.71-4.37-174.14-51-259.86-83.45-102.19-38.7-202.62-32.83-307.61-8.08-130.71,30.82-257,77.44-393.49,63.73-161.08-16.18-313.74-85.12-476.78-86.23h-.17c-150.58,1.07-288.65,69.62-436.89,86-136.85,15.15-264.79-33.19-395.78-64-104.15-24.47-204-30-305.36,8.38-85,32.18-164.84,78.4-257.69,83.51-99.29,5.46-188.7-39.14-277.52-77-45.76-19.5-92.7-37.42-142-45.3-52.67-8.41-105-2.62-156.65,9.49-119.52,28-231.14,83.06-351.47,108.07-54.1,11.25-108.18,14.92-161.61-1.5C938.36,415,891.92,385.4,846.33,356.85c-47.23-29.58-95.18-60.39-149-76.62-65.84-19.88-134.27-8.63-199.86,6.84-86.11,20.31-169.83,49.65-254.39,75.43-79,24.07-160,48.25-243.09,50v22.36c168-3.24,325.86-87.36,487-126.38,65.44-15.85,133.45-26.49,199.21-6.9,54.9,16.36,104.25,47,152.92,76.41,47,28.35,94.76,57.83,147.64,73.87,53.58,16.25,107.36,12.68,161.61,1.52,119.51-24.57,230.6-78.51,349.33-106,51.65-12,103.87-17.71,156.53-9.38,49.51,7.84,96.73,25.46,142.83,44.58,89.15,37,179.54,81.26,278.69,75.8,94.39-5.2,177-51.58,264-83.51,102-37.48,201.56-33.45,306.2-8.15,129.93,31.42,256.28,80.47,392.4,65,148.85-16.88,286.52-89.47,437.95-89.85,163.22.38,314.85,73.49,475.89,90.05,135.84,14,260.49-33.3,390.18-64.77,105.48-25.59,205.53-30,308.44,7.85,87.59,32.18,170.86,79,266.11,83.44,99.87,4.68,190.51-40.62,280.38-77.65,44.19-18.21,89.42-34.76,136.76-42.49,52-8.49,103.42-3.37,154.56,8.16,119.72,27,231.46,81.5,351.68,106.63,55.53,11.61,110.7,15.17,165.43-2,52.29-16.41,99.53-45.45,146.13-73.6,49.78-30.07,100.46-61.5,156.94-77.3,63.14-17.67,128.43-7.37,191.08,7.57,162.33,38.7,321,123.89,490.19,127.12V412.47c-85.28-1.74-168.51-27-249.45-51.91C6657.1,334.93,6574.34,306.1,6489.22,286.33Z"/><path class="cls-20" d="M6311.89,221.76c-57.38,16-109.33,47.23-160.41,77-47.86,27.89-96.32,56.75-149.51,73.3-54.66,17-109.7,14-165.14,2.18-119.48-25.38-229.73-81.74-348.67-109.08-51.11-11.75-102.71-16.57-154.71-8.07-47.32,7.74-92.53,24.32-136.69,42.56-89.87,37.11-180.39,82.38-280.29,77.78-95-4.39-177.74-51.36-265-83.71-102.76-38.1-203-33.43-308.35-7.88-130.2,31.58-254.6,78.54-390.92,64.56-161-16.51-314.26-82.43-477.13-84.83h-.18C3324.29,267.82,3185.45,334,3037,350.34c-135,14.88-259.88-32.64-388.76-64.19C2543.4,260.5,2443,255.29,2340.59,293c-86.93,32-169.21,79-263.66,84.28-99.57,5.58-190-38.65-279.55-75.88-44.67-18.58-90.39-35.73-138.27-43.88-54.55-9.29-108.76-3.88-162.31,8.85-118.29,28.12-228.24,84.34-347.53,108.74-54.37,11.13-108.07,13.57-161.52-3.11-53.94-16.83-103-46.27-151.53-74.55-50-29.14-101-59.65-157.19-75.32-64.12-17.88-129.67-7.45-193.35,7.64C324.62,267.88,167.59,349.37,0,353.7v22.36C83.42,374,164.69,349.93,244,325.9c84.61-25.63,168.42-54.76,254.6-74.87,63.81-14.89,129.93-25.94,194.15-7.7,54.43,15.46,103.13,46.21,150.81,75.76,46.22,28.64,93,58.33,145.14,75,53.24,17,107.32,14.17,161.52,3.11,120.67-24.61,232.16-80.82,351.83-109.14,53.57-12.67,107.92-18.27,162.48-8.9,47.72,8.19,93.17,25.63,137.52,44.57,89.23,38.1,178.71,82.61,278.45,77,93-5.21,172.75-52,258-84.1,101.79-38.35,202.53-31.82,306.92-7,129.55,30.79,256.2,78,391.55,63.06,148.5-16.37,287.37-82.54,438-84.78,162.9,2.37,316.16,68.32,477.22,84.83,136.65,14,262.85-32.61,393.72-63.43,104.93-24.72,205.47-30.73,307.58,8.08,85.58,32.53,165.74,79.2,259.37,83.52,100.06,4.62,189.58-41,279.14-79,43.85-18.58,88.8-35.44,136-43.21,52-8.57,103.73-3.58,154.86,8.12,120.32,27.54,232.11,83.9,353,109.48,55.28,11.7,110.71,15.16,165.17-2.18,51.44-16.39,97.67-45.49,143.24-73.73,48.69-30.17,98.3-61.66,153.9-77.43,63.22-17.92,128.72-6.88,191.51,7.65,84.94,19.65,167.56,48.18,250.87,73.59,81,24.71,164.21,49.71,249.48,51.81V353.7c-168.17-4.29-325.68-86.37-487.37-124.35C6440,214.63,6375,204.19,6311.89,221.76Z"/><path class="cls-21" d="M6378.76,168.45c-66,16.11-128,46.38-189.31,75-57.55,26.87-115.5,54.7-177,71.41-56.28,15.29-111.7,14.32-168.47,2-113.44-24.64-217.09-80.87-330-107.38-102.3-24-196.05-4.72-292.87,31.15-92.45,34.26-186,76.57-286.89,72-102.43-4.67-195.53-52.47-291-84.58-50.23-16.89-102.09-29.68-155.34-30.21-53.65-.53-106.59,9.68-158.13,23.85-126.39,34.77-243.56,83.71-377.51,70-161-16.51-314.26-82.43-477.13-84.83h-.18c-150.62,2.26-289.46,68.41-437.93,84.78-132.68,14.63-250.32-34.9-375.42-69.57-52.17-14.46-105.87-24.86-160.22-24.2-52.17.63-103,13-152.22,29.44-95.28,31.79-187.92,79.52-289.87,85.17-100.52,5.56-194-35.83-286.09-70.19-100.06-37.33-196.26-57.4-302-31.59C1358.94,238,1255.55,294,1142.26,317.68c-55.7,11.63-109.94,12.09-165-2.92-62.38-17-121.1-45.37-179.48-72.62-60-28-120.82-57.59-185.48-73.38-63.35-15.48-125.64-9-188.25,7.17C282.3,212.5,149,291.28,0,294.93v22.36c157.18-4,300.86-83.93,451.12-121.19,63.17-15.67,126.82-23.94,190.59-7.39,60.91,15.8,117.47,45.77,173.2,74.22,54.17,27.66,108.72,56.42,167.38,73.46,54.3,15.77,108.16,14.41,163.22,3,115.89-24,222.11-80.08,337-107.78,53.2-12.84,106.94-17.72,161.18-8.93,48.37,7.84,94.8,24.27,140.28,42.06,90.86,35.54,183.15,78.28,283.12,72.71,98.59-5.5,186.83-53,278.42-84.78,104.14-36.19,204.22-33.82,310.21-6,126.81,33.32,247.54,81.94,381.29,67.2,148.5-16.37,287.37-82.55,438-84.79,162.9,2.37,316.16,68.32,477.22,84.83,135.05,13.85,255.28-34.23,383.41-67.59,52.34-13.62,106-23.59,160.24-23,51.85.56,102.16,13,150.87,30.05,91.84,32.17,180.54,79.65,279.63,84.2,100.32,4.61,192.67-39.1,283.91-74.53,96.71-37.56,189.55-56.6,292.32-32.65,115.5,26.91,222,83.16,338.06,108.11,56.14,12.07,111.24,14,166.76-2.09,57.83-16.76,111.68-45,165.09-72.23,56.9-29.05,114.57-59.74,176.77-75.85,62.77-16.27,125.84-7.94,188,7.34,150.86,37.07,295,117.57,452.71,121.55V294.93c-149.51-3.62-283.22-83-425.53-119.35C6502.85,159.83,6441.11,153.24,6378.76,168.45Z"/><path class="cls-22" d="M6239.89,189.28C6116.59,235,5987.51,289.72,5854.13,260c-105.89-23.61-201.22-79.55-306.49-105.22-100.66-24.56-197.56-4.47-294.28,26.66-96.15,30.95-193,68.95-295.87,64.33C4845,240.7,4739.36,192.21,4633,160.05c-54.72-16.54-111.43-30.36-168.92-30.66-51.8-.27-102.59,10.75-151.71,26.47-56.33,18-110.66,41.86-167.39,58.7-63.5,18.85-126.78,25.05-192.72,18.29-161-16.52-314.26-82.44-477.13-84.83h-.18c-150.62,2.26-289.46,68.41-437.93,84.78-66.08,7.28-130.09.29-193.64-18.78-55.7-16.71-109.13-40-164.46-57.77-49.73-16-101.26-27.3-153.75-26.85-56.34.48-111.8,13.81-165.49,29.88-106.28,31.81-211.31,80.22-323.49,86.3-102.48,5.55-199.28-31.66-295.06-62.71-99.91-32.38-199.34-53.27-303.28-27-104.65,26.48-199.72,82.17-305.49,104.9C999.16,289.41,869.57,233.59,746.7,188,618,140.25,482.29,82.67,344.16,123.61,227.21,158.28,125.67,233.6,0,236.17v22.35c134.45-3,248.55-79.67,374.94-115,61.26-17.14,121.64-20.41,183.92-6.76,71.53,15.67,139.86,44.55,207.54,71.86,118.61,47.85,239.7,101.53,369.76,73.85,108.66-23.13,206.94-78.91,314.52-105.73,104.63-26.08,202.77-5.5,302.78,28.76,94.36,32.32,189.9,71.14,291.59,65.58,108.22-5.9,208.51-54.09,310.55-85.86,52-16.18,105.63-29.19,160.35-29.71,53.22-.5,105.55,10.44,156.26,25.83,56.79,17.23,111.86,39.71,169,55.95,64.31,18.29,129.21,25.25,195.81,17.91,148.5-16.37,287.37-82.55,438-84.79,162.9,2.38,316.16,68.32,477.22,84.83,66.45,6.82,130.6.64,194.84-17.43,58.17-16.35,114.16-39.39,172-56.85,50-15.12,101.69-25.86,154.19-25.46,55.85.43,110.67,13.82,163.67,30.49,102.17,32.14,203,80.37,311.62,85.28,102,4.61,197.67-35.06,292.41-67.28,96.77-32.91,192.45-52.74,293.74-28.39,108.2,26,206.76,81.95,315.54,106.05,130.33,28.87,251.13-23.7,370.22-71.75,69.1-27.88,138.82-57.45,211.86-73.44,61.29-13.42,121.13-10,181.42,6.72,126.93,35.15,241.37,112.44,376.29,115.38V236.17c-126.11-2.54-227.95-78.45-345.42-112.89C6505.72,82.57,6369.17,141.32,6239.89,189.28Z"/><path class="cls-23" d="M6715.37,70.23C6659.1,51,6600.45,54,6542.64,64.31c-87.92,15.75-173.52,43.85-258.68,70.22-132.46,41-280.8,100.59-421.21,68.34-99.16-22.79-187-78.44-285.46-103.3-205.87-52-394.75,89.48-599.35,80.39-121.68-5.41-238.1-54.5-354.22-86.71-58.6-16.25-119.35-30.85-180.51-31C4392.94,62,4343.94,73.71,4297,90.89c-52.88,19.34-103.26,45-156.64,63-61.74,20.89-123.33,26.79-188.11,20.15-161-16.51-314.26-82.44-477.13-84.83h-.18C3324.29,91.51,3185.45,157.67,3037,174c-64.9,7.16-127.18.45-188.94-20.67-52.38-17.92-101.94-43-153.86-62.05-47.61-17.5-97.26-29.37-148.23-29.1-59.89.31-119.37,14.48-176.8,30.26-116.13,31.92-231.88,80.62-353.34,87.3-207.63,11.42-398.57-133.87-607.41-79.09-97.88,25.68-185.45,81.07-284.53,103-140.46,31.06-289.47-29.38-421.79-70.35C618.68,107.48,534.81,80,448.71,64.6c-58.65-10.51-118-13.9-175.12,6-44.19,15.36-82.84,41.81-123.51,64.28C102.73,161,54.41,176.46,0,177.4v22.35c57.37-1,109.06-17.83,160-43.36,45.41-22.78,89.1-49.52,137.62-65.43C434.69,46,587.53,111.68,717.09,154.3c129.13,42.48,271.59,101.39,409.54,71.18,101.37-22.2,191.54-77.68,291.75-103.64,209.51-54.29,396.64,93.77,604.32,82.65,118.26-6.33,230.42-55.08,343.14-86.95,56.2-15.89,114.38-29.81,173.1-30.14,51.46-.3,101.72,11.4,150,28.36,53.1,18.65,104,43.06,157.54,60.57,62.37,20.39,125.18,27.26,190.46,20.06,148.5-16.37,287.37-82.55,438-84.79,162.9,2.38,316.16,68.32,477.22,84.83,65.16,6.69,127.27.63,189.6-19.54,54.53-17.64,106.3-42.64,160.37-61.54,47.68-16.65,97.28-28.15,148-28,59.95.22,119.39,14.56,176.71,30.92,112.81,32.2,225.53,81.08,344.09,86.37,204.66,9.12,389.65-135.49,596.21-84,100.83,25.15,191.24,80.88,292.71,104,138,31.38,279.83-26.58,409.21-69.14,81.31-26.75,163.12-55.23,247.45-71,58.79-11,117.32-12.45,174.7,6.1,47.94,15.5,91.1,41.69,135.83,64.3,51.8,26.18,104.37,43.78,162.87,44.81V177.4c-55.47-1-104.54-17.18-152.66-44C6797.28,111.09,6759.06,85.19,6715.37,70.23Z"/><path class="cls-24" d="M6848.85,75.57c-32.53-22-62.33-47.48-99.64-61.37C6694.4-6.22,6635-1.32,6578.51,8.43c-93.31,16.11-184.67,43.48-275.7,69.06-85.7,24.08-171.56,49.27-259.13,65.75-59.92,11.28-118.56,15.35-178.35,1.46-95.63-22.22-179.25-77.95-274.2-102.27-205-52.5-399.39,84.85-603.87,75.77-234.46-10.42-462.62-181.36-697.59-89-50.95,20-99,46.88-150.5,65.51-61.08,22.09-122.52,27.23-187,20.62-161-16.51-314.26-82.43-477.13-84.83h-.18C3324.29,32.75,3185.45,98.9,3037,115.26c-64.54,7.12-126.64,1.18-187.72-21.16-50.55-18.5-97.8-44.72-147.83-64.48-234-92.45-461.64,75.93-695,88.39-207.35,11.07-404.06-129.84-611.78-74.47-94.33,25.14-177.73,80.59-273.3,102-58.84,13.15-116.63,8.77-175.46-2.32-88.88-16.77-176-42.45-263-66.89-89.14-25-178.63-51.79-270-67.56C355.68-1.17,295.33-6.56,239.84,14.5,202.19,28.8,172.11,54.83,139.08,77,96.46,105.49,51.16,117.58,0,118.63V141c51.48-.94,96.74-14.24,140.15-41.77,34.93-22.16,67.28-48.28,106.44-62.9,55.71-20.8,115.76-15.69,173.18-5.79C510,46.09,598.18,73.06,686,98.36c85.64,24.67,171.43,50.57,259.1,67.15,59,11.16,117.26,15.45,176.24,2.28,96.38-21.52,180.81-76.89,276-102.2,208-55.3,403.41,86.64,610.9,75.25,125-6.87,245.1-55.8,365-87.69,58.62-15.6,119.3-30,180.29-30.39,50.58-.29,99.59,11.57,146.51,29.79,50.5,19.61,98.37,45.48,149.38,63.86,61.14,22,123.06,28.33,187.6,21.21,148.5-16.37,287.37-82.54,438-84.78,162.9,2.37,316.16,68.31,477.22,84.83,64.43,6.6,125.68,1.11,186.82-20.67,52-18.52,100.64-45,152.07-64.88,46.3-17.89,94.69-29.55,144.56-29.36C4498,23,4560,37.87,4619.78,53.93c119.84,32.16,240.59,81.54,365.77,87.1,204.53,9.06,397.78-129,602.93-76.54C5684.25,89,5768.9,144.61,5865.35,167c59.94,13.92,119.06,9.93,179.15-1.41,86.38-16.3,170.94-41.71,255.31-66,89.67-25.84,179.72-53.45,271.82-69.32,56.67-9.77,115.83-14.41,170.82,5.76,38.77,14.22,70.8,39.77,105.2,61.82C6891.7,126.07,6937.54,140,6990,141V118.63C6937.87,117.58,6892.06,104.85,6848.85,75.57Z"/></g></g></svg>