<?xml version="1.0" encoding="utf-8"?>
<!-- Generator: Adobe Illustrator 26.3.1, SVG Export Plug-In . SVG Version: 6.00 Build 0)  -->
<svg version="1.1" id="Layer_1" xmlns="http://www.w3.org/2000/svg" xmlns:xlink="http://www.w3.org/1999/xlink" x="0px" y="0px"
	 viewBox="0 0 6192.3 5603.7" style="enable-background:new 0 0 6192.3 5603.7;" xml:space="preserve">
<style type="text/css">
	.st0{fill:url(#SVGID_1_);}
	.st1{fill:url(#SVGID_00000039098735811156216810000003977425786267500466_);}
	.st2{fill:url(#SVGID_00000118357295011380438150000004233605859071537564_);}
	.st3{fill:url(#SVGID_00000026150331625771763230000009487208490808710796_);}
	.st4{fill:url(#SVGID_00000003808680110154967570000015799559877983677062_);}
	.st5{fill:url(#SVGID_00000155842870345431376230000017299289354721478545_);}
	.st6{fill:url(#SVGID_00000076584695921716621800000014181634335905944212_);}
	.st7{fill:url(#SVGID_00000139987921568439763430000007785632830339081642_);}
	.st8{fill:url(#SVGID_00000074441536819383303870000000630264818095510952_);}
	.st9{fill:url(#SVGID_00000091015371913587081830000010407448192460840847_);}
	.st10{fill:url(#SVGID_00000152225997196540598700000008835155362288799635_);}
	.st11{fill:url(#SVGID_00000096028193766043751380000002505551495220834182_);}
	.st12{fill:url(#SVGID_00000116223606114108894720000006225512711474612155_);}
	.st13{fill:url(#SVGID_00000076579339872467479790000015530153010139297153_);}
	.st14{fill:url(#SVGID_00000005968465876805014700000009535474057115887525_);}
	.st15{fill:url(#SVGID_00000162340080424613899510000014642218475664894362_);}
	.st16{fill:url(#SVGID_00000123417748532392226950000010015839154252116383_);}
	.st17{fill:url(#SVGID_00000090979474390361530160000008165015996915539389_);}
	.st18{fill:url(#SVGID_00000095335481640509176810000003615397215288254341_);}
	.st19{fill:url(#SVGID_00000158736868658882056890000003263817499465650853_);}
	.st20{fill:url(#SVGID_00000042015263252413690370000003804857459088978352_);}
	.st21{fill:url(#SVGID_00000164503253180467580540000018110074449874827911_);}
	.st22{fill:url(#SVGID_00000042002141740026371720000002756358807411397023_);}
	.st23{fill:url(#SVGID_00000174595359215424090110000000878739328843507095_);}
</style>
<g>
	
		<linearGradient id="SVGID_1_" gradientUnits="userSpaceOnUse" x1="3121.7373" y1="3538.5752" x2="3121.7373" y2="3334.0356" gradientTransform="matrix(0.7576 0.6528 -0.6528 0.7576 2566.407 -1365.6813)">
		<stop  offset="0" style="stop-color:#FFAB1C"/>
		<stop  offset="0.1663" style="stop-color:#F0A11A"/>
		<stop  offset="0.4841" style="stop-color:#CA8816"/>
		<stop  offset="0.9172" style="stop-color:#8D5E0F"/>
		<stop  offset="1" style="stop-color:#80560E"/>
	</linearGradient>
	<path class="st0" d="M5005.6,5159.3c-38.7-52.4-81.4-102.7-140.3-132.7c-49.5-25.2-104.2-36.8-158-48.6
		c-50.3-11-101.1-22-147.9-44.1c-50.2-23.8-89.8-60.5-121.5-105.8c-64.4-92-96.6-201.9-159.1-295
		c-56.9-84.8-135.3-126.5-232.6-149.7c-92.3-22-182.6-38.2-255.1-104.3c-79.4-72.4-132.3-168-194.2-254.6
		c-63-88-134.8-161.4-240-195.2c-52.9-17-107.9-26.4-160.3-44.9c-62.7-22.2-114.3-58.4-158.3-108.3
		c-123.5-139.8-192.1-326-332.4-451.3c0,0,0,0,0,0c0,0,0,0-0.1-0.1c0,0,0,0-0.1-0.1c0,0,0,0,0,0c-135.2-112.3-318-143.5-465.1-236.3
		c-56.2-35.5-99.9-82-131.1-140.7c-26.3-49.6-43.9-103.2-68.9-153.4c-101.1-202.9-342.7-228.3-506.3-359.8
		c-76.2-61.2-106.4-146.8-141.3-234.6c-17.4-43.7-37.3-87.1-67-124c-32.1-39.8-74.3-68.1-120.3-89.5
		c-100.9-47-213.7-62.7-313.3-112.9c-48.2-24.3-89.4-57-120-101.9c-29.5-43.1-48.1-92.4-66.5-140.9
		c-19.1-50.3-38.2-101.4-68.9-145.9c-39.3-56.9-97.6-93.1-157.8-124.8c-79.7-42-163.4-75.9-245.4-113
		c-76.2-34.4-154.2-69.9-219.4-123.2c-5.8,6.8-8.8,10.2-14.6,16.9c65.4,53.7,144.3,89.3,220.9,124c83.4,37.9,168.4,72.7,249.4,115.6
		c58.4,30.9,115,66,153.9,120.6c31.3,43.9,50,95,68.4,145.2c17.8,48.5,35.6,97.7,64.5,140.9c30.2,45.1,71.6,79,119.7,103.6
		c99.9,50.9,213.7,65.3,315.3,112.1c48,22.1,91.6,52.2,124.5,94c28.1,35.7,46.9,77.3,63.1,119.5c34.1,88.2,63.7,172.8,140.4,233.6
		c83.8,66.4,184.9,105.3,278.9,154.3c95.7,49.9,178.2,109.4,226.8,208.4c24.2,49.2,41.5,101.6,67,150.2
		c30.9,58.9,74.2,105.5,130.5,141.1c147.6,93.5,330.8,126.2,466.9,238.5c140.2,126.1,210.8,311.8,334.6,452.2
		c43.9,49.8,95.1,86,157.8,108.1c52.7,18.6,108.1,28,161.2,45c215.9,69.2,280.4,305.9,434.9,448.6c71.9,66.4,161.1,81.9,253.2,102.8
		c97,22.1,175.8,64.8,232.2,149.1c62.5,93.3,93.5,204,158,296.2c31.6,45.3,71.8,82.3,122,106.1c46.4,21.9,96.9,32.3,146.8,42.6
		c53.5,11,107.8,22,156.9,47.1c58.8,30,101.4,80.3,140.1,132.6c53.7,72.6,100.1,150.2,149.1,226c46.6,72.2,94.3,147.1,158.5,205.1
		c5.8-6.8,8.8-10.2,14.6-16.9c-64-58-111.6-132.2-158-204.4C5104,5307.6,5058.4,5230.9,5005.6,5159.3z"/>
	
		<linearGradient id="SVGID_00000144300159164019556260000007562809558458099625_" gradientUnits="userSpaceOnUse" x1="3121.7373" y1="3475.1094" x2="3121.7373" y2="3280.5725" gradientTransform="matrix(0.7576 0.6528 -0.6528 0.7576 2566.407 -1365.6813)">
		<stop  offset="0" style="stop-color:#FFAB1C"/>
		<stop  offset="0.1663" style="stop-color:#F0A11A"/>
		<stop  offset="0.4841" style="stop-color:#CA8816"/>
		<stop  offset="0.9172" style="stop-color:#8D5E0F"/>
		<stop  offset="1" style="stop-color:#80560E"/>
	</linearGradient>
	<path style="fill:url(#SVGID_00000144300159164019556260000007562809558458099625_);" d="M4930.6,5011.7
		c-51.7-27.5-108.8-42.9-165-58.5c-52.5-14.5-105.6-29-154.6-53.5c-50.1-25.1-90-61.3-122.9-106.5c-65.5-90-102-197.2-165.8-288.2
		c-29-41.3-63.5-77.7-107.2-103.5c-42.1-24.8-88.8-40.1-135.4-53.6c-95.8-27.6-195.2-48.6-270.9-118
		c-80.2-73.5-129.4-173.5-189.1-262.9c-60.1-90-131.5-163.5-236.3-197.9c-51.3-16.8-104.8-26.2-155.7-44.6
		c-61.7-22.2-113.2-58.5-156.2-107.9c-119-137-178.6-322.1-315.4-444.2c0,0,0,0,0,0c0,0,0,0-0.1,0c0,0,0,0-0.1-0.1c0,0,0,0,0,0
		c-133.3-110.8-315.6-135.2-461.2-225.4c-55.8-34.6-99.5-81.1-130.6-138.8c-25.9-48.1-43.2-100.1-67.8-148.8
		c-49.4-97.7-132.4-157-229.5-202.8c-96.6-45.6-201.9-79.3-286.4-146.7c-79.8-63.7-115.8-157.7-156.8-247.9
		c-21-46.2-43.8-92.3-76.1-131.8c-32.5-39.7-74.5-68.4-120.3-90.9c-99.1-48.6-209.7-68.9-307.5-120.4
		c-48.3-25.4-89.1-58.5-120.9-103.1c-32.1-44.9-54.5-95.9-76.8-146.1c-23.1-52-46.1-104.9-79.6-151.3
		c-39.8-55.3-95.3-91.9-155.1-122.8C345,1121.8,178.7,1082.3,53,979.5c-5.8,6.8-8.8,10.2-14.6,16.9
		c129.9,106.1,301.8,148.9,448.7,225.5c60.1,31.3,117,67.8,156.5,123.9c32.1,45.6,53.4,97.6,74.7,148.8
		c20.6,49.4,41.2,99.6,72.1,143.7c31.2,44.7,72,77.4,120.3,102.3c98.7,50.8,210.2,69.2,310.1,117c45.8,21.9,87.9,50.2,120.2,89.9
		c31.1,38.3,52.5,83.1,71.9,128.1c38.3,88.9,71.6,179,149.4,241.6c83.8,67.3,187.4,102.9,282.9,149.6
		c96.4,47.2,179.3,107,228.4,204.9c24.8,49.4,42.2,102.1,68.3,150.9c31.1,58.2,74.9,104.8,130.9,139.9
		c146.2,91.5,329,118.8,463.1,230.6c138.7,123.4,202.3,309.3,323.5,447.6c43.5,49.6,95.2,85.9,157.4,108.2
		c51.6,18.4,105.8,27.8,157.8,44.7c104.9,34.1,176.8,107.4,238.2,196.5c60.7,88.1,111.4,186.2,191.5,259
		c74.3,67.6,169.4,86.3,263.4,111.4c45.3,12.1,90.6,26.3,131.3,50.1c43.7,25.5,77.8,62,106.3,103.4c63.1,92,97.8,200.4,162.7,291.3
		c32.3,45.2,71.8,81.6,122,106c47.9,23.4,100,36.3,151.5,49.2c55.1,13.8,111.1,27.6,161.8,53.9c58.3,30.3,100.9,79.3,139.2,131.5
		c98.7,134.5,166.4,299.5,291.4,413.1c5.8-6.8,8.8-10.2,14.6-16.9c-121.1-109.9-184.8-269.8-279.8-400.3
		C5030.6,5089.9,4988.1,5042.3,4930.6,5011.7z"/>
	
		<linearGradient id="SVGID_00000077282749169952568170000004677365870930572419_" gradientUnits="userSpaceOnUse" x1="3121.7373" y1="3405.1897" x2="3121.7373" y2="3229.9749" gradientTransform="matrix(0.7576 0.6528 -0.6528 0.7576 2566.407 -1365.6813)">
		<stop  offset="0" style="stop-color:#FFAB1C"/>
		<stop  offset="0.1663" style="stop-color:#F0A11A"/>
		<stop  offset="0.4841" style="stop-color:#CA8816"/>
		<stop  offset="0.9172" style="stop-color:#8D5E0F"/>
		<stop  offset="1" style="stop-color:#80560E"/>
	</linearGradient>
	<path style="fill:url(#SVGID_00000077282749169952568170000004677365870930572419_);" d="M5009.2,5012
		c-55.4-31.4-116.1-51.9-175.9-72.8c-109.6-38.3-213.3-79.2-287.1-173c-68.3-86.8-110.1-190.9-176.1-279.2
		c-30.9-41.3-67-77.6-111.2-104.6c-48-29.3-101.5-48.9-154.5-67.1c-100.5-34.5-211.5-62.8-290.6-138
		c-80.6-76.6-124.9-183.1-181.8-276.6c-56.5-92.8-126-166.7-231-201.8c-47.9-16-97.7-25.3-145.1-42.7c-59.8-22-111-57.6-152.1-106.4
		c-112.4-133.2-159.5-316-290.4-434.4c0,0,0,0,0,0c0,0,0,0,0,0c0,0,0,0,0,0c0,0,0,0,0,0c-131.2-107.6-311.7-123-455.2-208.8
		c-55.1-32.9-98.6-78.7-129.5-134.8c-25.3-45.9-42.3-95.8-66.4-142.4c-50.4-97.3-134.2-154.2-233.3-195.6
		c-100.1-41.9-210.2-70.2-297.5-137.2c-87.1-66.9-131.7-173.6-181-268.3c-26-50.1-53.5-100.3-89.9-143.7
		c-33.5-39.9-75.3-70.2-121.1-94.7c-96.3-51.4-204.1-77.4-299.2-131.3c-104.7-59.3-160.6-156.6-215.1-260.1
		c-28.8-54.6-57.3-110.1-95.1-159.1c-40.2-52.2-91.5-89.6-150.1-118.9c-127.7-63.9-276.3-93-388.4-185.5
		c-5.8,6.8-8.8,10.2-14.6,16.9c117.5,96.6,273.2,129.8,406.7,197.7c59.1,30,112,67.1,152.1,120.5c36,48,62.4,102.4,88.9,156
		c51.1,103.1,104.1,198.4,208.1,255.7c96.2,53,205.1,76.7,302.5,127c45.8,23.6,87.6,53.3,120.8,93.1c34.8,41.8,60.4,90.4,84.4,139
		c46.1,92.9,87.2,194.5,171.3,260.2c86.2,67.2,194.4,97.6,293.1,141c98.3,43.2,181.7,101.1,231.7,198.5
		c24.3,47.4,41.4,98.1,67,144.9c31,56.7,74.6,102.8,130,136.4c144.3,87.5,325.6,106.5,457.6,215.4c133.5,120,185.5,304,300.8,438.8
		c41.9,49,93.4,84.8,154,106.8c48.2,17.5,98.9,26.8,147.7,42.9c105.1,34.7,175.7,108.1,233.7,199.9
		c58.2,91.9,104.4,196.1,184.9,271.6c77.3,72.5,183,98.1,281.1,129.7c51.2,16.5,102.8,34.5,149,62.4c44,26.6,79.5,63,109.6,104.4
		c65.1,89.6,104.7,195.2,172.3,283.1c71.8,93.5,173,131.8,281.8,166.9c58.5,18.8,117.8,37.3,171.9,67
		c56.1,30.9,98.7,75.8,135.9,127.3c88.5,122.7,144.2,273.6,258.2,376.6c5.8-6.8,8.8-10.2,14.6-16.9
		c-109.2-98.1-159.5-242.7-243.3-360.1C5106.9,5086.5,5064.1,5043.1,5009.2,5012z"/>
	
		<linearGradient id="SVGID_00000062873916368826444530000014805203537804682897_" gradientUnits="userSpaceOnUse" x1="3121.7373" y1="3359.0737" x2="3121.7373" y2="3153.4751" gradientTransform="matrix(0.7576 0.6528 -0.6528 0.7576 2566.407 -1365.6813)">
		<stop  offset="0" style="stop-color:#FFAB1C"/>
		<stop  offset="0.1663" style="stop-color:#F0A11A"/>
		<stop  offset="0.4841" style="stop-color:#CA8816"/>
		<stop  offset="0.9172" style="stop-color:#8D5E0F"/>
		<stop  offset="1" style="stop-color:#80560E"/>
	</linearGradient>
	<path style="fill:url(#SVGID_00000062873916368826444530000014805203537804682897_);" d="M4902.6,4925.3
		c-111.8-46.1-220.7-93.6-300.1-188.3c-70.3-83.9-117.3-184.2-185.6-269.5c-74.4-93-174.2-141.1-283.1-183.7
		c-106.4-41.5-230.5-76.5-314-158.5c-80.8-79.4-120.4-191.6-174.2-288.9c-52.6-95-119.8-170.2-224.5-206.4
		c-45.8-15.8-93.5-25-138.9-42.3c-57.9-22-108.4-57.3-147.6-105.5c-105.3-129.5-139.7-309.1-264.7-423.7c0,0,0,0,0,0c0,0,0,0,0,0
		c0,0,0,0,0,0c0,0,0,0,0,0c-128.8-104.2-306.7-111-448.1-191.7c-54.4-31.1-98-75.9-129-130.2c-24.9-43.6-41.5-91.2-64.8-135.6
		c-50.8-96.5-134.1-151.5-234.3-189.1c-104.7-39.2-221.6-61.8-312.8-129.8c-95.8-71.4-149.2-192.6-207.2-293.4
		c-57.5-99.8-119.7-188.9-221.2-247.6c-93.3-54-197.8-85.7-290.2-141.4c-108.2-65.3-172.1-168.3-235.5-274.3
		c-65.5-109.3-131.5-219.2-249.7-277.5c-114.5-56.5-247.1-73.9-347.5-157.6c-5.8,6.8-8.8,10.2-14.6,16.9
		c105,87.2,244.2,108.6,363.8,168.4c118.1,59.1,182.1,165,245.8,275.9c60.6,105.6,121.8,207.1,229.4,270.5
		c93.3,54.9,198.9,84.5,293.1,137.6c100.5,56.7,161.1,143.5,216.3,242.4c55.3,99.1,105.6,215.9,198.6,286.1
		c90.2,68.1,205.3,92.7,308.8,133.2c99.6,39,182.7,94.8,233.1,191.5c23.5,45.1,40.3,93.5,65.3,137.9c31,54.9,74.7,99.9,129.3,131.5
		c142.1,82.2,320.7,92.2,450.2,197.5c127,116,166.1,296.6,273.8,427.5c39.8,48.4,90.6,83.8,149.1,105.8
		c46.1,17.3,94.6,26.6,141.1,42.4c104.9,35.7,172.8,110.5,226.8,204.8c54.9,96,96.3,206.1,176.9,284.5
		c81.9,79.6,201.4,112.2,305.7,151.3c107.6,40.3,204.9,87.1,277,179.4c67.5,86.4,112.6,188.1,182.2,273
		c77.4,94.4,184.5,139.5,295.5,182.9c120.8,47.2,237,95,313.8,204.8c76.3,109.2,118.1,243.3,219.6,333.9c5.8-6.8,8.8-10.2,14.6-16.9
		c-97.3-86.6-134.2-214.6-206.5-319.4C5142.6,5023.8,5022,4974.6,4902.6,4925.3z"/>
	
		<linearGradient id="SVGID_00000098198192793656672900000004663616447281893776_" gradientUnits="userSpaceOnUse" x1="3121.7373" y1="3312.8162" x2="3121.7373" y2="3082.0942" gradientTransform="matrix(0.7576 0.6528 -0.6528 0.7576 2566.407 -1365.6813)">
		<stop  offset="0" style="stop-color:#FFAB1C"/>
		<stop  offset="0.1663" style="stop-color:#F0A11A"/>
		<stop  offset="0.4841" style="stop-color:#CA8816"/>
		<stop  offset="0.9172" style="stop-color:#8D5E0F"/>
		<stop  offset="1" style="stop-color:#80560E"/>
	</linearGradient>
	<path style="fill:url(#SVGID_00000098198192793656672900000004663616447281893776_);" d="M4963.3,4900.7
		c-115.4-52.2-229.6-103.9-313.6-201.9c-69.8-81.5-120.5-177.2-189-259.7c-33.7-40.6-71.5-76.9-116.2-105.2
		c-53.5-33.9-112.3-59.2-170.5-83.7c-63.8-26.8-128.5-51.9-191-81.7c-51.3-24.5-103.9-52.1-144.5-92.5
		c-81.7-81.2-117.7-198-169.8-298.1c-49.4-95-115.7-169.4-218.4-206.1c-45.9-16.4-93.9-25.8-139.3-43.7
		c-57.4-22.7-108.2-59.1-146.1-108.1c-98.4-127.1-124.7-302.5-245.7-413.1l0,0c0,0,0,0,0,0c0,0,0,0,0,0c0,0,0,0,0,0
		c-127.3-103.3-304.3-103.1-444.5-181.6c-54-30.3-97.6-75.2-128.6-128.7c-24.5-42.2-40.9-88.3-63.8-131.3
		c-51.5-96.1-134.9-150.7-236.1-185.5c-106.7-36.7-227.5-55.1-319.9-123.9c-46-34.2-81.1-82.2-112.9-129.2
		c-38.7-57.4-73.1-117.7-109-176.8c-32.8-54-66.5-108.4-108-156.3c-34.6-40-76.1-72.1-121.2-99.4c-91.7-55.5-193.9-91.5-284.8-148.5
		c-109.4-68.6-177.4-173.9-246.1-280.3c-68.9-106.8-138.7-224-257.5-280.9c-106.2-50.9-225.6-61-318.9-138.6
		c-5.8,6.8-8.8,10.2-14.6,16.9c95,79.2,218.3,91.4,326.7,143.8c118.4,57.2,187.2,172.4,255,279.8
		c67.2,106.4,134.3,211.1,243.3,278.8c91.3,56.7,194.2,91.3,286.3,146.5c102.7,61.5,166.7,152.8,227.2,253.8
		c34.9,58.2,68,117.6,105.8,174c31.4,47,66.4,94.7,112.3,128.7c92.3,68.3,211.8,88.1,317.9,125.5c100.9,35.6,184.5,90,235.7,186.2
		c23.1,43.4,39.6,90,64.1,132.6c30.9,53.6,74.5,98.4,128.6,128.8c140.5,78.9,317.7,81,445.4,184.3
		c122.8,112.8,150.8,291,253.1,418.9c38.4,47.9,88.9,83.2,146,105.3c44.3,17.1,91.1,26.3,135.8,42
		c104.6,36.7,171.1,112.2,221.9,208.2c52.3,99,89.5,214.2,170.7,294.6c85.8,84.9,215.5,122.9,324.5,167.6
		c110.6,45.4,213,95.1,290.3,188.9c69.2,84,119,182.3,190.1,264.9c81.8,95.2,192.9,145.5,305.6,195.1
		c117.8,51.9,244.1,103.1,319,213.6c67.3,99.3,97.7,219,189.8,300.9c5.8-6.8,8.8-10.2,14.6-16.9c-90.6-80.8-118.1-197.4-184.2-294.9
		C5205.3,5004.8,5079,4953.1,4963.3,4900.7z"/>
	
		<linearGradient id="SVGID_00000069387638324427674810000006761400262121740689_" gradientUnits="userSpaceOnUse" x1="3121.7373" y1="3255.9905" x2="3121.7373" y2="3026.8845" gradientTransform="matrix(0.7576 0.6528 -0.6528 0.7576 2566.407 -1365.6813)">
		<stop  offset="0" style="stop-color:#FFAB1C"/>
		<stop  offset="0.1663" style="stop-color:#F0A11A"/>
		<stop  offset="0.4841" style="stop-color:#CA8816"/>
		<stop  offset="0.9172" style="stop-color:#8D5E0F"/>
		<stop  offset="1" style="stop-color:#80560E"/>
	</linearGradient>
	<path style="fill:url(#SVGID_00000069387638324427674810000006761400262121740689_);" d="M4996.4,4855.1
		c-112.3-47.9-222-97.5-303-192.1c-71.3-83.4-120.4-182.9-189.8-267.8c-76.9-94-180.5-143.7-290.6-189.6
		c-60.7-25.4-122.1-49.2-181.5-77.6c-50.8-24.2-103.1-51.5-143.5-91.5c-81.9-81.3-121.3-197.6-175.2-297.2
		c-26.5-48.9-56.4-98.1-97.8-136.1c-35.9-32.9-79.7-56.4-125.2-73.3c-45.3-16.8-92.5-27.7-137.3-45.8c-57.1-23-107.7-57.8-146.4-106
		c-101.5-126.6-130.6-301.4-251.6-413.8c0,0,0,0,0,0c0,0,0,0,0,0c0,0,0,0,0,0c0,0,0,0,0,0c-127.1-101.5-300.9-105.1-440.1-183.4
		c-54.5-30.7-97.5-75.5-129.4-129c-25.7-43-43.9-89.8-68.2-133.5c-22.9-41.2-51.7-79.4-88.1-109.6c-43.3-35.9-96.5-58.5-148.8-77.5
		c-107-38.9-227.9-60.8-321.2-129.6c-45.8-33.7-80.7-81.7-112.2-128.4c-38.2-56.7-72-116.1-107.5-174.5
		c-61-100.4-125.1-192.9-227.9-254c-92.9-55.3-197.1-88.9-289.1-145.8c-108.3-67-174.4-170.4-239.8-276.6
		c-66.3-107.7-134-220.5-251.8-277.6c-107.6-52.2-229.4-64.9-324.1-143.3c-5.8,6.8-8.8,10.2-14.6,16.9
		c93.3,77.3,212.3,87.7,318.4,138.6c118.7,57,188.4,173.4,256.8,280.5c68.1,106.4,135.9,211.4,245.1,279.8
		c91.1,57.1,193.7,92.7,285.7,148.3c103,62.2,167.3,154.5,229.1,255.6c36.1,59.2,70.7,119.5,109.5,176.9
		c31.7,46.9,66.7,95,112.6,129.1c92.7,68.8,213.9,87.9,320.8,125.1c52.6,18.3,105.6,40.5,148.7,76.4c36.2,30.1,64.9,67.8,87.2,109
		c23.4,43.1,40.4,89.3,65.3,131.6c31.3,53.4,74.5,98.3,128.8,128.7c139.9,78.2,315.7,78.9,443,181.4
		c120.3,110.9,147.3,284.9,245.4,411.8c38,49.1,88.7,85.2,146.2,108.2c45.5,18.3,93.8,28.3,139.8,45.1c44.1,16,85.6,38.8,120.7,70.2
		c41.9,37.4,71.7,86.5,97.6,135.8c52.6,100.2,89.4,217.2,171.1,298.8c40.5,40.4,93.2,67.9,144.3,92.3
		c62.6,29.9,127.3,55.2,191.2,82.2c109.1,46.1,209.9,96.1,286.7,188.8c68.6,82.8,118.9,179,188.9,260.7
		c83.8,97.8,197.6,149.4,312.9,201c116,51.9,241.4,103.6,315.3,212.6c66,97.4,93.9,213.5,184.1,294.4c5.8-6.8,8.8-10.2,14.6-16.9
		c-91.3-81.8-121.9-199.8-189-298.4C5238.1,4956,5114.3,4905.4,4996.4,4855.1z"/>
	
		<linearGradient id="SVGID_00000079458681700565174050000000958684077719757703_" gradientUnits="userSpaceOnUse" x1="3121.7373" y1="3185.4844" x2="3121.7373" y2="2985.3203" gradientTransform="matrix(0.7576 0.6528 -0.6528 0.7576 2566.407 -1365.6813)">
		<stop  offset="0" style="stop-color:#FFAB1C"/>
		<stop  offset="0.1663" style="stop-color:#F0A11A"/>
		<stop  offset="0.4841" style="stop-color:#CA8816"/>
		<stop  offset="0.9172" style="stop-color:#8D5E0F"/>
		<stop  offset="1" style="stop-color:#80560E"/>
	</linearGradient>
	<path style="fill:url(#SVGID_00000079458681700565174050000000958684077719757703_);" d="M5196.1,4877.9
		c-53.5-30.5-112.5-49.6-170.6-69c-109-36.3-209.6-77.8-283.1-170c-70.2-88.2-113.7-194-181.7-283.6
		c-71.4-94.2-172.3-142.2-279.5-185.5c-105.1-42.5-226.5-78.7-309.8-159.5c-85-82.4-134.1-196.6-195.4-296.1
		c-29.9-48.5-62.6-97.1-105.1-135.7c-37.8-34.2-83-59.1-129.8-78.5c-108-44.9-218.6-72.3-297.2-166
		c-104.1-124.2-144.7-293.2-265.8-404.3c0,0,0,0,0,0c0,0,0,0,0,0c0,0,0,0,0,0c0,0,0,0,0,0c-123.8-100.1-291.1-113.1-425.9-192.8
		c-107.7-63.6-151.4-171.7-213.3-273.6c-25.5-42.1-55.9-81.6-93.8-113.3c-44.1-36.8-97.1-62.2-149.5-84.7
		c-107.9-46.3-228.2-78.1-323.1-149.9c-94.4-71.4-148.7-189.6-207.6-289c-58.1-98.1-120.3-188.2-222.5-243.9
		c-97.5-53.1-206.9-80.5-303.5-135.5c-104.9-59.8-161.4-155.1-214.6-259.9c-26.9-53-53.9-106.7-90.6-153.8
		c-37.3-47.9-84.4-84-138.3-111.4c-115.6-58.8-248.6-80.6-350.5-165c-5.8,6.8-8.8,10.2-14.6,16.9c98.6,81.7,226.9,99.7,339,155.5
		c115.4,57.5,178.3,161.6,238.9,270.6c58.5,105.3,119.3,204.5,225.7,267.4c94.6,55.9,201.8,85.9,297.3,140
		c102.4,58,165.5,149.5,224.8,248.5c60.3,100.7,116.4,223.2,212.9,295.1c94.3,70.2,214.7,97.9,322.2,141.1
		c52.3,21,105.5,45.1,149.2,81.4c37.2,30.9,66.8,70,91.2,111.6c26.5,45.2,47.3,93.4,75,137.9c33.4,53.6,76.5,99.1,131.5,130.8
		c136.8,79,306.7,88.2,432.1,188.7c120.8,111.9,156.8,283.1,259.6,408.5c76.5,93.3,184.5,117.5,291.2,159.9
		c46.1,18.3,90.8,42.5,127.6,76.1c41.9,38.3,73.4,87.2,101.8,135.8c58.2,99.5,103.2,214.5,186.6,296.6
		c84.1,82.7,209.8,120,316.4,163.7c108.4,44.5,210.7,93.2,284.5,187.3c68.7,87.5,114.5,190.8,185.2,276.8
		c76.6,93.3,181.6,138.3,292,179.7c118.4,44.4,232.5,91.3,307.3,198.7c71.3,102.4,108.1,226.1,203.2,311.3
		c5.8-6.8,8.8-10.2,14.6-16.9c-98.3-88-139.6-215.8-214.3-321.3C5291,4949.3,5248.6,4907.9,5196.1,4877.9z"/>
	
		<linearGradient id="SVGID_00000134968662872812506830000006757545018160543618_" gradientUnits="userSpaceOnUse" x1="3121.7373" y1="3108.103" x2="3121.7373" y2="2946.3687" gradientTransform="matrix(0.7576 0.6528 -0.6528 0.7576 2566.407 -1365.6813)">
		<stop  offset="0" style="stop-color:#FFAB1C"/>
		<stop  offset="0.1663" style="stop-color:#F0A11A"/>
		<stop  offset="0.4841" style="stop-color:#CA8816"/>
		<stop  offset="0.9172" style="stop-color:#8D5E0F"/>
		<stop  offset="1" style="stop-color:#80560E"/>
	</linearGradient>
	<path style="fill:url(#SVGID_00000134968662872812506830000006757545018160543618_);" d="M5200.8,4804.5
		c-46.7-23.3-98.4-32.7-149.2-42.3c-47.5-8.9-95.4-18.2-139.3-39.1c-48.4-23-86.2-59.4-117.5-102.5
		c-68.5-94.4-105.7-207.3-171.6-303.4c-64.8-94.4-160.3-140.3-264.4-180.5c-100.7-38.9-209.6-72.2-290.4-147.1
		c-90.1-83.5-150.5-195.5-221.1-294.6c-34.3-48.1-70.7-95.9-115.2-135.1c-40.7-35.7-87.3-63-136.3-85.8
		c-112.3-52.2-229.5-88.6-314.7-183.9c-108-120.8-161.4-283.4-284.1-392.1c0,0,0,0,0,0c0,0,0,0,0,0c0,0,0,0,0,0c0,0,0,0,0,0
		c-119.3-99.8-279.6-123-408.9-205.6c-109.9-70.1-163.3-184.5-233.2-289.3c-29.2-43.7-62.4-84.6-102.8-118.5
		c-45.8-38.5-98.7-67.6-151.8-94.6c-107.6-54.5-225.6-97.7-321-173.2c-87-68.8-136.3-172.5-190-266.8
		c-55.6-97.7-115.7-185.7-219.7-235.6c-104-49.9-219.7-70.3-322.3-123.4c-47.6-24.6-89.5-56.8-119.7-101.6
		c-27.4-40.6-43.6-87.1-59.5-133c-16.5-47.6-33.1-95.8-61.7-137.7c-35.6-52.1-88.5-87.6-143.6-116.5
		c-125.1-65.5-269-98.7-379.5-190.2c-5.8,6.8-8.8,10.2-14.6,16.9c106.6,88.3,245.6,117.5,366.6,179.6
		c55.6,28.5,106.9,64.7,143.8,116c31.6,44,52.2,94.4,72.8,144.1c19.8,48,39.9,96.7,70.2,139.2c31.7,44.5,73.5,78,121.4,103.8
		c100.3,54.1,213.8,77.2,315.4,128.3c104.4,52.4,165.5,142.5,222.4,241.1c55.3,95.8,106.4,204.1,195.8,273.5
		c94.7,73.5,212.9,112.4,320.1,163.4c53,25.2,106.1,52.9,151.5,90.6c39.6,32.9,71.9,73.4,99.8,116.5
		c66.9,103.6,116.5,216,225.5,283.7c131.5,81.7,294.8,100.9,416,201c122,109.6,170.6,274.7,277.1,396.8
		c82.6,94.7,197.4,127.6,308,177.1c48.1,21.5,94.2,47.8,133.8,83c43.8,38.9,78.7,87,111.4,135.3c67.1,99.3,123.2,212.1,211.2,295.1
		c81.8,77.1,195.4,111.5,297.8,151.8c105.2,41.4,202.9,88.1,270.2,182.5c66.7,93.6,106.3,203.8,175.5,295.8
		c32.4,43.1,71.6,79.3,119.9,103.8c46.3,23.5,96.9,36.2,147,48.7c53.7,13.3,108.2,26.6,157.5,52.5c53.6,28.2,95.2,71.7,130.6,120.2
		c81,111.1,130.1,246,234.2,339.3c5.8-6.8,8.8-10.2,14.6-16.9c-107.9-96.7-161.8-235.9-246.7-350.5
		C5296.2,4876.5,5255,4831.6,5200.8,4804.5z"/>
	
		<linearGradient id="SVGID_00000041996459365874869940000011370392110910848420_" gradientUnits="userSpaceOnUse" x1="3121.7373" y1="3062.2883" x2="3121.7373" y2="2879.2246" gradientTransform="matrix(0.7576 0.6528 -0.6528 0.7576 2566.407 -1365.6813)">
		<stop  offset="0" style="stop-color:#FFAB1C"/>
		<stop  offset="0.1663" style="stop-color:#F0A11A"/>
		<stop  offset="0.4841" style="stop-color:#CA8816"/>
		<stop  offset="0.9172" style="stop-color:#8D5E0F"/>
		<stop  offset="1" style="stop-color:#80560E"/>
	</linearGradient>
	<path style="fill:url(#SVGID_00000041996459365874869940000011370392110910848420_);" d="M5210.9,4735.1
		c-41.2-17.8-85.8-18.8-130-19.2c-41-0.4-82.5-1.3-121.3-16.2c-50.2-19.3-86.8-58.7-115.9-102.6c-66.3-100.1-97.8-218.6-161.9-320
		c-58.2-91.9-146.8-136.4-246-173.2c-97.8-36.2-198.4-66.6-277.7-137.5c-94.3-84.4-164.5-193.5-242.8-292
		c-75.1-94.4-155.8-172.1-264.1-226.9c-117.6-59.5-241.4-103.7-333.8-202.2c-110.6-118-175.7-273.5-299-380.5c0,0,0,0,0,0
		c0,0,0,0-0.1-0.1c0,0,0,0-0.1-0.1c0,0,0,0,0,0c-115.5-98.8-268.5-132-393.1-216.1c-112.3-75.9-174.3-194.2-250.8-301.9
		c-69.8-98.2-158.3-166.1-261.9-225.9c-108.3-62.6-225.8-115.7-323.1-195.5c-81.7-67.1-127-160.8-176.8-251.7
		c-52.3-95.6-110.5-179-213.5-223.6c-109.3-47.3-230.3-61.1-338.2-112c-46.7-22.1-89.9-51.7-116.4-97.1
		c-21.1-36.3-28.3-77.7-34.8-118.6c-6.7-42.4-13.9-85.3-36.1-122.8c-32-54-89.9-88.5-143.6-117.7
		c-134.4-73.1-289.4-115.4-408.7-214.2c-5.8,6.8-8.8,10.2-14.6,16.9c116.3,96.3,267.5,135.5,398.8,206
		c54.2,29.1,110.2,63.9,143.6,117.2c24.3,38.9,34.8,83.7,44.9,127.9c9.8,42.6,20.1,85.9,43.3,123.5c27.8,45.2,70.3,75.5,117.4,98.4
		c106.1,51.6,225.3,67.8,332.8,115.9c103.4,46.3,162.2,131.2,215.6,227.5c51.1,92.1,97.8,189.1,181.2,256.8
		c96.6,78.4,214.2,128.1,322.4,187.9c103.7,57.4,191.3,123.8,259.5,221.7c74.3,106.6,133.4,223.7,244.8,297.6
		c126.1,83.7,281.8,113.3,398.5,212.6c123.1,107.3,184.1,265.2,293.7,384.1c90.3,97.9,212.3,139.4,328.6,196.8
		c107.9,53.2,187,130.3,259.6,225.2c75.5,98.6,142.3,208.6,235.2,292.4c80.3,72.5,184.3,103.8,283.6,141.2
		c100,37.7,190.1,82.6,250,174.6c64.7,99.4,98.2,215.8,165,314c30.1,44.2,67.3,82.8,117.5,103.5c40.5,16.7,84.1,20.4,127.4,23.8
		c46.4,3.6,93.5,7.6,136.4,27.2c54.9,25.1,95.8,73.2,131.3,120.5c90.2,119.9,151.4,264.9,264.5,366.3c5.8-6.8,8.8-10.2,14.6-16.9
		c-116.1-104.1-180.9-252.3-274.1-375C5307.2,4808.9,5266.2,4759,5210.9,4735.1z"/>
	
		<linearGradient id="SVGID_00000013905658924323544440000010526954593643774653_" gradientUnits="userSpaceOnUse" x1="3121.7373" y1="3012.0027" x2="3121.7373" y2="2815.1135" gradientTransform="matrix(0.7576 0.6528 -0.6528 0.7576 2566.407 -1365.6813)">
		<stop  offset="0" style="stop-color:#FFAB1C"/>
		<stop  offset="0.1663" style="stop-color:#F0A11A"/>
		<stop  offset="0.4841" style="stop-color:#CA8816"/>
		<stop  offset="0.9172" style="stop-color:#8D5E0F"/>
		<stop  offset="1" style="stop-color:#80560E"/>
	</linearGradient>
	<path style="fill:url(#SVGID_00000013905658924323544440000010526954593643774653_);" d="M5235.6,4678c-39-16-79.9-12.4-120.7-7.6
		c-37.8,4.5-75.7,8-112.4-5c-50.1-17.7-87.8-59.2-115.9-102.7c-66.2-102.7-93.6-224.9-157.4-328.9
		c-114.1-186.1-360-165.6-511.5-303.5c-95.1-86.6-170.9-193.3-253.4-291.4c-40.6-48.4-82.4-96.9-130.2-138.3
		c-41.7-36.1-89.2-64.6-138-90.1c-119.1-62.4-245.8-110.1-340.2-209.8c-111.3-117.6-184.1-267.7-306-375.7c0,0,0,0,0,0
		c0,0,0,0-0.1-0.1c0,0,0,0-0.1-0.1c0,0,0,0,0,0c-115.5-96.7-264-137-387.1-221.6c-112.2-77.1-178-196-256.4-303.7
		c-32.8-45.1-68.4-88.5-111-124.8c-47.2-40.2-100-73.7-152.7-106.2c-109-67.1-225.3-126.4-325.4-206.8
		c-80.6-64.8-124.1-156-171.8-245.3c-50.5-94.6-109.3-177.8-211.6-220c-112.3-46.4-237-55.4-347.4-106.7
		c-46-21.3-91-52.3-115.2-98.1c-18.4-34.8-20.3-73.4-21.5-111.9c-1.2-40.3-4-80.3-25-115.9c-30.9-52.4-89.8-86.2-141.5-114.8
		c-138.8-76.9-299.9-123.5-423.3-225.8c-5.8,6.8-8.8,10.2-14.6,16.9C467.8,741.6,627,787.5,764.9,863.4
		c53,29.2,113.4,63.7,144.1,118.2c20.2,36,23.5,76.6,26,116.9c2.4,38.9,5.8,78.1,25,112.9c25.1,45.6,69.7,75.3,116,96.5
		c109.9,50.4,233.2,61,344.6,107.4c102.2,42.6,160.3,125.3,211.1,219.8c48.1,89.5,91.8,180.3,172,245.9
		c98.6,80.8,215.3,138.2,323.8,204c52.9,32.1,105.6,65.5,152.8,105.7c42.5,36.2,78.4,78.8,111.1,123.9
		c79,108.7,144.3,228.6,257.7,306.3c123.1,84.3,272.5,122.6,387.3,220.1c122.8,107.3,193.4,259.2,304.9,376.6
		c94.3,99.4,220.2,146.4,339.2,208.3c48.9,25.5,96.1,54.1,138,90.1c48.1,41.3,89.8,89.7,130.2,138.3
		c81.5,98.2,156,205.8,251.3,291.5c152.8,137.3,398.6,118.7,513.2,304.9c63.7,103.5,92.3,224.8,158.3,327
		c28.2,43.6,65.1,84.5,115.2,102.3c37,13.2,75.8,10.6,114.2,7.3c41.5-3.6,83.2-6.1,122.6,10c55.6,22.8,96.9,74.7,132.5,121
		c96.5,125.6,165.4,277.7,284.7,384.5c5.8-6.8,8.8-10.2,14.6-16.9c-119.9-107.3-189.9-260.4-286.9-386.6
		C5332.7,4753.2,5291.2,4700.8,5235.6,4678z"/>
	
		<linearGradient id="SVGID_00000042711066555358690910000014770355766280642951_" gradientUnits="userSpaceOnUse" x1="3121.7373" y1="2951.6099" x2="3121.7373" y2="2762.2393" gradientTransform="matrix(0.7576 0.6528 -0.6528 0.7576 2566.407 -1365.6813)">
		<stop  offset="0" style="stop-color:#FFAB1C"/>
		<stop  offset="0.1663" style="stop-color:#F0A11A"/>
		<stop  offset="0.4841" style="stop-color:#CA8816"/>
		<stop  offset="0.9172" style="stop-color:#8D5E0F"/>
		<stop  offset="1" style="stop-color:#80560E"/>
	</linearGradient>
	<path style="fill:url(#SVGID_00000042711066555358690910000014770355766280642951_);" d="M5296.1,4645.3
		c-42.5-18.2-88.9-18.9-134.4-19.3c-42.4-0.4-85.4-1-125.6-16.3c-50.2-19.1-86.9-58.9-116.1-102.7
		c-66.4-99.8-98.1-218.1-162.4-319.1c-57.3-90.2-144.6-135.5-241.9-172.3c-94.8-36-192.8-66.7-269.5-136
		c-95.3-86.2-169.2-194.9-250.3-293.8c-40.1-48.9-81.5-97.5-129.4-139c-41.4-35.8-88-63.8-136.8-88.3
		c-118.2-59.4-242.8-103-335.4-202.1c-110.5-118.2-174.2-274.8-297.6-381.7c0,0,0,0,0,0c0,0,0,0-0.1,0c0,0,0,0-0.1-0.1c0,0,0,0,0,0
		c-115.6-99.1-269.5-130.8-394.4-214.9c-112.9-76-174.6-195.3-251-303.5c-31.8-45-67-87.2-109.2-123
		c-47.3-40.1-100.2-73.2-153.3-104.9c-109.3-65.3-226.8-122.1-326-202.7c-79.8-64.9-125-155.9-174.1-244
		c-52.2-93.6-110.9-175.5-212-219.4c-109-47.4-229.8-61.5-337.5-112.5c-46.6-22.1-90.2-51.7-116.5-97.2
		c-21.7-37.5-28.9-80.7-35.5-122.9C980,985.7,972.8,941,950,902.2c-31.7-53.9-89.8-88.8-143.7-117.2
		C672.2,714.3,516,677.8,398.2,578.8c-5.8,6.8-8.8,10.2-14.6,16.9C504,696.8,662.8,738.3,799.3,812.2
		C852.5,841,912.2,875.8,943.1,930c21.1,37.1,25.7,79.4,29.9,121.1c4,40.2,8.7,81.1,28.7,117c25.4,45.4,69.8,74.8,116,96.2
		c109.1,50.6,231.4,62.6,342,109.3c101.7,43,160,125.3,211.4,219.3c48.3,88.5,92.6,179.5,172.3,244.4c99.2,80.7,216,138.5,325,204.5
		c52.9,32.1,105.7,65.4,153,105.5c42.5,36,78.1,78.5,110.5,123.6c78.1,108.7,142.1,228.4,255.4,305.7
		c123.6,84.4,274.9,119.8,389.8,218.2c123.4,106.9,191.1,260.9,302.3,378.5c93.9,99.3,219.3,145.1,338.2,206.2
		c48.9,25.1,95.9,53.6,137.6,89.6c47.9,41.5,89.6,89.9,130,138.5c81.8,98.5,156.6,206.3,251.9,292.5
		c76.7,69.3,174.6,99.1,269.6,134.2c97.6,36,185.2,80.9,241.7,171.7c63.8,102.6,93.7,222.7,159.8,324.1c28.4,43.6,65,84.2,115,102.3
		c38.3,13.9,78.8,12.4,118.8,10.5c43-2.1,86.7-3.6,127.3,13.2c55.3,23,96.9,74.4,132,120.8c94.3,124.6,158.8,276.8,277.4,381.6
		c5.8-6.8,8.8-10.2,14.6-16.9c-116.1-102.5-175.3-252.9-266.1-375.6C5392.6,4718.9,5351.2,4669,5296.1,4645.3z"/>
	
		<linearGradient id="SVGID_00000076579140405730336160000004557354901137222586_" gradientUnits="userSpaceOnUse" x1="3121.7373" y1="2882.4434" x2="3121.7373" y2="2691.9189" gradientTransform="matrix(0.7576 0.6528 -0.6528 0.7576 2566.407 -1365.6813)">
		<stop  offset="0" style="stop-color:#FFAB1C"/>
		<stop  offset="0.1663" style="stop-color:#F0A11A"/>
		<stop  offset="0.4841" style="stop-color:#CA8816"/>
		<stop  offset="0.9172" style="stop-color:#8D5E0F"/>
		<stop  offset="1" style="stop-color:#80560E"/>
	</linearGradient>
	<path style="fill:url(#SVGID_00000076579140405730336160000004557354901137222586_);" d="M5377.6,4622.2
		c-50.5-23.8-106.3-32.1-160.8-40.9c-51-8.2-102.8-16.5-150.2-37.8c-49.4-22.2-87.6-58.9-119.2-102.3
		c-68.6-94.1-106.1-206.6-172.2-302.3c-61.4-89-150.5-136.8-248.4-177.1c-93.1-38.3-189.6-72.5-264.9-141.9
		c-94.9-87.3-165.9-199.2-245.2-300c-37.9-48.1-77.1-96.4-123.3-136.9c-41.2-36.1-88.5-63.3-138.2-86
		c-114.1-52.1-234.6-87.8-320.6-184.9c-107.6-121.5-158.3-286-281.1-395.1c0,0,0,0,0,0c0,0,0,0,0,0c0,0,0,0,0,0c0,0,0,0,0,0
		c-119.9-100.1-281.7-120.6-411.9-202.7c-111.9-70.6-165.1-188.5-235.1-295.1c-29.2-44.4-62.5-85.9-103.2-120.3
		c-47.4-39.9-101.2-71.8-154.8-102.3c-110.5-62.8-230-116.3-329.9-196.1c-80.6-64.4-129-155.4-181-242.4
		c-54.7-91.6-115.7-172.9-213.9-220.3c-103.6-50.1-219.1-70.8-321.3-124.1c-48-25-90.2-57.4-119.8-103.3
		c-28.3-44-44.1-94.6-59.9-144c-16.3-51.3-32.5-103.6-62.1-149.1c-34.5-53.1-87.3-88.5-143.8-115c-125.3-58.7-271-77.9-380.1-168.1
		c-5.8,6.8-8.8,10.2-14.6,16.9c112.6,93.9,262.8,120.2,391.7,183.9c55.5,27.4,110.2,62.5,143.7,115.9
		c26.7,42.6,39.2,91.9,51.7,140.1c12.1,46.5,24.3,94,49.8,135.3c28.2,45.7,70.8,76.8,118.3,100.6c104.5,52.3,222.1,70.4,328,119.3
		c99.5,46,159.5,127.5,213.2,219.9c50.8,87.4,97.9,178.5,178.2,243.1c99.5,80.2,218.3,135,328.3,198.8
		c53.5,31,106.9,63.5,154.2,103.4c41.4,34.9,75.5,76.7,105.8,121.4c72.7,107.3,129.4,225.8,241.7,298.6
		c127.9,83,286.7,107.9,404.7,207.8c123,107.8,179,268.9,287.5,388.9c89.3,98.8,212.4,137.7,329,193.4c48.2,23,94.2,50.1,134.7,85.1
		c47.9,41.4,88.7,90.7,128.1,140c79.8,99.9,151.9,210.1,246.8,296.6c76.6,69.8,174.7,102.5,269.2,140.2
		c96.4,38.5,183.4,85.1,242.5,173.4c65.3,97.6,100.5,212.2,167.7,308.7c31,44.5,69.1,83,119.9,104.1c44.4,18.5,92.6,23.5,139.9,28.5
		c50.7,5.4,102.6,10.7,149.6,32.2c54.9,25.2,95.9,72.2,129.9,120.7c83.1,118.5,131.2,264.5,241.5,362.6c5.8-6.8,8.8-10.2,14.6-16.9
		c-106.5-95.5-146.4-238.6-224.7-354.4C5473.6,4693,5432.6,4648.1,5377.6,4622.2z"/>
	
		<linearGradient id="SVGID_00000026131091606410162000000009737355698330868103_" gradientUnits="userSpaceOnUse" x1="3121.7373" y1="2810.1006" x2="3121.7373" y2="2621.0403" gradientTransform="matrix(0.7576 0.6528 -0.6528 0.7576 2566.407 -1365.6813)">
		<stop  offset="0" style="stop-color:#FFAB1C"/>
		<stop  offset="0.1663" style="stop-color:#F0A11A"/>
		<stop  offset="0.4841" style="stop-color:#CA8816"/>
		<stop  offset="0.9172" style="stop-color:#8D5E0F"/>
		<stop  offset="1" style="stop-color:#80560E"/>
	</linearGradient>
	<path style="fill:url(#SVGID_00000026131091606410162000000009737355698330868103_);" d="M5276,4536.5
		c-60.1-16.5-121.2-32.8-177.1-60.8c-50.4-25.3-92-61.3-127.2-105.3c-70.3-87.8-114.1-193.2-182.3-282.6
		c-64.9-85.1-153.7-135.8-249.8-179c-92.5-41.6-189.3-79.3-264.3-149.8c-94-88.2-161.7-202.8-238.4-305.4
		c-36.6-48.9-74.7-98.3-120.6-139c-39.2-34.8-85.5-59.7-133.9-79.4c-111.1-45.1-228.4-71.6-308.3-168.6
		c-103.4-125.5-140.1-297-261.4-408.9c0,0,0,0,0,0c0,0,0,0,0,0c0,0,0,0,0,0c0,0,0,0,0,0c-124.8-100.4-294.1-109.3-430.3-188.2
		c-111.2-64.4-155.1-179.3-217.6-284.3c-25.9-43.5-56.5-84.2-95.2-117.1c-46.7-39.7-101.3-70.2-155-99.2
		c-113.2-61.1-236.8-111.4-338.7-191.3c-82.7-64.9-134.8-157.5-190.9-244.4c-56.3-87.4-119.5-165.8-212.1-216.6
		c-97.2-53.3-206.3-81-302.5-136.2c-50.6-29-94.3-66.2-127.6-114.4c-35.7-51.8-60.8-110.1-86.2-167.5
		C1005.5,782.9,952.1,667.4,828,616.9c-116.8-47.5-251.4-45.1-353.1-127.2c-5.8,6.8-8.8,10.2-14.6,16.9
		c104.8,85.4,244.7,90.8,364.9,143.2c55.9,24.4,103.4,59.5,138.4,109.9c34.8,50,57.2,107.4,79.7,163.6
		c21.8,54.4,43.4,109.8,76.1,158.7c32.1,48,75.7,83.8,126,111.5c98.4,54.2,209.8,79.3,309.1,131.5c93.8,49.3,155.9,128,211.3,216.2
		c54.9,87.4,105.7,180,188,245.1c101.6,80.3,224.3,131.9,337.1,194.1c53.5,29.5,107.7,60.5,154.4,100.3
		c39.3,33.5,70.8,74.5,97.8,118.3c65.2,105.5,112.7,221.4,224.1,287.8c133.9,79.8,300.2,93.2,423.1,193.3
		c121.8,110.9,163.8,279.8,268.7,403.8c82.1,97,200.7,127,312.8,174.7c48.8,20.8,95.5,46.5,135.5,81.8
		c46,40.6,84.5,89.6,121.6,138.2c77.7,101.9,146.6,215.5,240.9,303.4c75.2,70.1,171.9,106.5,264.6,146.8
		c96.7,42.1,185.7,91.7,249.3,178.3c67.3,91.7,108.8,199.8,178.5,289.9c33.9,43.8,74.2,79.9,124.3,104.2
		c52.7,25.5,110.4,38.8,167.1,52.3c60.7,14.4,122.8,28.2,178.9,56.4c54.6,27.4,96.1,69.4,128.1,120.9c69.1,111,95.3,247.9,195,338.7
		c5.8-6.8,8.8-10.2,14.6-16.9c-96-88.2-113.6-221.1-177.4-329.4C5523.9,4606,5399.7,4570.5,5276,4536.5z"/>
	
		<linearGradient id="SVGID_00000165931085934524558110000014948679845205592968_" gradientUnits="userSpaceOnUse" x1="3121.7373" y1="2739.3928" x2="3121.7373" y2="2548.8298" gradientTransform="matrix(0.7576 0.6528 -0.6528 0.7576 2566.407 -1365.6813)">
		<stop  offset="0" style="stop-color:#FFAB1C"/>
		<stop  offset="0.1663" style="stop-color:#F0A11A"/>
		<stop  offset="0.4841" style="stop-color:#CA8816"/>
		<stop  offset="0.9172" style="stop-color:#8D5E0F"/>
		<stop  offset="1" style="stop-color:#80560E"/>
	</linearGradient>
	<path style="fill:url(#SVGID_00000165931085934524558110000014948679845205592968_);" d="M5329.9,4491.8
		c-123.1-42.2-242.9-84.3-329.9-185.8c-71.4-83.2-120.7-182.5-190.2-267.1c-67.7-82.5-155.5-135.2-250.6-180.8
		c-91.9-44.1-188.9-84.6-263.9-155.7c-93.6-88.7-158.5-205.6-233.2-309.5c-35.6-49.5-73-99.8-118.8-140.5
		c-38-33.8-83.2-57.5-130.9-74.7c-109.3-39.7-222.9-59-299.2-156c-100.8-128.2-125-306.1-246.5-419.4c0,0,0,0,0,0c0,0,0,0,0,0
		c0,0,0,0,0,0c0,0,0,0,0,0c-128.2-101.9-304.5-100.5-445.1-177.8c-111-61-147.1-173-204.1-277.3c-23.5-43.1-52.7-82.9-90.3-114.8
		c-46.7-39.6-102-69.3-156.2-97.2c-114.3-58.9-239.8-106.1-342-185.5c-83.3-64.7-138.3-157.2-196.9-243.1
		c-58.6-86-123.4-163.3-213.8-217.2c-92.8-55.3-196.6-89.3-288.5-146.3c-50.9-31.6-94.8-70.4-130-119
		c-42.1-58-74.5-122.5-107.4-185.9C1033.8,725.2,972,583.7,842.2,539.5c-110.4-37.7-232.6-17.2-328.9-94.3
		c-5.8,6.8-8.8,10.2-14.6,16.9C596.5,540.4,723,526,835.2,566.8c128.1,46.6,186.9,179.1,243.4,293.2c30.5,61.5,60.5,124,100.6,179.9
		c34.7,48.5,78.6,87.1,129.5,117.9c93.3,56.5,198.9,88.3,293,143c90.9,52.9,155.4,130.7,213.2,217.1
		c57.7,86.3,111.8,178.8,195,243.5c186.4,145,465.7,182.3,588.5,400.6c58.8,104.5,97.4,217.6,208.4,279.5
		c139.3,77.7,313.2,79.9,440.5,181.1c121.1,113.1,149.8,288.7,251.2,416.2c77.2,97,192.2,118.6,301.9,160
		c236.1,89,313.4,360.9,485.9,524.3c75,71,172,110.6,264.1,153.9c95.3,44.8,183.6,96.9,250.4,180.2
		c69.1,86.1,116.5,187.5,187.6,272.1c84.4,100.3,200.8,140.5,322.1,179.6c122.8,39.6,265.2,78,330.8,199.8
		c56.4,104.8,61.1,231.5,152.7,316.3c5.8-6.8,8.8-10.2,14.6-16.9c-90.2-83.5-88.3-206.8-141.3-310.3
		C5603.8,4573.8,5451.9,4533.6,5329.9,4491.8z"/>
	
		<linearGradient id="SVGID_00000045591967215380557490000003504586423332048776_" gradientUnits="userSpaceOnUse" x1="3121.7373" y1="2675.6418" x2="3121.7373" y2="2487.2019" gradientTransform="matrix(0.7576 0.6528 -0.6528 0.7576 2566.407 -1365.6813)">
		<stop  offset="0" style="stop-color:#FFAB1C"/>
		<stop  offset="0.1663" style="stop-color:#F0A11A"/>
		<stop  offset="0.4841" style="stop-color:#CA8816"/>
		<stop  offset="0.9172" style="stop-color:#8D5E0F"/>
		<stop  offset="1" style="stop-color:#80560E"/>
	</linearGradient>
	<path style="fill:url(#SVGID_00000045591967215380557490000003504586423332048776_);" d="M5369.5,4445.9
		c-68.7-24.6-138.6-48.6-203.2-83c-51.1-27.2-93.3-63.1-131.1-106.7c-71.5-82.5-123.1-180-192.8-263.8
		c-68.4-82.2-155.2-135.1-250.3-181.3c-92-44.6-188.6-85.7-264.1-156.6c-171.7-161.3-240.9-439.4-478.6-523.6
		c-109.2-38.7-221.8-56.8-297.8-153.8c-100.6-128.4-121.9-308-244-421.2c0,0,0,0,0,0c0,0,0,0,0,0s0,0,0,0c0,0,0,0,0,0
		c-128.4-102.8-306.4-98.8-447.6-176.1c-56.2-30.8-99.1-77.6-131-132.8c-26.7-46.3-45.4-96.5-70.7-143.5
		c-118.4-220.7-402.5-249-586.8-393.6c-83.2-65.3-138.7-157.2-197.8-243.1c-59.1-86-124-162.3-214.2-216.9
		c-92.1-55.7-194.4-92.2-285.7-149.4c-50.7-31.8-94.3-69.9-129.7-118.4c-43.5-59.6-77.6-125.5-112.4-190.3
		c-60.1-112.1-123.8-259.4-254.5-302.5c-109.9-36.3-230-11.5-325.7-88.9c-5.8,6.8-8.8,10.2-14.6,16.9
		c48.2,39.2,103.4,55.6,164.3,62.3c52.6,5.8,106.3,6.6,157.1,22.9c133,42.7,198.1,195.4,259.5,308.6c35,64.7,69.6,130.6,113.5,189.8
		c34.4,46.5,76,82.7,124.7,113.6c91.8,58.3,195.1,95.3,287.9,151.7c91.5,55.6,156.5,133.7,216.8,220.8
		c58,83.9,113.3,173.8,194.4,237.8c101.2,79.8,227.5,125.5,341.5,183.3c102.5,52,194.5,110.3,249.3,214.5
		c23.8,45.3,41.5,93.5,66.6,138.1c30.9,54.8,73.1,102,128.1,133.4c141.8,80.9,323.8,72.4,453.3,177.7c2.4-2.8,4.3-5,6-7
		c-1.7,2-3.6,4.2-6,7c123.3,112.5,141.8,293.8,242.7,422.1c39.1,49.8,92,84.6,150.8,107c47.8,18.2,98.1,28.6,146.4,45.4
		c111.2,38.7,182.4,121.2,249,214.8c74.1,104.2,137.9,222.3,231.8,310.6c75.3,70.8,172.4,112.1,263.9,157.1
		c95.1,46.7,181.9,99.5,250.4,181.7c69.5,83.5,121.4,180.2,192.6,262.3c37.8,43.6,79.7,79.3,130.8,106.5
		c65.1,34.7,135.4,59.1,204.5,84.2c121,43.9,281.6,85.8,343.5,211c23.6,47.8,32.4,100.8,45.9,152c15.6,59.3,40,111.4,85.9,153.3
		c5.8-6.8,8.8-10.2,14.6-16.9c-90.4-82.9-84-204.8-135.5-308C5649.1,4530.6,5490.9,4489.3,5369.5,4445.9z"/>
	
		<linearGradient id="SVGID_00000052100361897960511880000008162142078594472342_" gradientUnits="userSpaceOnUse" x1="3121.7373" y1="2619.7122" x2="3121.7373" y2="2435.9856" gradientTransform="matrix(0.7576 0.6528 -0.6528 0.7576 2566.407 -1365.6813)">
		<stop  offset="0" style="stop-color:#FFAB1C"/>
		<stop  offset="0.1663" style="stop-color:#F0A11A"/>
		<stop  offset="0.4841" style="stop-color:#CA8816"/>
		<stop  offset="0.9172" style="stop-color:#8D5E0F"/>
		<stop  offset="1" style="stop-color:#80560E"/>
	</linearGradient>
	<path style="fill:url(#SVGID_00000052100361897960511880000008162142078594472342_);" d="M5383.2,4386.6
		c-65.6-21.2-132.3-42-193.7-73.8c-51-26.4-93-62.5-130-106.3c-72.4-85.7-123.2-187.1-193.9-274.1c-67.4-83-153.6-134.7-249.9-178.1
		c-92.3-41.6-188.4-79.5-263.3-149.9c-88.2-82.9-144.7-194.7-212.2-293.8c-33-48.5-68.6-96.7-112.8-135.7
		c-38.9-34.4-84.7-58.9-132.9-77.7c-110.4-43.2-226.6-67.3-305-164.3c-102.3-126.5-135.1-300-256.2-412.6c0,0,0,0,0,0c0,0,0,0,0,0
		c0,0,0,0,0,0c0,0,0,0,0,0c-126.1-100.7-297.7-106.4-435.5-184.6c-111.1-63.1-152.3-177.1-213-281.8
		c-25.1-43.4-55.2-83.7-93.5-116.3c-44.9-38.3-97.8-66.6-150.7-92.2c-108.3-52.4-227.6-91.9-323.2-166.9
		c-82.6-64.8-134.8-156.6-190.9-243.3c-56.6-87.6-120.3-163.5-211.2-217c-95.3-56.1-201.5-91.2-295.9-148.9
		c-50.7-31-94.5-68.7-129.1-117.3c-40.4-56.7-70.8-120-101.7-182.1c-57.9-116.4-116.2-247.1-245.6-296.5
		C826.5,429,691.2,438,590,356.2c-5.8,6.8-8.8,10.2-14.6,16.9c98.2,79.2,227,63.3,340.1,103.8c130,46.6,190.6,184.6,249.6,299
		c32.7,63.4,64.8,127.9,106.6,185.9c35,48.6,78.8,86.6,129.5,118c93,57.5,197.4,93.1,291.2,149.1c90.4,54,154.9,130.1,212.6,216.9
		c57.5,86.5,111.3,178.2,194.3,243.3c98.3,77.1,220.5,119.2,331.4,174c53.8,26.6,107.8,55.5,153.6,94.7
		c37.8,32.3,67.3,72.2,91.6,115.5c58.5,104.5,96.7,217.4,207.7,279.1c139.5,77.6,313.8,79.3,441.3,180.5
		c121.1,113.2,149.1,289.2,250.4,416.7c77,97,191.8,118.3,301.5,159.4c47.9,17.9,93.2,41.9,131.7,75.9
		c45.1,39.9,81.6,89,115.7,138.3c70.2,101.3,129.7,215.6,220.3,300.8c75.3,70.7,171.5,110.2,263.8,153.2
		c95.7,44.7,182.3,97,250.1,179.6c70.3,85.6,121.3,185.2,193.4,269.4c37.4,43.7,79.7,79.7,130.8,106.6c62.9,33,131.1,55.3,198.1,78
		c123.6,41.9,271.8,81.4,337.7,205.2c56.3,105.7,59.9,234.9,152.4,320c5.8-6.8,8.8-10.2,14.6-16.9
		c-95.6-87.7-106.9-222.2-167.7-330.9C5649.1,4465.4,5508.6,4427.2,5383.2,4386.6z"/>
	
		<linearGradient id="SVGID_00000171689859667557261620000002942491630989377166_" gradientUnits="userSpaceOnUse" x1="3121.7373" y1="2569.1951" x2="3121.7373" y2="2382.8523" gradientTransform="matrix(0.7576 0.6528 -0.6528 0.7576 2566.407 -1365.6813)">
		<stop  offset="0" style="stop-color:#FFAB1C"/>
		<stop  offset="0.1663" style="stop-color:#F0A11A"/>
		<stop  offset="0.4841" style="stop-color:#CA8816"/>
		<stop  offset="0.9172" style="stop-color:#8D5E0F"/>
		<stop  offset="1" style="stop-color:#80560E"/>
	</linearGradient>
	<path style="fill:url(#SVGID_00000171689859667557261620000002942491630989377166_);" d="M5573.7,4382.8
		c-60.4-30.6-127.1-47.3-192.2-64.8c-60.8-16.4-122.8-32.4-179.6-60.2c-50.9-24.9-91.3-61.3-126.9-105
		c-73.6-90.5-123.6-197.3-195.4-289.2c-66.2-84.8-150.9-133.9-249.3-173.5c-91.8-36.9-188.2-69.7-261.5-139
		c-80.3-75.7-127.2-179.3-185.8-271c-29.3-45.9-61.7-90.5-102.5-126.9c-40.3-35.9-87.7-62.3-136.9-84c-113.2-50-232.8-83-316.9-180
		c-106.3-122.7-152.9-289.3-275.2-399.2c0,0,0,0,0,0c0,0,0,0,0,0c0,0,0,0,0,0c0,0,0,0,0,0c-121.5-100.3-285.8-117.2-417.8-198.5
		c-111.6-68.8-162-186.2-229.9-292.2c-28.2-44.1-60.7-85.7-101.1-119.2c-42.4-35.2-91.6-60.8-141.7-83
		c-98.6-43.8-206.3-75-292.7-141.9c-80.2-62.2-127.3-153.6-177.6-239.4c-54.1-92.2-115.9-169.1-210.5-222
		c-100.7-56.3-212.4-90.1-311.8-148.8c-48.8-28.8-91.3-63.5-123.6-110.5c-36.1-52.5-61.2-111.9-86.6-170
		c-26.3-60.2-52-121.8-89.7-176c-37.9-54.6-89.1-91.3-149.7-117.6c-128.2-55.7-279.5-68.2-390.5-159c-5.8,6.8-8.8,10.2-14.6,16.9
		c107.8,87.8,254.4,91.2,378.6,143.7c58.1,24.6,105.2,60.4,142,111.9c39.6,55.4,67.7,118.4,96.1,180
		c27.6,59.7,54.7,120.6,92.2,174.8c33.6,48.7,77.5,85.3,128.1,115.5c97.4,58,206.7,92.1,304.9,148.4c91.8,52.6,154,127.9,208.6,217
		c53.2,86.9,102.3,179.3,184.1,243.3c90.6,70.9,204.1,105.4,307.3,153.1c51.1,23.6,101.7,50.4,144.7,87
		c39.3,33.4,70.5,74.4,97.4,118.1c64.8,105.4,111.7,221.2,223.1,287.3c134.2,79.7,301,92.4,424.2,192.5
		c121.7,111,163,280.4,267.6,404.6c81.7,97,200.1,126.4,312.1,173.8c48.8,20.6,95.4,46.2,135.3,81.5
		c42.2,37.4,75.9,83.6,106.7,130.5c62.1,94.6,112.9,201.5,196.3,280.1c74,69.7,170.2,104.6,262.3,143.4
		c97.6,41.1,183,91.2,249.6,175.3c71.2,90,121.6,194.6,194.8,283.2c36.2,43.8,77.2,80,128.2,105.5c58.6,29.4,122.5,47.3,185.2,65.6
		c67.1,19.6,135.8,38.3,198.2,70.6c55.9,28.9,98,70.6,130.5,124.1c69.8,114.9,95,258.7,197.5,352.1c5.8-6.8,8.8-10.2,14.6-16.9
		c-107.4-97.4-141.4-247-217.3-366.2C5672.5,4454.9,5630.5,4411.5,5573.7,4382.8z"/>
	
		<linearGradient id="SVGID_00000139288714068004613390000010145885981085004191_" gradientUnits="userSpaceOnUse" x1="3121.7373" y1="2519.9878" x2="3121.7373" y2="2330.2432" gradientTransform="matrix(0.7576 0.6528 -0.6528 0.7576 2566.407 -1365.6813)">
		<stop  offset="0" style="stop-color:#FFAB1C"/>
		<stop  offset="0.1663" style="stop-color:#F0A11A"/>
		<stop  offset="0.4841" style="stop-color:#CA8816"/>
		<stop  offset="0.9172" style="stop-color:#8D5E0F"/>
		<stop  offset="1" style="stop-color:#80560E"/>
	</linearGradient>
	<path style="fill:url(#SVGID_00000139288714068004613390000010145885981085004191_);" d="M5558.8,4300.7
		c-55.3-26.7-116.6-38.4-176.4-50.6c-56-11.5-112.9-22.7-165.4-46.1c-52.7-23.4-92.7-61.8-127.7-106.9
		c-74.1-95.3-123.6-206.9-196.1-303.2c-31.4-41.7-67.2-78.8-111.7-106.5c-41.1-25.6-86.2-43.6-131.7-59.7
		c-92.2-32.8-190.8-60.1-263.8-129.1c-72.5-68.5-109.8-162.8-159.2-247.3c-26.1-44.7-56.4-87.2-95.4-121.6
		c-40.6-35.7-87.5-63.1-135.8-86.9c-117.5-57.8-241.4-99.3-332.6-198.2c-109.6-119-169.8-277.7-293.1-384.9c0,0,0,0,0,0
		c0,0,0,0-0.1,0c0,0,0,0-0.1,0c0,0,0,0,0,0c-116.6-99.5-272.7-128.1-399-211.7c-112.6-74.6-172.1-193.5-246.8-301.4
		c-31-44.7-65.6-87.3-107.5-122.1c-39.1-32.4-84.5-55.4-131.4-74.1c-90.3-36.1-188.2-59-266.6-119.5
		c-79-60.9-120.9-153.4-166.5-239.3c-23.6-44.5-48.9-88.6-81.9-126.9c-34.6-40.3-77.5-70.2-124.1-95.1
		c-105.6-56.5-222.5-88.9-326.8-148c-48.5-27.5-91.2-60.4-122-107.6c-31.6-48.5-51.2-104-71-158c-20.5-56-40.6-113.4-73.6-163.6
		c-37.4-56.8-93.6-93.3-153.7-122.8C957.6,400,790.2,369.3,666.8,267.1c-5.8,6.8-8.8,10.2-14.6,16.9
		c118.9,98.1,280.7,122.3,417.3,186.8c60.3,28.5,114.7,64.9,152.3,121c34.6,51.6,56.8,110.5,79.4,168
		c21.8,55.5,43.5,112.3,76.6,162.3c31.2,47.1,73.9,80.6,122.5,108.6c102.6,58.9,217.5,91.9,321.4,148.3
		c46.3,25.1,88.8,55.3,123.5,95.1c33.5,38.4,59.6,82.4,84.1,126.9c47.3,85.8,91.1,178,170.4,239.3c81.2,62.7,182.7,88.6,275.9,127.5
		c48,20,94.8,43.9,135,77.3c41.4,34.4,75.3,76.6,105.3,121.1c72.3,107.2,128.5,225.6,240.7,298.1
		c128.3,82.9,287.5,107.1,405.7,207.1c123.3,108.3,178.5,270.4,287.4,390.7c88.1,97.3,209.4,135.8,324.6,190.1
		c49.8,23.5,98.2,51.2,139.4,88c38.7,34.6,69.1,77,95.9,121.2c52.9,87.2,93.6,185.3,168.9,256.5c72.4,68.5,169.1,98,260.4,131.9
		c47.3,17.5,94.4,36.7,137.1,63.8c44.3,28.2,80.2,65.1,111.9,106.7c72.3,95,122,205.2,196.3,298.8c34.7,43.7,73.9,80.3,124.8,104.2
		c53.9,25.3,112.8,38.3,170.6,51.5c61.8,14.2,125.2,27.6,182.5,55.5c58.2,28.3,100.5,74.6,136.4,127.5
		c85.8,126.3,133.2,284.7,249,388.8c5.8-6.8,8.8-10.2,14.6-16.9c-120.1-107.7-175.1-270-265.8-400.2
		C5659.7,4377.2,5617.3,4328.9,5558.8,4300.7z"/>
	
		<linearGradient id="SVGID_00000100343544962183481850000000839939109211219898_" gradientUnits="userSpaceOnUse" x1="3121.7373" y1="2468.6194" x2="3121.7373" y2="2275.2109" gradientTransform="matrix(0.7576 0.6528 -0.6528 0.7576 2566.407 -1365.6813)">
		<stop  offset="0" style="stop-color:#FFAB1C"/>
		<stop  offset="0.1663" style="stop-color:#F0A11A"/>
		<stop  offset="0.4841" style="stop-color:#CA8816"/>
		<stop  offset="0.9172" style="stop-color:#8D5E0F"/>
		<stop  offset="1" style="stop-color:#80560E"/>
	</linearGradient>
	<path style="fill:url(#SVGID_00000100343544962183481850000000839939109211219898_);" d="M5703.4,4363
		c-38.1-52.1-80.7-103.1-140.3-130.8c-52.2-24.3-110.1-32.5-166.5-41.1c-52.8-8-106.6-15.9-156-37c-52.7-22.5-92.3-61.5-126.6-106.5
		c-75-98.4-123.8-213.8-197.1-313.3c-31.1-42.2-66.8-79.8-111.8-107.2c-40.8-24.9-85.9-41.5-131.2-56.1
		c-92.6-29.7-190.3-53.7-263-122.5c-68.1-64.5-98.6-152.3-142.4-232.8c-52.2-96-132.1-157.1-227.8-206.9
		c-119.1-62-245.2-109.1-339.7-208.6c-111.5-117.4-182.1-269.3-304.9-376.5c0,0,0,0,0,0c0,0,0,0-0.1-0.1c0,0,0,0-0.1-0.1
		c0,0,0,0,0,0c-114.8-97.5-264.1-135.7-387.1-220c-113.6-77.9-178.9-198-258.1-306.8c-62.9-86.5-135-155.9-236.8-193
		c-85.4-31.1-176.1-48.2-249.7-104.9c-78.8-60.7-117.4-152.8-160-239.5c-21.9-44.6-45.8-88.9-78-127
		c-34.4-40.7-77.9-70.5-124.9-95.1c-108.8-56.8-229.3-88-336.8-147.6c-48.3-26.8-91.7-59.3-121.5-106.6
		c-28.9-45.9-44.7-98.6-60.6-150c-16.5-53.2-32.7-107.9-62.8-155.3c-36.9-58-96.1-94.2-155.9-125.3c-78.5-40.8-161.1-73.2-242-108.9
		c-75.5-33.3-152.7-67.9-216.8-120.8c-5.8,6.8-8.8,10.2-14.6,16.9c129.4,107.2,303.9,146.5,451.4,222.1
		c59.9,30.7,118.4,67,155.4,124.8c30.9,48.2,48.3,103.7,66,157.7c17.1,52.1,34,105.7,63.6,152.3c30,47.3,73.1,79.7,121.4,106.6
		c106.6,59.4,225.9,91.1,333.9,147.7c46.9,24.6,90.2,54.4,124.7,95.1c32.4,38.3,56.7,82.4,79.1,127c43.4,86.2,83,178.7,161.6,239.3
		c74.9,57.7,167.8,76.5,254.5,109c101.8,38.2,174.5,106.2,237.3,193.7c77.9,108.6,141.6,228.3,254.8,305.4
		c123.8,84.4,275.5,119.3,390.4,217.8c123.4,106.8,190.5,261.2,301.7,378.9c93.8,99.2,219.1,144.8,337.9,205.6
		c96.6,49.5,175.3,111.5,228.5,207.3c45.3,81.6,77.9,171.4,147.1,236.9c72.6,68.7,170.8,93.6,263.1,124.2
		c45.4,15.1,90.4,32,131.3,57.1c44.9,27.5,80.5,65,111.8,107.1c73.1,98.6,122.1,212.8,196.8,310.3c34.5,45,74,83.8,126.6,106.5
		c50.3,21.7,105.1,30.5,158.7,39.6c57.3,9.7,116.2,19,169.3,43.9c59.4,27.8,102.1,78.3,139.8,130.5
		c97.7,135.3,162.3,303.4,288.4,416.3c5.8-6.8,8.8-10.2,14.6-16.9c-63.5-57-110-130.5-155.1-202.2
		C5798.9,4509.4,5755,4433.5,5703.4,4363z"/>
	
		<linearGradient id="SVGID_00000060750192161940488310000018247122287567033494_" gradientUnits="userSpaceOnUse" x1="3121.7373" y1="2411.8979" x2="3121.7373" y2="2218.2981" gradientTransform="matrix(0.7576 0.6528 -0.6528 0.7576 2566.407 -1365.6813)">
		<stop  offset="0" style="stop-color:#FFAB1C"/>
		<stop  offset="0.1663" style="stop-color:#F0A11A"/>
		<stop  offset="0.4841" style="stop-color:#CA8816"/>
		<stop  offset="0.9172" style="stop-color:#8D5E0F"/>
		<stop  offset="1" style="stop-color:#80560E"/>
	</linearGradient>
	<path style="fill:url(#SVGID_00000060750192161940488310000018247122287567033494_);" d="M5611.2,4198.3
		c-53.9-25.4-113.7-35.6-171.8-46.4c-54.5-10.1-110-19.9-161.1-42.1c-52.5-22.8-92.2-61-126.5-106.1
		c-73.9-97.2-120.7-211.9-192.9-310.2c-31.1-42.3-67-79.6-111.9-107.1c-40.9-25-86-42-131.3-57c-92.3-30.5-190.4-55.3-263.1-124
		c-69.1-65.3-101.1-154.9-146.1-236.4c-53-95.9-131.9-157.8-228.4-207.2c-119.3-61.1-244.1-106.7-338.3-206.3
		c-111.2-117.6-184.3-267.6-306.1-375.7c0,0,0,0,0,0c0,0,0,0-0.1-0.1c0,0,0,0-0.1-0.1c0,0,0,0,0,0
		c-115.6-96.6-263.9-137.1-387.1-221.6c-112-76.9-175.6-194.4-252.6-302.4c-62.7-87.9-135.3-157.3-237.5-195.7
		c-86.7-32.5-179.8-50.6-254.8-108.3c-79.1-60.8-118.7-153.3-162.2-240c-21.7-43.2-45.2-86.1-76.1-123.5
		c-35.3-42.6-79.9-73.9-128.7-99.2c-108-55.9-228-85.1-334.3-144.5c-48.4-27.1-90.7-60.3-120.3-107.8
		c-29.9-48-47.8-102.3-66.1-155.4c-18.9-54.7-37.6-111.1-69.9-159.7c-36.9-55.4-93.4-90.3-151.5-120.4
		c-146.9-76.2-319.1-117-448.9-223.1c-5.8,6.8-8.8,10.2-14.6,16.9c64.6,52.9,141.8,87.7,217.6,121.3
		c80.8,35.8,163.3,68.5,241.8,109.5c58.1,30.4,115.4,65.2,152.1,120.9c31.1,47.2,48,102.3,64.8,155.8c16.3,51.9,32.4,104.9,61,151.5
		c29.2,47.6,72.1,80.8,120.3,107.8c107.5,60.1,228.6,90.3,337.8,147c48.9,25.4,93.7,56.6,128.9,99.3c30.8,37.4,53.8,80.2,75.1,123.5
		c42.7,87.1,81.5,179.2,160.7,240.1c73.9,56.8,164.8,73.4,250.3,104.7c102.1,37.4,174.2,108.1,237.1,195
		c78,107.9,143.2,226.3,255.5,303.4c123.2,84.5,271.6,125.1,387.2,221.7c121.9,108.1,194.9,258.1,306.1,375.8
		c94.4,99.8,220.4,146.9,339.7,209c95.6,49.8,175.7,110.8,227.7,206.9c43.6,80.5,73.9,168.2,142,232.6
		c72.8,68.8,170.4,92.7,263,122.4c45.3,14.5,90.4,31.1,131.2,56c45,27.5,80.9,65,112,107.2c73.2,99.4,121.1,215.1,195.9,313.3
		c34.2,45,74,83.8,126.6,106.2c49.7,21.2,103.7,29.3,156.6,37.6c56.6,8.9,114.7,17.5,167.1,41.8c59.6,27.7,102,78.8,140.1,130.8
		c51.5,70.3,95.5,145.9,142,219.5c45.3,71.6,91.9,144.8,155.2,202.1c5.8-6.8,8.8-10.2,14.6-16.9c-124.6-113-190.3-278-288-412.3
		C5712.9,4276.5,5670.5,4226.2,5611.2,4198.3z"/>
	
		<linearGradient id="SVGID_00000072259319810112566970000016756869213718821512_" gradientUnits="userSpaceOnUse" x1="3121.7373" y1="2353.8335" x2="3121.7373" y2="2165.5894" gradientTransform="matrix(0.7576 0.6528 -0.6528 0.7576 2566.407 -1365.6813)">
		<stop  offset="0" style="stop-color:#FFAB1C"/>
		<stop  offset="0.1663" style="stop-color:#F0A11A"/>
		<stop  offset="0.4841" style="stop-color:#CA8816"/>
		<stop  offset="0.9172" style="stop-color:#8D5E0F"/>
		<stop  offset="1" style="stop-color:#80560E"/>
	</linearGradient>
	<path style="fill:url(#SVGID_00000072259319810112566970000016756869213718821512_);" d="M5696.7,4201.6
		c-60.5-30.9-127.3-48.4-192.4-66.8c-61.1-17.2-123.2-34-180.7-61.4c-52.6-25.2-94-62.1-128.9-108.5
		c-69.9-92.7-111.7-203-179.9-296.7c-61.8-85-145.4-131.6-242.2-167.6c-92.4-34.4-190.9-63.4-264.3-132.8
		c-74.5-70.4-113.9-167.4-165.3-254.1c-27-45.6-58-89.1-98-124.3c-40.3-35.4-87.1-62.2-135.4-85.2
		c-118.4-56.2-239.1-95.6-331.7-193.4c-111.2-117.6-184.3-267.6-306.1-375.7c0,0,0,0,0,0c0,0,0,0-0.1-0.1c0,0,0,0-0.1-0.1
		c0,0,0,0,0,0c-115.6-96.6-263.9-137.1-387.1-221.6c-110.1-75.5-166.9-189.8-239-297.8c-30.1-45-64-87.9-105.6-122.9
		c-39.9-33.6-86.5-57.4-134.5-77.1c-92.9-38.1-194.3-62.4-275.2-124.7c-79.8-61.4-123.6-153.8-170.9-239.9
		c-51.4-93.6-111.2-171.6-208.1-221c-102.9-52.5-217.8-77.6-319.1-133.6c-49.8-27.5-91.2-62.6-123.1-109.9
		c-36.2-53.6-62.1-113.4-88.6-172.2c-27.2-60.4-53.9-122.5-92.6-176.7c-37.9-53.1-89.3-88.8-147.3-117.5
		c-131.2-64.8-283.6-92.1-398.9-186.6c-5.8,6.8-8.8,10.2-14.6,16.9c121.7,99.6,282.7,132.8,420.9,202.7
		c58.1,29.4,111.7,64.7,149.2,118.8c35.8,51.7,59.1,111.4,82.8,169.3c23,56.3,45.5,113.7,78.9,164.9
		c30.8,47.4,72.5,81.5,121.7,108.8c103.4,57.5,220.5,84.3,325.6,138.3c48.7,25,92.6,56.4,127.9,98.5c31.5,37.5,56,80.3,78.8,123.4
		c45.6,86.2,87.6,178.9,167,239.9c78.3,60.2,176.1,81.8,266.3,117.5c102.5,40.6,176.8,107.7,238.9,198c74.3,108,134,223.7,245,299.8
		c123.2,84.5,271.6,125.1,387.2,221.7c121.9,108.1,194.9,258.1,306.1,375.8c93.3,98.6,215.7,140.7,334.6,199.1
		c48.5,23.8,95.7,51.3,136.4,87.2c38.9,34.3,68.9,76.5,94.7,121.3c48.6,84.3,84.8,178.2,156.9,246.3c73,69,171.5,96.1,263.7,128.9
		c97.8,34.7,180.5,80.9,242.8,166.1c69.9,95.8,113.9,207.9,185.5,302.6c34.6,45.8,75.1,83.2,127.7,107.3
		c54.7,25.1,114,38.9,172.2,53.1c62.1,15.1,125.8,29.5,183.4,57.9c58.2,28.7,100.5,76.1,137.6,128.3
		c90.1,126.6,146.7,281.6,263.6,387.6c5.8-6.8,8.8-10.2,14.6-16.9c-110.9-100.3-160.4-247.8-244.5-368.2
		C5796.3,4276.1,5753.9,4230.8,5696.7,4201.6z"/>
	
		<linearGradient id="SVGID_00000146490516924659879710000010703275004968802213_" gradientUnits="userSpaceOnUse" x1="3121.7373" y1="2295.7314" x2="3121.7373" y2="2115.3657" gradientTransform="matrix(0.7576 0.6528 -0.6528 0.7576 2566.407 -1365.6813)">
		<stop  offset="0" style="stop-color:#FFAB1C"/>
		<stop  offset="0.1663" style="stop-color:#F0A11A"/>
		<stop  offset="0.4841" style="stop-color:#CA8816"/>
		<stop  offset="0.9172" style="stop-color:#8D5E0F"/>
		<stop  offset="1" style="stop-color:#80560E"/>
	</linearGradient>
	<path style="fill:url(#SVGID_00000146490516924659879710000010703275004968802213_);" d="M5577.9,4126.7
		c-123.3-45.8-256.8-88.7-338.4-198.2c-64.8-87-100.5-191.6-163.5-279.8c-60.2-84.3-146.8-132.3-240.3-171.9
		c-93-39.3-191.3-73.8-266.1-144.4c-81.9-77.3-130.3-183-189.9-276.8c-30.7-48.3-64.6-95.7-108-133.5c-39.1-34-84.7-58.8-132.2-79
		c-54.4-23.1-111.2-40.5-165.1-64.8c-60.4-27.2-112.4-63.8-157.9-112c-111.2-117.6-184.3-267.6-306.1-375.7c0,0,0,0,0,0
		c0,0,0,0-0.1-0.1c0,0,0,0-0.1-0.1c0,0,0,0,0,0c-115.6-96.6-263.9-137.1-387.1-221.6c-54.8-37.6-98.7-84.7-134.4-140.6
		c-31.3-49-56.6-101.5-86.9-151.1c-27.2-44.6-58.9-86.8-98.9-120.7c-43-36.4-93.7-62.5-144.9-85.4
		c-101.3-45.3-212.4-77.2-301.4-145.8c-81.2-62.7-130.3-154.1-182.6-240.1c-54.5-89.7-116.2-170.5-212.1-218.4
		c-96.6-48.2-204.9-68.1-299.9-120c-119.6-65.2-181.3-192.1-244.6-306.9c-66.4-120.2-131.5-252.4-262.9-311.6
		C1043.2,178.4,917.1,169.1,820.2,89c-5.8,6.8-8.8,10.2-14.6,16.9c103.8,85.5,240.3,101.9,359.1,157.6
		c57.6,27,105.5,63.9,143.7,114.9c44,58.6,76.9,125.1,110.3,189.9c58.6,113.7,115.3,233.4,231.9,297.3
		c97.4,53.4,208.3,75.3,307.3,125.2c96.3,48.5,157.2,128.2,210.6,219.4c50.4,86.1,97.4,177.9,178.1,240
		c85.8,66.2,193.3,95.1,291.3,137.7c49.9,21.7,99.1,46.8,140.9,82.2c40.6,34.4,73.1,76.8,101.5,121.6
		c31.8,50.1,58.8,103.1,91.5,152.7c36.8,55.8,81.4,103.5,136.6,141.4c123.2,84.5,271.6,125.1,387.2,221.7
		c121.9,108.1,194.9,258.1,306.1,375.8c45.9,48.5,98.5,85.7,159,114c54.7,25.6,112.2,44.7,167.4,69.2
		c47.8,21.2,93.9,46.8,133.4,81.4c42,36.8,74.8,82.7,104.1,129.9c56.4,91,101.4,193.4,180.4,268c74.3,70.1,172.6,102.5,265.4,139.9
		c94.8,38.2,180.2,85.7,241.1,170.2c65,90.3,103.1,197.1,169.8,286.3c79.9,106.9,205.7,146,327.3,187.3
		c70.5,24,142.7,47.1,208.4,82.7c55.2,29.8,98.3,71.5,133,123.5c73.2,109.5,109.5,242.7,209.7,333c5.8-6.8,8.8-10.2,14.6-16.9
		c-93.9-84.2-121.5-208.2-188-311C5848.9,4219.4,5707.1,4174.8,5577.9,4126.7z"/>
	
		<linearGradient id="SVGID_00000129891089603359715180000011602872110968956843_" gradientUnits="userSpaceOnUse" x1="3121.7373" y1="2239.5103" x2="3121.7373" y2="2061.8745" gradientTransform="matrix(0.7576 0.6528 -0.6528 0.7576 2566.407 -1365.6813)">
		<stop  offset="0" style="stop-color:#FFAB1C"/>
		<stop  offset="0.1663" style="stop-color:#F0A11A"/>
		<stop  offset="0.4841" style="stop-color:#CA8816"/>
		<stop  offset="0.9172" style="stop-color:#8D5E0F"/>
		<stop  offset="1" style="stop-color:#80560E"/>
	</linearGradient>
	<path style="fill:url(#SVGID_00000129891089603359715180000011602872110968956843_);" d="M6015.8,4346.9
		c-30-51.3-76.4-87.3-127-117.2c-76.9-45.5-160.1-80-241.8-115.7c-127.1-55.4-278.4-107.1-363.7-223.2
		c-60.2-82-90.4-181.5-148.8-264.6c-122-173.8-357.5-189.9-506.5-330.3c-88.7-83.5-144.8-196.7-211.7-296.9
		c-33.8-50.6-70.3-101.3-116.5-141.4c-38-32.9-82.7-56.1-129.5-73.7c-52.7-19.9-107.6-33.3-159.8-54.5
		c-60.4-24.5-110.9-60.2-155.7-107.5c-111.2-117.6-184.3-267.6-306.1-375.7c0,0,0,0,0,0c0,0,0,0-0.1-0.1c0,0,0,0-0.1-0.1
		c0,0,0,0,0,0c-115.6-96.6-263.9-137.1-387.1-221.6c-53.8-36.9-96.6-82.7-129.6-139c-28-47.8-49.2-99.1-76.1-147.4
		c-24.6-44.3-54.5-85.7-93.3-118.8c-45.6-38.9-99.9-66.9-153.7-92.5c-108.8-51.6-228.3-90.3-324.7-164.5
		c-164.7-126.9-214.6-361.6-408.5-456.4c-90.9-44.4-193.4-59.6-282.8-107.7c-126.7-68.2-200.1-211.2-273.6-328.6
		c-46.3-74-91.9-149.5-147.1-217.4c-37.6-46.3-80.4-87.6-136.5-109.8c-43.5-17.2-90.1-22.4-135.5-31.9
		c-52.9-11.1-99.7-30.9-141.5-65.7c-5.8,6.8-8.8,10.2-14.6,16.9c44.1,36.7,94.3,57.7,149.5,71.6c49.3,12.4,99.8,20.7,147,40.3
		c133.2,55.4,206.1,205,276.4,321.8c70.1,116.5,139.6,254.1,263.8,321.3c91.3,49.4,195.8,66.2,288.7,111.9
		c194.2,95.6,239.3,330,403.9,457.1c93.7,72.4,210.5,108.7,316.7,158.1c52.9,24.6,106.1,52.1,150.8,90.2
		c39.2,33.4,69.6,75,95.1,119.4c28.1,48.8,50.7,100.5,79.8,148.7c33.9,56.2,77,102.4,131.2,139.5
		c123.2,84.5,271.6,125.1,387.2,221.7c121.9,108.1,194.9,258.1,306.1,375.8c45,47.6,96,83.6,156.4,109
		c52.8,22.2,108.4,37.1,161.7,58.1c47,18.5,92.1,42.2,130.4,75.4c45.3,39.3,80.9,89,113.7,138.8c64.4,98,117.9,208.6,204.3,290
		c149.1,140.5,383.6,151.7,506.5,325.6c60,84.9,92.1,186.1,153.9,269.8c84.1,113.9,229.3,162.5,355.1,214.7
		c79.1,32.8,159.6,64.6,233.8,107.7c51.7,30,97,67.2,128.4,118.7c26.2,43,41.8,91.1,60.9,137.4c22.1,53.6,50.5,101.3,94.1,140.3
		c5.8-6.8,8.8-10.2,14.6-16.9c-41.4-36.9-68-81.2-86.9-133C6051.2,4431.3,6039.1,4386.8,6015.8,4346.9z"/>
	
		<linearGradient id="SVGID_00000007417871453604332120000009264122789491760286_" gradientUnits="userSpaceOnUse" x1="3121.7373" y1="2181.6777" x2="3121.7373" y2="2005.7393" gradientTransform="matrix(0.7576 0.6528 -0.6528 0.7576 2566.407 -1365.6813)">
		<stop  offset="0" style="stop-color:#FFAB1C"/>
		<stop  offset="0.1663" style="stop-color:#F0A11A"/>
		<stop  offset="0.4841" style="stop-color:#CA8816"/>
		<stop  offset="0.9172" style="stop-color:#8D5E0F"/>
		<stop  offset="1" style="stop-color:#80560E"/>
	</linearGradient>
	<path style="fill:url(#SVGID_00000007417871453604332120000009264122789491760286_);" d="M6113.4,4438.1
		c-10.3-37.9-16.2-76.7-35.4-111.5c-28.2-51.2-76.4-86.3-125.6-115.8c-81.2-48.7-168.3-87.6-253.9-127.7
		c-80.6-37.7-162.1-74.7-239.2-119.3c-52.8-30.6-99.8-65.8-136.1-115.3c-57.9-79.3-84.9-176.1-141-256.5
		c-121-173.6-357.9-196.4-506.9-336.8c-170.8-160.9-232.1-439.4-470.4-522.8c-51.7-18.1-105.6-29.1-156.8-48.6
		c-60.7-23.1-110.6-59.4-155.1-106.4c-111.2-117.6-184.3-267.6-306.1-375.7c0,0,0,0,0,0c0,0,0,0-0.1-0.1c0,0,0,0-0.1-0.1
		c0,0,0,0,0,0c-115.6-96.6-263.9-137.1-387.1-221.6c-53.5-36.7-96.7-81.8-128.4-138.6c-26.2-47-44.9-97.7-69.9-145.3
		c-116.9-222.8-399.3-243.8-584.2-386.7c-164.3-127-221.3-362.1-414.8-455.8c-87.9-42.5-187.2-55-273.6-101.2
		c-53.2-28.4-94.1-69.5-131.4-116.3c-56.4-70.7-105.6-147-155.6-222.3c-51.2-77.2-101.5-155.8-160.4-227.4
		c-36.9-44.8-79.1-88.3-134.9-108.6c-37.9-13.7-77.6-13.7-117.1-18.5C978.6,53,936.4,32.6,896.9,0c-5.8,6.8-8.8,10.2-14.6,16.9
		c39.6,32.9,82.6,52.4,133.4,59.8c40.9,6,82.5,7.3,121.7,21.8c55.8,20.6,97.9,63.7,135,108.7c58.2,70.7,107.4,148.7,157.4,225.2
		c48.8,74.6,96.9,150.2,152.4,220c37.4,47,78.7,88.2,132,116.8c87.1,46.6,187.2,59.8,275.8,102.7c193.7,93.9,249.1,329,413.7,455.8
		c99.2,76.4,222.1,117.7,333.8,171.8c54.6,26.5,110,55.1,156.4,94.7c38.5,32.8,67.9,73.8,91.5,118.2c25.5,47.8,44.8,98.7,71.5,145.9
		c31.9,56.6,74.7,101.8,128.3,138.5c123.2,84.5,271.6,125.1,387.2,221.7c121.9,108.1,194.9,258.1,306.1,375.8
		c44.5,47.1,94.5,82.9,155,106.3c51.5,19.9,105.6,31.6,157.6,50.1c46.8,16.7,91,39.4,128.7,72.1c47,40.8,84.3,92.6,119.1,143.8
		c69.8,102.6,129,218.8,220.2,304.7c149,140.4,385.5,162,506.7,335.6c56.6,81.1,84.4,178.5,142.8,258.4
		c36.3,49.7,83.7,85.2,136.6,115.9c76.1,44,156.7,80,236.5,116.6c84.8,39,171,76.8,251.2,124.9c49.3,29.6,97.2,64.7,125.6,115.9
		c20.1,36.1,27.7,76.4,39.3,115.5c14.9,50.1,40.5,90.7,79.7,125.6c5.8-6.8,8.8-10.2,14.6-16.9
		C6153.5,4528,6127.1,4488.5,6113.4,4438.1z"/>
</g>
</svg>
