<?xml version="1.0" encoding="utf-8"?>
<!-- Generator: Adobe Illustrator 26.3.1, SVG Export Plug-In . SVG Version: 6.00 Build 0)  -->
<svg version="1.1" id="Layer_1" xmlns="http://www.w3.org/2000/svg" xmlns:xlink="http://www.w3.org/1999/xlink" x="0px" y="0px"
	 viewBox="0 0 6238.9 6878.5" style="enable-background:new 0 0 6238.9 6878.5;" xml:space="preserve">
<style type="text/css">
	.st0{fill:url(#SVGID_1_);}
	.st1{fill:url(#SVGID_00000101789566545282029510000016229109821501588659_);}
	.st2{fill:url(#SVGID_00000159435833797088342850000001490025050666690718_);}
	.st3{fill:url(#SVGID_00000118362104134678230020000008841963719624479674_);}
	.st4{fill:url(#SVGID_00000000181985947061406350000017592334816435641005_);}
	.st5{fill:url(#SVGID_00000163038236208131506450000001456175059468592534_);}
	.st6{fill:url(#SVGID_00000034776972645085512760000017955469113657522354_);}
	.st7{fill:url(#SVGID_00000110455143435309421560000007720208946559727287_);}
	.st8{fill:url(#SVGID_00000080189350823013985820000003447804495466948031_);}
	.st9{fill:url(#SVGID_00000168076310191887432420000009681735036561820050_);}
	.st10{fill:url(#SVGID_00000003086655215332297810000001413173774112325259_);}
	.st11{fill:url(#SVGID_00000116202630139216080950000012453793535399806649_);}
	.st12{fill:url(#SVGID_00000181057692221880432580000001668431576240392863_);}
	.st13{fill:url(#SVGID_00000075132012989429152630000011776341147560452242_);}
	.st14{fill:url(#SVGID_00000086660652963994011500000010474624557772524970_);}
	.st15{fill:url(#SVGID_00000132802514887373691300000015708379189087314327_);}
	.st16{fill:url(#SVGID_00000163760063530524406820000004336325031924563380_);}
	.st17{fill:url(#SVGID_00000104707164650465049120000000904603540315580075_);}
	.st18{fill:url(#SVGID_00000062153489664255844450000005265242391521109152_);}
	.st19{fill:url(#SVGID_00000036228965141870632060000008227559164621423527_);}
	.st20{fill:url(#SVGID_00000117655941699596392860000013214801406669051563_);}
	.st21{fill:url(#SVGID_00000029010742589797210870000009144850427718171791_);}
	.st22{fill:url(#SVGID_00000073684339437247342900000008034021903397242009_);}
	.st23{fill:url(#SVGID_00000003826356456304171090000000592601544342793371_);}
</style>
<g id="Layer_2_00000121242781663275676930000001027246102389394601_">
	<g id="Layer_1-2">
		
			<linearGradient id="SVGID_1_" gradientUnits="userSpaceOnUse" x1="876.2148" y1="3189.804" x2="876.2148" y2="2985.2349" gradientTransform="matrix(0.5814 0.8136 -0.8136 0.5814 4595.02 1294.7869)">
			<stop  offset="0" style="stop-color:#FFAB1C"/>
			<stop  offset="0.17" style="stop-color:#F0A11A"/>
			<stop  offset="0.48" style="stop-color:#CA8816"/>
			<stop  offset="0.92" style="stop-color:#8D5E0F"/>
			<stop  offset="1" style="stop-color:#80560E"/>
		</linearGradient>
		<path class="st0" d="M4397.5,6181.8c-25.2-60.1-54.8-119-104.8-162.1c-42.1-36.2-92.5-60.5-142-84.7
			c-46.3-22.6-93.1-45.2-133.3-77.9c-43.1-35-72.9-80-92.9-131.5c-40.8-104.6-46.1-219.1-84.7-324.3
			c-35.2-95.9-101.4-154.9-190.6-200.6c-84.5-43.2-168.3-80.3-223.1-161.8c-60.1-89.2-88.8-194.5-128.3-293.3
			c-40.4-100.5-92.7-188.7-187-246.5c-47.3-29-98.6-51.2-145.1-81.6c-55.7-36.5-97.2-83.8-128.1-142.6
			c-86.8-165.1-109.5-362.2-216.1-517.2l0,0l0-0.1c0,0,0,0,0-0.1l0,0c-104.7-141.1-275-214.7-395.9-339.7
			c-46.2-47.8-77.7-103.3-94-167.7c-13.8-54.4-18.2-110.7-30.5-165.3c-50.2-221-278.9-303-406.6-469.4
			c-59.5-77.4-68.6-167.9-81.8-261.4c-6.6-46.6-15.5-93.4-35.7-136.3c-21.8-46.2-56.1-83.8-95.7-115.4
			c-87-69.5-192.8-111.4-277.7-183.9c-41.1-35-73.3-76.6-92.5-127.4c-18.4-48.8-24.8-101.2-31.2-152.7
			c-6.6-53.3-13.1-107.6-32.4-158.1c-24.6-64.6-72.8-113.6-123.7-158.6c-67.5-59.6-140.7-112.5-211.7-167.8
			c-65.9-51.5-133.3-104.5-183.9-171.7l-18.2,13C560.7,1062.9,629,1116,695.1,1168c72,56.6,146.4,110.6,214.9,171.4
			c49.4,43.8,96,91.4,120.9,153.6c20,50.1,26,104.1,32.1,157.3c5.8,51.4,11.4,103.4,29.3,152.2c18.6,51,50.9,93.8,91.8,129
			c85,73.2,192.1,114,279.8,183.6c41.3,32.8,76.7,72.4,98.7,120.9c18.8,41.4,27.2,86.3,33,131c12.2,93.8,20.9,183,81.1,260.2
			c65.7,84.4,154.6,146.1,234.4,215.9c81.2,71.3,147.3,148.5,171,256.2c11.8,53.6,16.3,108.5,29.5,161.8
			c16.1,64.6,47.1,120,93.3,168c121.2,125.9,291.5,200.9,397.1,342.3c106.4,155.7,131,352.9,218,518.6
			c30.8,58.8,72,106.1,127.7,142.4c46.8,30.6,98.3,52.7,146,81.9c193.4,118.3,200,363.7,316.3,538.9
			c54.1,81.6,137.1,117.7,221.7,159.8c89,44.5,155.4,104.5,190.4,199.8c38.6,105.5,42.6,220.3,83.4,325.2
			c20.1,51.4,50.3,97,93.4,132c39.9,32.3,86.5,54.3,132.6,76.1c49.3,23.4,99.5,47,141.4,82.9c50.1,43,79.5,102.1,104.7,161.9
			c35,83.2,61.7,169.7,91.3,254.8c28.2,81.2,56.8,165.2,105.5,236.8l18.2-13c-48.4-71.6-77.1-154.9-105.1-236
			C4458,6349.2,4431.9,6263.9,4397.5,6181.8z"/>
		
			<linearGradient id="SVGID_00000098212282215893960710000005353002887345789593_" gradientUnits="userSpaceOnUse" x1="875.8353" y1="3126.6418" x2="875.8353" y2="2931.9316" gradientTransform="matrix(0.5814 0.8136 -0.8136 0.5814 4595.02 1294.7869)">
			<stop  offset="0" style="stop-color:#FFAB1C"/>
			<stop  offset="0.17" style="stop-color:#F0A11A"/>
			<stop  offset="0.48" style="stop-color:#CA8816"/>
			<stop  offset="0.92" style="stop-color:#8D5E0F"/>
			<stop  offset="1" style="stop-color:#80560E"/>
		</linearGradient>
		<path style="fill:url(#SVGID_00000098212282215893960710000005353002887345789593_);" d="M4359.6,6020.7
			c-43.7-39-95.6-67.4-146.5-95.9c-47.6-26.5-95.8-53.2-137.5-88.6c-42.8-36.3-72.9-80.9-94.2-132.6
			c-42.3-103-52.4-215.7-92.8-319.3c-18.3-47.1-43.3-90.6-79.7-125.9c-35-34-76.8-60-118.9-84.1c-86.5-49.5-178.1-93.4-235.3-178.8
			c-60.5-90.3-84.6-199.2-121.4-300.2c-37-101.7-89-190-182.7-248.3c-45.9-28.5-95.6-50.4-140.7-80.2
			c-54.6-36.3-96.1-83.6-126.2-141.9c-83.2-161.2-97.2-355.3-201.3-506.3l0,0l0-0.1l0-0.1l0,0c-103.3-139.3-274.6-206.1-394.7-328.3
			c-45.5-45.9-77.9-103.2-94-165.8c-13.8-52.9-18.3-107.5-30.7-160.6c-24.9-106.6-91.5-183.9-175-251.4
			c-83-67.2-177.3-124.9-243.5-210.3c-62.5-80.7-75.2-180.6-93.6-278c-9.4-49.8-20.7-100.1-42.7-146
			c-22.2-46.3-56.2-84.1-95.3-116.8c-84.8-70.8-187.4-116.6-270.3-189.8c-40.9-36.1-72.6-78-93-128.8
			c-20.5-51.3-30.2-106.1-40-160.1c-10.1-56-20-112.8-41.5-165.8c-25.6-63.1-70.9-111.9-121.6-156.1c-121-105.2-273.1-183-371-312.7
			l-18.2,13c101.1,133.8,257.9,216.1,382.5,325.4c51,44.7,97.6,93.6,122.7,157.4c20.5,51.9,28.7,107.5,37.3,162.3
			c8.3,52.9,16.5,106.6,35.9,156.7c19.7,50.8,51.6,92.2,92.7,127.8c83.8,72.8,187.8,116.9,273.6,187.1
			c39.3,32.2,73.5,69.6,95.5,115.9c21.1,44.5,31.3,93.2,39.5,141.5c16.1,95.4,27.1,190.8,88,270.1
			c65.5,85.3,157.7,144.3,239.4,212.3c82.5,68.7,148.7,146.5,173.4,253.1c12.4,53.8,16.8,109.2,30.6,162.8
			c16.5,64,47.8,119.5,94,166.9c120.4,123.6,291.5,193.4,395.3,333.7c105.5,152.7,123.2,348.4,208.3,511.5
			c30.6,58.5,72.2,106,127.4,142.3c45.8,30.1,96.2,52.1,142.7,80.8c93.9,58,146.3,146.3,184.9,247.4c38,100,64.2,207.3,124.7,297
			c56.2,83.3,144.1,123.9,229.5,170.6c41.2,22.5,81.8,47.1,115.8,79.8c36.4,35.1,60.9,78.7,78.8,125.7
			c39.5,104.3,47.5,217.8,89.1,321.5c20.6,51.6,50.4,96.2,93.4,131.9c41.1,34,88.6,58.9,135.6,83.6c50.2,26.5,101.4,53.1,144.4,90.8
			c49.4,43.3,79.2,100.9,104.1,160.7c64,154.1,90.7,330.5,185.3,470.3l18.2-13c-91.7-135.4-115.7-305.9-177-455.1
			C4438.3,6120.2,4408.3,6063.9,4359.6,6020.7z"/>
		
			<linearGradient id="SVGID_00000180345922584205745050000009724864410827269301_" gradientUnits="userSpaceOnUse" x1="875.6791" y1="3056.6055" x2="875.6791" y2="2881.376" gradientTransform="matrix(0.5814 0.8136 -0.8136 0.5814 4595.02 1294.7869)">
			<stop  offset="0" style="stop-color:#FFAB1C"/>
			<stop  offset="0.17" style="stop-color:#F0A11A"/>
			<stop  offset="0.48" style="stop-color:#CA8816"/>
			<stop  offset="0.92" style="stop-color:#8D5E0F"/>
			<stop  offset="1" style="stop-color:#80560E"/>
		</linearGradient>
		<path style="fill:url(#SVGID_00000180345922584205745050000009724864410827269301_);" d="M4435.9,6039.6
			c-46.4-43.6-100.6-77.9-153.8-112.3c-97.5-63.2-188.4-127.5-238-236.2c-45.8-100.5-61.8-211.5-105-312.9
			c-20.2-47.4-46.8-91.2-83.3-127.9c-39.7-39.8-87-71.6-134.2-101.8c-89.5-57.3-190.5-111.1-249.7-202.9
			c-60.1-93.6-78-207.5-111.1-311.8c-32.9-103.5-83-191.8-176.7-250.8c-42.7-26.9-89-47.8-130.9-75.9
			c-52.9-35.5-94.2-82.3-122.6-139.4c-77.6-156.1-80.1-344.8-179.2-490.8l0,0l0,0l0,0l0,0c-102-135.6-273.7-193.3-392.8-310.7
			c-45.7-45-77.2-99.8-94-161.6c-13.8-50.6-18.4-103.1-30.8-154c-25.9-106.4-93.9-181.6-180.2-245.3
			c-87.3-64.4-187.6-118-256.6-203.8c-68.8-85.6-86.9-199.8-112.3-303.5c-13.5-54.9-28.2-110.2-53.4-160.9
			c-23.1-46.7-56.5-86.1-95.2-120.7c-81.4-72.8-180-123.5-259.7-198.5c-87.7-82.5-119.1-190.3-147.5-303.7
			c-15-59.8-29.6-120.5-54.7-177.1c-26.7-60.3-67.7-108.7-117.7-151.1c-108.9-92.3-246.5-155.8-333.4-272.2l-18.2,13
			c91.2,121.7,234.7,190.9,348.3,288.3c50.3,43.2,92.9,91.7,119.2,153.1c23.6,55.2,36.3,114.3,49.5,172.6
			c25.2,112.3,54.2,217.4,141.7,297.7c80.9,74.3,181.1,123.2,263.8,195c38.9,33.8,72.5,72.5,95.2,119c23.9,48.8,37.2,102.1,49.1,155
			c22.8,101.1,38.6,209.7,104.8,293.3c67.8,85.8,165.8,140.9,251.3,206.4c85.3,65.2,152.6,141.2,178.1,247.8
			c12.4,51.8,16.9,105.2,30.8,156.7c16.7,62.5,48.1,117.6,93.9,163.3c119.5,119.2,291.2,180.6,393.6,317.7
			c101.3,148.2,108.1,339.4,188.3,497.5c29.2,57.5,70.7,104.5,124.4,140.2c42.7,28.4,89.7,49.5,133.3,76.6
			c94,58.5,145.1,146.7,179.7,249.5c34.8,103.1,54.9,215.3,115.3,307.6c58,88.7,154.6,138.6,242.4,192.6
			c45.8,28.1,91.8,57.8,130,95.9c36.5,36.3,62.3,80,81.8,127.4c42.1,102.5,55.6,214.4,100.3,315.9
			c47.6,107.8,136.9,169.1,234.3,228.9c52.4,32.2,105.7,64.2,151.1,105.8c47.2,43.3,77.9,97,101.9,155.9
			c56.9,140.2,75.2,300,161.7,427l18.2-13c-82.8-121.2-97.5-273.6-151.1-407.5C4513.2,6135,4482,6082.8,4435.9,6039.6z"/>
		
			<linearGradient id="SVGID_00000000214078304297465910000016651879446518342059_" gradientUnits="userSpaceOnUse" x1="875.9983" y1="3010.5476" x2="875.9983" y2="2804.9651" gradientTransform="matrix(0.5814 0.8136 -0.8136 0.5814 4595.02 1294.7869)">
			<stop  offset="0" style="stop-color:#FFAB1C"/>
			<stop  offset="0.17" style="stop-color:#F0A11A"/>
			<stop  offset="0.48" style="stop-color:#CA8816"/>
			<stop  offset="0.92" style="stop-color:#8D5E0F"/>
			<stop  offset="1" style="stop-color:#80560E"/>
		</linearGradient>
		<path style="fill:url(#SVGID_00000000214078304297465910000016651879446518342059_);" d="M4353,5930.1
			c-97.7-71.3-192.3-143.3-247-254c-48.5-98.1-70.4-206.7-116.5-305.8c-50.3-108-135.8-178.3-231.5-245.5
			c-93.5-65.5-205.8-128.9-267.5-228.3c-59.7-96.2-71.6-214.6-100.9-322c-28.6-104.8-76-193.8-169.3-253.7
			c-40.7-26.1-85-46.5-124.9-74c-51.1-35.1-91.7-81.4-118.5-137.5c-71.6-150.8-62.5-333.4-156.9-474.3l0,0l0,0l0,0
			c-100.4-131.8-271.6-180.5-389.9-292.3c-45.5-43-77.2-96.9-94.4-157.1c-13.8-48.2-18.6-98.5-30.9-147.1
			c-26.5-105.8-94.4-179-182.9-239.2c-92.4-62.8-200.6-112.6-273.2-200.2c-76.2-92.1-99.3-222.4-131.9-334.1
			c-32.3-110.6-71.6-211.9-156.3-292.9c-77.8-74.6-171.9-130-248.4-206.1c-89.7-89.1-127.3-204.3-163.9-322.2
			c-37.8-121.7-75.9-244.2-176.8-328.7c-97.9-81.9-222.5-130.4-300.2-235.3l-18.2,13c81.2,109.6,211.5,163.3,313.5,249.7
			c100.8,85.3,137.9,203.4,173.4,326.3c33.9,117,69.3,230.1,158.8,317.1c77.6,75.5,173.2,129.1,252.1,203.1
			c84.1,78.9,122.6,177.6,152.8,286.7c30.2,109.4,51.5,234.7,125.2,325c71.5,87.5,177.5,138.7,268.5,202.5
			c87.6,61.5,155,135.4,181.1,241.2c12.2,49.4,17,100.4,30.9,149.5c17.1,60.7,48.9,114.8,94.5,158.5
			c118.6,113.5,289.7,165.5,390.6,298.5c95.9,142.7,91.1,327.6,164.8,480.2c27.2,56.5,68.1,102.9,119.8,138.1
			c40.6,27.7,85.6,48.2,127.1,74.7c93.4,59.6,141.7,148.3,171.8,252.7c30.6,106.3,44.7,223,104.6,318.3
			c60.7,96.8,169.1,156.7,261.2,219.3c95,64.6,178.4,133.1,226.6,239.9c45.1,99.9,64.9,209.4,112.4,308.4
			c52.8,110,146.3,179.3,243.8,247.7c106.2,74.4,207.8,148.4,256.4,273.4c48.3,124.1,57.2,264.3,134.2,376.4l18.2-13
			c-74-107.2-79.6-240.3-125.1-359.2C4562.7,6082.6,4457.3,6006.2,4353,5930.1z"/>
		
			<linearGradient id="SVGID_00000062899845011319745300000009582748370541944730_" gradientUnits="userSpaceOnUse" x1="875.7791" y1="2964.2939" x2="875.7791" y2="2733.5508" gradientTransform="matrix(0.5814 0.8136 -0.8136 0.5814 4595.02 1294.7869)">
			<stop  offset="0" style="stop-color:#FFAB1C"/>
			<stop  offset="0.17" style="stop-color:#F0A11A"/>
			<stop  offset="0.48" style="stop-color:#CA8816"/>
			<stop  offset="0.92" style="stop-color:#8D5E0F"/>
			<stop  offset="1" style="stop-color:#80560E"/>
		</linearGradient>
		<path style="fill:url(#SVGID_00000062899845011319745300000009582748370541944730_);" d="M4417.7,5920.5
			c-99.7-78.1-198.4-155.4-256.9-270.4c-48.6-95.7-75.1-200.7-122.2-297.1c-23.1-47.4-51.2-91.6-88-129.7
			c-44-45.6-95.1-84.1-145.9-121.7c-55.6-41.2-112.5-80.8-166.2-124.7c-44-35.9-88.6-75.2-118.5-124.1
			c-60.1-98.3-67.5-220.3-94.3-329.8c-25.6-104-72.3-192-163.3-252c-40.7-26.7-85.2-47.3-124.9-75.5
			c-50.4-35.7-91.2-83.1-116.4-139.6c-65.5-146.8-49.6-323.5-140.9-459.6l0,0c-99.2-130.5-271.3-172.2-388.8-281.7
			c-45.3-42.2-77-96.2-94.5-155.5c-13.8-46.8-18.7-95.5-30.9-142.7c-27.3-105.6-95.4-178.3-185.5-236.2c-95-61-208-107.4-281.4-196
			c-36.6-44.2-59.4-99.1-79.1-152.3c-24-64.9-43.1-131.6-64-197.6c-19.1-60.2-39-121-67.9-177.4c-24.1-47.1-56.9-88-94.2-125.3
			c-75.9-75.6-166.7-134.8-241.5-211.7c-90-92.6-131.2-210.9-172.7-330.6c-41.6-120.1-81.7-250.5-183.6-333.9
			C905,981,791.3,943,719,845.4l-18.2,13c73.5,99.4,190.4,140.5,283.3,216.9c101.5,83.6,141,211.9,181.5,332.2
			c40.1,119.2,80.4,236.9,170.4,328.5c75.2,76.7,167,134.6,243.5,210.1c85.2,84,125.7,188,160.6,300.4
			c20.1,64.8,38.3,130.3,61.5,194.1c19.4,53.1,42,107.8,78.7,151.5c73.5,88.2,184.8,135.8,279.1,197.3
			c89.6,58.5,157.9,131,184.9,236.7c12.2,47.6,17.1,96.7,30.9,144c17.4,59.4,49.1,113.3,94.4,155.7
			c117.8,109.9,289.4,154,389.1,284.5c92.7,138.6,77.5,318.4,146.7,466.9c26,55.7,66.6,101.9,117,136.8c39,27.1,82.3,47.2,122.1,73
			c92.9,60.4,139.7,149.5,166.3,254.8c27.4,108.6,36.2,229.3,96.1,326.6c63.2,102.8,180.2,170.4,275.6,239.7
			c96.7,70.3,184.4,142.8,237.3,252.3c47.3,98,72.4,205.2,121.9,302.4c57,111.9,152.9,187,250.7,261.9
			c102.2,78.3,212.8,158,259.4,283.1c41.9,112.4,43.1,235.9,113.1,337.3l18.2-13c-68.9-99.9-68-219.7-109-330.2
			C4628.2,6079,4517.8,5998.8,4417.7,5920.5z"/>
		
			<linearGradient id="SVGID_00000108281134281228332740000015967127896676606853_" gradientUnits="userSpaceOnUse" x1="876.0401" y1="2907.2903" x2="876.0401" y2="2678.2109" gradientTransform="matrix(0.5814 0.8136 -0.8136 0.5814 4595.02 1294.7869)">
			<stop  offset="0" style="stop-color:#FFAB1C"/>
			<stop  offset="0.17" style="stop-color:#F0A11A"/>
			<stop  offset="0.48" style="stop-color:#CA8816"/>
			<stop  offset="0.92" style="stop-color:#8D5E0F"/>
			<stop  offset="1" style="stop-color:#80560E"/>
		</linearGradient>
		<path style="fill:url(#SVGID_00000108281134281228332740000015967127896676606853_);" d="M4460.7,5884.1
			c-97.8-73.1-192.6-147.3-248.9-258.4c-49.6-97.9-73.6-206.3-121-305.1c-52.5-109.5-141.4-182.3-237.5-253.1
			c-53-39.1-107-76.7-158-118.3c-43.6-35.6-88-74.4-117.7-122.9c-60.3-98.4-71.1-220.7-99.8-330.2c-14.2-53.8-31.5-108.7-62.8-155.4
			c-27.1-40.5-64.1-73.7-104.3-100.8s-83.3-48.8-122.6-77.1c-50-35.9-91-81.6-117-137.7c-68.6-147.1-55.5-323.7-146.5-461.6l0,0
			c-99.5-128.7-267.4-173.4-384.1-282.4c-45.7-42.7-76.8-96.5-95.2-156c-14.7-47.8-21.3-97.7-34.6-145.8
			c-12.6-45.4-31.4-89.4-59.7-127.3c-33.6-45.1-79.9-79.7-126.3-110.6c-94.8-63.2-207-113-281.4-201.9
			c-36.5-43.6-59-98.5-78.6-151.3c-23.7-64.1-42.4-129.8-63.1-195c-35.4-112-75.9-217-161.3-300.7c-77.2-75.7-170.4-133-246.3-210.1
			c-89.4-90.7-129.1-206.9-167.4-325.5c-38.9-120.3-78-246-178.9-329.4c-92.2-76.3-207.6-117.3-281-216l-18.2,13
			c72.4,97.3,185.5,135.4,276.5,210.1c101.9,83.5,142,213.1,183.1,333.4c41,119.5,82,237.5,171.9,329.8
			c75,77,166.3,135.9,242.5,211.7c85.3,84.9,126,189.8,162,302.6c21.1,66,40.4,132.8,64.5,197.8c19.7,53.1,42.3,108.1,78.8,152.1
			c73.8,88.7,187.1,136.1,282.1,197.6c46.8,30.2,93,64.4,126.5,109.5c28.1,37.9,47,81.2,58.9,126.6c12.6,47.4,18.2,96.3,32.2,143.3
			c17.7,59.3,49.1,113.2,94.6,155.5c117.4,109.1,288,151.4,387.5,281.2c90.6,136.2,75.7,311.7,140.9,458.2
			c25.3,56.8,66,103.7,116.4,139.8c39.9,28.5,84.4,49.7,125.2,76.9c39,26,74,58,100.7,96.8c31.8,46.2,49.2,101.1,62.6,155.1
			c27.3,109.8,35.5,232.2,95.5,330.8c29.8,48.9,74.4,88.1,118.4,123.9c53.8,43.9,110.6,83.8,166.3,125.1
			c95.1,70.6,181.1,143.1,233.8,251.3c47,96.7,73.2,202,121.7,298c58.2,114.9,156.5,192,256.4,269.4c100.4,78,210,157.7,256,281.2
			c41,110.3,40.6,229.6,109.2,329.6l18.2-13c-69.3-101.1-71.1-223-112.9-334.6C4671.6,6039.3,4563.4,5960.9,4460.7,5884.1z"/>
		
			<linearGradient id="SVGID_00000157308883209958796380000002730756629258563458_" gradientUnits="userSpaceOnUse" x1="875.9887" y1="2836.9248" x2="875.9887" y2="2636.6614" gradientTransform="matrix(0.5814 0.8136 -0.8136 0.5814 4595.02 1294.7869)">
			<stop  offset="0" style="stop-color:#FFAB1C"/>
			<stop  offset="0.17" style="stop-color:#F0A11A"/>
			<stop  offset="0.48" style="stop-color:#CA8816"/>
			<stop  offset="0.92" style="stop-color:#8D5E0F"/>
			<stop  offset="1" style="stop-color:#80560E"/>
		</linearGradient>
		<path style="fill:url(#SVGID_00000157308883209958796380000002730756629258563458_);" d="M4649.3,5953.5
			c-44.8-42.3-97.6-74.8-149.5-107.5c-97.2-61-185.3-125.2-234.8-232.2c-47.3-102.2-64.5-215.4-109.4-318.6
			c-47.1-108.4-133.7-178.9-227.7-246.4c-92-66.2-201.4-130.1-263.2-228.3c-63.1-100.2-83.7-222.8-119.7-333.9
			c-17.6-54.2-37.8-109.2-70-156.7c-28.6-42.1-66.6-77-107.5-107c-94.3-69.2-195.3-122-249.4-231.7
			c-71.6-145.3-71.1-319.1-162.4-455.8l0,0l0,0l0,0c-96.5-126.6-255.9-178.8-368.2-288.1c-89.5-87.4-106.5-202.7-142.5-316.4
			c-14.9-46.9-34.9-92.5-64.4-132.3c-34.1-46.2-79.6-83.5-125.2-117.7c-93.8-70.6-203.2-129.9-278.4-222.1
			c-74.8-91.7-99.6-219.4-133.3-330c-33.2-109.1-72.4-211.3-158.4-289.7c-82.1-74.8-182-127.2-262.8-203.6
			c-87.8-83-120.1-188.9-146.9-303.3c-13.6-57.9-27.1-116.5-51.6-170.9c-24.9-55.3-62.1-101.6-108-141
			c-98.4-84.5-222.5-137.2-301.5-243.3l-18.2,13c76.5,102.7,196.8,150.6,292.5,231.3c98.5,83.2,135,199.2,168.1,319.5
			c31.9,116.2,67.5,226.9,155.9,313.1c78.6,76.8,175.7,131.2,255.7,206.4c85.7,80.6,125.4,184.5,159.6,294.7
			c34.8,112.1,60.3,244.4,137,337.1c75,90.6,185.4,146,279.7,213.4c45.9,32.8,91.8,68.8,125.7,114.4c28.8,38.8,48.4,83.8,62.2,129.9
			c15,50.2,23.8,102,40.2,151.8c19.8,60,50.9,114.4,96.7,158.2c114.3,109.1,277.2,158.4,375.1,285.7
			c90.9,137.3,85.3,312.2,155.4,458.4c52.2,108.7,151.5,157.8,245.1,224.3c40.4,28.7,78.1,62.8,105.9,104.2
			c31.7,47.1,50.6,102.1,66.8,156.1c32.9,110.4,49.5,232.9,111.1,332.4c62.1,100.2,175.5,166.2,268.6,234
			c94.7,68.9,182.7,140.5,232.1,249.4c46,101.4,66.1,212.4,114.4,312.8c52.3,108.8,143.8,177.4,241.1,243.7
			c104.5,71.2,204.3,143.8,251.6,265.8c45,116.3,51.6,245.2,123.7,350.6l18.2-13c-74.7-108.8-84.4-242.7-132.1-362.9
			C4724.6,6045.3,4693.2,5995.1,4649.3,5953.5z"/>
		
			<linearGradient id="SVGID_00000151532113413693057200000012155204015170589103_" gradientUnits="userSpaceOnUse" x1="876.0528" y1="2759.5693" x2="876.0528" y2="2597.7908" gradientTransform="matrix(0.5814 0.8136 -0.8136 0.5814 4595.02 1294.7869)">
			<stop  offset="0" style="stop-color:#FFAB1C"/>
			<stop  offset="0.17" style="stop-color:#F0A11A"/>
			<stop  offset="0.48" style="stop-color:#CA8816"/>
			<stop  offset="0.92" style="stop-color:#8D5E0F"/>
			<stop  offset="1" style="stop-color:#80560E"/>
		</linearGradient>
		<path style="fill:url(#SVGID_00000151532113413693057200000012155204015170589103_);" d="M4671.2,5883.3
			c-39.8-33.8-87.8-55.1-135-76.5c-44.1-19.9-88.4-40.3-126.1-71c-41.6-33.8-69.8-78.1-89.9-127.4c-44.2-108-53.6-226.5-94.9-335.4
			c-40.6-107.1-122.6-174.3-214.1-238c-88.6-61.6-186.6-119.8-247.2-211.6c-67.8-102.4-99.9-225.6-145-338.6
			c-21.9-54.9-45.9-109.9-80-158.5c-31.1-44.4-69.9-81.9-112.1-115.6c-96.8-77.3-201.9-140.4-262.2-253.2
			c-76.3-142.9-89.8-313.6-183.1-448.2l0,0l0,0l0,0l0,0c-92.2-125.2-242.5-185.7-348.6-296.6c-90.2-94.2-115-217.9-158-336.3
			c-18-49.4-40.6-96.9-71.7-139.4c-35.3-48.2-79.9-89.1-125.1-127.8c-91.6-78.5-196.1-148.3-270.9-244.3
			c-68.2-87.4-91.6-199.8-121.4-304.2c-30.9-108.1-68.4-207.8-157.6-281c-89.2-73.2-196.8-120.4-284-196.2
			c-40.5-35.2-73.5-76.3-92.3-127c-17-45.9-21.8-95-26.3-143.3c-4.7-50.1-9.4-100.9-27.3-148.4c-22.3-59.1-65.3-106.1-112-147.2
			c-106.1-93.3-238-159.7-323.6-274.6l-18.2,12.9c82.7,111.1,210.8,172.2,313.6,261.3c47.2,40.8,88.5,88.2,112.2,146.8
			c20.3,50.2,28.4,104.1,36.6,157.3c7.9,51.4,15.9,103.3,35.3,151.9c20.3,50.7,53,93.2,93.3,129.6c84.6,76.3,189.4,125.6,276,199.3
			c89,75.6,127,177.6,159,287c31.1,106.2,55,223.6,125.5,312.1c74.7,93.8,180.2,159.6,272.3,234.6c45.6,37.1,90.5,76.5,125.7,124
			c30.7,41.4,52.5,88.3,69.3,136.8c40.4,116.5,62,237.5,151.9,329c108.4,110.5,262.5,167.9,356.5,293.8
			c92.6,135.4,100.7,307.3,175.2,451.1c57.8,111.6,161.5,170.7,257.3,245c41.7,32.3,80.2,68.8,110.3,112.3
			c33.4,48.2,55.9,103.2,76.1,157.8c41.6,112.3,69.5,235.2,135.3,336.8c61.2,94.3,163.5,154.6,253.4,218
			c92.4,65.1,176.3,133.7,219.3,241.3c42.6,106.8,55,223.2,100.4,329c21.3,49.6,50.8,94,91.9,129.2c39.4,33.8,85.6,58.1,131.3,82.1
			c49,25.7,98.8,51.4,140.5,88.3c45.4,40.1,75.5,92.2,98.4,147.7c52.4,127.1,68.1,269.8,147.2,385.1l18.2-13
			c-82-119.5-101.3-267.4-156.7-399C4746.8,5975.8,4717.5,5922.5,4671.2,5883.3z"/>
		
			<linearGradient id="SVGID_00000008867623483152229930000017561349740866324157_" gradientUnits="userSpaceOnUse" x1="876.0449" y1="2713.6196" x2="876.0449" y2="2530.7019" gradientTransform="matrix(0.5814 0.8136 -0.8136 0.5814 4595.02 1294.7869)">
			<stop  offset="0" style="stop-color:#FFAB1C"/>
			<stop  offset="0.17" style="stop-color:#F0A11A"/>
			<stop  offset="0.48" style="stop-color:#CA8816"/>
			<stop  offset="0.92" style="stop-color:#8D5E0F"/>
			<stop  offset="1" style="stop-color:#80560E"/>
		</linearGradient>
		<path style="fill:url(#SVGID_00000008867623483152229930000017561349740866324157_);" d="M4697.6,5818.3
			c-35.8-27.1-78.9-38.5-121.8-49.4c-39.7-10.1-79.8-20.8-114-44.4c-44.2-30.6-70.4-77.6-88.3-127.2
			c-40.7-113-43.2-235.6-81.6-349.2c-34.7-103-110.4-167.3-197.9-226.5c-86.4-58.4-177-111.7-237.2-199.4
			c-71.6-104.3-114-227-166.7-341.2c-50.6-109.5-110.6-204.1-202.9-283c-100.1-85.6-210-157.8-276.4-275.5
			c-79.5-140.9-105.9-307.4-200.4-440.4l0,0l0-0.1l0-0.1l0,0c-88.8-123.4-229.6-191.8-330.7-303.1
			c-91.1-100.3-123.4-230-172.3-352.7c-44.5-111.9-114.4-198.8-200.9-281.5c-90.4-86.5-192-165.9-267.5-266.4
			c-63.5-84.5-85.3-186.2-112.2-286.4c-28.2-105.2-65-200.2-154.5-267.7c-94.9-71.8-209.3-113.9-302.1-188.9
			c-40.2-32.5-75.2-71.5-90.1-121.9c-12-40.3-9.1-82.3-5.7-123.5c3.5-42.8,6.6-86.2-6-127.9c-18.3-60-66.4-107.2-111.7-148.4
			C1143.6,910.7,1003,832.9,910.5,708.7l-18.2,13c90.2,121.1,227.9,194.9,338.7,294.6c45.8,41.2,92,88.1,111.7,147.9
			c14.4,43.6,14,89.6,13.3,134.9c-0.6,43.7-0.9,88.2,12.8,130.3c16.3,50.5,50.4,90,90.7,123.4c90.8,75.3,202.9,119.2,295.8,191.4
			c89.4,69.5,126.5,165.9,155.7,272.1c27.9,101.6,50.2,206.8,115.2,292.4c75.2,99.1,177.8,175.2,268.7,258.9
			c87.2,80.3,156.6,165.6,199.6,276.8c46.9,121.2,76.6,248.8,167.3,347.2c102.7,111.2,247,176.8,336.8,300.9
			c94.2,133.3,116,301.3,194.3,442.7c64.5,116.5,173.3,185.8,272.7,269c92.3,77.2,150.8,170.9,198.9,280.3
			c50,113.7,88.8,236.4,159.3,339.8c60.9,89.5,154.5,144.5,242,204.4c88.2,60.3,165.1,125.2,201.5,228.9
			c39.3,111.9,44.3,232.9,86,344.1c18.8,50.1,45.8,96.3,89.6,128.4c35.4,25.8,76.9,39.8,118.1,53.3c44.2,14.5,89,29.5,126.1,58.7
			c47.3,37.3,75.7,93.8,99.1,148.2c59.2,137.8,84.3,293.2,170.2,418.5l18.2-13c-88.1-128.6-116-288-177.5-429.2
			C4773.6,5912.8,4745.6,5854.5,4697.6,5818.3z"/>
		
			<linearGradient id="SVGID_00000141422471976134576770000008839029003935953287_" gradientUnits="userSpaceOnUse" x1="875.7999" y1="2663.3179" x2="875.7999" y2="2466.396" gradientTransform="matrix(0.5814 0.8136 -0.8136 0.5814 4595.02 1294.7869)">
			<stop  offset="0" style="stop-color:#FFAB1C"/>
			<stop  offset="0.17" style="stop-color:#F0A11A"/>
			<stop  offset="0.48" style="stop-color:#CA8816"/>
			<stop  offset="0.92" style="stop-color:#8D5E0F"/>
			<stop  offset="1" style="stop-color:#80560E"/>
		</linearGradient>
		<path style="fill:url(#SVGID_00000141422471976134576770000008839029003935953287_);" d="M4735,5768.7
			c-34.1-24.8-74.6-31-115.4-35.9c-37.8-4.6-75.4-10.2-107.9-31.4c-44.4-29.1-71.4-78.3-88.3-127.3c-40-115.4-37.7-240.7-75-356.8
			c-66.9-207.8-310.6-246.2-425-416c-71.8-106.6-120.3-228.2-177.1-343.1c-28.1-56.6-57.1-113.7-93.8-165.2
			c-31.9-45-71.3-83.8-112.7-120.3c-101-88.8-212.7-165.1-280.8-284.4c-80.2-140.6-115.5-303.7-208.3-437.6l0,0l0-0.1l0-0.1l0,0
			c-89.3-121.4-224.1-195.7-323.7-307c-90.7-101.4-126.5-232.6-177.1-355.8c-21.2-51.5-45.5-102.2-78.3-147.5
			c-36.3-50.3-79.7-95.3-123.3-139.3c-90-91-188.9-176.1-267.1-278c-63-82-83.6-180.9-108.9-279c-26.7-103.9-64.2-198.7-153.5-263.8
			c-98.1-71.5-217.1-109.8-312.3-185.9c-39.6-31.6-76.1-72.4-88.7-122.5c-9.6-38.2-2.4-76.1,5.6-113.8c8.4-39.5,15.2-79,3.2-118.5
			c-17.6-58.2-66.9-105-110.3-145C1199.3,886.7,1054,803.2,958.2,674.6l-18.2,13c95,127.5,238.9,209.8,354.9,316.1
			c44.6,40.9,95.1,88.7,112,149c11.1,39.7,4.7,79.9-2.5,119.7c-6.9,38.3-12.9,77.3-2.5,115.6c13.7,50.2,49.9,89.7,89.9,121.2
			c94.8,75,212.1,114.5,309.3,186c89.2,65.6,126.1,159.7,153,263.5c25.5,98.3,46.5,197,108.8,279.7
			c76.8,101.8,176.4,185.3,266.3,274.9c43.9,43.7,87.1,88.7,123.5,138.9c32.7,45.3,57.4,95.1,78.6,146.7
			c51.1,124.3,86.1,256.3,177.8,358.7c99.6,111.1,235.7,183.6,324.2,305.5c93.9,133.4,126.6,297.6,207,438.1
			c68.1,118.9,179.3,194.4,280.1,282.8c41.5,36.3,80.5,75.3,112.7,120.3c36.9,51.6,66,108.4,93.7,165.2
			c55.9,114.7,102.8,236.9,175.1,342.7c115.9,169.6,359.1,209.7,426.4,417.7c37.3,115.6,36.4,240.3,76.4,355.2
			c17.1,49.1,43.2,97.5,87.7,126.6c32.8,21.5,71.1,28.3,109.2,34.1c41.2,6.4,82.2,13.8,116.7,38.7c48.6,35.3,76.5,95.6,100,149
			c64,144.9,95,308.9,185.5,440.9l18.2-13c-91.1-132.6-122.8-297.9-187.2-443.6C4811.5,5864.7,4783.6,5803.9,4735,5768.7z"/>
		
			<linearGradient id="SVGID_00000058580120419324042670000001156080840429395089_" gradientUnits="userSpaceOnUse" x1="876.1539" y1="2602.7986" x2="876.1539" y2="2413.3767" gradientTransform="matrix(0.5814 0.8136 -0.8136 0.5814 4595.02 1294.7869)">
			<stop  offset="0" style="stop-color:#FFAB1C"/>
			<stop  offset="0.17" style="stop-color:#F0A11A"/>
			<stop  offset="0.48" style="stop-color:#CA8816"/>
			<stop  offset="0.92" style="stop-color:#8D5E0F"/>
			<stop  offset="1" style="stop-color:#80560E"/>
		</linearGradient>
		<path style="fill:url(#SVGID_00000058580120419324042670000001156080840429395089_);" d="M4801.6,5751.2
			c-37-27.8-82-39.5-126-50.5c-41.1-10.5-82.7-21.2-118.1-45.5c-44.3-30.4-70.6-77.7-88.4-127.3c-40.8-112.7-43.7-235.1-82.2-348.6
			c-34.3-101.1-108.4-165.8-194.1-224.7c-83.6-57.4-171.5-110.5-229.6-196c-72.2-106.3-118.2-229.4-173.6-344.7
			c-27.4-57-56.1-114-92.9-165.7c-31.8-44.5-70.4-82.9-112-118.2c-100.7-85.7-211.5-157.6-278-275.8
			c-79.4-141.1-104.1-308.1-198.7-441.3l0,0l0-0.1l0-0.1l0,0c-88.9-123.7-230.8-191-332.3-302.2c-91.7-100.6-123.4-231-171.9-354.3
			c-20.2-51.3-44.5-100.6-77-145.4c-36.5-50.1-80.1-94.9-124.1-138.3c-90.7-89.3-191.4-172.3-268.7-274.1
			c-62.2-81.9-84.5-181.1-111.4-278.3c-28.5-103.3-66.2-196.8-154-263.5c-94.7-71.9-208.7-114.2-301.2-189.2
			c-40.1-32.5-75.4-71.7-90.2-122c-12.2-41.6-8.9-85.2-5.4-127.9c3.7-44.2,7.3-89.3-5.7-132.3c-18-59.9-66.2-107.5-111.8-147.9
			c-113.7-100.5-256.8-172.9-347.8-297l-18.2,13c93.1,126.7,237.5,204.7,352.6,308.8c44.8,40.6,94.7,88.6,111.9,148.5
			c11.8,41,6.2,83.2,0.3,124.7c-5.6,40-10.8,80.9,0.2,120.5c14,50.2,50,89.2,89.8,121c94,75,210,115.6,306.4,187.2
			c88.7,65.9,125.8,159.6,153.4,263.2c26,97.3,47.4,196.3,109.6,278.3c77.3,101.9,177.1,185.7,267.4,275.6
			c43.8,43.7,87.2,88.6,123.7,138.8c32.8,45,57.3,94.8,78.1,146.2c50.2,124,84,255.6,175.7,357.5
			c100.1,111.3,238.8,181.5,327.1,304.3c94.6,133,123.8,298.6,204.1,439.3c67.8,118.7,178.7,193,279.8,280.4
			c41.6,36,80.5,74.8,112.5,119.7c36.8,51.7,65.7,108.5,93.5,165.3c56.1,115.1,103.2,237.5,175.5,343.8
			c58.1,85.6,146.2,137.6,230.2,194.2c86.3,58.1,160.8,122.4,194.1,224.1c37.7,114.9,38.2,238.6,78.6,352.8
			c17.3,49,43.2,97.2,87.5,126.7c33.9,22.6,73.6,30.7,112.9,38.3c42.3,8.1,85.1,17,120.6,43c48.3,35.4,76.5,95.1,99.7,148.7
			c62.1,143.4,88.8,306.5,179.2,436.5l18.2-13c-88.5-127.1-110.4-287.3-169.6-428C4877.8,5845.6,4849.5,5787.2,4801.6,5751.2z"/>
		
			<linearGradient id="SVGID_00000041253910810323146660000000484944811783497358_" gradientUnits="userSpaceOnUse" x1="875.9979" y1="2533.8145" x2="875.9979" y2="2343.1934" gradientTransform="matrix(0.5814 0.8136 -0.8136 0.5814 4595.02 1294.7869)">
			<stop  offset="0" style="stop-color:#FFAB1C"/>
			<stop  offset="0.17" style="stop-color:#F0A11A"/>
			<stop  offset="0.48" style="stop-color:#CA8816"/>
			<stop  offset="0.92" style="stop-color:#8D5E0F"/>
			<stop  offset="1" style="stop-color:#80560E"/>
		</linearGradient>
		<path style="fill:url(#SVGID_00000041253910810323146660000000484944811783497358_);" d="M4886.2,5748
			c-43.4-35-95.7-56.4-146.6-77.8c-47.5-20.1-95.9-40.4-136.9-72.3c-42.7-33.3-71.1-78-91.6-127.7
			c-44.3-107.6-54.2-225.8-95.7-334.5c-38.6-101-113.8-168.6-199.3-230.9c-81.3-59.3-167-115.4-223.8-200.6
			c-71.6-107.3-114-232.8-167.1-349.5c-25.4-55.8-52.1-111.9-87.4-162.2c-31.5-44.9-71.1-82.5-113.9-116.2
			c-98.6-77.7-207.2-140.8-267.7-255.6c-75.7-143.5-86.1-315.3-179.5-450.4l0,0l0,0l0,0l0,0c-92.7-125.6-245.2-183.8-352.2-294.4
			c-92-95.1-115.7-222.2-158.6-342.4c-17.9-50-40.3-98.3-71.9-141.3c-36.6-50-81.3-93.7-126.2-136.1
			c-92.5-87.2-195.9-167.5-274-268.6c-63-81.6-88.5-181.6-118.4-278.5c-31.5-101.9-71.5-195.4-155.7-264.7
			c-88.8-73.2-196-120.8-282.8-196.7c-40.7-35.6-74.1-77.1-91.9-128.7c-17.1-49.4-20.5-102.3-24-154.2c-3.7-53.7-7-108.4-25-159.5
			c-20.9-59.8-63.9-106.7-112.5-145.7c-107.8-86.7-244.8-139.9-329.4-253.3l-18.2,13c87.2,117.9,226.9,179,337,271.5
			c47.4,39.7,92.3,86.7,112.2,146.6c15.9,47.7,16.3,98.6,17.1,148.4c0.7,48,1.4,97.1,16.4,143.2c16.6,51.1,50.7,91.4,91.2,125.7
			c89.1,75.5,199.1,121,290.4,193.6c85.8,68.2,124.7,161.6,155,264.1c28.7,96.9,52.9,196.6,115.6,278.4
			c77.7,101.5,180.1,182.9,271.8,270.9c44.5,42.8,88.8,87,125.3,137c32,43.8,55.2,92.4,74,143c45.2,121.4,72.2,250,164.1,347.4
			c104.6,111,253,172.8,344,297.7c94,133.9,110.3,303.6,187.1,445.9c63.3,117.1,173.7,184.2,273.8,265.8
			c41.5,33.8,79.6,71,110.8,114.6c36.7,51.6,64.6,109.2,91.2,166.4c53.8,115.9,97.8,240.1,169.5,346.6
			c57.8,85.9,145.5,141,228.3,199.9c84.6,60.3,158,126.1,194.6,225.9c40.3,110.3,47.4,230,89.8,339.6c19.6,50.6,47.5,97,91.8,129.6
			c38.8,28.4,84.4,44.8,129.2,60.8c48,17.2,97.1,34.6,137.6,66.7c47.3,37.4,76.1,92.9,97.6,148.1c52.7,134.8,64.8,288.1,148.8,409.5
			l18.2-13c-80.8-117.9-85.7-266.5-134.4-397.5C4962.7,5839.5,4933.5,5786.2,4886.2,5748z"/>
		
			<linearGradient id="SVGID_00000111883551234121330830000005207488388465936542_" gradientUnits="userSpaceOnUse" x1="876.0645" y1="2461.4077" x2="876.0645" y2="2272.3647" gradientTransform="matrix(0.5814 0.8136 -0.8136 0.5814 4595.02 1294.7869)">
			<stop  offset="0" style="stop-color:#FFAB1C"/>
			<stop  offset="0.17" style="stop-color:#F0A11A"/>
			<stop  offset="0.48" style="stop-color:#CA8816"/>
			<stop  offset="0.92" style="stop-color:#8D5E0F"/>
			<stop  offset="1" style="stop-color:#80560E"/>
		</linearGradient>
		<path style="fill:url(#SVGID_00000111883551234121330830000005207488388465936542_);" d="M4807.8,5640.7
			c-54.4-30.2-110-60.5-157.7-101.1c-43-36.5-74.9-81.4-98.6-132.3c-47.5-102-65.1-214.8-110.1-317.7
			c-42.9-98-117.2-168.4-200.3-233.1c-80-62.3-165.1-121.9-221.4-208.1c-70.4-108-109-235.3-159.3-353.1
			c-24-56.1-49.4-113.2-84.3-163.6c-29.9-43.1-69-78.3-111.2-108.8c-97.2-70.2-204.9-123.7-259.5-236.9
			c-70.7-146.4-65.7-321.8-157.1-459.2l0,0l0,0l0,0c-97.4-127.1-259.8-175.9-373.5-284.7c-92.8-88.8-108.2-210.9-144.2-327.8
			c-14.9-48.4-34.9-95.2-64.7-136.3c-36-49.6-81.7-92.2-127.1-133.1c-95.5-86.2-203.7-164.3-283.8-266
			c-65-82.7-93.7-185-127.7-282.7c-34-98.3-76.8-189.4-154.7-260.6c-81.8-74.8-181.3-127.6-261.6-204c-42.2-40.2-76-86.6-96.8-141.4
			c-22.4-58.8-33-121.4-44.1-183.1c-22.3-124.5-46.9-249.2-155.5-327.7c-102.2-73.8-233.6-103.3-312.9-207.2l-18.2,13
			c81.6,107.8,216.2,146.2,320.6,225.6c48.5,36.9,86.3,82.3,108.5,139.5c21.9,56.8,30.1,117.8,38.7,177.8
			c8.3,58,16.2,116.9,36.4,172.2c19.8,54.2,53.7,99.4,96,138.3c82.7,76,185,126.7,269.3,201c79.5,70.1,121.2,161.3,154.1,260.1
			c32.7,97.9,60,199.8,124.6,282.7c79.7,102.1,186.7,181.3,281.5,268.4c45,41.4,90.2,84.3,126.2,134c30.3,41.9,51.1,89.2,67,138.1
			c38.4,118,57,241.8,149.6,332.8c111.2,109.2,269.7,161.6,365.3,288c92.1,136.6,92.9,310.7,165.4,456
			c56.8,113.7,164.9,170.9,262.5,243.8c42.5,31.8,81.8,67.8,112.2,111.6c35.1,50.3,60.8,107.1,85.4,163.1
			c51.4,117.4,91.4,244.1,162.3,351.8c56.4,85.8,141.7,144.1,222.2,205.3c83.9,63.8,158.6,133.1,199.9,232.3
			c43.7,105,58.4,219.9,104.7,324c22.5,50.5,53.2,95.2,96.1,130.6c45.2,37.3,98.1,63.9,150,90.4c55.6,28.3,112.6,56.5,160.4,97.1
			c46.6,39.5,76.9,90.2,95.9,147.9c40.8,124.2,33.9,263.4,109.2,375.3l18.2-13c-72.4-108.4-58-241.8-94.3-362.1
			C5032.1,5766.9,4919.8,5703.1,4807.8,5640.7z"/>
		
			<linearGradient id="SVGID_00000181064753759337804530000006069042013726707106_" gradientUnits="userSpaceOnUse" x1="875.861" y1="2390.8225" x2="875.861" y2="2200.3022" gradientTransform="matrix(0.5814 0.8136 -0.8136 0.5814 4595.02 1294.7869)">
			<stop  offset="0" style="stop-color:#FFAB1C"/>
			<stop  offset="0.17" style="stop-color:#F0A11A"/>
			<stop  offset="0.48" style="stop-color:#CA8816"/>
			<stop  offset="0.92" style="stop-color:#8D5E0F"/>
			<stop  offset="1" style="stop-color:#80560E"/>
		</linearGradient>
		<path style="fill:url(#SVGID_00000181064753759337804530000006069042013726707106_);" d="M4870.7,5610.1
			c-109.7-70.2-216.1-139.5-276.6-258.6c-49.6-97.7-74-205.9-121.5-304.5c-46.2-96.1-119.1-168.2-200.6-235
			c-78.9-64.6-163.5-127-219.5-213.8c-69.9-108.3-105.2-237.3-153.3-355.9c-22.9-56.6-47.2-114.2-82.1-164.7
			c-29-41.8-67.3-75.5-109.4-103.6c-96.7-64.4-202.6-110.1-253.7-222.5c-67.5-148.3-49-326.9-140.2-465.9l0,0
			c-100.3-129.4-272-169.8-390.4-278.2c-93.4-85.5-101.9-202.9-132.6-317.8c-12.6-47.5-31.6-93.1-60.6-132.9
			c-36-49.5-82.7-91.4-128.7-131.4c-97.1-84.4-207.8-159.8-288.4-261.3c-65.7-82.6-97.2-185.5-133.7-282.9
			c-36.5-97.4-81.2-187.9-156.3-261.6c-77-75.7-169.9-133.3-245.7-210.5c-42-42.7-75.5-90.8-98.1-146.4
			c-27.2-66.3-43.4-136.6-60.3-206c-30.2-123.6-56.8-275.7-172.4-349.4c-98.4-62.7-221.9-71.8-297.1-169.5l-18.2,13
			c76.4,99.2,202.7,115.1,302.2,181.3c113.5,75.7,139.1,218.3,167.1,342.5c15.1,66.9,29.4,134.8,55.2,198.7
			c22.2,55.3,55.8,103.3,97.9,145.2c77.2,76.9,172.3,132.8,250.8,208.3c75.8,72.9,120,163.8,155.6,261.4s66.2,200.2,131.8,282.8
			c146.8,185,409.2,287.4,476.9,528.6c32.3,115.4,43.1,234.4,136.3,320.8c116.9,108.5,285.3,151.8,385.1,280.2
			c90.9,138.6,77.1,315.9,145.5,463.7c52,112.5,158.6,160.7,255.4,227c208.2,142.4,219,424.9,347.9,624.5
			c56,86.8,140.9,148.1,220.1,212c82,66.1,155.5,137.6,200.6,234.3c46.7,100,68.7,209.7,117.9,308.8
			c58.2,117.5,161.9,184.1,270.4,250.8c110,67.6,239.2,138.5,274.1,272.5c30,115.2,4.5,239.3,73.5,343.5l18.2-13
			c-67.9-102.6-36.8-221.9-63.9-335C5117.4,5754.6,4979.4,5679.6,4870.7,5610.1z"/>
		
			<linearGradient id="SVGID_00000017498256795491166730000012972438700010750599_" gradientUnits="userSpaceOnUse" x1="875.6089" y1="2327.1267" x2="875.6089" y2="2138.5212" gradientTransform="matrix(0.5814 0.8136 -0.8136 0.5814 4595.02 1294.7869)">
			<stop  offset="0" style="stop-color:#FFAB1C"/>
			<stop  offset="0.17" style="stop-color:#F0A11A"/>
			<stop  offset="0.48" style="stop-color:#CA8816"/>
			<stop  offset="0.92" style="stop-color:#8D5E0F"/>
			<stop  offset="1" style="stop-color:#80560E"/>
		</linearGradient>
		<path style="fill:url(#SVGID_00000017498256795491166730000012972438700010750599_);" d="M4920.1,5574.9
			c-61-40.2-123.2-80-177.8-128.7c-43.2-38.5-75.7-83.3-102.1-134.7c-49.9-97.1-76.9-204-124.9-302c-46.9-96-118.8-168-200.3-235.4
			c-78.8-65.1-162.9-127.9-219.5-214.6c-128.6-197.3-129.9-483.9-341-622c-96.9-63.4-202-107.7-252.9-220
			c-67.3-148.6-45.5-328.1-137.4-467l0,0c-100.4-130.3-274.2-168.5-393.2-277c-47.3-43.2-78-98.9-95.8-159.9
			c-15-51.2-21.3-104.5-34.6-156.2c-62.8-242.4-332.1-337.3-476.9-521.3c-65.4-83.2-97.6-185.5-134.6-283.1
			c-37-97.5-82.1-187.1-156.7-261.5c-76.2-75.9-167.1-135.6-242.2-212.8c-41.8-42.9-75.1-90.2-98-145.7
			c-28.1-68.1-45.7-140.3-64.1-211.5c-31.8-123.1-58.9-281.3-175.6-354.1c-98.2-61.2-220.7-65.6-295.4-163.4l-18.2,13
			c37.6,49.5,87.2,78.6,144.9,99.5c49.7,18.1,101.7,31.6,147.2,59.4c119.1,73,146.2,236.7,179,361.3
			c18.7,71.2,36.7,143.4,65.3,211.3c22.5,53.3,54.2,98.3,94.2,139.9c75.4,78.4,167,138.8,243.8,215.6
			c75.7,75.7,120.4,167,158.3,265.8c36.5,95.3,68.9,195.7,132.5,277c79.4,101.5,191.3,175.8,288.4,259
			c87.2,74.8,162.9,153.2,191.4,267.5c12.4,49.7,18.2,100.6,32,149.9c17,60.6,46.9,116.4,92.9,159.9
			c118.6,112.1,297.5,147,398.3,280c2.9-2.1,5.4-3.8,7.4-5.4c-2.2,1.6-4.5,3.2-7.4,5.4c93.1,138.4,68.3,318.9,135.9,467.5
			c26.3,57.7,69.4,103.9,121.2,139.6c42.1,29,88.6,51.1,131.5,78.8c98.9,64,148.5,160.9,191,267.7
			c47.3,118.8,81.3,248.6,151.6,356.7c56.4,86.6,140.9,149.8,219.2,215.1c81.3,67.9,153.2,139.7,200.3,235.9
			c47.8,97.5,75.3,203.8,125,300.5c26.4,51.3,58.7,96,101.9,134.5c55.1,49.1,117.5,89.5,178.8,130.2
			c107.2,71.4,253.3,150,283.7,286.3c11.6,52.1,7.6,105.7,8.6,158.5c1.2,61.3,12.5,117.8,47.2,169.3l18.2-13
			c-68.2-101.9-33.1-218.9-58.7-331.3C5171.6,5723.3,5027.8,5645.8,4920.1,5574.9z"/>
		
			<linearGradient id="SVGID_00000155130122754825192710000014722019223070235020_" gradientUnits="userSpaceOnUse" x1="876.0191" y1="2271.075" x2="876.0191" y2="2087.3484" gradientTransform="matrix(0.5814 0.8136 -0.8136 0.5814 4595.02 1294.7869)">
			<stop  offset="0" style="stop-color:#FFAB1C"/>
			<stop  offset="0.17" style="stop-color:#F0A11A"/>
			<stop  offset="0.48" style="stop-color:#CA8816"/>
			<stop  offset="0.92" style="stop-color:#8D5E0F"/>
			<stop  offset="1" style="stop-color:#80560E"/>
		</linearGradient>
		<path style="fill:url(#SVGID_00000155130122754825192710000014722019223070235020_);" d="M4947.5,5520.5
			c-58.6-36.1-118.6-72.1-170.7-117.5c-43.3-37.8-75.5-82.8-101.1-134.1c-50-100.4-75.5-210.9-123.4-312.2
			c-45.7-96.6-117.3-167.2-200.6-232.3c-79.8-62.3-164.2-121.9-220.3-208c-66.1-101.5-94.5-223.5-136.6-335.6
			c-20.6-54.9-43.8-110.2-77.4-158.5c-29.7-42.6-68.4-77.3-110.7-107c-97-68.1-204.1-119-257.5-231.9
			c-69.5-147.1-60.2-323.5-151.2-461.6l0,0l0,0l0,0c-98.7-127.7-264-173.8-379.4-282.5c-93-87.6-106-208.1-140.1-324.2
			c-14.1-48.1-33.8-94.4-63.3-135.2c-34.6-47.9-79.4-87.8-124.6-125.2c-92.8-76.5-199.3-143.2-274.6-238.7
			c-64.9-82.5-93.8-184.1-127.9-281.6c-34.3-98.4-78.2-187.3-153.8-260.8c-79.4-77.1-174.1-136.3-252.2-214.7
			c-41.9-42.1-75.6-89.1-97.6-144.5c-25.7-64.7-40.3-133.4-55.6-201.1c-28.7-126.7-54.4-267.6-168.4-346.2
			c-102.9-70.8-236.4-94.2-315.3-197.7l-18.2,13c76.6,100.2,205.5,115.2,305.8,181.4c115.3,76.1,141.4,224.5,171.6,349.7
			c16.7,69.3,32.7,139.6,59.5,205.9c22.5,55.5,56,102.8,97.9,145.3c76.6,77.9,169.8,137.2,247.6,213.8
			c75.1,73.9,119.6,163.1,155.1,261.1c35.4,97.7,65.9,199.5,131.1,282.5c77.2,98.2,186.1,168,280.8,247.5
			c46,38.5,91.6,79.5,126.9,128.3c29.2,40.3,48.3,86.2,61.5,133.9c32,115.3,42.4,234.1,135.7,320.4
			c117.1,108.4,286.1,151.3,386,279.9c90.9,138.7,76.4,316.3,144.6,464.2c51.9,112.5,158.3,160.3,255.1,226.3
			c42.2,28.7,80.7,62.8,110,105c34.4,49.4,58.2,105.8,79.7,161.8c44.2,115,75,240.2,142.8,344.3c56.4,86.6,140.5,147.6,220,211.4
			c82.4,66.1,154.2,137.4,200.5,233.7c48,99.7,74,208.7,124.1,307.5c26,51.3,58.6,96.3,101.8,134.6c53.3,47,114.3,84.7,174,122.7
			c110.1,70,244.8,143.5,279.5,279.3c29.7,116,2.6,242.3,72.3,347l18.2-13c-72-107.8-51.3-241.2-84.6-361.2
			C5187.1,5660,5059.6,5589.6,4947.5,5520.5z"/>
		
			<linearGradient id="SVGID_00000152942558787670506250000010186822789537608360_" gradientUnits="userSpaceOnUse" x1="876.2546" y1="2220.4607" x2="876.2546" y2="2034.1886" gradientTransform="matrix(0.5814 0.8136 -0.8136 0.5814 4595.02 1294.7869)">
			<stop  offset="0" style="stop-color:#FFAB1C"/>
			<stop  offset="0.17" style="stop-color:#F0A11A"/>
			<stop  offset="0.48" style="stop-color:#CA8816"/>
			<stop  offset="0.92" style="stop-color:#8D5E0F"/>
			<stop  offset="1" style="stop-color:#80560E"/>
		</linearGradient>
		<path style="fill:url(#SVGID_00000152942558787670506250000010186822789537608360_);" d="M5133.4,5561.9
			c-51.5-44-112.3-76-171.4-108.5c-55.2-30.3-111.6-60.6-160.2-101c-43.6-36.3-74.1-81.2-98.4-132.1c-50-105.3-73.4-221-121.3-327.2
			c-44.2-98.1-114.9-165.8-201.1-227.6c-80.4-57.6-166.3-112.3-221.1-197c-60.1-92.6-81.2-204.3-116.3-307.3
			c-17.6-51.5-38.5-102.6-69.6-147.5c-30.6-44.4-70.5-81.3-113.1-114c-98.1-75.4-206.5-135.7-265.2-250
			c-74.3-144.3-80-317.3-172.8-453.1l0,0l0,0l0,0l0,0c-94.2-126.2-249.9-181.6-358.9-291.9c-92.2-93.2-113.3-219.2-154.2-338.3
			c-17-49.5-38.7-97.7-70-139.8c-32.8-44.3-74.6-80.8-118-114.3c-85.4-65.8-182.7-121.8-250.7-207.2
			c-63.2-79.5-87.2-179.4-115.8-274.7c-30.8-102.4-72.5-191.8-151.9-265.5c-84.5-78.4-185-137.8-267.7-218.3
			c-40.6-39.6-73.6-83.3-93.9-136.7c-22.5-59.6-32.9-123.1-43.8-185.7c-11.3-64.7-21.7-130.7-45.5-192.1
			c-24-62-65-109.9-117.5-149.7c-111.4-84.5-255.4-132.4-341.7-247l-18.2,13c84,110.8,225.5,148.9,333.8,229.3
			c50.6,37.6,88,83.6,111.6,142.3c25.4,63.2,37.7,131,50.8,197.6c12.6,64.6,24.6,130.1,48.2,191.7c21.2,55.3,55.1,101.3,97.1,142.5
			c80.9,79.4,179,138.5,261.1,216.5c76.8,72.9,119.3,160.8,151.2,260.2c31.2,97,57,198.4,121.3,279.9
			c71.2,90.3,173.3,150.7,262.3,221.6c44,35.1,86.8,73.1,120,118.8c30.2,41.7,50.9,89,66.7,137.8c38,117.8,56.2,241.4,148.7,332
			c111.5,109.2,270.6,161.1,366.5,287.5c92,136.7,91.9,311,164.2,456.5c56.4,113.6,164.5,170.2,262.1,242.7
			c42.5,31.6,81.8,67.5,112.1,111.2c32.2,46.3,53.9,99.1,72.7,152c38,106.7,62,222.5,124.5,318.6c55.4,85.3,140.6,142,220.9,201.5
			c85.1,63.1,156.1,132,201,229.4c47.9,104.3,72,217.9,122.2,321.3c24.7,51,56.1,96,99.5,132.9c50,42.5,107.8,75,164.3,107.6
			c60.5,35,122.8,69.4,175.8,115.4c47.4,41.2,78.4,91.6,97.3,151.4c40.5,128.1,31.1,273.9,108.4,388.8l18.2-13
			c-81.3-120-78.9-273.4-124.3-407.3C5212.4,5655.4,5181.8,5603.3,5133.4,5561.9z"/>
		
			<linearGradient id="SVGID_00000097478433275966967460000010747212101669351063_" gradientUnits="userSpaceOnUse" x1="875.8375" y1="2171.2144" x2="875.8375" y2="1981.4805" gradientTransform="matrix(0.5814 0.8136 -0.8136 0.5814 4595.02 1294.7869)">
			<stop  offset="0" style="stop-color:#FFAB1C"/>
			<stop  offset="0.17" style="stop-color:#F0A11A"/>
			<stop  offset="0.48" style="stop-color:#CA8816"/>
			<stop  offset="0.92" style="stop-color:#8D5E0F"/>
			<stop  offset="1" style="stop-color:#80560E"/>
		</linearGradient>
		<path style="fill:url(#SVGID_00000097478433275966967460000010747212101669351063_);" d="M5138.3,5478.6
			c-47.4-39-104.3-64.9-159.4-91c-51.6-24.4-104.3-48.8-149.8-83.9c-45.6-35.2-75.4-82-98.7-134.1c-49.4-110.1-71-230.2-118.7-341
			c-20.7-48-46.7-92.4-83.3-129.9c-33.9-34.6-73.5-62.8-113.8-89.2c-81.8-53.7-171.1-103.5-225.6-187.9
			c-54.2-83.8-68.2-184.1-96.1-278.1c-14.9-49.6-34.1-98.1-63.9-140.8c-31-44.3-70.1-82-111.4-116.6
			c-100.5-84-211-153.6-276.2-271.3c-78.3-141.5-99.2-310.1-193.6-443.3l0,0l0-0.1l0-0.1l0,0c-89.8-124.4-234.7-189-337.5-300.2
			c-91.7-99.1-121.4-228.8-168.4-351.3c-19.5-50.7-43-100.3-75.6-144.1c-30.3-40.7-69-73.8-110.1-103.1
			c-79.3-56.5-168.9-101.9-230.8-179.3c-62.4-77.9-81.2-177.7-105.1-271.9c-12.4-48.9-26.5-97.6-49.5-142.7
			c-24.1-47.3-58.7-86.5-98-121.8c-89.2-79.9-195.1-139-282.3-221.2c-40.7-38.2-74.3-80.3-93-133.4
			c-19.2-54.6-25.1-113.1-31.6-170.4c-6.7-59.3-12.6-119.8-32.8-176.4c-22.9-64.1-68.9-112.8-120.3-155.7
			c-121-100.9-276.3-170.3-372-298.9l-18.4,13.3c92.3,123.5,243.7,185.3,361.2,280.4c51.8,41.9,96,90.2,119.3,153.6
			c21.4,58.3,29,120.8,37.3,182.1c8.1,59.1,15.6,119.4,36,175.8c19.2,53.2,52.7,95.8,93.3,134.5c85.7,81.6,189.6,140.8,277.2,220.2
			c39,35.4,73.1,74.8,97.4,121.7c23.4,45.2,38.3,94.1,51.7,143.2c25.6,94.5,46.3,194.4,109,272.9c64,80.2,156.5,129.4,237.9,189.2
			c41.9,30.8,81.7,65.1,112.9,107c32.1,43.3,55,92.3,73.6,142.6c44.9,121.3,71.4,249.6,163.3,346.7
			c105,110.9,253.9,172.2,345.1,297.3c94.1,134.3,109.4,305,186.7,447.7c62.5,115.4,171.3,181.5,270.3,261.6
			c42.8,34.7,83.3,72.9,114.6,118.5c29.4,42.8,48.9,91.2,64.5,140.4c30.7,97.2,47.1,202.2,103.3,289.2
			c54.2,83.7,141,135.3,221.8,189.8c41.7,28.2,83,58,118.1,94.5c36.3,37.9,62.4,82.3,83.5,130.1c47.8,109.4,69.9,228.3,120,336.8
			c23.4,50.7,52.8,95.5,96.5,130.8c46.3,37.5,100.6,64,153.4,90.5c56.7,28.4,115.1,56.5,164.2,97.2c49.8,41.3,79.9,96.3,102.2,156.2
			c53.5,143,61.9,308.1,149.8,436.8l18.2-13c-91.2-133-106.2-303.7-163.4-451.7C5218.3,5576.8,5188.5,5519.9,5138.3,5478.6z"/>
		
			<linearGradient id="SVGID_00000166670525887600249520000015166729813019948172_" gradientUnits="userSpaceOnUse" x1="875.9072" y1="2119.9456" x2="875.9072" y2="1926.6661" gradientTransform="matrix(0.5814 0.8136 -0.8136 0.5814 4595.02 1294.7869)">
			<stop  offset="0" style="stop-color:#FFAB1C"/>
			<stop  offset="0.17" style="stop-color:#F0A11A"/>
			<stop  offset="0.48" style="stop-color:#CA8816"/>
			<stop  offset="0.92" style="stop-color:#8D5E0F"/>
			<stop  offset="1" style="stop-color:#80560E"/>
		</linearGradient>
		<path style="fill:url(#SVGID_00000166670525887600249520000015166729813019948172_);" d="M5264.2,5573.4
			c-24.6-59.6-54.1-119.3-105.4-160.3c-44.9-36-99.3-57.7-152-79.4c-49.3-20.3-99.8-40.7-142.8-72.9
			c-45.9-34.3-75.2-81.5-97.8-133.5c-49.5-113.4-69.6-237-117.3-351c-20.3-48.4-46-93.3-83.2-130.6c-33.8-33.9-73.6-60.6-114.2-85.6
			c-82.9-50.8-172.1-97.2-226.5-181.3c-50.9-78.8-59.8-171.3-83.2-259.9c-27.9-105.6-91.1-184-172.3-255
			c-101-88.5-212.4-164.1-280.6-283.1c-80.5-140.4-113.2-304.8-207.1-438l0,0l0-0.1l0-0.1l0,0c-88.5-121.9-224.4-194.3-324-305.4
			c-91.9-102.6-126.9-234.8-178.1-359.2c-40.7-99-94.2-183.4-184.3-243.5c-75.6-50.5-159.6-88.5-217.7-161.1
			c-62.1-77.6-77.9-176.3-98.7-270.6c-10.8-48.6-23.4-97.2-45.7-141.9c-23.7-47.8-58.9-87-98.8-121.9
			c-92.3-81-202-139.8-292.3-223.1c-40.6-37.5-75-79.3-92.7-132.3c-17.2-51.4-20.1-106.4-23.3-160.1c-3.4-55.7-6.2-112.5-24.2-165.7
			c-22.1-65.1-71-114.3-121.8-158.6c-66.6-58.2-139.1-109.3-209.3-163.1c-65.7-50.5-132.4-102.4-182.2-169l-18.2,13
			c100.3,134.8,260.5,214.3,385.9,322.7c50.9,44,99.2,93.1,121.4,158c18.6,54.2,22.3,112.2,26.8,168.8c4.3,54.7,8,110.7,25.8,163
			c18,53.1,52.1,94.7,92.7,132.3c89.5,83,198,142,289.3,222.6c39.8,35,74.8,74.2,98.6,121.9c22.4,44.8,35.5,93.5,46.8,142.2
			c21.7,94,38.3,193.3,100.3,270.8c59.1,73.8,144.9,114,221.4,166.2c89.8,61.2,144.4,144.5,184.6,244.4c50,124,83.5,255.3,175.2,357
			c100.3,111.3,239.4,181.1,327.8,304c94.6,133,123.3,298.9,203.4,439.6c67.6,118.5,178.5,192.6,279.6,279.8
			c82.1,71,143.9,149.8,173,255.5c24.8,90,35.1,184.9,86.9,265c54.2,84,143.8,131.4,226.2,183c40.5,25.4,80.2,52.6,114.1,86.6
			c37.1,37.4,62.9,82.2,83.3,130.5c47.6,113.1,68.3,235.7,117.7,348.1c22.8,51.9,52,98.8,97.8,133.5c43.8,33,94.8,54.5,144.8,76.1
			c53.4,23,108.5,46,154.1,82.7c51.1,41.1,80.7,100.2,104.9,159.8c62.9,154.6,85.9,333.2,181.6,472.8l18.2-13
			c-48.1-70.4-75.9-152.9-102.8-233.2C5322.3,5738.2,5297.5,5654.1,5264.2,5573.4z"/>
		
			<linearGradient id="SVGID_00000151527255537180215240000004424587274063529090_" gradientUnits="userSpaceOnUse" x1="876.0078" y1="2063.072" x2="876.0078" y2="1869.5537" gradientTransform="matrix(0.5814 0.8136 -0.8136 0.5814 4595.02 1294.7869)">
			<stop  offset="0" style="stop-color:#FFAB1C"/>
			<stop  offset="0.17" style="stop-color:#F0A11A"/>
			<stop  offset="0.48" style="stop-color:#CA8816"/>
			<stop  offset="0.92" style="stop-color:#8D5E0F"/>
			<stop  offset="1" style="stop-color:#80560E"/>
		</linearGradient>
		<path style="fill:url(#SVGID_00000151527255537180215240000004424587274063529090_);" d="M5213.6,5391.5
			c-46.4-37.4-102-61.5-155.9-85.8c-50.5-22.8-102.1-45.4-146.5-79c-45.6-34.6-75.2-81.1-97.8-133.1
			c-48.9-112-67.1-234.5-113.9-347.1c-20.2-48.4-46.2-93.2-83.4-130.6c-33.8-34-73.6-61.1-114.1-86.5
			c-82.5-51.5-171.9-98.9-226.3-182.8c-51.7-79.9-61.5-174.5-85.9-264.3c-28.7-105.7-90.8-184.6-172.9-255.5
			c-101.4-87.5-211.9-161.5-279.8-280.5c-80.2-140.7-115.6-303.6-208.4-437.5l0,0l0-0.1l0-0.1l0,0
			c-89.4-121.2-224-195.8-323.6-307.1c-90.7-101.2-124.6-230.4-173.8-353.6c-40-100.2-94.2-184.9-184.4-246.3
			c-76.5-52.1-162.7-91.7-221.8-165.5c-62.5-77.7-79-177.1-100.8-271.6c-10.7-47.2-23.5-94.3-44.7-138
			c-24.1-49.7-60.1-90.7-101.6-126.9c-91.7-79.8-201.3-136.7-290.6-219.5c-40.7-37.7-73.9-80.1-91.3-133.2
			c-17.7-53.7-22.3-110.6-27.4-166.6c-5.4-57.7-10.2-116.9-30.1-171.6c-22.8-62.5-69.3-109.8-118.7-152.8
			c-124.7-108.9-282.3-189.2-383.2-323l-18.2,12.9c50.2,66.7,117,118.8,182.7,169.4c70,54,142.4,105.2,209,163.6
			c49.2,43.2,96.6,90.6,119.1,153.5c19.1,53.3,22.4,110.8,26,166.7c3.6,54.3,6.7,109.6,23.3,161.7c17.1,53.2,50.9,95.5,91.4,133.2
			c90.2,83.9,200.7,141.9,293.3,222.8c41.5,36.2,77.6,77.2,101.7,127c21,43.5,33.3,90.7,43.7,137.8c20.9,94.7,36.7,193.4,99.2,271.3
			c58.3,72.7,142.7,110.3,218.4,161c90.4,60.5,143.6,146.3,184.2,245.7c50.3,123.3,85.5,253.8,176.3,355.3
			c99.7,111.3,234.3,185.8,323.6,307.1c92.8,133.9,128.2,296.9,208.4,437.6c68,119.3,179.4,194.9,280.5,283.5
			c81.1,71,144.5,149.3,172.3,255c23.3,88.5,31.9,180.9,82.8,259.6c54.4,84,143.5,130.4,226.5,181.2c40.6,24.8,80.5,51.6,114.3,85.5
			c37.2,37.3,63.3,82.3,83.4,130.7c47.5,113.9,66.6,237.7,116.1,350.8c22.7,51.8,52.1,98.9,97.8,133.1c43.2,32.3,93.8,53,143.3,73.7
			c52.9,22,107.3,44.2,152.4,80.2c51.3,41,80.5,100.8,105.1,160.3c33.4,80.5,58.2,164.4,86,246.9c27,80.3,55,162.5,102.9,233.1
			l18.2-13c-94.2-139.3-119.1-315.2-182.2-468.9C5293.8,5491.6,5264.6,5432.7,5213.6,5391.5z"/>
		
			<linearGradient id="SVGID_00000131358698265075109730000014122647787722703254_" gradientUnits="userSpaceOnUse" x1="875.9169" y1="2005.1665" x2="875.9169" y2="1816.894" gradientTransform="matrix(0.5814 0.8136 -0.8136 0.5814 4595.02 1294.7869)">
			<stop  offset="0" style="stop-color:#FFAB1C"/>
			<stop  offset="0.17" style="stop-color:#F0A11A"/>
			<stop  offset="0.48" style="stop-color:#CA8816"/>
			<stop  offset="0.92" style="stop-color:#8D5E0F"/>
			<stop  offset="1" style="stop-color:#80560E"/>
		</linearGradient>
		<path style="fill:url(#SVGID_00000131358698265075109730000014122647787722703254_);" d="M5295.8,5415
			c-51.5-44.3-112.1-77.2-171.1-110.5c-55.3-31.2-111.6-62.1-161-102.5c-45.2-37-76.6-82.6-99.6-135.9
			c-46-106.6-60.5-223.7-104.5-330.9c-39.9-97.1-110.2-162.2-195.6-220.1c-81.7-55.3-170.4-106.9-225.4-191.6
			c-55.7-86.1-71-189.6-100.4-285.9c-15.4-50.7-35.2-100.3-65.8-143.9c-30.8-44-69.9-81.1-111.4-114.7
			c-101.8-82.7-209.7-149.5-276.4-266.5c-80.2-140.7-115.6-303.6-208.4-437.5l0,0l0-0.1l0-0.1l0,0c-89.4-121.2-224-195.8-323.5-307
			c-89.1-99.5-117.1-224-161.7-345.8c-18.6-50.8-41.4-100.6-73.4-144.4c-30.8-42.1-70.5-76.2-112.5-106.8
			c-81.3-59.1-173.9-106.7-237.9-186.3c-63-78.6-83.7-178.7-109.2-273.6c-27.8-103.1-67.4-193-149.9-264
			c-87.6-75.4-193.2-127-278.3-205.4c-41.8-38.5-73.8-82.4-93.6-136c-22.5-60.7-33.5-124.9-45.3-188.2
			c-12.1-65.2-23.4-131.7-48.1-193.6c-24.3-60.5-65.7-107.5-115.3-149c-112.2-94-253.8-156.7-343.4-275.8l-18.2,13
			c94.6,125.6,243.2,195.9,360.8,296.6c49.5,42.3,93.2,89.3,116.8,150.8c22.6,58.7,31,122.2,40.3,184.1
			c9,60.2,17.3,121.2,37.6,178.9c18.7,53.4,51.2,96.3,92.4,134.5c86.9,80.3,194.3,134.2,283.6,211.5
			c41.3,35.8,76.5,76.7,100.9,125.9c21.8,43.9,35.4,91.3,47.3,138.6c23.9,94.6,42.8,194.5,105.4,272.6
			c61.8,77,151.7,121.2,230.9,177.2c90,63.7,146.3,146.5,185.2,248.9c46.7,122.6,77.3,249,167,349.2
			c99.7,111.3,234.3,185.8,323.6,307.1c92.8,133.9,128.2,296.9,208.4,437.6c67.3,117.9,176.3,187.8,277.9,272.6
			c41.5,34.7,80.8,72.5,111.9,117c29.7,42.5,48.8,90.7,63.2,140.3c27.2,93.4,40.2,193.2,94,276.5c54.5,84.3,143.8,134,225.7,187.6
			c86.8,56.8,156.2,121.3,196.5,218.8c45.3,109.7,61.4,229,108.6,337.9c22.8,52.7,53.3,98.7,98.7,134.4
			c47.3,37.3,101.5,64.7,154.8,92.3c56.7,29.4,115.2,58.5,164.5,99.7c49.7,41.6,79.6,97.7,103.3,157.2
			c57.6,144.3,75.9,308.4,164.3,439l18.2-13c-84-123.8-97.2-278.7-150.3-415.6C5375,5510.9,5344.5,5456.8,5295.8,5415z"/>
		
			<linearGradient id="SVGID_00000112590638034241995930000013808391521942679218_" gradientUnits="userSpaceOnUse" x1="875.838" y1="1947.0802" x2="875.838" y2="1766.5708" gradientTransform="matrix(0.5814 0.8136 -0.8136 0.5814 4595.02 1294.7869)">
			<stop  offset="0" style="stop-color:#FFAB1C"/>
			<stop  offset="0.17" style="stop-color:#F0A11A"/>
			<stop  offset="0.48" style="stop-color:#CA8816"/>
			<stop  offset="0.92" style="stop-color:#8D5E0F"/>
			<stop  offset="1" style="stop-color:#80560E"/>
		</linearGradient>
		<path style="fill:url(#SVGID_00000112590638034241995930000013808391521942679218_);" d="M5198.1,5314.1
			c-108.9-73.7-228.4-147-281.8-272.8c-42.4-99.9-52.2-210-92.6-310.5c-38.5-96.2-111.2-163.4-192.8-223.9
			c-81.1-60.2-168.4-117-224.4-203.3c-61.3-94.5-83.2-208.6-118.9-313.9c-18.4-54.1-40.1-108.3-73.3-155.3
			c-29.9-42.3-68.4-77.3-109.8-108c-47.4-35.4-98.4-65.7-145.1-102.1c-52.2-40.7-94.1-88.6-126.9-146.1
			c-80.2-140.7-115.6-303.6-208.4-437.5l0,0l0-0.1l0-0.1l0,0c-89.4-121.2-224-195.8-323.5-307c-44.4-49.6-75.8-105.6-97.3-168.4
			c-18.8-55-31-112-48.6-167.4c-15.8-49.8-36.7-98.3-67.6-140.7c-33.1-45.5-76.2-83-120.5-117.3c-87.7-68-188.2-125.3-258.3-213
			c-64.1-80.1-90.1-180.6-120.5-276.5c-31.8-100.1-72.6-193.2-154.4-262.4c-82.5-69.7-182.9-114.7-263-187.6
			c-100.8-91.8-130.7-229.7-165.1-356.2c-36-132.5-68.1-276.3-181.6-365c-96.2-74.8-216.6-113.6-291.7-214.3l-18.2,13
			c80.6,107.6,209.4,155.9,311.6,238.2c49.6,39.9,87.3,87.1,112.4,145.7c28.9,67.3,45.1,139.7,62.2,210.6
			c30,124.3,56.8,254.1,154.9,343.8c82,75,184.5,122.4,268.8,194.4c82.1,69.9,122.4,161.8,152.6,263.1
			c28.5,95.5,52.5,195.9,116.2,275.4c67.7,84.6,165.3,138.2,250.4,202.8c43.4,32.8,85.1,69,117.4,113.2
			c31.4,43,52.9,91.9,69.9,142.1c19,56.2,32.7,114.1,52.7,170c22.6,63,54.5,119.8,99.3,169.7c99.7,111.3,234.3,185.8,323.6,307.1
			c92.8,133.9,128.2,296.9,208.4,437.6c33.1,58,75.4,106.6,127.4,148.4c47.1,37.9,98.4,70,146.2,106.9
			c41.4,31.9,80.2,67.7,110.3,110.6c32.2,45.7,53.1,98.1,70.3,150.9c33.3,101.8,52.6,211.9,111.8,303.1
			c55.6,85.7,143.4,140.4,224.7,198.7c83,59.6,154.8,126,193.9,222.5c41.7,103.1,53.6,215.8,97.2,318.4
			c52.3,122.8,165.3,190.5,273.7,259.5c62.9,40,127.5,79.5,183,129.7c46.6,42.1,78.6,92.8,100,151.5
			c45.2,123.7,48.9,261.8,124.9,373.3l18.2-13c-71.3-104.1-68.7-231.1-109-346.6C5439.5,5468.3,5312.3,5391.4,5198.1,5314.1z"/>
		
			<linearGradient id="SVGID_00000121256399274141324090000017554679982739251390_" gradientUnits="userSpaceOnUse" x1="875.7457" y1="1890.8422" x2="875.7457" y2="1713.1965" gradientTransform="matrix(0.5814 0.8136 -0.8136 0.5814 4595.02 1294.7869)">
			<stop  offset="0" style="stop-color:#FFAB1C"/>
			<stop  offset="0.17" style="stop-color:#F0A11A"/>
			<stop  offset="0.48" style="stop-color:#CA8816"/>
			<stop  offset="0.92" style="stop-color:#8D5E0F"/>
			<stop  offset="1" style="stop-color:#80560E"/>
		</linearGradient>
		<path style="fill:url(#SVGID_00000121256399274141324090000017554679982739251390_);" d="M5571.4,5631.7c-17-57-53.6-103-95.7-144
			c-63.9-62.4-136.6-115.7-207.6-169.6c-110.3-83.9-245.2-170-300.5-302.9c-39.1-93.9-44.8-197.7-81.9-292.3
			c-77.5-197.7-302.3-269.1-413.9-440.9c-66.3-102.2-94-225.4-135.4-338.6c-20.8-57.1-44.3-115.1-79.7-165
			c-29.1-41-67.1-74.1-108.4-102.4c-46.4-31.8-96.7-57.8-142.4-90.7c-52.8-38.1-93.5-84.8-125.8-141.4
			c-80.2-140.7-115.6-303.6-208.4-437.5l0,0l0-0.1l0-0.1l0,0c-89.4-121.3-224-195.8-323.6-307.1c-43.6-48.6-74.3-103.3-93.1-165.7
			c-15.8-53-24.3-107.9-39-161.3c-13.4-48.9-32.6-96.2-62.5-137.6c-35-48.5-81.2-88.7-127.4-126.3
			c-93.5-75.9-200.4-141.8-276.4-236.7c-130-162.3-122.8-402.1-288.8-540.2c-77.8-64.7-173.8-103.7-249.2-171.7
			c-106.9-96.3-144.4-252.6-188-384.1c-27.5-82.8-53.9-167-91.4-246.1c-25.6-53.9-57.4-104.1-106.8-139c-38.2-27-82.2-43-124.1-63.1
			c-48.8-23.3-89.5-53.6-121.9-97.3l-18.2,13c34.2,46,78,78.4,128.3,104.9c44.9,23.7,92.1,43.7,133.2,73.9
			c116.3,85.4,151.7,247.9,192.4,378.1c40.5,129.8,75.4,280,180.2,374.6c77,69.6,174.6,110.7,253.9,177.1
			c166,138.9,154.3,377.2,284.1,539.8c73.9,92.6,178.7,155.5,270.2,228.7c45.6,36.5,90.8,75.7,125.1,123.3
			c30.1,41.7,49.9,89.4,64.1,138.5c15.8,54,25.5,109.6,42.3,163.4c19.7,62.6,50.6,117.7,94.4,166.6
			c99.7,111.3,234.3,185.8,323.6,307.1c92.8,133.9,128.2,296.9,208.4,437.6c32.5,56.9,73.5,103.9,126.1,142.9
			c46,34.1,96.5,61.7,143.3,94.7c41.3,29.1,79.4,62.8,108.8,104.2c34.7,49,57.5,105.6,77.6,161.8c39.4,110.5,65.1,230.6,129.8,330.1
			c111.5,171.8,336.8,238.2,415,436.3c38.2,96.7,45.4,202.7,85.6,298.5c54.7,130.5,184.3,212.3,294.1,292.7
			c69.1,50.6,139.8,100.6,201.6,160.1c43.1,41.5,78.3,88.2,96.6,145.7c15.3,48,19.1,98.4,26.6,147.9c8.9,57.3,25.1,110.4,58.2,158.6
			l18.2-13c-31.4-45.7-46.8-95.1-52.9-149.8C5585.8,5722.1,5584.6,5676,5571.4,5631.7z"/>
		
			<linearGradient id="SVGID_00000038386812675618537100000016262875983773762203_" gradientUnits="userSpaceOnUse" x1="876.0092" y1="1832.9922" x2="876.0092" y2="1657.0377" gradientTransform="matrix(0.5814 0.8136 -0.8136 0.5814 4595.02 1294.7869)">
			<stop  offset="0" style="stop-color:#FFAB1C"/>
			<stop  offset="0.17" style="stop-color:#F0A11A"/>
			<stop  offset="0.48" style="stop-color:#CA8816"/>
			<stop  offset="0.92" style="stop-color:#8D5E0F"/>
			<stop  offset="1" style="stop-color:#80560E"/>
		</linearGradient>
		<path style="fill:url(#SVGID_00000038386812675618537100000016262875983773762203_);" d="M5644.7,5743.4
			c-1-39.3,2.4-78.4-7.9-116.7c-15.3-56.5-53.8-101.9-94.6-142.2c-67.4-66.5-142.7-125-216.5-184.1
			c-69.4-55.8-139.9-110.9-204.2-172.6c-44-42.2-81.4-87.6-104.9-144.3c-37.5-90.7-40.8-191.2-76.2-282.6
			c-76.5-197.3-301.2-275.6-412.8-447.3c-127.9-196.8-121.4-481.9-333.1-619.3c-45.9-29.8-95.7-53.3-140.9-84.3
			c-53.5-36.8-93.4-83.8-125.4-140.1c-80.2-140.7-115.6-303.6-208.4-437.5l0,0l0-0.1l0-0.1l0,0c-89.5-121.2-224-195.8-323.6-307.1
			c-43.4-48.4-74.7-102.3-91.9-165c-14.4-51.9-20.5-105.6-33.5-157.8c-60.8-244.1-330.1-331.5-476-514.1
			c-129.6-162.3-129.3-404.2-295.1-541c-75.3-62.1-168.9-97.7-241.8-163.1c-44.9-40.2-74.9-89.8-100.1-144.1
			c-38.1-82-67.8-167.9-98.5-252.8c-31.5-87-61.8-175.5-102.2-258.9c-25.2-52.3-55.9-104.5-105.3-137.4
			c-33.6-22.3-72.2-31.7-109.4-45.7c-48-18-84.2-47.9-114.8-88.9l-18.1,13.1c30.7,41.4,67.8,70.4,115.5,89.8
			c38.4,15.6,78.4,26.6,113.1,50c49.3,33.2,80.1,85,105.4,137.6c39.8,82.4,69.2,169.9,99.6,256c29.8,84.1,58.5,168.9,96,249.9
			c25.2,54.5,55.6,104.3,100.7,144.7c73.6,65.9,167.7,102.4,243.6,165.1c166,137,164.1,378.6,294,540.8
			c78.3,97.7,187.9,166.9,283.6,246c46.8,38.6,93.8,79.6,129.5,129c29.6,41,48.5,87.8,61,136.6c13.4,52.6,20.2,106.5,34.9,158.6
			c17.6,62.6,48.5,116.6,91.8,165c99.7,111.3,234.3,185.8,323.6,307.1c92.8,133.9,128.2,296.9,208.4,437.6
			c32.1,56.2,72.1,102.9,125.4,140c45.3,31.5,95.1,55.7,141.3,86c41.5,27.3,79.1,59.8,107.9,100.6c36.1,50.9,60,109.9,81.7,168
			c43.5,116.2,73.6,243.1,141.8,348.3c111.5,171.7,336.2,248.7,412.8,446.1c35.7,92.2,39.7,193.4,77.6,284.9
			c23.6,56.8,61.1,102.6,105.3,144.9c63.5,60.8,133.3,114.8,202.2,169.3c73.1,57.9,147.9,115.1,214.4,180.9
			c40.9,40.5,79.1,85.9,94.7,142.4c11,39.8,8.8,80.7,10.9,121.6c2.7,52.3,17.9,97.7,47.6,140.9l18.2-13
			C5662.2,5840.3,5646,5795.6,5644.7,5743.4z"/>
	</g>
</g>
</svg>
