<?xml version="1.0" encoding="utf-8"?>
<!-- Generator: Adobe Illustrator 26.0.3, SVG Export Plug-In . SVG Version: 6.00 Build 0)  -->
<svg version="1.1" id="Layer_1" xmlns="http://www.w3.org/2000/svg" xmlns:xlink="http://www.w3.org/1999/xlink" x="0px" y="0px"
	 viewBox="0 0 6238.9 6878.5" style="enable-background:new 0 0 6238.9 6878.5;" xml:space="preserve">
<style type="text/css">
	.st0{fill:url(#SVGID_1_);}
	.st1{fill:url(#SVGID_00000116199211433769595380000003682780915074972819_);}
	.st2{fill:url(#SVGID_00000141416261033641353920000016613616059768130992_);}
	.st3{fill:url(#SVGID_00000074409662712153061140000017705365470202414493_);}
	.st4{fill:url(#SVGID_00000062178043402904930050000011328705573476061867_);}
	.st5{fill:url(#SVGID_00000062185956264147778280000016207015460969224833_);}
	.st6{fill:url(#SVGID_00000052797407564133837280000008459270019098846363_);}
	.st7{fill:url(#SVGID_00000088112337894478209370000002576589828158598792_);}
	.st8{fill:url(#SVGID_00000178202616326280478230000015425785909264805304_);}
	.st9{fill:url(#SVGID_00000075156520692872827340000009545218946164625287_);}
	.st10{fill:url(#SVGID_00000133487024331598949120000011224517703019319735_);}
	.st11{fill:url(#SVGID_00000013880009268070162850000013548165774004068489_);}
	.st12{fill:url(#SVGID_00000124859706792192779520000005428847792094495372_);}
	.st13{fill:url(#SVGID_00000137820819031500287290000000726270250316470185_);}
	.st14{fill:url(#SVGID_00000154394532341550730980000007202513558786806942_);}
	.st15{fill:url(#SVGID_00000118388696150993020780000010528001715080498825_);}
	.st16{fill:url(#SVGID_00000063627616162442065730000008190003352961359496_);}
	.st17{fill:url(#SVGID_00000103253512350850874690000009186443526822806916_);}
	.st18{fill:url(#SVGID_00000123428155136972979240000010016798139005982388_);}
	.st19{fill:url(#SVGID_00000021105111364166250740000003956503303753983415_);}
	.st20{fill:url(#SVGID_00000023258764912825580880000008104408302080018576_);}
	.st21{fill:url(#SVGID_00000165197808326160309180000013140924179084151714_);}
	.st22{fill:url(#SVGID_00000162333593544750308410000007627088090038253737_);}
	.st23{fill:url(#SVGID_00000156576441021925630960000017711245332171107723_);}
</style>
<g id="Layer_2_00000121242781663275676930000001027246102389394601_">
	<g id="Layer_1-2">
		
			<linearGradient id="SVGID_1_" gradientUnits="userSpaceOnUse" x1="2262.0935" y1="-178.4672" x2="2262.0935" y2="26.0887" gradientTransform="matrix(0.7722 0.6353 0.6353 -0.7722 1005.2216 2425.8013)">
			<stop  offset="0" style="stop-color:#FFAB1C"/>
			<stop  offset="0.17" style="stop-color:#F0A11A"/>
			<stop  offset="0.48" style="stop-color:#CA8816"/>
			<stop  offset="0.92" style="stop-color:#8D5E0F"/>
			<stop  offset="1" style="stop-color:#80560E"/>
		</linearGradient>
		<path class="st0" d="M5063.3,5752.6c-39.9-51.5-83.7-100.8-143.2-129.4c-50-24.1-105-34.5-159.1-45
			c-50.6-9.8-101.6-19.6-148.9-40.7c-50.7-22.6-91.1-58.4-123.8-103c-66.5-90.5-101.2-199.7-165.8-291.3
			c-58.8-83.5-138.1-123.4-236-144.4c-92.8-19.9-183.4-34-257.4-98.5c-81.1-70.6-136.1-164.9-199.9-250.1
			c-65-86.6-138.4-158.3-244.4-189.7c-53.2-15.8-108.5-23.9-161.3-41.3c-63.2-20.8-115.6-55.8-160.7-104.6
			c-126.6-137-199.5-321.5-342.6-443.6l0,0l0-0.1c0,0,0,0,0-0.1l0,0c-137.7-109.2-321.2-136.2-470.3-225.6
			c-57-34.2-101.8-79.7-134.2-137.7c-27.4-49-46.2-102.2-72.3-151.8c-105.7-200.5-347.8-220.5-514.3-348.1
			c-77.5-59.4-109.7-144.4-146.7-231.3c-18.4-43.3-39.2-86.2-69.8-122.4c-33-39-75.9-66.4-122.3-86.7
			c-102-44.6-215.1-57.7-315.8-105.7c-48.8-23.2-90.6-55-122.3-99.1c-30.4-42.4-50.1-91.3-69.7-139.4
			c-20.2-49.8-40.5-100.5-72.2-144.3c-40.5-56-99.7-90.9-160.6-121.2c-80.6-40.1-165-72.2-247.9-107.3
			c-77-32.7-155.8-66.4-222.1-118.2l-14.2,17.3c66.6,52.2,146.3,85.9,223.6,119c84.2,36,170,68.9,251.9,109.9
			c59,29.5,116.4,63.4,156.6,117.1c32.3,43.2,52.1,93.8,71.7,143.6c18.9,48.1,37.8,96.9,67.7,139.4c31.2,44.4,73.4,77.4,122.1,100.8
			c101.1,48.7,215.1,60.4,317.8,104.9c48.4,21,92.8,50.1,126.6,91.2c28.9,35.1,48.6,76.3,65.8,118c36.1,87.4,67.6,171.3,145.7,230.3
			c85.3,64.5,187.2,101.1,282.3,147.9c96.9,47.8,180.7,105.3,231.5,203.2c25.3,48.7,43.8,100.6,70.4,148.6
			c32.3,58.2,76.6,103.7,133.6,138.1c149.7,90.2,333.6,118.6,472.2,227.8c143.1,122.8,217.9,307,344.8,444.5
			c45,48.8,97,83.8,160.2,104.5c53.1,17.4,108.6,25.5,162.2,41.3c217.4,64.2,287.3,299.5,445,438.6c73.4,64.8,162.9,78.2,255.5,97
			c97.5,19.9,177.2,60.7,235.6,143.7c64.6,91.9,98.2,201.8,164.7,292.5c32.7,44.5,73.7,80.7,124.4,103.3
			c46.9,20.9,97.6,30.1,147.8,39.2c53.7,9.8,108.3,19.6,158,43.5c59.5,28.6,103.2,78,143.1,129.3c55.3,71.3,103.5,147.9,154.2,222.5
			c48.3,71.1,97.6,144.9,163.2,201.4l14.2-17.3c-65.3-56.6-114.6-129.6-162.6-200.8C5165.1,5898.6,5117.8,5823,5063.3,5752.6z"/>
		
			<linearGradient id="SVGID_00000090287891754739634560000012995870224966279338_" gradientUnits="userSpaceOnUse" x1="2262.1125" y1="-115.0136" x2="2262.1125" y2="79.5543" gradientTransform="matrix(0.7722 0.6353 0.6353 -0.7722 1005.2216 2425.8013)">
			<stop  offset="0" style="stop-color:#FFAB1C"/>
			<stop  offset="0.17" style="stop-color:#F0A11A"/>
			<stop  offset="0.48" style="stop-color:#CA8816"/>
			<stop  offset="0.92" style="stop-color:#8D5E0F"/>
			<stop  offset="1" style="stop-color:#80560E"/>
		</linearGradient>
		<path style="fill:url(#SVGID_00000090287891754739634560000012995870224966279338_);" d="M4985,5606.8
			c-52.3-26.4-109.8-40.4-166.3-54.7c-52.8-13.3-106.3-26.6-155.8-50c-50.7-24-91.4-59.3-125.3-103.7
			c-67.5-88.5-106.5-194.8-172.3-284.4c-29.9-40.7-65.3-76.3-109.6-101c-42.6-23.8-89.7-38.1-136.6-50.5
			c-96.4-25.4-196.2-44.1-273.6-111.8c-81.8-71.6-133.3-170.5-195-258.5c-62.1-88.6-135.2-160.5-240.7-192.5
			c-51.7-15.7-105.4-23.9-156.7-41c-62.1-20.9-114.5-55.9-158.6-104.4c-122.1-134.2-185.9-318-325.5-436.9l0,0l0-0.1l0-0.1l0,0
			c-135.8-107.8-318.6-128-466.2-214.9c-55.8-32.6-102-79.5-133.7-135.8c-27-47.5-45.5-99.1-71.2-147.2
			c-51.6-96.5-136-153.9-234.1-197.5c-97.6-43.4-203.6-74.7-289.6-140.1c-81.3-61.8-119.4-155-162.4-244.3
			c-22-45.7-45.9-91.3-79.1-130c-33.4-39-76.1-66.7-122.3-88.1c-100.2-46.4-211.2-64.1-310.2-113.4
			c-48.9-24.3-90.3-56.5-123.2-100.3c-33.1-44.2-56.6-94.7-80.1-144.3c-24.3-51.5-48.5-103.8-83-149.4
			c-41.1-54.3-97.4-89.7-157.9-119.3c-144.1-70.3-311.2-106.1-439.3-206l-14.2,17.3c132.3,103.1,305.1,142,453.7,215.3
			c60.8,30,118.5,65.1,159.3,120.3c33.2,44.8,55.6,96.4,78,147.1c21.7,48.9,43.5,98.7,75.3,142.1c32.2,44,73.7,75.7,122.6,99.5
			c99.8,48.6,211.7,64.3,312.7,109.9c46.3,20.9,89,48.2,122.2,87.2c31.9,37.5,54.4,81.9,74.8,126.4c40.3,88,75.6,177.3,154.9,238.1
			c85.3,65.4,189.7,98.6,286.2,143.1c97.5,45,181.6,103,233,199.6c25.9,48.8,44.5,101.1,71.7,149.3c32.5,57.5,77.1,103.1,134,136.9
			c148.3,88.2,331.6,111.3,468.2,220c141.4,120.2,209.2,304.6,333.6,440.1c44.7,48.6,97.2,83.7,159.9,104.5
			c52,17.2,106.4,25.4,158.8,41.1c105.7,31.7,179.2,103.4,242.6,191.1c62.6,86.7,115.7,183.6,197.3,254.6
			c75.8,65.9,171.3,82.4,265.9,105.4c45.6,11.1,91.2,24.3,132.5,47.1c44.2,24.5,79.2,60.2,108.6,101
			c65.2,90.5,102.3,198.1,169.3,287.5c33.3,44.5,73.6,79.9,124.4,103.2c48.5,22.2,100.8,34,152.6,45.7c55.4,12.6,111.7,25,163,50.3
			c58.9,29,102.6,77,142.2,128.3c101.7,132.3,173.2,295.7,300.7,406.3l14.2-17.3c-123.6-107.1-190.9-265.5-288.8-393.8
			C5086.8,5682.6,5043.2,5636,4985,5606.8z"/>
		
			<linearGradient id="SVGID_00000018207142163760544060000016367812426582490762_" gradientUnits="userSpaceOnUse" x1="2262.0916" y1="-45.0754" x2="2262.0916" y2="130.1469" gradientTransform="matrix(0.7722 0.6353 0.6353 -0.7722 1005.2216 2425.8013)">
			<stop  offset="0" style="stop-color:#FFAB1C"/>
			<stop  offset="0.17" style="stop-color:#F0A11A"/>
			<stop  offset="0.48" style="stop-color:#CA8816"/>
			<stop  offset="0.92" style="stop-color:#8D5E0F"/>
			<stop  offset="1" style="stop-color:#80560E"/>
		</linearGradient>
		<path style="fill:url(#SVGID_00000018207142163760544060000016367812426582490762_);" d="M5063.6,5605.3
			c-56.1-30.1-117.3-49.2-177.6-68.7c-110.5-35.8-215-74.4-291-166.5c-70.3-85.2-114.4-188.3-182.4-275.1
			c-31.8-40.6-68.8-76-113.6-102c-48.7-28.2-102.6-46.6-156-63.6c-101.3-32.2-212.8-58-293.7-131.3c-82.3-74.8-129-180.2-188-272.4
			c-58.6-91.4-129.8-163.8-235.6-196.5c-48.2-14.9-98.3-23.1-146.1-39.4c-60.3-20.6-112.3-55.1-154.5-102.9
			c-115.4-130.7-166.6-312.3-300.2-427.7l0,0l0,0l0,0l0,0c-133.6-104.6-314.4-115.9-459.8-198.4c-55.8-31.6-100.4-76.4-132.6-131.8
			c-26.4-45.3-44.5-94.8-69.6-140.8c-52.6-96.1-137.7-151.1-237.6-190.3c-101-39.6-211.8-65.4-300.6-130.4
			c-88.6-64.9-135.7-170.5-187-264.1c-27.2-49.5-55.8-99.1-93.2-141.6c-34.4-39.1-76.9-68.5-123.2-91.9
			c-97.5-49.2-205.8-72.7-302.2-124.5c-106.1-57-164.3-153-221.1-255.2c-30-53.9-59.8-108.7-98.7-156.9
			c-41.4-51.3-93.5-87.5-152.8-115.5c-129.1-61-278.4-86.7-392.5-176.6l-14.2,17.3c119.6,93.9,276.1,123.6,411.1,188.3
			c59.8,28.7,113.5,64.5,154.8,117c37.1,47.2,64.7,101,92.5,153.9c53.4,101.9,108.6,196,213.9,250.9
			c97.4,50.8,206.8,72.1,305.3,120.1c46.3,22.6,88.8,51.3,122.8,90.3c35.7,41,62.4,89,87.6,137c48.2,91.8,91.6,192.5,177.2,256.2
			c87.7,65.3,196.6,93.2,296.2,134.3c99.3,40.9,184,96.9,236.2,193.2c25.4,46.8,43.6,97.2,70.3,143.4c32.3,56,76.9,101.1,133,133.4
			c146.3,84.2,328,99.1,462.4,205c136.2,116.9,192.3,299.8,310.7,431.8c43.1,48,95.3,82.6,156.4,103.2
			c48.6,16.4,99.5,24.6,148.6,39.5c105.9,32.2,178.1,104.1,238.2,194.5c60.3,90.6,108.8,193.7,191,267.3
			c79,70.7,185.2,93.9,284,123.3c51.5,15.3,103.6,32.1,150.4,59c44.6,25.6,80.9,61.1,112,101.9c67.2,88.1,109.2,192.7,178.7,279.2
			c73.9,91.8,176,127.9,285.6,160.4c58.9,17.5,118.7,34.6,173.3,63.1c56.8,29.6,100.4,73.5,138.8,124.2
			c91.3,120.7,150.3,270.3,266.7,370.6l14.2-17.3c-111.3-95.6-165-239-251.5-354.5C5162.9,5677.5,5119.3,5635.1,5063.6,5605.3z"/>
		
			<linearGradient id="SVGID_00000117668150872276496700000010540529780682208668_" gradientUnits="userSpaceOnUse" x1="2262.1245" y1="1.02" x2="2262.1245" y2="206.6422" gradientTransform="matrix(0.7722 0.6353 0.6353 -0.7722 1005.2216 2425.8013)">
			<stop  offset="0" style="stop-color:#FFAB1C"/>
			<stop  offset="0.17" style="stop-color:#F0A11A"/>
			<stop  offset="0.48" style="stop-color:#CA8816"/>
			<stop  offset="0.92" style="stop-color:#8D5E0F"/>
			<stop  offset="1" style="stop-color:#80560E"/>
		</linearGradient>
		<path style="fill:url(#SVGID_00000117668150872276496700000010540529780682208668_);" d="M4955.1,5521
			c-112.8-43.6-222.8-88.6-304.3-181.4c-72.2-82.2-121.5-181.4-191.7-265.2c-76.5-91.3-177.3-137.1-287.2-177.2
			c-107.3-39.1-232.1-71.2-317.5-151.3c-82.6-77.5-124.7-188.8-180.8-284.9c-54.7-93.8-123.6-167.5-229.2-201.2
			c-46.1-14.7-94.1-22.9-139.8-39.1c-58.4-20.7-109.7-54.9-150-102.1c-108.2-127.1-146.7-305.8-274.3-417.5l0,0l0,0l0,0
			c-131.1-101.3-309.1-104-452.3-181.4c-55.1-29.8-99.7-73.6-131.9-127.3c-25.8-43-43.5-90.3-67.9-134.1
			c-53-95.3-137.5-148.5-238.6-183.7c-105.5-36.7-222.9-56.8-315.7-122.7c-97.4-69.2-153.5-189.1-213.9-288.6
			c-59.8-98.5-124-186.1-226.8-242.5c-94.5-51.9-199.7-81.1-293.3-134.8c-109.7-62.8-175.9-164.4-241.7-268.8
			c-68-107.8-136.5-216.2-255.9-271.7c-115.8-53.8-248.7-68.3-350.9-149.6l-14.2,17.3c106.8,84.8,246.6,103,367.5,160
			c119.4,56.3,185.9,160.8,252,270.3c63,104.2,126.5,204.3,235.5,265.2c94.5,52.8,200.7,79.9,296.1,130.9
			c101.7,54.4,164.4,139.8,221.8,237.4c57.5,97.8,110.5,213.4,205.1,281.5c91.7,66,207.4,88,311.8,126.1
			c100.5,36.7,184.8,90.6,237.4,186.1c24.6,44.6,42.4,92.6,68.5,136.4c32.2,54.2,76.9,98.2,132.3,128.6
			c143.9,78.9,322.7,84.9,454.6,187.2c129.6,113,172.8,292.8,283.5,421.2c40.9,47.5,92.4,81.8,151.5,102.4
			c46.4,16.2,95.2,24.4,142.1,39.2c105.7,33.4,175.3,106.6,231.4,199.6c57.1,94.7,100.9,203.8,183.4,280.4
			c83.7,77.8,203.9,107.6,309.1,144.2c108.5,37.8,206.8,82.4,281,173.1c69.4,84.8,116.9,185.5,188.4,268.8
			c79.5,92.6,187.7,135.3,299.6,176.1c121.8,44.4,239.1,89.6,318.4,197.7c78.8,107.4,123.7,240.5,227.1,328.8l14.2-17.3
			c-99.2-84.4-139.1-211.5-213.8-314.6C5197.2,5614,5075.6,5567.5,4955.1,5521z"/>
		
			<linearGradient id="SVGID_00000147187289044709430170000009136599540747826829_" gradientUnits="userSpaceOnUse" x1="2262.1077" y1="47.3182" x2="2262.1077" y2="278.0498" gradientTransform="matrix(0.7722 0.6353 0.6353 -0.7722 1005.2216 2425.8013)">
			<stop  offset="0" style="stop-color:#FFAB1C"/>
			<stop  offset="0.17" style="stop-color:#F0A11A"/>
			<stop  offset="0.48" style="stop-color:#CA8816"/>
			<stop  offset="0.92" style="stop-color:#8D5E0F"/>
			<stop  offset="1" style="stop-color:#80560E"/>
		</linearGradient>
		<path style="fill:url(#SVGID_00000147187289044709430170000009136599540747826829_);" d="M5015.2,5495
			c-116.5-49.6-231.9-98.7-318.1-194.7c-71.7-79.9-124.5-174.4-194.9-255.3c-34.6-39.8-73.2-75.2-118.6-102.5
			c-54.3-32.7-113.6-56.6-172.4-79.8c-64.4-25.4-129.6-48.9-192.8-77.4c-51.8-23.3-105-49.7-146.6-89.2
			c-83.5-79.4-122.2-195.3-176.5-294.1c-51.6-93.8-119.5-166.7-223-201.1c-46.2-15.3-94.5-23.6-140.2-40.6
			c-57.9-21.4-109.6-56.7-148.6-104.7c-101.3-124.8-131.6-299.6-255.1-407.4l0,0c-129.6-100.4-306.6-96.1-448.5-171.4
			c-54.7-29-99.3-73-131.5-125.7c-25.4-41.6-42.8-87.4-66.8-129.8c-53.7-94.9-138.3-147.5-240.3-180.1
			c-107.5-34.3-228.7-49.9-322.6-116.5c-46.8-33.2-83-80.3-115.8-126.6c-40-56.5-75.7-116-113-174.3c-34-53.2-69-106.8-111.5-153.8
			c-35.5-39.2-77.7-70.3-123.4-96.6c-92.9-53.4-195.9-87-288.1-142c-110.9-66.1-181.3-169.8-252.4-274.6
			c-71.3-105.2-143.8-220.8-263.8-275c-107.3-48.5-226.9-55.8-322-131.3l-14.2,17.3c96.7,77,220.3,86.4,329.8,136.2
			c119.7,54.5,191.1,168.2,261.3,273.9c69.6,104.8,139,208,249.6,273.2c92.5,54.6,196.2,86.8,289.6,139.9
			c104,59.1,170.1,149,232.9,248.6c36.2,57.4,70.7,116,109.7,171.6c32.5,46.3,68.5,93.2,115.2,126c93.8,66.2,213.7,83.3,320.7,118.3
			c101.7,33.3,186.4,85.7,239.9,180.8c24.1,42.8,41.6,89,67.1,131.1c32.2,52.9,76.7,96.7,131.5,125.9
			c142.2,75.7,319.4,73.8,449.5,174.1c125.4,109.9,157.3,287.5,262.6,413c39.5,47.1,90.7,81.2,148.4,101.9
			c44.7,16.1,91.7,24.3,136.8,38.9c105.4,34.3,173.6,108.2,226.6,203.1c54.6,97.8,94.3,212.1,177.4,290.6
			c87.7,82.9,218.2,117.9,328.3,160.2c111.6,42.9,215.1,90.2,294.5,182.3c71.1,82.4,123.1,179.5,196,260.5
			c84,93.3,196.1,141,310,188.1c119,49.2,246.4,97.5,323.8,206.3c69.6,97.7,102.7,216.7,196.6,296.5l14.2-17.3
			c-92.4-78.7-122.6-194.6-190.8-290.7C5259.5,5593.6,5132.1,5544.7,5015.2,5495z"/>
		
			<linearGradient id="SVGID_00000180342397772761590250000004005872875299998635_" gradientUnits="userSpaceOnUse" x1="2262.0574" y1="104.1475" x2="2262.0574" y2="333.2267" gradientTransform="matrix(0.7722 0.6353 0.6353 -0.7722 1005.2216 2425.8013)">
			<stop  offset="0" style="stop-color:#FFAB1C"/>
			<stop  offset="0.17" style="stop-color:#F0A11A"/>
			<stop  offset="0.48" style="stop-color:#CA8816"/>
			<stop  offset="0.92" style="stop-color:#8D5E0F"/>
			<stop  offset="1" style="stop-color:#80560E"/>
		</linearGradient>
		<path style="fill:url(#SVGID_00000180342397772761590250000004005872875299998635_);" d="M5047.3,5448.7
			c-113.4-45.3-224.2-92.4-307.3-185.2c-73.2-81.7-124.5-180.2-195.9-263.4c-79.1-92.2-183.8-139.5-294.9-183
			c-61.3-24-123.2-46.4-183.2-73.4c-51.3-23.1-104.3-49.1-145.5-88.2c-83.7-79.4-125.8-194.8-181.9-293.1
			c-27.6-48.3-58.6-96.8-100.9-133.8c-36.7-32.1-81-54.6-126.8-70.4c-45.8-15.8-93.1-25.6-138.4-42.7
			c-57.6-21.7-109-55.3-148.7-102.7c-104.3-124.3-137.4-298.3-261-407.9l0,0c-129.4-98.6-303.2-98.3-444.1-173.3
			c-55.2-29.4-99.2-73.3-132.3-126c-26.6-42.4-45.9-88.8-71.2-131.9c-23.9-40.6-53.5-78.2-90.6-107.5
			c-44.1-34.9-97.8-56.3-150.6-74.1c-107.9-36.5-229.2-55.6-324.1-122.2c-46.6-32.7-82.5-79.9-115.1-125.8
			c-39.5-55.8-74.6-114.4-111.4-172c-63.2-99-129.5-190-233.6-248.7c-94.2-53.1-199-84.4-292.3-139.2
			c-109.8-64.5-178.3-166.4-246-271.1c-68.7-106.1-139-217.4-258.1-271.8c-108.8-49.8-230.9-59.6-327.3-135.9l-14.2,17.3
			c95.1,75.2,214.2,82.8,321.5,131.3c120,54.3,192.3,169.1,263.2,274.6c70.5,104.8,140.7,208.2,251.4,274.1
			c92.4,55,195.8,88.2,289,141.7c104.4,59.9,170.8,150.7,234.8,250.4c37.5,58.3,73.4,117.8,113.5,174.4
			c32.8,46.2,68.9,93.5,115.5,126.5c94.3,66.6,215.9,83,323.6,117.8c53,17.1,106.5,38.1,150.5,73c36.9,29.3,66.4,66.3,89.7,107
			c24.4,42.5,42.5,88.3,68.2,130.1c32.5,52.7,76.7,96.6,131.6,125.7c141.6,75,317.4,71.7,447.1,171.3
			c122.8,108.1,153.8,281.5,254.7,406.1c39.1,48.3,90.6,83.1,148.6,104.9c45.9,17.2,94.4,26.2,140.8,41.9
			c44.4,15,86.5,36.9,122.3,67.4c42.7,36.4,73.7,84.9,100.6,133.6c54.8,99,94.4,215.1,177.9,294.8c41.4,39.5,94.7,65.8,146.4,89
			c63.3,28.5,128.5,52.3,193,77.8c110.1,43.6,212,91.3,290.9,182.2c70.4,81.2,123,176.2,194.7,256.3
			c86,95.9,200.9,144.9,317.4,193.8c117.2,49.3,243.7,98,320.1,205.3c68.2,95.9,98.7,211.3,190.8,290.1l14.2-17.3
			c-93.1-79.7-126.4-197-195.7-294C5291.1,5544,5166.3,5496.3,5047.3,5448.7z"/>
		
			<linearGradient id="SVGID_00000030463901250515837060000016621480694770243507_" gradientUnits="userSpaceOnUse" x1="2262.1067" y1="174.5926" x2="2262.1067" y2="374.7793" gradientTransform="matrix(0.7722 0.6353 0.6353 -0.7722 1005.2216 2425.8013)">
			<stop  offset="0" style="stop-color:#FFAB1C"/>
			<stop  offset="0.17" style="stop-color:#F0A11A"/>
			<stop  offset="0.48" style="stop-color:#CA8816"/>
			<stop  offset="0.92" style="stop-color:#8D5E0F"/>
			<stop  offset="1" style="stop-color:#80560E"/>
		</linearGradient>
		<path style="fill:url(#SVGID_00000030463901250515837060000016621480694770243507_);" d="M5247.4,5466.9
			c-54.2-29.3-113.6-47-172.2-65.1c-109.7-33.7-211.4-73-286.9-163.5c-72.2-86.5-118.1-191.3-188.1-279.4
			c-73.6-92.5-175.5-138.2-283.7-179.1c-106-40.1-228.2-73.5-313.3-152.4c-86.9-80.4-138.5-193.5-202.1-291.5
			c-31-47.8-64.8-95.7-108.2-133.2c-38.5-33.3-84.3-57.1-131.5-75.5c-109-42.4-220.2-67.3-300.9-159.2
			c-106.8-121.8-151.3-289.8-274.9-398.2l0,0l0,0l0,0c-126-97.3-293.5-106.4-430.2-183c-109.1-61.2-155.3-168.2-219.5-268.7
			c-26.5-41.5-57.7-80.3-96.4-111.1c-44.9-35.8-98.5-60-151.4-81.3c-108.9-43.9-229.9-72.9-326.4-142.5
			c-96-69.2-153-186.1-214.2-284.2c-60.3-96.8-124.6-185.4-228-238.8c-98.7-51-208.7-75.8-306.5-128.6
			c-106.3-57.4-164.9-151.4-220.4-254.9c-28.1-52.4-56.3-105.5-94.1-151.7c-38.4-47-86.3-82.1-140.8-108.2
			c-116.9-56.1-250.4-74.9-354.2-157l-14.2,17.3c100.5,79.4,229.1,94.5,342.4,147.7c116.7,54.9,182,157.5,245.1,265.1
			c60.9,104,123.9,201.7,231.7,262.1c95.8,53.8,203.7,81.2,300.4,133.2c103.7,55.7,168.9,145.7,230.4,243.3
			c62.6,99.3,121.5,220.5,219.6,290.1c95.9,68.1,216.9,93,325.4,133.7c52.8,19.8,106.5,42.7,151,78c37.9,30,68.4,68.4,93.7,109.4
			c27.5,44.6,49.4,92.4,78.1,136.2c34.6,52.8,78.8,97.3,134.4,127.8c138.6,75.8,308.7,81.2,436.3,178.8
			c123.3,109.1,163.2,279.5,268.8,402.5c78.6,91.5,187.2,113.2,294.8,153.2c46.5,17.3,91.7,40.4,129.3,73.2
			c42.8,37.3,75.3,85.5,104.9,133.5c60.4,98.1,108.1,212.1,193.4,292.3c85.9,80.7,212.5,115.1,320,156.5
			c109.3,42,212.8,88.4,288.7,180.8c70.7,86,118.8,188.1,191.5,272.5c78.7,91.5,184.8,134.1,296,173
			c119.4,41.7,234.6,86,311.8,191.6c73.6,100.7,113.3,223.5,210.2,306.6l14.2-17.3c-100.3-85.8-144.4-212.6-221.5-316.3
			C5343.9,5536.1,5300.6,5495.7,5247.4,5466.9z"/>
		
			<linearGradient id="SVGID_00000116941375699923368140000014128409976328948639_" gradientUnits="userSpaceOnUse" x1="2262.0625" y1="251.9646" x2="2262.0625" y2="413.743" gradientTransform="matrix(0.7722 0.6353 0.6353 -0.7722 1005.2216 2425.8013)">
			<stop  offset="0" style="stop-color:#FFAB1C"/>
			<stop  offset="0.17" style="stop-color:#F0A11A"/>
			<stop  offset="0.48" style="stop-color:#CA8816"/>
			<stop  offset="0.92" style="stop-color:#8D5E0F"/>
			<stop  offset="1" style="stop-color:#80560E"/>
		</linearGradient>
		<path style="fill:url(#SVGID_00000116941375699923368140000014128409976328948639_);" d="M5250.4,5393.4
			c-47.2-22.3-99.1-30.5-150.2-38.9c-47.7-7.8-95.8-16-140.2-35.9c-48.9-21.9-87.6-57.4-119.8-99.8
			c-70.7-92.9-110.4-204.9-178.5-299.4c-66.9-92.9-163.5-136.6-268.4-174.5c-101.5-36.6-211.2-67.4-293.6-140.4
			c-92-81.4-154.9-192-227.7-289.5c-35.4-47.3-72.8-94.3-118.3-132.4c-41.5-34.8-88.7-61-138.2-82.6
			c-113.5-49.6-231.4-83.3-318.8-176.7c-110.7-118.3-167.9-279.7-292.9-385.5l0,0l0,0l0,0l0,0c-121.5-97.1-282.3-116.6-413.5-196.2
			c-111.5-67.6-167.5-180.7-239.7-283.9c-30.2-43.1-64.3-83.1-105.4-116.1c-46.6-37.4-100.2-65.4-153.9-91.1
			c-108.8-52.1-227.8-92.5-324.9-165.8c-88.5-66.8-140.2-169.3-196-262.4c-57.8-96.4-119.9-183-225-230.6s-221.3-65.3-325.1-116
			c-48.2-23.5-90.8-54.7-122-98.8c-28.3-39.9-45.6-86.1-62.5-131.6c-17.5-47.2-35.2-95-64.8-136.3c-36.8-51.3-90.5-85.6-146.3-113.2
			c-126.6-62.7-271.2-92.6-383.7-181.5l-14.2,17.2c108.6,85.9,248.2,111.8,370.6,171.2c56.2,27.2,108.3,62.3,146.4,112.7
			c32.6,43.2,54.4,93.2,76.1,142.5c20.9,47.6,42.1,95.7,73.4,137.6c32.7,43.7,75.3,76.3,123.7,101
			c101.5,51.8,215.5,72.3,318.2,121.1c105.5,50,168.7,138.7,227.9,236c57.5,94.5,111,201.7,202,269
			c96.4,71.3,215.4,107.5,323.8,156.1c53.6,24,107.2,50.5,153.5,87.2c40.4,32,73.6,71.7,102.4,114.2
			c69.2,102.1,121.4,213.3,231.9,278.5c133.3,78.7,297,94.2,420.4,191.5c124.5,106.8,176.8,270.8,286,390.4
			c84.7,92.8,200.2,123.1,311.9,170c48.6,20.4,95.3,45.7,135.6,79.9c44.7,37.9,80.7,85.2,114.4,132.7
			c69.3,97.7,128,209.2,217.9,290.3c83.5,75.2,197.9,107,301.2,145c106.1,39,204.9,83.5,274.3,176.3
			c68.8,92.1,110.9,201.4,182.2,291.8c33.4,42.4,73.4,77.6,122.2,101c46.8,22.4,97.7,34,148.1,45.3c54,12.1,108.7,24.1,158.6,48.9
			c54.2,27,96.8,69.5,133.3,117.2c83.5,109.2,135.6,243,241.9,333.9l14.2-17.3c-110.1-94.2-167.1-232.1-254.6-344.8
			C5347.4,5463.2,5305.2,5419.3,5250.4,5393.4z"/>
		
			<linearGradient id="SVGID_00000032629985388288862100000008886991447688014214_" gradientUnits="userSpaceOnUse" x1="2262.0679" y1="297.8182" x2="2262.0679" y2="480.8928" gradientTransform="matrix(0.7722 0.6353 0.6353 -0.7722 1005.2216 2425.8013)">
			<stop  offset="0" style="stop-color:#FFAB1C"/>
			<stop  offset="0.17" style="stop-color:#F0A11A"/>
			<stop  offset="0.48" style="stop-color:#CA8816"/>
			<stop  offset="0.92" style="stop-color:#8D5E0F"/>
			<stop  offset="1" style="stop-color:#80560E"/>
		</linearGradient>
		<path style="fill:url(#SVGID_00000032629985388288862100000008886991447688014214_);" d="M5259,5323.8
			c-41.6-16.9-86.2-16.8-130.4-16.2c-41,0.5-82.5,0.6-121.6-13.4c-50.6-18.1-88.1-56.7-118.2-100
			c-68.6-98.6-102.7-216.4-169.2-316.2c-60.2-90.5-149.9-133-249.8-167.5c-98.6-34-199.9-62.1-280.7-131.2
			c-96.2-82.2-168.9-189.7-249.3-286.4c-77.2-92.7-159.7-168.5-269.2-220.8c-118.9-56.8-243.7-98.1-338.3-194.5
			c-113.3-115.5-181.9-269.5-307.6-373.5l0,0l0-0.1l0-0.1l0,0c-117.7-96.2-271.4-125.8-397.9-207.1
			c-114-73.3-178.7-190.2-257.7-296.1c-72-96.6-162-162.4-266.9-219.9c-109.7-60.1-228.4-110.5-327.4-188.1
			c-83.2-65.2-130.6-157.8-182.5-247.6c-54.5-94.3-114.6-176.5-218.5-218.6c-110.3-44.8-231.6-55.8-340.7-104.3
			c-47.2-21-91.1-49.6-118.6-94.4c-22-35.8-30.1-77.1-37.5-117.8c-7.7-42.2-15.9-85-38.9-122c-33.2-53.2-91.9-86.4-146.3-114.4
			c-136.1-70-292-108.7-413.5-204.7l-14.2,17.3c118.5,93.6,270.6,129.3,403.4,196.9c54.9,27.9,111.7,61.3,146.2,113.9
			c25.2,38.4,36.7,82.9,47.8,126.9c10.7,42.4,22,85.4,46.1,122.5c28.8,44.6,72,73.9,119.6,95.7c107.2,49.2,226.8,62.6,335.3,108.3
			c104.4,44,165.1,127.5,220.8,222.5c53.2,90.9,102,186.8,187,252.6c98.3,76.2,217.1,123.2,326.6,180.5
			c105,55,194.1,119.4,264.5,215.7c76.7,104.9,138.4,220.5,251.5,292c128,80.8,284.3,106.8,403.2,203.5
			c125.5,104.4,190,261,302.3,377.3c92.5,95.8,215.5,134.6,333,189.2c109.1,50.7,189.9,126,264.7,219.2
			c77.7,96.9,147,205.3,241.8,287c82,70.7,186.6,99.6,286.7,134.8c100.8,35.4,191.9,78.2,253.9,168.9
			c66.9,97.9,103.1,213.5,172.1,310.1c31.1,43.5,69.2,81.2,119.8,100.8c40.9,15.8,84.6,18.5,127.9,20.9c46.5,2.6,93.6,5.5,137,24.1
			c55.4,23.8,97.4,71,134.1,117.5c92.9,117.8,157.3,261.4,272.8,360.2l14.2-17.3c-118.4-101.4-186.6-248.1-282.6-368.6
			C5356.9,5395.4,5314.8,5346.4,5259,5323.8z"/>
		
			<linearGradient id="SVGID_00000089562494938549519270000014621207655976454549_" gradientUnits="userSpaceOnUse" x1="2262.1023" y1="348.1198" x2="2262.1023" y2="545.0418" gradientTransform="matrix(0.7722 0.6353 0.6353 -0.7722 1005.2216 2425.8013)">
			<stop  offset="0" style="stop-color:#FFAB1C"/>
			<stop  offset="0.17" style="stop-color:#F0A11A"/>
			<stop  offset="0.48" style="stop-color:#CA8816"/>
			<stop  offset="0.92" style="stop-color:#8D5E0F"/>
			<stop  offset="1" style="stop-color:#80560E"/>
		</linearGradient>
		<path style="fill:url(#SVGID_00000089562494938549519270000014621207655976454549_);" d="M5282.3,5266.2
			c-39.4-15.1-80.1-10.6-120.8-4.8c-37.7,5.3-75.5,9.7-112.4-2.4c-50.4-16.6-89.2-57.2-118.2-100.1
			c-68.5-101.1-98.7-222.7-164.8-325.2c-118.4-183.4-363.7-157.4-518.2-291.8c-97-84.4-175.3-189.3-259.9-285.5
			c-41.8-47.4-84.6-95-133.4-135.3c-42.5-35.2-90.6-62.5-140-87c-120.5-59.6-248.2-104.4-344.9-202
			c-113.9-115-190.2-263.4-314.5-368.7l0,0l0-0.1l0-0.1l0,0c-117.7-94.1-267.1-131-392.1-212.7c-113.9-74.5-182.4-191.9-263.2-297.8
			c-33.8-44.3-70.4-86.9-113.8-122.2c-48.1-39.2-101.7-71.4-155.1-102.6c-110.5-64.6-228.1-121.2-330-199.4
			c-82.1-62.9-127.6-153.1-177.4-241.3c-52.7-93.4-113.4-175.3-216.6-215.1c-113.3-43.7-238.1-49.9-349.8-98.7
			c-46.4-20.3-92.2-50.2-117.4-95.4c-19.2-34.4-22-72.9-24.1-111.4c-2.1-40.3-5.8-80.2-27.6-115.3c-32.1-51.7-91.8-84.1-144.1-111.5
			C603.3,1466,441.3,1423,315.5,1323.6l-14.2,17.3c124.8,98.6,285.1,140.8,424.6,213.5c53.7,28,114.8,61.1,146.7,114.9
			c21,35.5,25.2,76,28.6,116.3c3.3,38.8,7.6,78,27.5,112.3c26.2,45,71.4,73.7,118.2,93.8c111,47.9,234.5,55.7,346.9,99.6
			c103.1,40.3,163.1,121.6,216,214.9c50.1,88.3,95.9,178.2,177.5,242c100.5,78.5,218.4,133.3,328.4,196.6
			c53.7,30.9,107.1,63.1,155.2,102.2c43.3,35.3,80.1,77,113.9,121.3c81.5,106.8,149.5,225.3,264.6,300.4
			c125,81.5,275.2,116.3,392.2,211.2c125.2,104.5,199.3,254.7,313.4,369.6c96.6,97.2,223.5,141.4,343.8,200.6
			c49.5,24.3,97.3,51.9,140,87c49,40.3,91.8,87.6,133.3,135.3c83.7,96.3,160.6,202.2,257.9,285.7c155.9,133.8,401.2,109.6,520,293.1
			c66,102,97.4,222.7,165.8,323.3c29.2,43,67,83,117.5,99.6c37.3,12.3,76,8.9,114.3,4.7c41.4-4.5,83-8,122.8,7.2
			c56.1,21.5,98.6,72.5,135.2,118c99.3,123.4,171.7,273.8,293.3,377.9l14.2-17.3c-122.3-104.5-195.7-256-295.7-380
			C5381.1,5339.2,5338.4,5287.7,5282.3,5266.2z"/>
		
			<linearGradient id="SVGID_00000010992762123848308170000001134497614953803962_" gradientUnits="userSpaceOnUse" x1="2262.0857" y1="408.4897" x2="2262.0857" y2="597.9114" gradientTransform="matrix(0.7722 0.6353 0.6353 -0.7722 1005.2216 2425.8013)">
			<stop  offset="0" style="stop-color:#FFAB1C"/>
			<stop  offset="0.17" style="stop-color:#F0A11A"/>
			<stop  offset="0.48" style="stop-color:#CA8816"/>
			<stop  offset="0.92" style="stop-color:#8D5E0F"/>
			<stop  offset="1" style="stop-color:#80560E"/>
		</linearGradient>
		<path style="fill:url(#SVGID_00000010992762123848308170000001134497614953803962_);" d="M5342.1,5232.1
			c-42.9-17.3-89.4-16.9-134.8-16.2c-42.4,0.5-85.4,0.9-125.9-13.4c-50.7-17.9-88.3-56.8-118.4-100.1
			c-68.6-98.3-103.1-215.8-169.6-315.4c-59.3-88.8-147.6-132.1-245.7-166.8c-95.6-33.8-194.2-62.3-272.5-129.9
			c-97.3-84-173.6-191-256.9-288c-41.2-48-83.7-95.6-132.6-136c-42.2-34.8-89.5-61.8-138.8-85.2c-119.5-56.7-245.1-97.5-339.9-194.4
			c-113.2-115.7-180.3-270.7-306.2-374.8l0,0l0-0.1l0-0.1l0,0c-117.9-96.5-272.4-124.7-399.2-205.9
			c-114.6-73.4-179-191.2-257.8-297.7c-32.8-44.3-69-85.7-112-120.5c-48.2-39-101.9-70.9-155.7-101.4
			c-110.7-62.8-229.5-116.9-330.5-195.2c-81.3-63-128.5-153-179.7-240c-54.3-92.4-114.9-172.9-217-214.6
			c-110.1-44.9-231.2-56.3-339.9-104.8c-47.1-21-91.4-49.7-118.7-94.5c-22.5-37-30.7-80-38.3-122.1c-7.9-43.6-16.1-88.1-39.8-126.3
			c-32.9-53.2-91.8-86.7-146.3-113.9c-135.8-67.6-292.8-100.5-412.8-196.8l-14.2,17.3c122.7,98.3,282.4,136.2,420.5,207
			c53.8,27.6,114.4,61.1,146.5,114.5c22,36.5,27.5,78.8,32.6,120.4c4.9,40.1,10.5,80.9,31.4,116.3c26.5,44.9,71.4,73.2,118.1,93.6
			c110.2,48.1,232.8,57.3,344.4,101.5c102.7,40.7,162.8,121.6,216.3,214.5c50.3,87.3,96.6,177.3,177.9,240.4
			c101,78.4,219.1,133.5,329.6,197c53.6,30.9,107.2,63,155.4,102c43.3,35,79.9,76.7,113.3,121c80.6,106.8,147.3,225.1,262.3,299.8
			c125.5,81.6,277.6,113.5,394.7,209.3c125.8,104,196.9,256.4,310.9,371.5c96.2,97.1,222.6,140.1,342.8,198.4
			c49.5,24,97.1,51.4,139.7,86.5c48.9,40.4,91.6,87.8,133.1,135.5c84,96.6,161.2,202.7,258.5,286.7c78.3,67.6,176.8,95.1,272.6,128
			c98.4,33.8,187,76.6,245.5,166.2c66.2,101.2,98.7,220.6,167.2,320.4c29.4,42.9,66.9,82.7,117.3,99.7c38.6,13,79,10.6,119,7.8
			c43-3.1,86.6-5.6,127.6,10.3c55.8,21.7,98.5,72.1,134.8,117.8c97.1,122.4,165.1,273.1,286.1,375.2l14.2-17.3
			c-118.4-99.9-181-248.9-274.6-369.5C5440.2,5303.5,5397.7,5254.5,5342.1,5232.1z"/>
		
			<linearGradient id="SVGID_00000119825130927027239540000010941926453876505268_" gradientUnits="userSpaceOnUse" x1="2262.0693" y1="477.6233" x2="2262.0693" y2="668.2001" gradientTransform="matrix(0.7722 0.6353 0.6353 -0.7722 1005.2216 2425.8013)">
			<stop  offset="0" style="stop-color:#FFAB1C"/>
			<stop  offset="0.17" style="stop-color:#F0A11A"/>
			<stop  offset="0.48" style="stop-color:#CA8816"/>
			<stop  offset="0.92" style="stop-color:#8D5E0F"/>
			<stop  offset="1" style="stop-color:#80560E"/>
		</linearGradient>
		<path style="fill:url(#SVGID_00000119825130927027239540000010941926453876505268_);" d="M5423,5207.1
			c-51-22.6-107-29.7-161.7-37.2c-51.1-7.1-103.1-14.2-151-34.4c-49.9-21.1-88.9-56.9-121.5-99.6c-70.7-92.5-110.8-204.1-179-298.3
			c-63.4-87.6-153.6-133.4-252.3-171.4c-93.9-36.2-191.2-68.2-268.1-135.8c-96.9-85.1-170.4-195.3-251.9-294.3
			c-39-47.3-79.3-94.6-126.4-134c-42-35.2-90-61.3-140.1-82.8c-115.3-49.5-236.6-82.4-324.8-177.6c-110.3-119-164.8-282.3-290-388.6
			l0,0l0,0l0,0l0,0c-122.1-97.3-284.4-114.1-416.4-193.2c-113.5-68-169.3-184.7-241.8-289.7c-30.2-43.7-64.4-84.5-106-117.9
			c-48.3-38.8-102.8-69.5-157.1-98.8c-111.9-60.3-232.6-111.1-334.2-188.5c-82-62.5-132.5-152.5-186.5-238.3
			c-56.8-90.3-119.6-170.2-218.9-215.4c-104.7-47.7-220.6-65.9-324.1-116.8c-48.5-23.9-91.5-55.3-122.1-100.5
			c-29.3-43.3-46.3-93.5-63.1-142.7c-17.5-50.9-34.8-102.9-65.4-147.6c-35.7-52.3-89.3-86.5-146.4-111.6
			c-126.6-55.8-272.7-71.7-383.8-159.4l-14.2,17.3c114.7,91.3,265.5,114.2,395.8,175c56.1,26.1,111.6,59.9,146.3,112.6
			c27.7,42,41.3,91,54.9,138.9c13.1,46.2,26.5,93.4,52.9,134.1c29.3,45.1,72.6,75.2,120.6,97.8c105.6,49.9,223.6,65.3,330.6,111.8
			c100.5,43.7,162.3,123.8,218.1,215c52.8,86.2,102,176.2,183.7,239c101.3,77.9,221.3,130,332.7,191.3
			c54.1,29.8,108.3,61,156.5,99.9c42.2,34,77.2,75,108.5,119c75.1,105.6,134.5,222.8,248.4,293.1
			c129.8,80.1,289.1,101.4,409.3,198.5c125.5,105,185.1,264.7,296.2,382.3c91.5,96.7,215.5,132.9,333.3,185.9
			c48.8,21.9,95.3,48,136.7,82c48.8,40.3,90.7,88.7,131.2,137.1c82,98,156.6,206.6,253.5,290.9c78.1,68,177,98.5,272.3,134
			c97.3,36.3,185.3,80.9,246.4,167.8c67.5,96.1,105.3,209.9,174.7,304.8c32,43.8,71,81.4,122.2,101.4
			c44.8,17.4,93.1,21.4,140.5,25.3c50.8,4.2,102.8,8.3,150.2,28.8c55.4,23.9,97.5,70,132.6,117.8c85.8,116.6,137.2,261.5,249.7,357
			l14.2-17.3c-108.6-93-151.8-235.2-232.7-349.2C5520.6,5275.7,5478.6,5231.8,5423,5207.1z"/>
		
			<linearGradient id="SVGID_00000088109050074313909530000010100135845976408734_" gradientUnits="userSpaceOnUse" x1="2262.125" y1="550.03" x2="2262.125" y2="739.073" gradientTransform="matrix(0.7722 0.6353 0.6353 -0.7722 1005.2216 2425.8013)">
			<stop  offset="0" style="stop-color:#FFAB1C"/>
			<stop  offset="0.17" style="stop-color:#F0A11A"/>
			<stop  offset="0.48" style="stop-color:#CA8816"/>
			<stop  offset="0.92" style="stop-color:#8D5E0F"/>
			<stop  offset="1" style="stop-color:#80560E"/>
		</linearGradient>
		<path style="fill:url(#SVGID_00000088109050074313909530000010100135845976408734_);" d="M5319.5,5123.8
			c-60.4-15.1-121.9-30-178.5-56.8c-51-24.1-93.4-59.2-129.5-102.3c-72.3-86.2-118.5-190.6-188.6-278.4
			c-66.8-83.6-156.8-132.3-253.8-173.3c-93.4-39.5-191-75-267.7-143.7c-96-86.1-166.2-199.1-245.3-299.8
			c-37.7-48-77-96.6-123.8-136.2c-40-33.9-86.9-57.8-135.6-76.3c-112.1-42.6-229.9-66.4-312-161.6
			c-106.2-123.1-146.8-293.8-270.6-402.9l0,0l0,0l0,0c-127-97.5-296.5-102.6-434.5-178.3c-112.6-61.8-159.1-175.7-224.1-279.3
			c-26.9-42.9-58.4-82.9-97.8-114.9c-47.6-38.6-102.8-67.9-157.2-95.7c-114.6-58.5-239.3-106-343-183.5
			c-84.2-63-138.4-154.4-196.5-240c-58.3-86.1-123.2-163.1-216.9-211.7c-98.4-51.1-208.1-76.3-305.5-129.3
			c-51.2-27.9-95.8-64-130.1-111.5c-36.9-51-63.3-108.7-90-165.4c-53.8-114.5-109.8-228.6-235-276.3
			c-117.8-44.8-252.4-39.3-355.9-119.1l-14.2,17.3c106.7,83,246.7,85.2,368.1,134.9c56.4,23.1,104.7,57.1,140.9,106.7
			c35.9,49.2,59.6,106,83.4,161.7c23,53.9,45.9,108.7,79.7,156.9c33.2,47.2,77.6,82.1,128.5,108.7c99.6,52,211.5,74.5,312.1,124.4
			c94.9,47.1,158.8,124.4,216.2,211.3c56.9,86.1,109.7,177.5,193.5,240.8c103.4,78,227.3,126.8,341.4,186.4
			c54.2,28.3,109,58.1,156.6,96.8c40.1,32.6,72.4,72.9,100.5,116c67.6,104,117.7,218.8,230.6,282.7
			c135.7,76.7,302.3,86.3,427.4,183.6c124.3,108.1,170.2,276,277.8,397.6c84.3,95.1,203.5,122.4,316.7,167.5
			c49.3,19.7,96.6,44.3,137.3,78.7c46.9,39.5,86.5,87.7,124.7,135.4c80,100.1,151.5,212.1,247.8,297.8
			c76.7,68.3,174.2,102.5,267.8,140.8c97.6,39.9,187.7,87.5,253.2,172.6c69.4,90.1,113.3,197.3,185,285.8
			c34.8,43,76,78.2,126.6,101.3c53.3,24.3,111.3,36.3,168.3,48.5c61,13,123.4,25.4,180.1,52.3c55.2,26.1,97.6,67.2,130.9,118
			c71.6,109.4,100.9,245.7,202.6,334.2l14.2-17.3c-98-86-118.6-218.5-184.8-325.3C5568.9,5187.6,5443.9,5155,5319.5,5123.8z"/>
		
			<linearGradient id="SVGID_00000183232885668000564920000002970927679333947542_" gradientUnits="userSpaceOnUse" x1="2262.0947" y1="620.6152" x2="2262.0947" y2="811.2815" gradientTransform="matrix(0.7722 0.6353 0.6353 -0.7722 1005.2216 2425.8013)">
			<stop  offset="0" style="stop-color:#FFAB1C"/>
			<stop  offset="0.17" style="stop-color:#F0A11A"/>
			<stop  offset="0.48" style="stop-color:#CA8816"/>
			<stop  offset="0.92" style="stop-color:#8D5E0F"/>
			<stop  offset="1" style="stop-color:#80560E"/>
		</linearGradient>
		<path style="fill:url(#SVGID_00000183232885668000564920000002970927679333947542_);" d="M5372.4,5077.9
			c-124.1-39.4-244.8-78.8-334.1-178.2c-73.2-81.5-124.8-179.7-196.2-262.7c-69.5-80.9-158.6-131.6-254.6-175.1
			c-92.9-42-190.8-80.3-267.4-149.7c-95.5-86.5-163.1-202-240.2-304.1c-36.8-48.7-75.2-98.1-121.9-137.8
			c-38.8-32.9-84.5-55.5-132.5-71.7c-110.1-37.2-224.2-53.9-302.6-149.2c-103.6-125.8-132-303.1-256-413.7l0,0
			c-130.4-99-306.7-93.6-449.1-167.6c-112.3-58.4-151-169.6-210.3-272.6c-24.5-42.6-54.6-81.8-92.9-112.7
			c-47.6-38.5-103.5-66.9-158.3-93.6c-115.6-56.4-242.1-100.6-346.2-177.7c-84.8-62.8-141.9-154-202.4-238.6
			s-127.1-160.5-218.7-212.2c-94-53.2-198.6-84.8-291.8-139.7c-51.6-30.4-96.4-68.2-132.7-116c-43.4-57-77.3-120.7-111.6-183.4
			c-61.2-111.6-126.2-251.6-257-292.9c-111.3-35.1-232.9-11.9-330.9-86.8l-14.2,17.3c99.5,76,225.6,58.7,338.8,96.9
			c129.2,43.7,190.9,174.8,250.1,287.6c31.9,60.7,63.3,122.6,104.7,177.6c35.8,47.7,80.6,85.3,132.1,114.9
			c94.5,54.3,200.8,83.7,296.2,136.3c92.1,50.8,158.3,127.2,218,212.2s115.8,176.2,200.5,239c189.7,140.7,469.7,171.7,597.5,387.1
			c61.1,103.1,102.3,215.3,214.7,274.6c141,74.5,314.9,72.8,444.5,171c123.7,110.3,156.3,285.2,260.6,410.2
			c79.4,95.2,194.8,114.2,305.5,153.1c238,83.6,321.5,353.7,497.7,513.1c76.6,69.3,174.4,106.6,267.5,147.8
			c96.3,42.6,185.8,92.7,254.4,174.4c71,84.5,120.7,184.8,193.8,267.8c86.6,98.4,204,135.9,326.1,172.2
			c123.7,36.8,266.9,71.9,335.3,192.2c58.8,103.5,66.3,230,159.9,312.8l14.2-17.3c-92.1-81.5-93-204.8-148.4-307
			C5648.1,5153.6,5495.3,5116.9,5372.4,5077.9z"/>
		
			<linearGradient id="SVGID_00000132063032997974038010000012371438375948054402_" gradientUnits="userSpaceOnUse" x1="2262.0417" y1="684.4204" x2="2262.0417" y2="872.9091" gradientTransform="matrix(0.7722 0.6353 0.6353 -0.7722 1005.2216 2425.8013)">
			<stop  offset="0" style="stop-color:#FFAB1C"/>
			<stop  offset="0.17" style="stop-color:#F0A11A"/>
			<stop  offset="0.48" style="stop-color:#CA8816"/>
			<stop  offset="0.92" style="stop-color:#8D5E0F"/>
			<stop  offset="1" style="stop-color:#80560E"/>
		</linearGradient>
		<path style="fill:url(#SVGID_00000132063032997974038010000012371438375948054402_);" d="M5411,5031.1
			c-69.3-23-139.7-45.4-205.1-78.3c-51.7-26-94.7-60.9-133.5-103.7c-73.3-80.9-127.1-177.1-198.8-259.4
			c-70.2-80.6-158.2-131.5-254.4-175.5c-93-42.5-190.5-81.4-267.6-150.5c-175.3-157.3-250.8-433.8-490.4-512.5
			c-110-36.2-223-51.7-301.2-147c-103.5-126.1-128.9-305.1-253.6-415.5l0,0c-130.7-99.9-308.5-91.8-451.5-165.8
			c-56.9-29.5-100.9-75.3-133.9-129.7c-27.7-45.6-47.6-95.4-73.9-141.9c-123.4-217.9-408.1-239.8-595.6-380.1
			c-84.7-63.4-142.3-153.9-203.3-238.6c-61-84.6-127.7-159.5-219.1-212c-93.3-53.6-196.5-87.7-289-142.8
			c-51.5-30.6-95.9-67.7-132.4-115.4c-44.8-58.5-80.5-123.7-116.7-187.7c-62.6-110.7-129.7-256.5-261.3-296.6
			c-110.7-33.7-230.2-6.2-327.6-81.4l-14.2,17.3c49.1,38.1,104.6,53.3,165.7,58.6c52.7,4.6,106.4,4.2,157.6,19.3
			c133.9,39.7,202.5,190.8,266.4,302.6c36.5,63.9,72.6,129,117.8,187.2c35.5,45.7,77.8,80.9,127.2,110.7
			c93.1,56.2,197.2,90.8,291.3,145.1c92.7,53.5,159.5,130.1,221.7,215.8c59.9,82.6,117.2,171.2,199.7,233.3
			c103,77.5,230.3,120.3,345.6,175.5c103.6,49.7,197,105.8,254.1,208.8c24.8,44.8,43.6,92.5,69.7,136.5
			c32.1,54.1,75.4,100.3,131.1,130.4c143.6,77.6,325.4,65,457.2,167.3c2.3-2.8,4.2-5.1,5.8-7.1c-1.7,2.1-3.5,4.3-5.8,7.1
			c125.8,109.6,148.5,290.4,252.3,416.4c40.3,48.9,93.9,82.4,153.2,103.5c48.2,17.1,98.8,26.4,147.4,42.1
			c112.1,36.2,185.1,117,253.8,209.1c76.4,102.5,142.9,219.1,238.8,305.3c76.9,69,174.9,108.2,267.4,151
			c96.1,44.5,184.1,95.3,254.5,176c71.4,81.8,125.5,177.4,198.5,257.9c38.8,42.7,81.5,77.5,133.2,103.5
			c65.9,33.2,136.7,56,206.4,79.5c122,41.2,283.5,79.3,348.2,203.1c24.7,47.3,34.7,100.1,49.3,150.9c17,58.9,42.6,110.5,89.4,151.3
			l14.2-17.3c-92.3-80.8-88.6-202.9-142.5-304.8C5692.3,5109.4,5533.3,5071.7,5411,5031.1z"/>
		
			<linearGradient id="SVGID_00000080906444538897523080000010319471759146100640_" gradientUnits="userSpaceOnUse" x1="2262.0945" y1="740.4147" x2="2262.0945" y2="924.1412" gradientTransform="matrix(0.7722 0.6353 0.6353 -0.7722 1005.2216 2425.8013)">
			<stop  offset="0" style="stop-color:#FFAB1C"/>
			<stop  offset="0.17" style="stop-color:#F0A11A"/>
			<stop  offset="0.48" style="stop-color:#CA8816"/>
			<stop  offset="0.92" style="stop-color:#8D5E0F"/>
			<stop  offset="1" style="stop-color:#80560E"/>
		</linearGradient>
		<path style="fill:url(#SVGID_00000080906444538897523080000010319471759146100640_);" d="M5423.3,4971.5
			c-66-19.7-133.2-38.9-195.3-69.3c-51.6-25.3-94.4-60.4-132.4-103.3c-74.3-84-127.5-184.2-200-269.6
			c-69.2-81.5-156.6-131.1-253.9-172.4c-93.2-39.5-190.2-75.2-266.6-143.9c-90.1-80.9-149.1-191.4-218.8-288.8
			c-34.1-47.7-70.8-95.1-115.8-133.1c-39.7-33.5-86.1-56.9-134.6-74.7c-111.3-40.7-228-62.1-308.7-157.3
			c-105.2-124.1-141.9-296.9-265.5-406.7l0,0l0,0l0,0c-128.4-97.8-300-99.5-439.6-174.6c-112.5-60.5-156.3-173.6-219.3-276.9
			c-26.1-42.8-57.1-82.4-96.1-114.2c-45.8-37.3-99.4-64.3-152.8-88.7c-109.5-49.9-229.6-86.7-327-159.5
			c-84.1-62.9-138.3-153.5-196.4-238.9c-58.6-86.2-124-160.7-216.1-212.1c-96.6-53.9-203.5-86.6-299.2-142.1
			c-51.4-29.8-96.1-66.5-131.7-114.3c-41.6-55.8-73.5-118.4-105.8-179.8c-60.5-115-121.8-244.4-252.3-290.8
			c-117.7-41.8-252.7-29.8-355.7-109.3l-14.2,17.3c99.9,77,228.3,58.1,342.3,96.1c131.1,43.6,194.7,180.2,256.3,293.3
			c34.1,62.6,67.7,126.4,110.8,183.5c36.1,47.8,80.7,84.8,132.2,115c94.2,55.4,199.5,88.6,294.5,142.4
			c91.7,51.9,157.8,126.6,217.4,212c59.5,85.2,115.3,175.6,199.8,238.9c100,74.9,223.2,114.1,335.3,166.4
			c54.4,25.3,109.1,53.1,155.8,91.1c38.6,31.4,69,70.7,94.1,113.4c60.8,103.1,101.6,215.1,214,274.3
			c141.2,74.4,315.5,72.1,445.3,170.4c123.7,110.4,155.7,285.7,259.8,410.9c79.2,95.2,194.4,113.9,305,152.5
			c48.2,16.8,94.2,39.8,133.4,72.9c46,38.8,83.6,87.1,118.9,135.6c72.5,99.6,134.6,212.6,227.1,295.6
			c76.9,69,173.9,106.2,267.2,147.2c96.7,42.5,184.5,92.8,254.2,173.8c72.2,83.9,125.5,182.4,199.5,264.9
			c38.4,42.8,81.5,77.9,133.2,103.6c63.6,31.6,132.3,52.2,199.8,73.5c124.5,39.1,273.6,75.2,342.3,197.4
			c58.7,104.4,65.2,233.4,159.7,316.4l14.2-17.3c-97.5-85.5-112-219.7-175.2-327C5690.9,5044.2,5549.5,5009.2,5423.3,4971.5z"/>
		
			<linearGradient id="SVGID_00000119831805213541268670000001511667052467756938_" gradientUnits="userSpaceOnUse" x1="2262.1401" y1="790.9512" x2="2262.1401" y2="977.2701" gradientTransform="matrix(0.7722 0.6353 0.6353 -0.7722 1005.2216 2425.8013)">
			<stop  offset="0" style="stop-color:#FFAB1C"/>
			<stop  offset="0.17" style="stop-color:#F0A11A"/>
			<stop  offset="0.48" style="stop-color:#CA8816"/>
			<stop  offset="0.92" style="stop-color:#8D5E0F"/>
			<stop  offset="1" style="stop-color:#80560E"/>
		</linearGradient>
		<path style="fill:url(#SVGID_00000119831805213541268670000001511667052467756938_);" d="M5613.6,4963.4
			c-61.1-29.2-128.1-44.3-193.6-60.4c-61.2-15-123.5-29.6-180.9-56.1c-51.5-23.8-92.6-59.2-129.2-102.1
			c-75.6-88.8-128.1-194.5-201.9-284.6c-68.1-83.3-153.9-130.4-253.2-167.8c-92.6-34.8-189.7-65.4-264.6-133
			c-82-73.9-131.3-176.3-191.9-266.7c-30.3-45.2-63.7-89.1-105.4-124.5c-41.1-35-89.1-60.3-138.7-80.8
			c-114.3-47.4-234.6-77.6-320.9-172.8c-109.1-120.2-159.4-285.8-284.2-392.9l0,0l0,0l0,0l0,0c-123.7-97.5-288.4-110.7-422.2-189
			c-113.2-66.2-166.2-182.4-236.5-286.9c-29.2-43.4-62.7-84.3-103.8-116.9c-43.2-34.3-93-58.7-143.6-79.8
			c-99.5-41.5-208-70.3-295.8-135.2c-81.6-60.4-130.7-150.7-183-235.3c-56.2-90.9-119.7-166.5-215.5-217.1
			c-101.9-53.9-214.4-85.2-315.1-141.6c-49.5-27.7-92.7-61.4-126.1-107.7c-37.2-51.7-63.7-110.4-90.4-168
			c-27.7-59.6-54.8-120.6-93.7-173.8c-39.2-53.7-91.2-89.3-152.3-114.2c-129.5-52.8-281-61.8-394-150.1l-14.2,17.3
			c109.8,85.3,256.4,85.4,381.8,135.1c58.6,23.2,106.6,58,144.6,108.6c40.9,54.5,70.3,116.8,100.2,177.7
			c28.9,59.1,57.4,119.3,96.2,172.7c34.8,47.9,79.4,83.6,130.7,112.5c98.7,55.7,208.7,87.4,308.2,141.5
			c93,50.5,156.9,124.4,213.4,212.2c55.2,85.6,106.4,176.9,189.6,239c92.2,68.8,206.4,100.7,310.7,146.1
			c51.6,22.5,102.8,48.1,146.7,83.7c40,32.5,72.2,72.8,100.1,115.8c67.2,103.9,116.8,218.6,229.6,282.2
			c136,76.6,303.1,85.5,428.4,182.8c124.2,108.2,169.3,276.6,276.8,398.4c83.9,95.1,203,121.8,316,166.6
			c49.2,19.5,96.5,44,137.1,78.4c43.1,36.4,77.7,81.8,109.6,128c64.3,93.2,117.5,198.9,202.7,275.5c75.6,68,172.6,100.7,265.5,137.4
			c98.5,38.9,185,87.1,253.5,169.6c73.3,88.3,126,191.8,201.2,278.7c37.1,42.9,79,78.2,130.5,102.6c59.3,28.1,123.5,44.5,186.6,61.4
			c67.5,18.1,136.6,35.2,199.7,66c56.4,27.5,99.4,68.2,133.2,121c72.3,113.2,100.9,256.5,205.4,347.5l14.2-17.3
			c-109.6-94.9-147-243.7-225.5-361.2C5714.1,5033.2,5671.1,4990.8,5613.6,4963.4z"/>
		
			<linearGradient id="SVGID_00000016043717034727664130000003597729705247979934_" gradientUnits="userSpaceOnUse" x1="2262.072" y1="840.1441" x2="2262.072" y2="1029.8781" gradientTransform="matrix(0.7722 0.6353 0.6353 -0.7722 1005.2216 2425.8013)">
			<stop  offset="0" style="stop-color:#FFAB1C"/>
			<stop  offset="0.17" style="stop-color:#F0A11A"/>
			<stop  offset="0.48" style="stop-color:#CA8816"/>
			<stop  offset="0.92" style="stop-color:#8D5E0F"/>
			<stop  offset="1" style="stop-color:#80560E"/>
		</linearGradient>
		<path style="fill:url(#SVGID_00000016043717034727664130000003597729705247979934_);" d="M5596.8,4881.6
			c-55.9-25.4-117.5-35.7-177.5-46.6c-56.2-10.2-113.4-20.1-166.4-42.3c-53.2-22.2-94.1-59.7-130.1-104
			c-76.2-93.6-128.2-204-202.9-298.7c-32.4-41-69-77.2-114.1-103.9c-41.7-24.6-87.2-41.6-133-56.7
			c-92.9-30.7-192.1-55.7-266.6-123.1c-74-66.9-113.5-160.2-164.8-243.7c-27.2-44.1-58.3-85.9-98.2-119.4
			c-41.4-34.8-88.9-61.1-137.8-83.8c-118.8-55.1-243.6-93.7-337-190.6c-112.3-116.4-176.1-273.8-301.8-378.1l0,0l0-0.1l0-0.1l0,0
			c-118.9-96.9-275.6-121.8-403.7-202.6c-114.2-72-176.5-189.6-253.6-295.7c-32-43.9-67.5-85.8-110.3-119.6
			c-39.8-31.5-85.7-53.4-133-71.1c-91.2-34.1-189.5-54.7-269.3-113.4c-80.4-59.1-124.4-150.6-171.9-235.4
			c-24.6-44-50.9-87.4-84.8-125c-35.5-39.5-79.1-68.4-126.2-92.3c-106.9-54.1-224.4-83.8-330-140.6
			c-49.2-26.4-92.6-58.3-124.4-104.8c-32.7-47.8-53.5-102.8-74.6-156.4c-21.8-55.5-43.2-112.5-77.3-161.9
			c-38.7-56-95.7-91.1-156.5-119.2c-143-66.1-311-93-436.7-192.4L600,977.7c121.1,95.4,283.4,115.9,421.5,177.3
			c60.9,27.1,116.1,62.3,155,117.5c35.8,50.8,59.3,109.2,83.2,166.2c23.1,55,46,111.3,80.3,160.5c32.3,46.4,75.7,78.9,124.9,105.8
			c103.9,56.6,219.6,86.9,324.7,140.9c46.8,24.1,90,53.3,125.6,92.3c34.3,37.6,61.4,81,87,124.9c49.2,84.7,95.1,175.8,175.9,235.4
			c82.6,60.9,184.7,84.5,278.8,121.2c48.4,18.9,95.8,41.7,136.7,74.1c42.2,33.5,77,74.9,108,118.7
			c74.8,105.5,133.6,222.6,247.5,292.6c130.1,79.9,289.8,100.6,410.3,197.8c125.7,105.4,184.6,266.3,296.2,384.1
			c90.3,95.3,212.5,131,328.8,182.7c50.3,22.4,99.3,48.9,141.4,84.8c39.5,33.7,70.8,75.4,98.6,118.9
			c54.8,85.9,97.8,183.1,174.7,252.6c74,66.8,171.2,94.2,263.4,125.9c47.6,16.4,95.2,34.5,138.5,60.7
			c44.9,27.2,81.6,63.3,114.3,104.1c74.5,93.3,126.6,202.4,203.1,294.2c35.7,42.9,75.7,78.6,127.1,101.4
			c54.4,24.2,113.7,35.8,171.6,47.7c62.1,12.8,125.8,24.8,183.8,51.4c58.8,27,102.1,72.3,139.2,124.4
			c88.7,124.3,139.6,281.6,257.8,383.1l14.2-17.3c-122.5-104.9-181.2-265.9-274.8-394C5699.5,4955.8,5656,4908.5,5596.8,4881.6z"/>
		
			<linearGradient id="SVGID_00000111883240379746983290000015974081150392824750_" gradientUnits="userSpaceOnUse" x1="2262.2156" y1="891.4922" x2="2262.2156" y2="1084.7662" gradientTransform="matrix(0.7722 0.6353 0.6353 -0.7722 1005.2216 2425.8013)">
			<stop  offset="0" style="stop-color:#FFAB1C"/>
			<stop  offset="0.17" style="stop-color:#F0A11A"/>
			<stop  offset="0.48" style="stop-color:#CA8816"/>
			<stop  offset="0.92" style="stop-color:#8D5E0F"/>
			<stop  offset="1" style="stop-color:#80560E"/>
		</linearGradient>
		<path style="fill:url(#SVGID_00000111883240379746983290000015974081150392824750_);" d="M5742.9,4940.6
			c-39.2-51.2-83.1-101.2-143.3-127.6c-52.7-23.1-110.8-30-167.4-37.3c-52.9-6.8-106.9-13.5-156.8-33.4
			c-53.2-21.3-93.7-59.3-129-103.6c-77.2-96.7-128.6-210.9-204.2-308.7c-32.1-41.5-68.6-78.2-114.2-104.6
			c-41.4-24-86.8-39.5-132.5-53.1c-93.2-27.6-191.4-49.3-265.7-116.5c-69.6-62.9-102.1-150-147.6-229.5
			c-54.3-94.8-135.6-154.1-232.4-201.7c-120.5-59.3-247.6-103.5-344.3-200.8c-114.1-114.8-188.2-265.1-313.4-369.5l0,0l0-0.1l0-0.1
			l0,0c-117-94.8-267.1-129.6-392-211.1c-115.3-75.3-183.4-193.9-265-300.9c-64.9-85.1-138.5-152.8-241.1-187.5
			c-86.1-29.2-177.1-44.2-252-99.2c-80.1-58.9-120.9-150.1-165.4-235.8c-23-44.1-47.8-87.8-80.9-125.2c-35.3-40-79.4-68.8-127-92.2
			c-110.1-54.3-231.3-82.7-340.1-139.8c-48.9-25.7-93-57.2-123.8-103.8c-29.9-45.2-47-97.6-64-148.6
			c-17.7-52.9-35.1-107.1-66.3-153.8c-38.2-57.2-98.2-92-158.7-121.7c-79.4-39-162.7-69.6-244.4-103.4
			C794.9,999.3,717,966.5,651.7,915l-14.2,17.3c131.8,104.2,307.1,139.6,456.3,211.8c60.6,29.3,119.9,64.3,158.2,121.2
			c32,47.5,50.6,102.6,69.6,156.1c18.3,51.7,36.4,104.9,67.1,150.8c31.1,46.6,74.8,78,123.8,103.8c107.9,57,228,85.9,337.1,140.1
			c47.5,23.5,91.5,52.3,126.8,92.2c33.2,37.5,58.5,81.1,82,125.2c45.3,85.2,87,176.8,167,235.6c76.2,56,169.5,72.6,256.9,103.2
			c102.6,35.9,176.9,102.2,241.6,188.3c80.4,106.8,146.8,225,261.7,299.5c125.7,81.5,278.1,113,395.3,208.8
			c125.8,104,196.5,256.8,310.3,371.9c96,97,222.3,139.8,342.5,197.9c97.7,47.3,177.8,107.4,233.2,202
			c47.2,80.5,81.8,169.5,152.5,233.5c74.1,67.1,172.9,89.7,265.9,118.2c45.7,14,91.1,30,132.6,54.1c45.5,26.5,82,63.1,114.2,104.5
			c75.3,96.9,127,210,203.8,305.8c35.5,44.2,75.8,82,129,103.6c50.8,20.5,105.7,28.1,159.6,36c57.5,8.4,116.7,16.3,170.3,40
			c60,26.5,103.9,75.9,142.7,127.2c100.8,133,169.2,299.6,297.8,409.7l14.2-17.3c-64.7-55.5-112.9-128-159.7-198.6
			C5841.7,5084.7,5796,5009.9,5742.9,4940.6z"/>
		
			<linearGradient id="SVGID_00000009580417844906207460000000186620526687426457_" gradientUnits="userSpaceOnUse" x1="2262.2104" y1="948.3658" x2="2262.2104" y2="1141.884" gradientTransform="matrix(0.7722 0.6353 0.6353 -0.7722 1005.2216 2425.8013)">
			<stop  offset="0" style="stop-color:#FFAB1C"/>
			<stop  offset="0.17" style="stop-color:#F0A11A"/>
			<stop  offset="0.48" style="stop-color:#CA8816"/>
			<stop  offset="0.92" style="stop-color:#8D5E0F"/>
			<stop  offset="1" style="stop-color:#80560E"/>
		</linearGradient>
		<path style="fill:url(#SVGID_00000009580417844906207460000000186620526687426457_);" d="M5647,4778
			c-54.5-24.1-114.4-33-172.8-42.5c-54.7-8.9-110.4-17.4-162-38.4c-53-21.6-93.6-58.9-128.9-103.2
			c-76.2-95.5-125.5-209.1-199.9-305.8c-32-41.5-68.8-78.1-114.4-104.5c-41.5-24.1-86.9-40-132.6-54c-93-28.4-191.6-51-265.9-118
			c-70.6-63.8-104.6-152.6-151.4-233c-55.1-94.7-135.5-154.8-233.1-202c-120.6-58.3-246.5-101.1-342.9-198.5
			c-113.9-115.1-190.3-263.3-314.6-368.6l0,0l0-0.1l0-0.1l0,0c-117.7-93.9-267-131.1-392.1-212.8c-113.8-74.3-180-190.3-259.4-296.6
			c-64.6-86.4-138.9-154.2-241.9-190.2c-87.4-30.5-180.9-46.5-257.1-102.4c-80.5-58.9-122.2-150.6-167.7-236.2
			c-22.6-42.8-47.1-85-78.9-121.7c-36.2-41.8-81.5-72.1-131-96.3c-109.2-53.4-229.8-79.9-337.5-136.8
			c-49.1-25.9-92.1-58.2-122.7-105c-31-47.3-50.2-101.1-69.6-153.8c-20.1-54.3-40.1-110.3-73.5-158
			c-38.2-54.5-95.4-88.1-154.2-116.9c-148.6-72.9-321.7-109.7-453.8-212.8L674.9,887c65.7,51.4,143.8,84.5,220.3,116.3
			c81.6,34,164.8,64.7,244.2,103.9c58.7,29,116.8,62.5,154.8,117.4c32.2,46.5,50.3,101.2,68.3,154.3
			c17.5,51.5,34.8,104.1,64.4,150.1c30.3,47,73.9,79.1,122.8,105c108.8,57.7,230.6,85.1,341,139.3c49.4,24.2,94.9,54.5,131.1,96.3
			c31.6,36.6,55.7,79,77.9,121.8c44.7,86.1,85.5,177.3,166.1,236.4c75.1,55.1,166.4,69.6,252.6,99c103,35,176.6,104.1,241.5,189.6
			c80.5,106.1,148.3,223,262.3,297.5c125.1,81.7,274.4,118.8,392.1,212.8c124.3,105.3,200.7,253.6,314.6,368.7
			c96.6,97.6,223.7,141.8,344.3,201.2c96.7,47.6,178.2,106.8,232.4,201.7c45.4,79.5,77.7,166.5,147.2,229.3
			c74.3,67.1,172.4,88.8,265.7,116.4c45.6,13.5,91.1,29,132.5,53c45.6,26.4,82.4,63.1,114.4,104.7c75.4,97.7,125.9,212.3,203,308.8
			c35.3,44.2,75.9,82,128.9,103.3c50.1,20,104.3,26.9,157.5,34.1c56.8,7.6,115.1,14.9,168,38c60.2,26.3,103.8,76.5,143,127.6
			c53.1,69.1,98.8,143.7,147,216.2c46.9,70.6,95.2,142.7,159.7,198.5l14.2-17.3c-127.1-110.2-196.6-273.6-297.4-405.7
			C5750.4,4853.9,5706.9,4804.6,5647,4778z"/>
		
			<linearGradient id="SVGID_00000101086983930578707940000001499317091726419365_" gradientUnits="userSpaceOnUse" x1="2262.1255" y1="1006.2712" x2="2262.1255" y2="1194.5437" gradientTransform="matrix(0.7722 0.6353 0.6353 -0.7722 1005.2216 2425.8013)">
			<stop  offset="0" style="stop-color:#FFAB1C"/>
			<stop  offset="0.17" style="stop-color:#F0A11A"/>
			<stop  offset="0.48" style="stop-color:#CA8816"/>
			<stop  offset="0.92" style="stop-color:#8D5E0F"/>
			<stop  offset="1" style="stop-color:#80560E"/>
		</linearGradient>
		<path style="fill:url(#SVGID_00000101086983930578707940000001499317091726419365_);" d="M5732.5,4779.4
			c-61.2-29.5-128.3-45.5-193.9-62.4c-61.5-15.8-123.9-31.1-182-57.3c-53.2-24-95.4-59.9-131.4-105.5
			c-72-91.1-116.3-200.4-186.6-292.6c-63.7-83.5-148.4-128.2-245.9-162c-93.2-32.3-192.3-59.1-267.3-126.7
			c-76.1-68.7-117.7-164.7-171-250.2c-28-45-60-87.8-100.8-122c-41.1-34.5-88.5-60.2-137.3-82c-119.7-53.5-241.3-90.1-336-185.8
			c-113.9-115.1-190.3-263.3-314.6-368.6l0,0l0-0.1l0-0.1l0,0c-117.7-93.9-267-131.1-392-212.8c-111.8-73-171.1-186-245.7-292.2
			c-31.1-44.3-66-86.5-108.3-120.5c-40.7-32.7-87.8-55.4-136.3-74c-93.8-36-195.6-58-278-118.4c-81.2-59.6-127.1-150.9-176.3-236
			c-53.5-92.4-115.1-169-213.1-216.2c-104.1-50.2-219.5-72.6-322-126.3c-50.4-26.4-92.6-60.5-125.6-107.1
			c-37.4-52.8-64.7-112-92.5-170.1c-28.6-59.8-56.7-121.2-96.6-174.5c-39.1-52.2-91.3-86.8-149.9-114.1
			c-132.7-61.8-285.7-85.7-403.1-177.5l-14.2,17.3c123.9,96.8,285.6,126.3,425.3,193.1c58.8,28,113.1,62.1,151.9,115.4
			c37,50.9,61.6,110,86.6,167.4c24.3,55.8,48.1,112.6,82.6,163.1c31.9,46.7,74.4,79.8,124.1,106c104.7,55.1,222.4,79.3,328.7,130.9
			c49.2,23.9,93.8,54.3,130.1,95.5c32.4,36.8,57.8,79,81.6,121.6c47.6,85.2,91.7,176.8,172.4,236c79.6,58.4,177.9,77.8,268.9,111.4
			c103.4,38.2,179.2,103.6,243.3,192.5c76.8,106.3,139.1,220.5,251.7,294.1c125.1,81.7,274.4,118.8,392.1,212.8
			c124.3,105.3,200.7,253.6,314.6,368.7c95.5,96.5,218.9,135.8,339,191.4c49.1,22.8,96.8,49.1,138.4,84
			c39.7,33.4,70.6,75,97.4,119.1c50.5,83.2,88.8,176.2,162.4,242.7c74.5,67.3,173.6,92.2,266.6,122.8
			c98.5,32.4,182.3,76.7,246.5,160.5c72.1,94.2,118.6,205.3,192.4,298.3c35.7,45,77,81.5,130.1,104.3
			c55.3,23.8,114.8,36.2,173.4,49.1c62.4,13.7,126.4,26.7,184.7,53.7c58.8,27.3,102.2,73.8,140.5,125.1
			c93,124.5,153.1,278.2,272.4,381.5l14.2-17.3c-113.2-97.8-166-244-252.8-362.5C5833.8,4851.5,5790.3,4807.2,5732.5,4779.4z"/>
		
			<linearGradient id="SVGID_00000176743457463422108210000015949904822114473093_" gradientUnits="userSpaceOnUse" x1="2262.0437" y1="1064.3979" x2="2262.0437" y2="1244.7714" gradientTransform="matrix(0.7722 0.6353 0.6353 -0.7722 1005.2216 2425.8013)">
			<stop  offset="0" style="stop-color:#FFAB1C"/>
			<stop  offset="0.17" style="stop-color:#F0A11A"/>
			<stop  offset="0.48" style="stop-color:#CA8816"/>
			<stop  offset="0.92" style="stop-color:#8D5E0F"/>
			<stop  offset="1" style="stop-color:#80560E"/>
		</linearGradient>
		<path style="fill:url(#SVGID_00000176743457463422108210000015949904822114473093_);" d="M5612,4707.2
			c-124.3-43-258.7-82.8-342.8-190.5c-66.8-85.5-104.8-189.3-169.8-276c-62.1-82.9-149.7-129-244.2-166.4
			c-93.9-37.2-192.9-69.4-269.4-138.3c-83.7-75.4-134.4-179.9-196.1-272.4c-31.8-47.5-66.8-94.2-111-131
			c-39.8-33.1-86.1-56.9-134-75.9c-54.9-21.9-112.1-38-166.6-61c-61-25.8-113.8-61.2-160.4-108.3
			c-113.9-115.1-190.3-263.3-314.6-368.6l0,0l0-0.1l0-0.1l0,0c-117.7-93.9-267-131.1-392-212.8c-55.7-36.4-100.6-82.4-137.6-137.5
			c-32.4-48.3-58.9-100.2-90.3-149.1c-28.2-44-60.9-85.4-101.7-118.4c-43.8-35.4-95.1-60.4-146.8-82.1
			c-102.3-43-214.2-72.3-304.6-138.9c-82.7-60.8-133.8-151.1-188-235.9c-56.6-88.5-120.1-167.8-217.1-213.5
			c-97.7-46-206.4-63.4-302.6-113.1c-121.1-62.6-185.7-188-251.7-301.3c-69.1-118.7-137.3-249.3-269.9-305.5
			C988.5,863.2,862.2,856.8,763.6,779l-14.2,17.3c105.7,83.1,242.6,96.4,362.6,149.4c58.2,25.7,106.9,61.5,146.3,111.6
			c45.3,57.5,79.7,123.3,114.6,187.3c61.2,112.3,120.6,230.7,238.6,292c98.6,51.2,209.9,70.5,310,118.2
			c97.4,46.3,160.1,124.6,215.5,214.6c52.3,84.9,101.4,175.6,183.5,235.9c87.3,64.2,195.4,90.7,294.4,131
			c50.4,20.5,100.1,44.6,142.7,78.9c41.5,33.4,74.9,75.1,104.3,119.2c32.9,49.4,61.1,101.7,94.9,150.6
			c38.1,55,83.7,101.6,139.8,138.2c125.1,81.7,274.4,118.8,392.1,212.8c124.3,105.3,200.7,253.6,314.6,368.7
			c47,47.5,100.4,83.5,161.5,110.3c55.3,24.4,113.2,42.1,168.9,65.4c48.3,20.1,95,44.6,135.2,78.3c42.9,35.8,76.7,81,107,127.5
			c58.5,89.7,105.7,191.1,186.5,263.8c75.9,68.4,174.9,98.5,268.5,133.8c95.6,36.1,182.1,81.6,244.9,164.7
			c67,88.8,107.6,194.6,176.3,282.4c82.3,105.1,209,141.2,331.5,179.8c71.1,22.4,143.7,43.8,210.3,77.9
			c55.9,28.6,99.9,69.3,135.8,120.5c75.7,107.8,115,240.2,217.3,328.2l14.2-17.3c-95.8-82.1-126.2-205.4-195-306.6
			C5885.1,4793.7,5742.3,4752.3,5612,4707.2z"/>
		
			<linearGradient id="SVGID_00000158003972132099385040000010152793118857791621_" gradientUnits="userSpaceOnUse" x1="2262.1091" y1="1120.5956" x2="2262.1091" y2="1298.2412" gradientTransform="matrix(0.7722 0.6353 0.6353 -0.7722 1005.2216 2425.8013)">
			<stop  offset="0" style="stop-color:#FFAB1C"/>
			<stop  offset="0.17" style="stop-color:#F0A11A"/>
			<stop  offset="0.48" style="stop-color:#CA8816"/>
			<stop  offset="0.92" style="stop-color:#8D5E0F"/>
			<stop  offset="1" style="stop-color:#80560E"/>
		</linearGradient>
		<path style="fill:url(#SVGID_00000158003972132099385040000010152793118857791621_);" d="M6054.8,4917.4
			c-31.2-50.6-78.4-85.6-129.7-114.3c-77.9-43.7-161.9-76.4-244.4-110.1c-128.3-52.5-280.8-100.7-368.7-214.8
			c-62.1-80.6-94.5-179.4-154.8-261.1c-126-170.9-361.7-181.7-513.9-318.7c-90.5-81.5-149.2-193.4-218.4-292
			c-34.9-49.8-72.6-99.7-119.7-138.7c-38.7-32.1-84-54.2-131.2-70.8c-53.1-18.7-108.4-30.8-161-50.8
			c-60.9-23.1-112.3-57.7-158.1-104c-113.9-115.1-190.3-263.3-314.6-368.6l0,0l0-0.1l0-0.1l0,0c-117.8-94-267-131.1-392.1-212.8
			c-54.7-35.7-98.5-80.5-132.8-136c-29-47.1-51.4-97.9-79.4-145.7c-25.6-43.8-56.4-84.5-96-116.7c-46.4-37.8-101.4-64.7-155.8-89
			c-110-49.1-230.3-85.1-328.3-157.1c-167.6-123.1-222.7-356.6-418.8-447c-91.9-42.4-194.7-55.2-285.1-101.3
			c-128.2-65.3-204.9-206.6-281-322.3c-48-72.9-95.3-147.4-152-214c-38.7-45.4-82.4-85.7-139.1-106.6
			c-43.9-16.2-90.5-20.3-136.2-28.8c-53.2-9.9-100.3-28.6-142.9-62.4l-14.2,17.3c45,35.6,95.6,55.5,151.1,68.1
			c49.5,11.3,100.3,18.4,147.8,36.9c134.4,52.4,210.7,200.2,283.7,315.4c72.7,114.9,145.3,250.9,271,315.2
			c92.4,47.3,197.3,61.7,291.1,105.3c196.3,91.2,246.7,324.4,414.2,447.8c95.3,70.3,212.9,103.9,320.2,150.9
			c53.5,23.4,107.3,49.6,152.8,86.7c39.9,32.5,71.3,73.4,97.8,117.2c29.2,48.1,53,99.3,83.2,146.9c35.2,55.4,79.3,100.6,134.3,136.5
			c125.1,81.7,274.4,118.8,392.1,212.8c124.3,105.3,200.7,253.6,314.6,368.7c46.1,46.6,97.9,81.3,158.8,105.4
			c53.3,21,109.2,34.6,162.9,54.4c47.4,17.4,93,40.1,132.1,72.5c46.2,38.3,82.9,87.1,116.8,136.2c66.7,96.5,122.6,205.9,210.8,285.3
			c152.2,137.1,387,142.9,513.8,314c61.9,83.5,96.3,184,160,266.2c86.6,111.9,233,157.3,359.9,206.6c79.8,31,161.1,61,236.2,102.4
			c52.4,28.9,98.5,64.9,131,115.7c27.2,42.4,43.9,90.1,64,136c23.4,53.1,52.8,100.1,97.3,138.1l14.2-17.3
			c-42.2-36-69.8-79.7-89.9-131C6092.1,5001,6079,4956.7,6054.8,4917.4z"/>
		
			<linearGradient id="SVGID_00000091696142111962154640000000897212257313361338_" gradientUnits="userSpaceOnUse" x1="2262.1177" y1="1178.4294" x2="2262.1177" y2="1354.3845" gradientTransform="matrix(0.7722 0.6353 0.6353 -0.7722 1005.2216 2425.8013)">
			<stop  offset="0" style="stop-color:#FFAB1C"/>
			<stop  offset="0.17" style="stop-color:#F0A11A"/>
			<stop  offset="0.48" style="stop-color:#CA8816"/>
			<stop  offset="0.92" style="stop-color:#8D5E0F"/>
			<stop  offset="1" style="stop-color:#80560E"/>
		</linearGradient>
		<path style="fill:url(#SVGID_00000091696142111962154640000000897212257313361338_);" d="M6154.5,5006.3
			c-11.1-37.7-18-76.3-37.9-110.7c-29.4-50.6-78.3-84.5-128.2-112.9c-82.3-46.8-170.2-83.8-256.8-121.8
			c-81.5-35.9-163.8-70.9-241.9-113.9c-53.4-29.4-101.3-63.5-138.7-112.2c-59.7-77.9-88.9-174.1-146.8-253.2
			c-125-170.8-362.3-188.2-514.5-325.2c-174.5-157-242-434-482.1-511.9c-52.1-16.9-106.2-26.7-157.9-45
			c-61.2-21.7-111.9-56.8-157.4-102.9c-113.9-115.1-190.3-263.3-314.6-368.6l0,0l0-0.1l0-0.1l0,0c-117.8-93.9-267-131.1-392.1-212.8
			c-54.4-35.5-98.6-79.5-131.5-135.6c-27.3-46.4-47.1-96.7-73.2-143.7c-121.9-220-404.7-234.7-592.9-373.3
			c-167.2-123.2-229.5-357-425.1-446.2c-88.8-40.5-188.4-50.7-275.8-94.9c-53.8-27.2-95.6-67.3-134-113.3
			c-58-69.4-109-144.6-160.6-218.7c-53-75.9-105.1-153.5-165.7-223.6c-37.9-44-81.1-86.5-137.3-105.5
			c-38.2-12.9-77.9-11.9-117.5-15.8c-51-5-93.7-24.5-133.9-56.2L824,705.5c40.4,32,83.7,50.5,134.8,56.8c41.1,5.1,82.6,5.4,122.2,19
			c56.2,19.3,99.4,61.4,137.4,105.6c59.8,69.3,110.8,146.2,162.5,221.5c50.5,73.5,100.2,148,157.4,216.5
			c38.4,46.1,80.7,86.4,134.7,113.7c88.1,44.6,188.5,55.5,278,96.4c195.8,89.4,256.5,323.2,424,446.2
			c100.9,74.1,224.7,112.6,337.6,164.2c55.2,25.2,111.2,52.6,158.5,91.1c39.2,31.9,69.6,72.2,94.3,116.1
			c26.6,47.3,47.1,97.6,74.8,144.2c33.2,55.9,77,100.1,131.4,135.6c125.1,81.7,274.4,118.8,392.1,212.8
			c124.3,105.3,200.7,253.6,314.6,368.7c45.6,46,96.3,80.7,157.4,102.8c51.9,18.7,106.3,29.2,158.7,46.5
			c47.1,15.6,91.9,37.3,130.3,69.2c48,39.8,86.4,90.6,122.4,141.1c72.1,101,134,215.8,227.1,299.7c152.2,137,389.1,153.2,514.2,324
			c58.4,79.8,88.4,176.5,148.7,255.1c37.5,48.8,85.6,83.3,139.2,112.7c77.1,42.3,158.5,76.4,239.1,111.2
			c85.6,37,172.7,72.9,253.9,119.2c50,28.5,98.6,62.5,128.3,113c20.9,35.6,29.4,75.7,42,114.6c16.1,49.8,42.6,89.7,82.5,123.8
			l14.2-17.3C6196.5,5095.3,6169.3,5056.4,6154.5,5006.3z"/>
	</g>
</g>
</svg>
