<?xml version="1.0" encoding="utf-8"?>
<!-- Generator: Adobe Illustrator 26.0.3, SVG Export Plug-In . SVG Version: 6.00 Build 0)  -->
<svg version="1.1" id="Layer_1" xmlns="http://www.w3.org/2000/svg" xmlns:xlink="http://www.w3.org/1999/xlink" x="0px" y="0px"
	 viewBox="0 0 6238.9 6878.5" style="enable-background:new 0 0 6238.9 6878.5;" xml:space="preserve">
<style type="text/css">
	.st0{fill:url(#SVGID_1_);}
	.st1{fill:url(#SVGID_00000002378950634453335910000008569402175508649625_);}
	.st2{fill:url(#SVGID_00000079483171824729068040000001722365913223187127_);}
	.st3{fill:url(#SVGID_00000166639568636816127100000013849758669687579565_);}
	.st4{fill:url(#SVGID_00000132800964419082719570000016371466853556681134_);}
	.st5{fill:url(#SVGID_00000079463542726455117420000016508860900428540822_);}
	.st6{fill:url(#SVGID_00000063597291579702142700000011127581853483965066_);}
	.st7{fill:url(#SVGID_00000009549747212232271380000016646561130384191380_);}
	.st8{fill:url(#SVGID_00000040553992591963455620000006118842582387659424_);}
	.st9{fill:url(#SVGID_00000047777407596627618430000004210581285029568687_);}
	.st10{fill:url(#SVGID_00000032642653024734530850000016222159308187051428_);}
	.st11{fill:url(#SVGID_00000107587203265450607130000016391713988035028624_);}
	.st12{fill:url(#SVGID_00000079455105604788885490000012734583869221107113_);}
	.st13{fill:url(#SVGID_00000096752566967976077620000000177394083436944000_);}
	.st14{fill:url(#SVGID_00000173851738901075096090000000876489340447965092_);}
	.st15{fill:url(#SVGID_00000085972707388036663000000010856660297039027883_);}
	.st16{fill:url(#SVGID_00000062175787305518970370000009761260448674248379_);}
	.st17{fill:url(#SVGID_00000110447354327104746750000008203326025834712767_);}
	.st18{fill:url(#SVGID_00000029725563466265899360000001342028782266739896_);}
	.st19{fill:url(#SVGID_00000061450722456181516120000005741445700972604804_);}
	.st20{fill:url(#SVGID_00000016069200608063450250000000576606824100094080_);}
	.st21{fill:url(#SVGID_00000058571787978048942060000015975749980018295201_);}
	.st22{fill:url(#SVGID_00000164474224965078495060000016188132024606822531_);}
	.st23{fill:url(#SVGID_00000028305624195251593670000014636659978013547667_);}
</style>
<g id="Layer_2_00000121242781663275676930000001027246102389394601_">
	<g id="Layer_1-2">
		
			<linearGradient id="SVGID_1_" gradientUnits="userSpaceOnUse" x1="-1483.118" y1="-503.9474" x2="-1483.118" y2="-299.2481" gradientTransform="matrix(0.464 0.8858 0.8858 -0.464 2074.8533 4842.7588)">
			<stop  offset="0" style="stop-color:#FFAB1C"/>
			<stop  offset="0.17" style="stop-color:#F0A11A"/>
			<stop  offset="0.48" style="stop-color:#CA8816"/>
			<stop  offset="0.92" style="stop-color:#8D5E0F"/>
			<stop  offset="1" style="stop-color:#80560E"/>
		</linearGradient>
		<path class="st0" d="M2491.7,6319.9c-16.7-63-37.9-125.4-81.5-175c-36.7-41.6-83.3-72.6-129-103.4c-42.8-28.8-86-57.6-121.3-95.5
			c-37.9-40.6-61.2-89.3-73.9-143c-26-109.2-15.5-223.4-39.3-332.9c-21.7-99.8-79.1-167.4-161.2-224.9
			c-77.8-54.4-155.7-102.7-198.7-190.9c-47.3-96.6-61.2-204.9-86.8-308.2c-26.2-105.1-65.9-199.7-151.3-269.9
			c-42.9-35.2-90.6-64.3-132.5-100.8c-50.2-43.8-84.8-96.4-107.3-158.9c-63.3-175.5-58.7-373.8-143-542l0,0l0-0.1c0,0,0,0,0-0.1l0,0
			c-84.3-154.2-242.9-250.5-345.4-390.9c-39.2-53.7-62.8-113-70.1-179c-6.2-55.8-2.8-112.2-7.5-167.9
			c-19.3-225.8-234.6-338.5-338.2-520.8c-48.3-84.8-44.9-175.7-45.1-270.2c-0.1-47.1-2.5-94.6-16.6-139.9
			c-15.2-48.8-44-90.7-78.9-127.5c-76.6-80.8-175.7-136.8-249.8-220.3c-35.9-40.3-62.1-85.9-74.1-138.9
			c-11.5-50.9-10.7-103.6-9.9-155.5c0.8-53.7,1.8-108.4-10.4-161.1c-15.5-67.4-56.5-122.5-100.7-174.1
			C-339.7,960-404.9,897.6-467.6,833c-58.2-60.1-117.7-121.8-158.6-195.3l-19.8,10.4c40.9,74.1,101.3,136.1,159.6,196.7
			c63.5,66,129.8,129.7,189.3,199.3c42.9,50.2,82.5,103.7,98.6,168.8c12.9,52.4,11.4,106.7,10.2,160.2c-1.3,51.7-2.9,104,8.1,154.8
			c11.4,53.1,37.5,99.9,73.2,140.4c74.1,84.2,174.6,139.3,251.9,220.3c36.4,38.2,66,82.3,81.1,133.3c12.9,43.6,15.1,89.2,14.7,134.3
			c-0.8,94.6-4.5,184.1,44.6,268.9c53.5,92.6,133.1,166,202.5,246.1c70.6,81.8,125.5,167.3,134.2,277.3c4.3,54.7,1.2,109.7,7,164.3
			c7.1,66.2,30.2,125.3,69.3,179.2c102.7,141.4,261.1,239.1,346.3,393.6c84,168.8,81.2,367.6,144.6,543.6
			c22.4,62.5,56.7,115,106.9,158.6c42.1,36.7,90.1,65.7,133.4,101.2c175.3,143.8,148.1,387.7,239.2,577.3
			c42.4,88.3,119.6,135.4,197.6,188.8c82,56.3,139.6,124.9,161.1,224.1c23.7,109.8,11.9,224.1,37.9,333.6
			c12.8,53.7,36.5,103,74.4,143.6c35.1,37.5,78.2,65.7,120.9,93.6c45.6,30,92.1,60.2,128.7,101.5c43.7,49.5,64.7,112.1,81.5,174.8
			c23.2,87.2,37.8,176.6,55.4,264.9c16.8,84.3,33.6,171.4,71.9,249.1l19.8-10.4c-38.1-77.6-55.1-164-71.7-248.2
			C2528.6,6494,2514.4,6405.9,2491.7,6319.9z"/>
		
			<linearGradient id="SVGID_00000166655270478402076950000016586806114935988927_" gradientUnits="userSpaceOnUse" x1="-1483.646" y1="-440.6418" x2="-1483.646" y2="-245.8697" gradientTransform="matrix(0.464 0.8858 0.8858 -0.464 2074.8533 4842.7588)">
			<stop  offset="0" style="stop-color:#FFAB1C"/>
			<stop  offset="0.17" style="stop-color:#F0A11A"/>
			<stop  offset="0.48" style="stop-color:#CA8816"/>
			<stop  offset="0.92" style="stop-color:#8D5E0F"/>
			<stop  offset="1" style="stop-color:#80560E"/>
		</linearGradient>
		<path style="fill:url(#SVGID_00000166655270478402076950000016586806114935988927_);" d="M2476.3,6155.1
			c-37.9-44.6-85.4-79.9-131.9-115.1c-43.5-32.8-87.6-65.9-124-106.7c-37.4-41.8-61.1-90.2-75.1-144.3
			c-27.7-107.8-22.3-220.9-48-329c-11.7-49.2-30.4-95.7-61.6-135.7c-30-38.5-67.8-70-106.2-99.6c-78.9-60.9-163.6-117-208.5-209.4
			c-47.5-97.8-56.4-208.9-79-314c-22.7-105.8-62-200.4-146.8-271.1c-41.5-34.5-87.8-63.1-128.3-98.8c-49.1-43.5-83.7-96-105.5-157.9
			c-60.3-171.1-47.4-365.3-129.8-529.2l0,0l0-0.1l0-0.1l0,0c-83.2-152.2-243.7-241.9-345.8-379.4c-38.8-51.7-63-112.9-70.3-177.1
			c-6.4-54.3-3.3-109-8.3-163.3c-10-109-65.4-194.7-138.8-273.1c-73-78-158.4-148.1-212.3-241.8c-50.8-88.5-49.7-189.2-54.5-288.2
			c-2.5-50.6-6.7-102-22.2-150.5c-15.6-48.9-44.1-91-78.3-128.8c-74.3-81.8-169.6-141.3-241.6-225.2
			c-35.5-41.4-61.2-87.2-74.4-140.4c-13.3-53.6-15.3-109.2-17.6-164.1c-2.3-56.9-4.3-114.5-18.3-169.9c-16.7-66-54.8-120.6-99-171.3
			c-105.4-120.8-245.4-218.8-324.5-360.7l-19.8,10.4c81.7,146.4,225.7,249.5,334.1,374.9c44.4,51.3,83.8,106.1,99.9,172.8
			c13.2,54.2,13.7,110.4,14.6,165.9c0.9,53.5,1.7,107.9,14,160.1c12.5,53,38.4,98.4,74.3,139.3c73,83.6,169.9,141.6,245.3,222.9
			c34.5,37.3,63.2,79,78.7,127.9c14.8,47,18.2,96.6,19.7,145.6c2.8,96.7,0.6,192.7,50,279.6c53.2,93.5,136.4,164.6,207.9,243.2
			c72.3,79.4,127.2,165.5,137,274.5c4.9,55,1.6,110.5,7.9,165.5c7.5,65.7,30.9,124.9,70.2,178.2c102.3,139,262.1,231.6,345.7,384.9
			c83.5,165.8,74.1,362,136,535.3c22.3,62.2,56.9,114.9,106.6,158.5c41.2,36.1,88.1,64.8,130.2,99.6c85,70.4,124.8,165,149.1,270.5
			c23.9,104.3,35.1,214.2,82.7,311.3c44.2,90.2,125.7,142.5,203.9,200.5c37.7,27.9,74.5,57.9,103.7,95
			c31.2,39.8,49.5,86.3,60.8,135.3c24.8,108.7,17.1,222.3,44.1,330.7c13.3,53.9,36.7,102.2,74.4,143.5
			c36,39.3,79.7,70.5,122.8,101.4c46.1,33.1,93.1,66.5,130.5,109.8c43,49.7,64.6,110.8,81,173.5c42.2,161.4,44.4,339.8,118.9,491.3
			l19.8-10.4c-72.2-146.7-72.6-318.9-112.8-475.1C2540.5,6264.5,2518.6,6204.6,2476.3,6155.1z"/>
		
			<linearGradient id="SVGID_00000144310877123947323150000007501155382947136916_" gradientUnits="userSpaceOnUse" x1="-1483.9698" y1="-370.7715" x2="-1483.9698" y2="-195.542" gradientTransform="matrix(0.464 0.8858 0.8858 -0.464 2074.8533 4842.7588)">
			<stop  offset="0" style="stop-color:#FFAB1C"/>
			<stop  offset="0.17" style="stop-color:#F0A11A"/>
			<stop  offset="0.48" style="stop-color:#CA8816"/>
			<stop  offset="0.92" style="stop-color:#8D5E0F"/>
			<stop  offset="1" style="stop-color:#80560E"/>
		</linearGradient>
		<path style="fill:url(#SVGID_00000144310877123947323150000007501155382947136916_);" d="M2549.2,6184.3
			c-40-49.6-88.9-91-136.9-132.4c-87.9-76-169.1-152.2-203.3-266.7c-31.6-105.8-32.1-218-61-324.4c-13.5-49.7-33.8-96.8-64.9-138.1
			c-33.9-44.9-76.3-82.9-118.9-119.3c-80.8-69.1-173.4-136.2-219.4-235.3c-46.7-101-48.7-216.3-67.2-324.1
			c-18.4-107-55.8-201.4-140.5-272.7c-38.6-32.5-81.6-59.6-119.2-93.2c-47.5-42.4-82-94.5-102.3-154.9
			c-55.4-165.3-31.9-352.5-110-510.8l0,0l0,0l0,0l0,0c-82.4-148.3-244.5-229.1-346.4-361.7c-39.1-50.9-62.7-109.5-70.9-173
			c-6.7-52-4.1-104.7-9.3-156.8c-11-108.9-68-192.8-144.8-267.7c-77.6-75.8-169.6-142.7-226.2-237.1
			c-56.4-94.2-58.6-209.8-69.5-316.1c-5.8-56.2-12.8-113-30.8-166.7c-16.5-49.4-44.1-93-77.7-132.6
			C159.4,1717.4,68.7,1653.7,0,1568.4c-75.5-93.8-91.8-204.9-104.4-321.1c-6.6-61.3-12.8-123.4-29.8-182.9
			c-18.2-63.4-52.1-117-95.8-165.8c-95.2-106.4-222.7-188.2-292.8-315.4l-19.8,10.4c73.6,133.1,206.2,221.3,305.4,333.4
			c43.9,49.7,79.4,103.6,97,168c15.8,57.9,20.2,118.2,25.3,177.8c9.5,114.7,23.8,222.8,99.4,314.4C54.4,1671.8,147,1734,219,1816.5
			c33.9,38.8,61.8,81.8,77.9,131c17,51.6,22.8,106.2,27.3,160.3c8.7,103.3,9.4,213,63.5,304.9c55.4,94.3,144.9,162.4,220.5,239
			c75.5,76.3,131.7,160.8,142.3,269.9c5.2,53,2.3,106.5,9,159.4c8,64.2,31.5,123.1,70.6,174.7c102,134.5,263.6,218.9,346.2,368.8
			c80,160.7,60.4,351,118.1,518.7c21,61,55.7,113.2,103.9,156c38.4,34,82,61.4,121.5,94.2c85.1,70.9,123.6,165.3,143.7,271.8
			c20.3,106.9,24.8,220.8,71.9,320.5c45.3,95.8,134.1,158.5,213.6,224.1c41.5,34.1,83,69.9,115.6,112.9
			c31.2,41,50.7,87.8,63.5,137.4c27.6,107.3,25.6,220,55.9,326.7c32.3,113.3,112.4,186.3,200.6,258.9
			c47.5,39.1,95.9,78.1,135.1,125.6c40.8,49.4,63.8,106.8,79.5,168.4c37.1,146.7,33.2,307.5,101.5,445.2l19.8-10.4
			c-65.4-131.4-59-284.4-93.7-424.4C2612.7,6289.4,2589,6233.5,2549.2,6184.3z"/>
		
			<linearGradient id="SVGID_00000034797809076122235980000001716058217541347239_" gradientUnits="userSpaceOnUse" x1="-1483.3768" y1="-324.7882" x2="-1483.3768" y2="-119.0037" gradientTransform="matrix(0.464 0.8858 0.8858 -0.464 2074.8533 4842.7588)">
			<stop  offset="0" style="stop-color:#FFAB1C"/>
			<stop  offset="0.17" style="stop-color:#F0A11A"/>
			<stop  offset="0.48" style="stop-color:#CA8816"/>
			<stop  offset="0.92" style="stop-color:#8D5E0F"/>
			<stop  offset="1" style="stop-color:#80560E"/>
		</linearGradient>
		<path style="fill:url(#SVGID_00000034797809076122235980000001716058217541347239_);" d="M2482.2,6064.5
			c-87-84.1-170.8-168.4-209.7-285.5c-34.6-103.8-41.3-214.4-73.4-318.9c-35-113.9-110-195.3-195.6-275
			c-83.6-77.7-186.1-156-233.6-262.9c-45.9-103.5-41.4-222.4-55.7-332.8c-13.9-107.7-48.6-202.4-132.8-274.6
			c-36.7-31.4-77.8-57.7-113.5-90.5c-45.8-41.8-79.6-93.2-98.5-152.5c-50.2-159.2-16.1-338.8-90.2-491.4l0,0l0,0l0,0
			c-81.3-144.3-244.2-216.1-346-343.1c-39.2-48.8-63.1-106.6-71.9-168.6c-7-49.6-4.9-100.1-10.4-150
			c-11.7-108.4-68.9-190.3-148.3-262.1c-82.9-74.9-183.2-139.1-243.1-235.9c-62.8-101.7-67.8-233.9-84.7-349.1
			c-16.8-114-41.8-219.7-114.6-311.6c-66.8-84.6-152.4-152.4-217.7-238.3c-76.6-100.6-98-219.9-118.1-341.7
			c-20.7-125.7-41.6-252.3-129.9-349.9c-85.7-94.6-202.5-159.7-265-274.3l-19.8,10.4c65.4,119.7,187,190.8,276.2,290.4
			c88.1,98.3,108.6,220.4,126.9,347c17.5,120.5,37,237.4,113.7,335.9c66.5,85.4,153.8,151.7,221.8,235.8
			c72.5,89.7,97,192.8,111.9,305c14.9,112.5,18.8,239.6,79.3,339.1c58.8,96.5,156.8,161.8,238.1,237.5
			c78.3,73,134.9,155.4,146.2,263.8c5.3,50.6,3,101.8,10.1,152.3c8.6,62.5,32.7,120.4,71.8,170c101.9,128.7,264.2,203.8,345.9,349.4
			c75.4,154.5,45.2,337,97.2,498.3c19.2,59.7,53.3,111.3,99.7,153.3c36.4,33,78.2,59.5,115.6,91.5c84.3,71.9,120,166.4,135.4,273.9
			c15.7,109.5,13.6,227,59.9,329.7c46.8,104.2,146,178.5,228.6,253.1c85.2,77,158.4,156.4,191.5,268.8
			c30.9,105.2,35.5,216.3,68.9,320.9c37.2,116.2,120.3,197.7,207.4,278.9c95,88.3,185.4,175.6,216.4,306
			c30.8,129.6,20.3,269.7,81.2,391.3l19.8-10.4c-58.6-116.4-45.8-249-74.5-373C2668.9,6244.3,2575,6154.2,2482.2,6064.5z"/>
		
			<linearGradient id="SVGID_00000161628573990209875840000011537300111328263043_" gradientUnits="userSpaceOnUse" x1="-1483.7777" y1="-278.46" x2="-1483.7777" y2="-47.8985" gradientTransform="matrix(0.464 0.8858 0.8858 -0.464 2074.8533 4842.7588)">
			<stop  offset="0" style="stop-color:#FFAB1C"/>
			<stop  offset="0.17" style="stop-color:#F0A11A"/>
			<stop  offset="0.48" style="stop-color:#CA8816"/>
			<stop  offset="0.92" style="stop-color:#8D5E0F"/>
			<stop  offset="1" style="stop-color:#80560E"/>
		</linearGradient>
		<path style="fill:url(#SVGID_00000161628573990209875840000011537300111328263043_);" d="M2547.6,6063.9
			c-88-91.1-175.2-181.2-217.3-303.1c-35-101.5-46.8-209.1-80.2-311.1c-16.4-50.1-38.1-97.8-69.3-140.6
			c-37.3-51.2-82.6-96.4-127.8-140.6c-49.4-48.5-100.3-95.5-147.5-146.4c-38.6-41.6-77.4-86.7-100.3-139.2
			c-46-105.6-36.6-227.5-48.1-339.6c-11.1-106.5-45.2-200.1-127.1-272.1c-36.6-32-77.9-58.6-113.3-92c-45-42.3-78.9-94.8-96.1-154.3
			c-44.7-154.4-4.7-327.2-76.4-474.6l0,0c-80.3-142.9-245.1-207.9-346.4-332.5c-39.1-48-63-105.9-72.2-167
			c-7.2-48.3-5.4-97.2-11-145.6c-12.5-108.4-70-189.7-151.3-259.5c-85.7-73.5-191.3-135-251.8-232.8
			c-30.2-48.8-45.2-106.3-57.4-161.7c-14.9-67.6-24.6-136.3-36.2-204.5c-10.6-62.3-22-125.2-42.9-185c-17.4-50-44.3-95-76.1-137.1
			c-64.8-85.3-146.6-156.4-210.1-242.9c-76.4-104.1-101-226.9-125.6-351.2c-24.7-124.7-46.5-259.4-136-356
			c-80-86.2-187.4-139.5-245.6-246.1l-19.8,10.4c59.1,108.6,169.3,165.3,250.8,253.8c89,96.8,110.5,229.3,134.1,354
			c23.3,123.6,47.1,245.7,123.6,348.8c63.9,86.3,146.9,156.3,212.3,241.6c72.8,94.9,98.7,203.5,117.8,319.6
			c11,66.9,20,134.3,34.2,200.7c11.9,55.3,26.8,112.5,57.1,160.9c60.7,97.5,164.4,159.9,249.3,233.8
			c80.7,70.3,138.4,151.5,150.6,259.9c5.5,48.8,3.6,98.1,10.8,146.9c9.1,61.2,33.1,119,72.1,167.2
			c101.6,125,265.5,192.3,346.3,335.3c72.8,150,33,326,81.1,482.6c18.1,58.7,52,110.1,97.1,151.6c34.9,32.2,75,58.1,110.9,89.1
			c83.7,72.6,117.8,167.3,129.7,275.2c12.2,111.3,4.3,232.1,50.3,336.7c48.5,110.5,155.1,193.6,240,275.3
			c86.1,82.9,163,166.8,200.4,282.5c33.4,103.6,43.5,213.2,79.2,316.3c41.1,118.7,125.7,206.2,212.3,293.9
			c90.5,91.6,189.1,185.8,218,316.1c26.1,117.1,10.3,239.6,65.7,349.6l19.8-10.4c-54.5-108.4-37.2-227-62.6-342
			C2734.3,6249.8,2636,6155.2,2547.6,6063.9z"/>
		
			<linearGradient id="SVGID_00000039828042621304112540000004026356728919427768_" gradientUnits="userSpaceOnUse" x1="-1483.3527" y1="-221.4563" x2="-1483.3527" y2="7.6231" gradientTransform="matrix(0.464 0.8858 0.8858 -0.464 2074.8533 4842.7588)">
			<stop  offset="0" style="stop-color:#FFAB1C"/>
			<stop  offset="0.17" style="stop-color:#F0A11A"/>
			<stop  offset="0.48" style="stop-color:#CA8816"/>
			<stop  offset="0.92" style="stop-color:#8D5E0F"/>
			<stop  offset="1" style="stop-color:#80560E"/>
		</linearGradient>
		<path style="fill:url(#SVGID_00000039828042621304112540000004026356728919427768_);" d="M2595.2,6033.7
			c-86.8-85.8-170.5-172.4-211-290.2c-35.7-103.8-44.5-214.5-77.9-318.8c-37-115.7-115-200-200.5-283.3
			c-47.1-46-95.4-90.7-140.2-138.9c-38.3-41.3-76.9-85.8-99.7-137.9c-46.2-105.8-40.1-228.4-53.5-340.8
			c-6.7-55.2-16.3-112-40.8-162.6c-21.3-43.8-53.4-81.8-89.5-114.2s-75.8-59.8-110.8-93.2c-44.6-42.4-78.9-93.3-97-152.5
			c-47.7-155.1-10.5-328.3-81.7-477.4l0,0c-80.9-141.2-241-208.5-341.6-332.5c-39.4-48.6-62.8-106.1-72.9-167.6
			c-8-49.4-7.7-99.7-14.2-149.2c-6.2-46.7-18.8-92.9-41.6-134.3c-27.1-49.3-68.2-89.9-109.9-126.9c-85.2-75.6-189.5-140.4-251-238.7
			c-30.2-48.2-44.9-105.7-57.1-160.7c-14.7-66.7-24.2-134.4-35.7-201.8c-19.7-115.8-45.4-225.4-118.4-320
			c-66.1-85.6-150.5-155.2-215.1-242c-76.1-102.1-99.4-222.7-121.1-345.4c-22-124.5-43.4-254.4-131.9-350.9
			c-80.8-88.2-189.5-144.7-248.6-252.6l-19.8,10.4c58.3,106.3,165.1,159.6,245,246.1C-51.9,854.7-30,988.6-5.8,1113.4
			c24.2,124,48.6,246.5,124.9,350.3c63.7,86.6,146,157.5,211.1,243c72.8,95.8,98.7,205.3,118.9,322c11.8,68.3,21.8,137.1,36.7,204.8
			c12.2,55.3,27,112.9,57.1,161.5c60.9,98,166.6,160.5,252.3,234.5c42.2,36.3,83.3,76.6,110.2,125.8c22.6,41.4,35.4,86.9,40.9,133.5
			c6,48.7,4.8,97.9,12.2,146.4c9.4,61.2,33.1,118.9,72.3,167c101.3,124.2,264.5,189.6,345.2,331.8c71,147.4,32.1,319.1,76.6,473.2
			c17.3,59.7,51.1,111.8,96.1,154.5c35.6,33.7,76.8,60.8,113.4,93.4c35.1,31.1,65.3,67.6,86.4,109.7
			c25.1,50.1,34.8,106.9,40.7,162.2c11.9,112.5,3.2,234.9,49.1,340.8c22.8,52.5,61.6,97.5,100.2,139c47.3,50.9,98,98.2,147.5,146.8
			c84.5,83,159.7,166.6,197,281.1c33.3,102.2,44.7,210.1,79.6,311.9c41.9,121.8,128.6,211.7,216.9,302.1
			c88.7,91.1,186.3,185.1,214.9,313.7c25.4,114.9,8.7,233,62.9,341.5l19.8-10.4c-54.7-109.7-39.8-230.7-65.8-346.9
			C2782.7,6216.4,2686.4,6123.9,2595.2,6033.7z"/>
		
			<linearGradient id="SVGID_00000087407582505341803290000006690258266981390981_" gradientUnits="userSpaceOnUse" x1="-1483.6714" y1="-151.0325" x2="-1483.6714" y2="49.3145" gradientTransform="matrix(0.464 0.8858 0.8858 -0.464 2074.8533 4842.7588)">
			<stop  offset="0" style="stop-color:#FFAB1C"/>
			<stop  offset="0.17" style="stop-color:#F0A11A"/>
			<stop  offset="0.48" style="stop-color:#CA8816"/>
			<stop  offset="0.92" style="stop-color:#8D5E0F"/>
			<stop  offset="1" style="stop-color:#80560E"/>
		</linearGradient>
		<path style="fill:url(#SVGID_00000087407582505341803290000006690258266981390981_);" d="M2772.5,6128.4
			c-38.6-48.1-86.4-87.5-133.3-127c-87.9-73.8-166.3-149.5-200.7-262.3c-32.8-107.7-34.3-222.2-64.6-330.6
			c-31.8-113.8-107.8-195.6-191.7-275.4c-82-78.2-181.6-156.5-229.3-262.3c-48.7-107.9-52.3-232.2-72.7-347.2
			c-10-56.1-22.4-113.4-47.8-164.8c-22.5-45.6-55.4-85.4-91.8-120.8c-83.9-81.5-176.7-147.7-215.2-263.8
			c-50.9-153.8-26.6-325.8-98.2-473.8l0,0l0,0l0,0c-78.2-138.7-228.9-212.3-325.1-336c-76.6-98.9-77.6-215.4-97.7-333
			c-8.3-48.5-21.9-96.4-45.6-139.9c-27.4-50.4-67.4-93.6-107.8-133.8c-83.2-82.8-183.4-156.6-245.2-258.3
			c-61.5-101.1-68.5-231-86.7-345.2c-17.9-112.6-42.7-219.2-117.1-308.7c-71-85.4-162.8-151-232.3-237.8
			c-75.6-94.3-93-203.6-103.8-320.6c-5.5-59.2-10.8-119.1-27.6-176.4C21.3,852.6-9.2,801.7-49.2,756.3
			c-85.9-97.2-201.5-166.5-265.2-282.4l-19.8,10.4C-272.6,596.5-160,660.5-76.3,753.6C9.8,849.5,30,969.4,46.3,1093.2
			c15.6,119.5,35.7,234,111.4,331.6c67.3,86.9,156,154.1,224.9,239.6c73.8,91.6,98.8,200,117.6,313.8
			c19.1,115.8,26.1,250.4,89.4,352.7c61.8,100,163.6,170.1,247.7,249.8c41,38.8,81.5,80.8,108.8,130.6
			c23.2,42.4,36.4,89.7,43.8,137.2c8,51.8,9.6,104.3,19,155.9c11.4,62.2,34.7,120.3,74,170c98.2,123.8,252.8,195,332.3,334.5
			c71.2,148.5,41.6,321,90.9,475.4c36.8,114.8,128.4,177.1,211.9,255.9c36.1,34,68.7,72.9,90.6,117.8c24.9,51,36.1,108.1,44.7,163.8
			c17.4,113.9,17,237.5,64.4,344.5c47.7,107.8,151,188.7,233.9,268.7c84.3,81.3,161.7,164.3,195.6,278.9
			c31.6,106.8,36.3,219.5,70.3,325.6c36.8,115,118.1,195.5,205.3,274.5c93.7,84.9,182.6,170.5,212.7,297.9
			c28.6,121.4,17.4,250,74.3,364.3l19.8-10.4c-59-118-50.2-252-81-377.6C2834.4,6229.7,2810.2,6175.6,2772.5,6128.4z"/>
		
			<linearGradient id="SVGID_00000168089574626447941770000005410484719910750884_" gradientUnits="userSpaceOnUse" x1="-1483.4507" y1="-73.6505" x2="-1483.4507" y2="88.128" gradientTransform="matrix(0.464 0.8858 0.8858 -0.464 2074.8533 4842.7588)">
			<stop  offset="0" style="stop-color:#FFAB1C"/>
			<stop  offset="0.17" style="stop-color:#F0A11A"/>
			<stop  offset="0.48" style="stop-color:#CA8816"/>
			<stop  offset="0.92" style="stop-color:#8D5E0F"/>
			<stop  offset="1" style="stop-color:#80560E"/>
		</linearGradient>
		<path style="fill:url(#SVGID_00000168089574626447941770000005410484719910750884_);" d="M2803.8,6061.9
			c-34.8-38.9-79.4-66.6-123.2-94.3c-40.9-25.8-82-52.1-115.1-87.7c-36.6-39.2-58.4-87-71.5-138.5c-28.9-113.1-22-231.7-47.9-345.3
			c-25.5-111.7-97.5-189.5-179.4-265.2c-79.3-73.2-168.4-144.3-215.8-243.6c-53.1-110.7-67.9-237.2-97.1-355.3
			c-14.1-57.4-30.4-115.2-57.5-168c-24.7-48.3-58-90.7-95.1-129.9c-85.3-89.9-180.7-166.8-224.9-286.8
			c-55.9-152-45.8-323-119.8-469.1l0,0l0,0l0,0l0,0c-74.1-136.7-214.7-217.3-304.5-341.7c-76.4-105.7-84-231.6-110.3-354.8
			c-11-51.4-26.9-101.6-51.9-147.9c-28.3-52.6-66.9-99.2-106.3-143.8c-79.9-90.3-173.9-173.8-234.7-279.2
			c-55.5-95.9-63.3-210.5-78.4-318c-15.7-111.3-39.2-215.2-117.5-300c-78.3-84.8-178.4-146.3-254.3-233.4
			c-35.3-40.4-62.3-85.7-74-138.5c-10.5-47.8-8.5-97.1-6.4-145.6c2.2-50.3,4.6-101.2-6.6-150.7c-14-61.6-50.1-114.1-90.7-161.2
			c-92.3-107-213.8-190.9-282.8-316.5l-19.8,10.3C-215,578.5-96.6,656.7-7,759.1c41.1,46.9,75.5,99.5,91,160.8
			c13.2,52.5,13.8,107,14.6,160.8c0.8,52,1.5,104.5,14.1,155.3c13.1,53,39.7,99.6,74.6,141.2c73.3,87.2,170.3,150.4,246,235.3
			c77.8,87.1,101.4,193.4,118,306.1c16.2,109.5,23.7,229,81.4,326.4c61.1,103.2,156.6,182.9,237.5,269.8
			c40.1,43,79.1,88.2,107.5,140.1c24.7,45.2,39.9,94.7,49.8,145c24,120.9,28.8,243.8,105.2,346.8c92.2,124.4,236.9,202.4,312.7,340
			c73.1,146.8,57.5,318.2,111.5,470.9c41.9,118.5,136.5,191.3,221.2,278c36.9,37.7,70,79.2,93.8,126.4
			c26.5,52.3,41.2,109.9,53.7,166.8c25.8,117,36.5,242.5,87.7,352.2c47.7,101.8,140.7,175.6,221,250.8
			c82.6,77.2,156.2,156.7,184.1,269.2c27.5,111.6,23.8,228.6,54.2,339.7c14.3,52.1,37.4,100.1,73.3,140.6
			c34.4,38.9,76.8,69.3,118.8,99.4c45,32.2,90.8,64.5,127,106.8c39.5,46,62.1,101.7,77.2,159.8c34.4,133.1,30.4,276.6,92.9,401.7
			l19.8-10.4c-64.8-129.6-63.6-278.8-100.4-416.8C2866,6163.9,2844.3,6107,2803.8,6061.9z"/>
		
			<linearGradient id="SVGID_00000124843166366600702140000017987312286304619686_" gradientUnits="userSpaceOnUse" x1="-1483.4958" y1="-27.7856" x2="-1483.4958" y2="155.0818" gradientTransform="matrix(0.464 0.8858 0.8858 -0.464 2074.8533 4842.7588)">
			<stop  offset="0" style="stop-color:#FFAB1C"/>
			<stop  offset="0.17" style="stop-color:#F0A11A"/>
			<stop  offset="0.48" style="stop-color:#CA8816"/>
			<stop  offset="0.92" style="stop-color:#8D5E0F"/>
			<stop  offset="1" style="stop-color:#80560E"/>
		</linearGradient>
		<path style="fill:url(#SVGID_00000124843166366600702140000017987312286304619686_);" d="M2838.9,6001.1
			c-31.7-31.8-72.9-49-113.9-65.7c-37.9-15.5-76.2-31.6-106.8-59.6c-39.6-36.4-59.1-86.5-70-138.1
			c-24.8-117.5-10.4-239.3-32.8-357.1c-20.2-106.8-86.4-180.9-164.9-251.6c-77.6-69.7-160-135-207.5-230.1
			c-56.6-113.2-81.7-240.5-118.2-360.9c-35.1-115.4-81.5-217.4-162.1-308.2c-87.4-98.5-186.3-185.2-235.9-310.9
			c-59.4-150.5-62.6-319-138-463.8l0,0l0-0.1l0-0.1l0,0c-71-134.4-201.1-221.5-285.9-345.7c-76.4-111.9-90.6-244.8-122.2-373
			c-28.7-117-86-212.6-160.3-306.4c-77.7-98.1-167.4-190.7-228.3-300.6c-51.3-92.4-58.9-196.2-71.8-299.1
			c-13.5-108.1-36.9-207.2-116.2-286.4c-84.1-84.2-191.7-141.6-273.3-228.6c-35.4-37.7-64.7-81.2-72.5-133.1
			c-6.3-41.6,2.3-82.8,11.3-123.1c9.3-41.9,18.4-84.5,11.6-127.5c-9.9-61.9-51-115.3-90.2-162.3c-97.9-117.4-226.5-213.8-301-349.5
			l-19.8,10.4c72.7,132.3,198.9,224.4,295,338.4c39.7,47.1,79,99.9,90.3,161.8c8.3,45.2,1.6,90.7-5.4,135.4
			c-6.6,43.2-13,87.2-5.2,130.8c9.2,52.3,37.6,96.1,72.9,134.7c79.6,87.1,184.6,146,266.7,230.2c79,81.1,102.5,181.7,116.8,290.9
			c13.7,104.5,21.3,211.7,73.9,305.5c60.9,108.5,152,198,230.6,293.4c75.3,91.5,132.4,185.6,159.7,301.6
			c29.8,126.5,41.7,257,118,366.9c86.4,124.3,220.4,209.1,292.2,344.3c75,145,73.5,314.4,131.6,465.2
			c47.9,124.3,146.1,207.9,233.1,303.9c80.8,89.2,125.9,190,158.5,305c33.9,119.5,55.5,246.4,111.1,358.5
			c48,97,133.2,164.4,211.6,235.7c79.1,71.9,146.3,146.7,168.1,254.4c23.5,116.2,11.9,236.8,37.9,352.7
			c11.7,52.2,32.1,101.7,71.1,139.5c31.5,30.4,70.7,50,109.7,69c41.8,20.4,84.1,41.5,116.8,75.5c41.7,43.4,62.1,103.3,77.8,160.4
			c39.7,144.6,43.2,302,111.1,437.9l19.8-10.4c-69.6-139.5-75.3-301.2-116.8-449.5C2901.2,6105.1,2881.4,6043.6,2838.9,6001.1z"/>
		
			<linearGradient id="SVGID_00000067934053437653433010000009927533522753503402_" gradientUnits="userSpaceOnUse" x1="-1483.7158" y1="22.4515" x2="-1483.7158" y2="219.3734" gradientTransform="matrix(0.464 0.8858 0.8858 -0.464 2074.8533 4842.7588)">
			<stop  offset="0" style="stop-color:#FFAB1C"/>
			<stop  offset="0.17" style="stop-color:#F0A11A"/>
			<stop  offset="0.48" style="stop-color:#CA8816"/>
			<stop  offset="0.92" style="stop-color:#8D5E0F"/>
			<stop  offset="1" style="stop-color:#80560E"/>
		</linearGradient>
		<path style="fill:url(#SVGID_00000067934053437653433010000009927533522753503402_);" d="M2882.7,5957.1
			c-30.4-29.3-69.6-41-109.4-51.4c-36.8-9.8-73.3-20.5-102.6-45.9c-40-34.9-60-87.4-70-138.2c-23.8-119.8-4.3-243.6-25.2-363.7
			c-37.7-215-273.8-286.6-363.8-470.5c-56.5-115.5-87.8-242.6-128.3-364.2c-20.1-59.9-40.9-120.5-70.2-176.5
			c-25.4-49-59.1-92.8-95.1-134.6c-87.8-101.8-188-192.8-239-320.3c-60.1-150.3-72.7-316.7-146.2-462.1l0,0l0-0.1l0-0.1l0,0
			c-71.8-132.5-195.1-224.6-278.4-348.6c-75.9-112.9-93.3-247.8-126.5-376.8c-13.9-53.9-31-107.5-57.3-156.9
			c-29-54.8-65.8-105.4-103-154.9c-76.6-102.5-162.9-200.4-226.4-312.1c-51.1-89.9-57.9-190.7-69.5-291.3
			c-12.2-106.6-36.3-205.6-115.8-282.4c-87.3-84.3-199.9-138.6-283.8-227.1c-34.9-36.7-65.4-82.2-71-133.5
			c-4.3-39.2,8.1-75.7,21.2-112c13.7-38,25.9-76.2,19.5-116.9c-9.4-60.1-51.8-113.2-89.3-158.8C51.7,635.4-80.8,532.8-158,392.2
			l-19.8,10.4C-101.2,541.9,30,643.2,130.3,764.5c38.6,46.6,82,100.9,90.5,163c5.5,40.8-6.3,79.8-18.9,118.2
			c-12.1,37-23.4,74.8-18.4,114.2c6.7,51.6,37.1,95.7,72.4,132.4c83.6,87.3,194.3,142.6,280.8,226.7c79.3,77.2,103,175.5,115.3,282
			c11.7,100.9,19,201.5,69.3,292c62.1,111.4,149.3,207.8,226,308.9c37.5,49.3,74.1,99.8,103.2,154.6
			c26.2,49.4,43.8,102.1,57.7,156.1c33.5,130.1,50.1,265.7,126.8,379.7c83.4,123.7,208.2,214.3,279.1,347.2
			c74.7,145,84.5,312.2,144.8,462.4c51.1,127.1,150.9,217.2,238.6,318.6c36.1,41.7,69.4,85.6,95.1,134.6
			c29.5,56.2,50.5,116.4,70.1,176.5c39.6,121.3,69.3,248.8,126.3,363.5c91.5,183.9,326.9,257.1,364.9,472.3
			c21.1,119.6,3,243,26.9,362.3c10.2,51,29.4,102.5,69.5,137.5c29.5,25.8,66.5,37.8,103.5,48.8c39.9,12,79.5,25,110.3,54.4
			c43.3,41.6,62.6,105.2,78.6,161.3c43.5,152.3,51.6,319,123.1,462.2l19.8-10.4c-72-143.9-80.7-312-124.4-465.1
			C2945.3,6062.7,2926,5998.7,2882.7,5957.1z"/>
		
			<linearGradient id="SVGID_00000145035330936748273550000000562231847066117291_" gradientUnits="userSpaceOnUse" x1="-1483.123" y1="83.0354" x2="-1483.123" y2="272.4562" gradientTransform="matrix(0.464 0.8858 0.8858 -0.464 2074.8533 4842.7588)">
			<stop  offset="0" style="stop-color:#FFAB1C"/>
			<stop  offset="0.17" style="stop-color:#F0A11A"/>
			<stop  offset="0.48" style="stop-color:#CA8816"/>
			<stop  offset="0.92" style="stop-color:#8D5E0F"/>
			<stop  offset="1" style="stop-color:#80560E"/>
		</linearGradient>
		<path style="fill:url(#SVGID_00000145035330936748273550000000562231847066117291_);" d="M2951.1,5948.9
			c-32.8-32.6-75.8-50.4-117.9-67.3c-39.3-16-79-32.4-110.7-61.3c-39.7-36.2-59.2-86.7-70.1-138.2c-24.9-117.2-11-238.9-33.5-356.6
			c-20.1-104.9-84.6-179.1-161.4-249.2c-74.9-68.3-154.7-133-200.5-225.7c-56.9-115.2-85.5-243.5-124.6-365.3
			c-19.3-60.2-39.9-120.6-69.2-176.9c-25.4-48.4-58.3-91.8-94.7-132.5c-88-98.7-187.8-185.2-237.5-311.4
			c-59.3-150.7-60.8-319.5-136.2-464.4l0,0l0-0.1l0-0.1l0,0c-71.1-134.7-202.4-220.9-287.6-345c-77-112.2-90.5-245.8-121.6-374.6
			c-13-53.6-30.2-105.8-56.3-154.6c-29.3-54.6-66.3-105-103.9-154c-77.6-100.9-165.9-197-228.5-308.4c-50.4-89.7-58.8-191-72.1-291
			c-14-106.2-38.5-204-116.3-282.2c-83.9-84.2-191-141.8-272.3-228.8c-35.3-37.7-64.8-81.4-72.6-133.2
			c-6.4-42.9,2.9-85.6,12.2-127.4c9.7-43.3,19.5-87.4,12.5-131.8c-9.6-61.8-50.8-115.6-90.4-161.9
			c-98.8-115.2-230.6-206.6-303.7-342l-19.8,10.4c74.8,138.3,207.1,235.4,306.8,354.3c38.8,46.4,81.6,100.8,90.4,162.5
			c6.1,42.2-5.3,83.3-16.8,123.6c-11,38.9-21.8,78.6-16.4,119.4c7,51.6,37.3,95.2,72.3,132.2c82.8,87.2,192.1,143.4,277.8,227.5
			c78.8,77.5,102.7,175.4,115.8,281.8c12.4,100,20,201,70.3,290.7c62.6,111.6,149.9,208.3,227,309.7
			c37.4,49.3,74.2,99.7,103.4,154.5c26.3,49.1,43.7,101.8,57.3,155.5c32.7,129.7,48.1,264.7,124.9,378.3
			c83.9,124,211.6,212.6,282.2,346.4c75.4,144.7,81.6,312.8,141.8,463.2c50.8,126.9,150.5,215.7,238.6,316.2
			c36.3,41.4,69.5,85.2,95,134c29.3,56.3,50.2,116.5,69.9,176.6c39.7,121.7,69.6,249.4,126.6,364.7c45.8,92.8,125.9,156.4,201.3,224
			c77.5,69.4,142.4,143.3,161.5,248.7c21.5,119,5,241.6,29.4,360.3c10.4,50.9,29.4,102.2,69.3,137.5c30.5,27,68.7,40.5,106.6,53.5
			c40.8,13.8,82,28.5,113.5,59.2c43,41.7,62.7,104.7,78.3,161c41.8,150.6,45.8,315.8,117.5,457l19.8-10.4
			c-70.2-138.1-69.9-299.7-109.2-447.2C3013.6,6052.9,2993.6,5991.2,2951.1,5948.9z"/>
		
			<linearGradient id="SVGID_00000165196043952928204690000002975355579008782989_" gradientUnits="userSpaceOnUse" x1="-1483.453" y1="152.0195" x2="-1483.453" y2="342.4567" gradientTransform="matrix(0.464 0.8858 0.8858 -0.464 2074.8533 4842.7588)">
			<stop  offset="0" style="stop-color:#FFAB1C"/>
			<stop  offset="0.17" style="stop-color:#F0A11A"/>
			<stop  offset="0.48" style="stop-color:#CA8816"/>
			<stop  offset="0.92" style="stop-color:#8D5E0F"/>
			<stop  offset="1" style="stop-color:#80560E"/>
		</linearGradient>
		<path style="fill:url(#SVGID_00000165196043952928204690000002975355579008782989_);" d="M3035.4,5957.4
			c-38.2-40.6-87-69-134.5-97.2c-44.3-26.4-89.4-53.2-125.7-90.4c-37.7-38.9-59.7-87-73.2-139.1c-29.1-112.7-22.6-231.1-48.8-344.5
			c-24.4-105.3-89.5-182.6-165.7-256.1c-72.4-69.9-149.6-137.3-194.1-229.5c-56.2-116.1-80.9-246.3-117.5-369.2
			c-17.5-58.8-36.2-118-64.3-172.7c-25-48.8-59.1-91.5-96.8-130.8c-87-90.5-185.9-167.9-230-290c-55.3-152.5-41.9-324.1-115.9-470.8
			l0,0l0,0l0,0l0,0c-74.6-137.2-217.6-215.8-308.4-340c-78.1-106.8-84.1-236-110-361c-10.9-52-26.4-102.9-51.8-149.8
			c-29.4-54.6-67.6-104-106.3-152.2c-79.6-99.1-171-192.8-234.5-303.7c-51.2-89.5-62.7-192-79-292.1
			c-17.2-105.3-44-203.4-117.8-283.6c-77.9-84.7-177.5-146.6-253.1-233.7c-35.4-40.9-62.8-86.6-73.3-140.1
			c-10.1-51.3-6.2-104.1-2.6-156c3.7-53.7,8-108.3-2.8-161.4c-12.5-62.1-48.6-114.5-91.4-159.8C143,533.1,14.6,461.6-53.6,337.7
			L-73.4,348c70.2,128.8,200.1,208.5,296.5,315.2c41.5,45.8,79.5,98.6,91,160.6c9.2,49.4,2.6,99.9-3.5,149.3
			c-5.9,47.6-12,96.4-3.4,144.1c9.4,52.9,37.7,97.5,73.1,137c77.9,87,180.6,147.2,261,231.7c75.6,79.3,101.3,177.2,117.2,282.9
			c15.1,99.9,25.4,202,76.2,291.6c63,111.2,153.2,205.9,232,305.7c38.2,48.5,76,98.4,105.3,152.9c25.7,47.8,42,99.1,53.6,151.8
			c28.1,126.5,37.2,257.6,114.8,366.7c88.3,124.3,226.8,205.9,299.8,342.2c74.7,145.5,67.5,315.9,124,467.4
			c46.6,124.7,146.7,206.3,234.7,300.9c36.5,39.2,69.1,81.3,94,128.7c29.3,56.2,49,117,67.5,177.4
			c37.4,122.2,63.9,251.3,120.2,366.6c45.4,93,124.7,159.7,198.7,229.4c75.5,71.4,139.2,146.6,161.7,250.5
			c24.8,114.8,15.3,234.3,42.3,348.7c12.5,52.8,33.7,102.6,73.1,141c34.5,33.5,77.4,56,119.6,78c45.2,23.6,91.4,47.6,127.1,85
			c41.7,43.5,62.6,102.5,76.3,160.1c33.7,140.8,24.6,294.3,91.1,426.1l19.8-10.4c-63.8-127.9-48.3-275.8-78.5-412.2
			C3098.5,6058.5,3077,6001.7,3035.4,5957.4z"/>
		
			<linearGradient id="SVGID_00000106829748549338782220000007327611487645074322_" gradientUnits="userSpaceOnUse" x1="-1483.1743" y1="224.4263" x2="-1483.1743" y2="413.4692" gradientTransform="matrix(0.464 0.8858 0.8858 -0.464 2074.8533 4842.7588)">
			<stop  offset="0" style="stop-color:#FFAB1C"/>
			<stop  offset="0.17" style="stop-color:#F0A11A"/>
			<stop  offset="0.48" style="stop-color:#CA8816"/>
			<stop  offset="0.92" style="stop-color:#8D5E0F"/>
			<stop  offset="1" style="stop-color:#80560E"/>
		</linearGradient>
		<path style="fill:url(#SVGID_00000106829748549338782220000007327611487645074322_);" d="M2972.4,5840.3
			c-49.7-37.4-100.6-75-142.3-121.8c-37.6-42.1-63-90.9-79.5-144.6c-33-107.6-35-221.7-65.4-329.8c-29-103-92.9-182.9-166.4-258.4
			c-70.7-72.7-146.8-143.4-190.7-236.6c-54.9-116.7-75.6-248-109.3-371.6c-16.1-58.9-33.4-118.9-61-173.6
			c-23.7-46.8-57.6-87-95.2-123.1c-86.6-82.9-186-150.7-224.5-270.3c-49.9-154.7-20.8-327.8-92.5-476.4l0,0l0,0l0,0
			c-79-139.3-233.2-209.9-330.8-333.3c-79.7-100.7-78.2-223.8-97.8-344.5c-8.1-50-21.5-99.1-45.4-143.9
			c-28.8-54.1-68.3-102.6-107.6-149.3c-82.7-98.5-179.2-190.7-244.5-302.5c-53-90.8-67.4-196.1-87.6-297.6
			c-20.2-102-50-198.2-117.4-279.4c-70.7-85.3-162-151.3-231.1-238c-36.3-45.6-63.4-96.2-76.4-153.4c-14.1-61.3-16-124.8-18.5-187.4
			c-5-126.4-12.2-253.3-109-346C188.6,471.6,62.5,424.3-1.8,310.5l-19.8,10.4c66,118,194.1,174.5,286.5,267.5
			c43,43.2,74.2,93.4,88.3,153.1c13.9,59.3,13.6,120.8,13.9,181.4c0.2,58.6,0,118,12.4,175.6c12.2,56.4,39.5,105.8,76.1,150.2
			c71.5,86.6,165.8,150.9,239.1,236.1c69.1,80.4,97.9,176.4,116.9,278.8c18.9,101.5,32,206.2,84.6,297.1
			c64.9,112.1,160,205.2,241.9,304.5c38.9,47.2,77.8,95.9,106.6,150.1c24.3,45.7,38.4,95.4,47.4,146
			c21.8,122.2,23.2,247.3,102.4,350.2c95.1,123.4,244.9,197.1,322.2,335.5c72.4,148,49.3,320.5,101.2,474.4
			c40.6,120.4,139.8,191.9,226.5,277.6c37.7,37.3,71.7,78.4,95.8,126c27.9,54.6,45.5,114.4,62.2,173.3
			c34.8,123.4,57,254.3,112.4,370.8c44.1,92.7,120.5,162.2,191.9,233.9c74.3,74.7,138.8,153.6,166.1,257.6
			c28.9,110,27.6,225.8,59.2,335.3c15.3,53.1,39.6,101.6,77.2,142.6c39.6,43.2,88.4,76.8,136.2,110.2
			c51.2,35.7,103.8,71.4,145.5,118.2c40.7,45.5,63.8,99.9,74.7,159.7c23.3,128.6-2.6,265.6,56.6,386.7l19.8-10.4
			c-56.8-117.3-24.2-247.5-43.6-371.6C3177.3,5996.2,3074.8,5917.5,2972.4,5840.3z"/>
		
			<linearGradient id="SVGID_00000122685196869206163870000016109201357446382508_" gradientUnits="userSpaceOnUse" x1="-1483.6901" y1="295.0115" x2="-1483.6901" y2="485.4453" gradientTransform="matrix(0.464 0.8858 0.8858 -0.464 2074.8533 4842.7588)">
			<stop  offset="0" style="stop-color:#FFAB1C"/>
			<stop  offset="0.17" style="stop-color:#F0A11A"/>
			<stop  offset="0.48" style="stop-color:#CA8816"/>
			<stop  offset="0.92" style="stop-color:#8D5E0F"/>
			<stop  offset="1" style="stop-color:#80560E"/>
		</linearGradient>
		<path style="fill:url(#SVGID_00000122685196869206163870000016109201357446382508_);" d="M3039,5818.7
			c-99-84.6-194.9-167.9-238.4-294.2c-35.7-103.6-45-214.1-78.5-318.3c-32.6-101.5-94.8-183-166.4-260.3
			c-69.3-74.8-144.5-148.3-188-241.9c-54.4-116.9-71.6-249.5-102.9-373.6c-14.9-59.2-31.1-119.6-58.7-174.4
			c-23-45.4-56.3-84-94.1-117.7c-86.9-77.1-185.5-136.9-220.7-255.3c-46.5-156.2-3.6-330.5-74.8-480.7l0,0
			c-81.6-142-246.1-205.6-348.5-329.2c-80.8-97.5-73-215-87.7-333c-6-48.8-18.5-96.6-41.8-140c-28.9-54-69.4-101.9-109.4-147.8
			c-84.6-96.9-183.9-186.8-249.7-298.5c-53.7-90.8-70.8-197.1-93.5-298.6s-54.6-197.3-118.9-280.6c-65.9-85.6-150-155.4-214.4-242.3
			c-35.7-48.1-62.3-100.3-77-158.5c-17.8-69.4-24.2-141.3-31.4-212.3c-12.9-126.6-18.4-280.9-122.7-369.8
			C232.4,416,111.4,390,50.3,282.9l-19.8,10.4c62,108.8,185,141.9,274.4,221.1c102,90.6,107.8,235.3,118.4,362.2
			c5.8,68.3,10.6,137.6,27.4,204.4c14.4,57.8,41.1,110,77,157.3c65.9,86.8,152.4,155.2,219.8,240.8
			c65.1,82.6,96.3,178.7,118.2,280.3c21.8,101.6,38.1,207.4,91.7,298.2c120,203.4,365.8,340.9,399.7,589.1
			c16.1,118.7,10.5,238.1,90.9,336.5c100.9,123.5,261.7,189.6,342.9,330.5c71,149.8,32.9,323.5,80.4,479.3
			c36,118.6,135,181,221.8,260c186.7,169.7,158.5,451,258.8,666.4c43.5,93.7,119.2,166.1,188.9,240.2
			c72.1,76.7,135.1,157.7,166.5,259.6c32.5,105.5,39.2,217.2,74.3,322.1c41.5,124.4,135.1,204.6,233.4,285.6
			c99.7,82.1,217.9,170.1,234,307.6c13.9,118.2-28.4,237.6,25.6,350.3l19.8-10.4c-53.2-111-5.9-224.9-17.2-340.6
			C3263.4,5995.7,3137.1,5902.5,3039,5818.7z"/>
		
			<linearGradient id="SVGID_00000007408790248274704700000008499639597939297173_" gradientUnits="userSpaceOnUse" x1="-1483.5732" y1="358.6171" x2="-1483.5732" y2="547.3259" gradientTransform="matrix(0.464 0.8858 0.8858 -0.464 2074.8533 4842.7588)">
			<stop  offset="0" style="stop-color:#FFAB1C"/>
			<stop  offset="0.17" style="stop-color:#F0A11A"/>
			<stop  offset="0.48" style="stop-color:#CA8816"/>
			<stop  offset="0.92" style="stop-color:#8D5E0F"/>
			<stop  offset="1" style="stop-color:#80560E"/>
		</linearGradient>
		<path style="fill:url(#SVGID_00000007408790248274704700000008499639597939297173_);" d="M3092.7,5790.6
			c-54.9-48.2-111-96.2-158.4-151.9c-37.5-44.1-63.5-92.9-82.6-147.5c-36.1-103-48.1-212.6-82.2-316.3
			c-33.3-101.5-94.6-182.7-166-260.7c-69.1-75.3-143.8-149.1-187.9-242.7c-100.3-213.1-62.2-497.2-252.3-663
			c-87.3-76.1-185.3-134.4-220.3-252.7c-46.2-156.4,0-331.2-71.9-481.5l0,0c-81.5-142.9-248.4-204.6-351.4-328.4
			c-40.9-49.3-63.7-108.7-72.9-171.6c-7.8-52.8-6.7-106.4-12.8-159.5c-28.9-248.7-282.6-379.7-400.7-581.9
			c-53.3-91.4-71.2-197.2-94.4-298.9c-23.2-101.7-55.6-196.6-119.3-280.6c-65-85.7-146.9-157.3-210.7-244.1
			c-35.5-48.2-62-99.7-77-157.8c-18.5-71.3-26-145.2-34.4-218.3c-14.6-126.3-19.7-286.7-125.3-374.9
			c-88.9-74.1-209.6-95.3-270.1-202.5l-19.8,10.4c30.4,54.2,75.6,89.8,129.8,118.5c46.7,24.8,96.4,45.3,137.6,79.1
			C457.7,552.7,462,718.5,477.4,846.5c8.7,73.1,16.6,147.1,35.6,218.3c15,55.9,40.2,104.8,74.1,151.5
			c63.9,88,146.3,160.4,211.9,247.1c64.6,85.4,96.3,182,120.3,285c23.1,99.4,41.3,203.3,93.2,292.6
			c64.7,111.5,165.3,200.4,250.1,296.2c76.1,86.1,140.3,174.1,152.8,291.3c5.5,50.9,4.2,102.1,11.1,152.9
			c8.5,62.4,30.5,121.7,70,171.2c102.1,127.3,274.5,186.5,356,332.1c3.2-1.7,5.9-3,8.1-4.3c-2.4,1.3-4.9,2.6-8.1,4.3
			c73.2,149.9,23.8,325.3,70.3,481.7c18.1,60.8,54.5,112.5,100.9,154.9c37.7,34.5,80.7,62.8,119.4,96.1
			c89.2,77,125,179.8,152.4,291.4c30.5,124.2,46.4,257.4,101.1,374.2c44,93.5,119,167.7,187.6,243.2
			c71.2,78.4,132.5,159.4,166,261.2c33.9,103.1,46.6,212.2,82.5,314.8c19.1,54.4,44.9,103.2,82.4,147.2
			c47.8,56.2,104.1,104.8,159.2,153.5c96.4,85.5,230.3,183.4,241.7,322.6c4.3,53.2-7,105.7-13.3,158.2
			c-7.2,60.9-3.8,118.4,23.5,174.2l19.8-10.4c-53.5-110.3-2.7-221.4-12.6-336.2C3321.4,5972.2,3189.7,5875.6,3092.7,5790.6z"/>
		
			<linearGradient id="SVGID_00000021804418994628764260000018266947607008863897_" gradientUnits="userSpaceOnUse" x1="-1483.4912" y1="414.7216" x2="-1483.4912" y2="598.4481" gradientTransform="matrix(0.464 0.8858 0.8858 -0.464 2074.8533 4842.7588)">
			<stop  offset="0" style="stop-color:#FFAB1C"/>
			<stop  offset="0.17" style="stop-color:#F0A11A"/>
			<stop  offset="0.48" style="stop-color:#CA8816"/>
			<stop  offset="0.92" style="stop-color:#8D5E0F"/>
			<stop  offset="1" style="stop-color:#80560E"/>
		</linearGradient>
		<path style="fill:url(#SVGID_00000021804418994628764260000018266947607008863897_);" d="M3127.3,5740.5
			c-53.1-43.8-107.6-87.7-152.9-139.8c-37.7-43.4-63.4-92.4-81.7-146.7c-35.7-106.3-45.8-219.3-79.3-326.2
			c-32-102-93.2-181.7-166.8-257.7c-70.5-72.7-145.9-143.3-189.6-236.3c-51.5-109.6-62.9-234.4-89.2-351.2
			c-12.9-57.2-28.2-115.2-54.9-167.6c-23.6-46.3-57.1-86-94.9-121.2c-86.7-80.8-185.8-145.9-223.2-265.1
			c-48.6-155.3-15.2-328.7-86.3-478l0,0l0,0l0,0c-80.2-140.1-237.6-208.4-337-332c-80.1-99.6-76.4-220.7-94.2-340.4
			c-7.4-49.6-20.5-98.1-44.1-142.6c-27.7-52.2-66.6-97.9-106.2-141.1c-81.4-88.5-177.7-169.2-239.2-274.2
			c-52.9-90.6-67.6-195.2-88-296.5c-20.4-102.2-51.7-196.3-116.5-279.5c-68-87.3-153.7-158.9-220.3-247.3
			c-35.7-47.5-62.6-98.6-76.8-156.5c-16.6-67.6-21.6-137.7-27.4-206.8c-11-129.4-17.1-272.5-119.2-366.1
			c-92.2-84.3-221.2-125.8-285.1-239.2l-19.8,10.4c62.1,109.8,187.7,142.4,278,221.7c103.7,91.2,109.2,241.8,121.9,370
			c7,70.9,13.2,142.8,30.6,212.1c14.7,58.1,41.3,109.5,77,157.4c65.2,87.7,149.3,159.2,215.9,245.8c64.2,83.5,96,178,117.7,279.9
			c21.6,101.6,37.9,206.7,91,297.8c63,107.9,161.2,192,244.1,283.7c40.3,44.5,79.8,91.3,108.1,144.5c23.4,43.9,36,92,42.5,141.1
			c15.8,118.6,9.8,237.7,90.4,336c101.1,123.5,262.6,189.2,343.9,330.3c71,149.9,32.2,323.8,79.4,479.7
			c35.9,118.6,134.8,180.5,221.6,259.2c37.9,34.2,71.3,73.3,94.5,119.1c27.3,53.7,43.1,112.8,56.7,171.2
			c28,120,41.3,248.2,94.1,360.7c44,93.5,118.9,165.5,188.9,239.6c72.5,76.8,133.9,157.3,166.5,259
			c33.8,105.4,44.6,216.9,80.7,321.6c18.7,54.4,44.8,103.4,82.3,147.3c46.3,53.9,101.6,99.6,155.5,145.5
			c99.4,84.5,222.8,175.8,238.5,315.1c13.5,119-30.7,240.4,23.9,353.6l19.8-10.4c-56.5-116.7-17.7-246-34.1-369.4
			C3345.5,5911.6,3228.9,5824.3,3127.3,5740.5z"/>
		
			<linearGradient id="SVGID_00000166639227369316347870000000086174142437949824_" gradientUnits="userSpaceOnUse" x1="-1483.276" y1="465.3733" x2="-1483.276" y2="651.6454" gradientTransform="matrix(0.464 0.8858 0.8858 -0.464 2074.8533 4842.7588)">
			<stop  offset="0" style="stop-color:#FFAB1C"/>
			<stop  offset="0.17" style="stop-color:#F0A11A"/>
			<stop  offset="0.48" style="stop-color:#CA8816"/>
			<stop  offset="0.92" style="stop-color:#8D5E0F"/>
			<stop  offset="1" style="stop-color:#80560E"/>
		</linearGradient>
		<path style="fill:url(#SVGID_00000166639227369316347870000000086174142437949824_);" d="M3305.8,5807
			c-45-50.7-100.8-90.7-154.9-131c-50.5-37.6-102.2-75.4-144.8-122.1c-38.2-41.9-62.2-90.6-79.3-144.4
			c-35.1-111.2-42.3-229-75.2-340.8c-30.3-103.2-91-180-167.9-253.1c-71.7-68.1-149.3-134.1-191.9-225.5
			c-46.8-100-52.3-213.5-73-320.4c-10.4-53.4-24-106.9-48.7-155.7c-24.2-48.2-58.7-90.2-96.4-128.5
			c-86.8-88.2-185.9-162.8-228.3-284.1c-53.8-153.1-35.6-325.3-108.9-472.6l0,0l0,0l0,0l0,0c-76-138-222.6-214.2-315.4-338.5
			c-78.5-105-82.1-232.7-106.2-356.3c-10-51.4-24.9-102.1-50.1-148.1c-26.4-48.4-62.8-90.3-101.2-129.4
			c-75.5-76.9-164.2-145.8-219.8-239.7c-51.7-87.4-61.7-189.7-76.9-288c-16.4-105.7-45.4-199.9-114-283.9
			c-72.9-89.3-164.3-161.9-235.2-253c-34.8-44.8-61.5-92.6-74.2-148.3c-14.1-62.1-15.7-126.5-17.9-190
			c-2.3-65.6-3.5-132.4-18.7-196.5c-15.2-64.7-49.3-117.8-95.8-164.4c-98.7-99-234.8-166.2-304.5-291.6L187,211.7
			c68,121.3,202.9,178.5,299.1,273c45,44.2,75.7,94.9,91,156.3c16.5,66.1,19.3,134.9,23.2,202.7c3.6,65.7,6.5,132.2,21.4,196.5
			c13.4,57.7,40.7,107.9,76.6,154.5c69.2,89.8,158.3,161.8,228.9,250.3c66.1,82.8,96.1,175.7,114,278.5
			c17.6,100.4,29.2,204.4,81.7,293.9c58.1,99.2,150.9,173.1,229.3,255.6c38.8,40.8,75.9,84.3,102.5,134.2
			c24.2,45.5,38.2,95.2,47.1,145.7c21.4,121.9,22.5,246.8,101.7,349.3c95.4,123.5,245.9,196.8,323.5,335.1
			c72.3,148,48.3,320.7,99.9,474.7c40.2,120.3,139.5,191.2,226.3,276.4c37.8,37.1,71.7,78.1,95.8,125.6
			c25.5,50.3,39.8,105.6,51.1,160.6c23,110.9,30.8,228.9,79.5,332.7c43.1,92.1,119.7,160,191.1,230
			c75.6,74.2,136.5,152.2,167.6,254.9c33.1,109.9,41.4,225.7,76.9,335c17.5,53.9,42.4,102.8,80.3,145.3
			c43.7,49,96.5,89.1,147.9,129.2c55.1,43,112.1,85.6,158.3,138.5c41.3,47.3,65.1,101.5,75.6,163.3c22.5,132.5-6.8,275.6,53.9,400
			l19.8-10.4c-64-130-40.6-281.7-67.1-420.5C3371.2,5910.5,3348,5854.7,3305.8,5807z"/>
		
			<linearGradient id="SVGID_00000005232854830300659780000009457699531266618499_" gradientUnits="userSpaceOnUse" x1="-1483.5989" y1="514.4662" x2="-1483.5989" y2="704.2001" gradientTransform="matrix(0.464 0.8858 0.8858 -0.464 2074.8533 4842.7588)">
			<stop  offset="0" style="stop-color:#FFAB1C"/>
			<stop  offset="0.17" style="stop-color:#F0A11A"/>
			<stop  offset="0.48" style="stop-color:#CA8816"/>
			<stop  offset="0.92" style="stop-color:#8D5E0F"/>
			<stop  offset="1" style="stop-color:#80560E"/>
		</linearGradient>
		<path style="fill:url(#SVGID_00000005232854830300659780000009457699531266618499_);" d="M3322.1,5725.2
			c-41.6-45.1-94.4-78.6-145.4-112c-47.8-31.3-96.6-62.7-136.8-103.7c-40.3-41.1-63.4-91.6-79.3-146.4
			c-33.8-115.8-38.7-237.8-70.7-354.1c-13.9-50.4-33.6-97.9-64.7-140.1c-28.8-38.9-64.2-72.3-100.5-104
			c-73.6-64.4-155.2-126-197.6-217.1c-42.2-90.5-42.2-191.7-57-288.7c-7.9-51.2-20.3-101.9-43.9-148.2
			c-24.6-48.1-58.2-90.9-94.3-130.8c-88-97-187.9-181.1-236.3-306.7c-58.1-150.9-55.6-320.8-130.8-465.7l0,0l0-0.1l0-0.1l0,0
			c-71.8-135.6-206.5-219.5-293-343.7c-77.2-110.8-88.8-243.3-118.5-371.1c-12.3-52.9-28.8-105.3-55.1-153.1
			c-24.4-44.5-58.2-82.6-94.9-117.3c-70.8-66.9-153.3-124.1-204-209.3c-51.1-85.7-56-187.2-66.7-283.8
			c-5.6-50.1-12.8-100.3-29.4-148.1c-17.4-50.2-46.3-93.7-80.3-134.1c-77.4-91.4-174.1-164.5-249.2-257.9
			c-35.1-43.4-62.6-89.8-73.8-144.9c-11.5-56.7-9.3-115.5-7.9-173.1c1.5-59.7,4-120.4-8.2-179.2C669.9,625,631,570.5,586,520.9
			C480,404.3,335.7,314.2,258.6,173.7l-20.1,10.6c74.4,135,215.9,217,319.2,327.4c45.5,48.6,82.7,102.5,97.1,168.5
			c13.2,60.7,12.1,123.6,11.9,185.5c-0.1,59.7-1,120.4,11.5,179.1c11.7,55.3,39,102.1,73.9,146c73.7,92.6,168.4,165.5,244.3,256.2
			c33.8,40.4,62.1,84.1,79.7,133.9c17,48,25,98.5,31.5,148.9c12.4,97.1,19.1,198.9,70.5,285.3c52.4,88.2,137.2,149.7,209.6,220.1
			c37.3,36.3,72,75.7,97.1,121.5c25.8,47.3,41.8,99,53.3,151.4c27.8,126.3,36.4,257,114.1,365.9c88.8,124.3,227.8,205.5,301,341.9
			c74.7,146,66.4,317.1,123.4,469.1c46,122.9,144.7,203.3,231.8,296.3c37.6,40.3,72.5,83.7,97.2,133.1
			c23.2,46.4,35.9,97.1,44.6,147.9c17,100.5,18.9,206.8,62.6,300.7c42.2,90.4,121.1,153.4,193.6,218.5
			c37.4,33.7,74.2,68.9,104,109.8c30.7,42.5,50.5,90.1,64.8,140.3c32.3,114.9,37.9,235.7,72.6,350.1
			c16.2,53.4,39.2,101.9,77.6,142.8c40.7,43.5,90.8,77.2,139.5,110.7c52.3,35.9,106.2,71.8,149.3,118.8
			c43.7,47.8,65.9,106.4,79.8,168.8c33.3,149,19,313.7,88.3,453.2l19.8-10.4c-72.1-144.3-63.4-315.4-99.8-469.9
			C3387.8,5833.5,3366.1,5773,3322.1,5725.2z"/>
		
			<linearGradient id="SVGID_00000128447572216664079460000003531388828285414298_" gradientUnits="userSpaceOnUse" x1="-1483.5062" y1="565.8884" x2="-1483.5062" y2="759.1417" gradientTransform="matrix(0.464 0.8858 0.8858 -0.464 2074.8533 4842.7588)">
			<stop  offset="0" style="stop-color:#FFAB1C"/>
			<stop  offset="0.17" style="stop-color:#F0A11A"/>
			<stop  offset="0.48" style="stop-color:#CA8816"/>
			<stop  offset="0.92" style="stop-color:#8D5E0F"/>
			<stop  offset="1" style="stop-color:#80560E"/>
		</linearGradient>
		<path style="fill:url(#SVGID_00000128447572216664079460000003531388828285414298_);" d="M3433.8,5836.4
			c-16.2-62.4-37.2-125.6-82.4-173.3c-39.5-41.8-90.4-70.8-139.6-99.5c-46-26.9-93.3-54-131.4-91.8c-40.7-40.3-63.3-91.1-78.5-145.7
			c-33.4-119.1-36.4-244.3-67.9-363.8c-13.5-50.7-32.7-98.7-64.5-140.8c-28.8-38.2-64.6-70.1-101.3-100.5
			c-75.1-61.7-157.1-119.9-199.4-210.7c-39.6-85-35.7-177.9-46.7-268.9c-13.1-108.4-64.9-194.8-135.6-276.3
			c-87.9-101.5-187.8-191.7-239-319c-60.4-150.1-70.2-317.5-144.9-462.3l0,0l0-0.1l0-0.1l0,0c-70.9-132.9-195.6-223.3-278.9-347
			c-76.9-114.3-93.4-250-127-380.3c-26.7-103.7-68.1-194.6-149.1-266.5c-67.9-60.4-145.9-109.6-193.5-189.5
			c-50.8-85.4-52.9-185.3-60.6-281.6c-4-49.6-9.8-99.5-25.8-146.8c-16.9-50.6-46.4-94.3-81.1-134.3
			c-80.3-92.9-180.9-166.2-258.9-261.2c-35.1-42.7-63.4-88.9-73.6-143.8c-10-53.3-5.3-108.2-1.1-161.8c4.3-55.6,9.3-112.3-1.2-167.5
			c-12.9-67.5-54.6-123-98.8-173.8c-58-66.8-122.8-127.4-184.9-190.3c-58.1-59.1-117.1-119.6-157.2-192.4l-19.8,10.4
			c80.8,147.3,228.6,248.1,337.9,372.7c44.4,50.6,85.5,105.9,98.5,173.2c11,56.2,6.7,114.2,3.3,170.9c-3.3,54.8-7.3,110.7,3.1,165
			c10.5,55.1,38.6,101,73.6,143.8c77.2,94.5,176.6,167.9,256,260.3c34.6,40.1,63.9,83.8,80.9,134.3c16,47.5,22.3,97.5,26.8,147.3
			c8.6,96.1,11.4,196.7,62.1,282c48.4,81.2,127.9,132.8,196.5,195.1c80.5,73,123.2,163,149.3,267.5
			c32.5,129.7,47.6,264.4,124.5,377.7c84,124,212.2,212.3,282.9,346.2c75.4,144.7,81,313,141,463.4
			c50.7,126.7,150.3,215.3,238.5,315.6c71.6,81.6,121.9,168.2,136.2,276.9c12.2,92.6,9.4,188,49.6,274.4
			c42.1,90.7,124.4,149.9,198.9,212.4c36.6,30.7,72.2,63.1,101.1,101.5c31.6,42.1,51,90.1,64.6,140.7
			c31.6,118.6,35.3,242.9,68.7,361c15.4,54.5,37.9,105,78.5,145.7c38.8,38.7,86.4,67,133,95.3c49.7,30.1,101.1,60.5,141.3,103.1
			c45,47.7,66.2,110.3,81.9,172.7c41.1,161.8,39.3,341.8,114.9,493.3l19.8-10.4c-38-76.3-54.2-161.9-69.8-245.1
			C3468.7,6007.6,3455.7,5920.9,3433.8,5836.4z"/>
		
			<linearGradient id="SVGID_00000059288845460563411220000016374056829776590519_" gradientUnits="userSpaceOnUse" x1="-1483.4302" y1="622.7438" x2="-1483.4302" y2="816.2621" gradientTransform="matrix(0.464 0.8858 0.8858 -0.464 2074.8533 4842.7588)">
			<stop  offset="0" style="stop-color:#FFAB1C"/>
			<stop  offset="0.17" style="stop-color:#F0A11A"/>
			<stop  offset="0.48" style="stop-color:#CA8816"/>
			<stop  offset="0.92" style="stop-color:#8D5E0F"/>
			<stop  offset="1" style="stop-color:#80560E"/>
		</linearGradient>
		<path style="fill:url(#SVGID_00000059288845460563411220000016374056829776590519_);" d="M3408.6,5649.3
			c-40.8-43.4-92.6-74.9-142.6-106.4c-46.9-29.5-94.9-59-134.3-98.4c-40.4-40.5-63.3-90.7-78.6-145.3
			c-33-117.7-34.2-241.5-65.1-359.5c-13.4-50.7-33-98.7-64.7-140.8c-28.8-38.3-64.5-70.6-101.1-101.4
			c-74.6-62.4-156.7-121.6-199-212.2c-40.2-86.2-36.9-181.3-48.8-273.6c-13.9-108.6-64.6-195.3-136.1-276.8
			c-88.4-100.6-187.7-189.1-238.6-316.3c-60.1-150.4-72.8-316.6-146.3-462l0,0l0-0.1l0-0.1l0,0c-71.9-132.3-195-224.7-278.3-348.7
			c-75.9-112.7-91.7-245.3-123.5-374.1c-25.8-104.7-67.9-196.1-148.8-269.3c-68.6-62.1-148.6-113.2-196.9-194.4
			c-51.2-85.6-53.9-186.3-62.5-282.9c-4.1-48.2-10.3-96.6-25.3-142.8c-17-52.5-47.1-98.1-83.2-139.7
			c-79.9-91.6-180.6-163.1-257.7-257.4c-35.1-42.9-62.2-89.5-72.1-144.5c-10.2-55.6-6.9-112.6-4.2-168.8c2.6-57.9,6-117.2-6.2-174.1
			c-14-65-53.5-118.3-96.6-167.7c-108.5-125-253.6-226.2-335.2-372.6l-19.8,10.3c40.6,73,99.6,133.8,157.7,192.9
			c61.9,63.1,126.6,123.8,184.5,190.8c42.8,49.6,83.2,103,96.9,168.4c11.6,55.4,7,112.8,2.8,168.7c-3.9,54.3-8.4,109.5,0.9,163.4
			c9.6,55,37.3,101.6,72.2,144.5c77.8,95.5,179.3,168.1,259.9,261c36.1,41.6,66.3,87.1,83.3,139.8c14.8,46,20.5,94.4,24.3,142.5
			c7.7,96.7,9.8,196.6,61,282.4c47.8,80,126.2,128.9,194.2,189.5c81.2,72.4,122.1,164.6,148.7,268.7
			c32.9,129,49.8,263.1,125.8,376.2c83.5,123.9,206.5,216.2,278.3,348.7c73.5,145.4,86.2,311.7,146.3,462.1
			c51,127.5,150.9,217.7,238.9,319.4c70.6,81.5,122.6,167.7,135.6,276.3c10.9,90.9,6.7,183.6,46.3,268.5
			c42.3,90.7,124.2,148.9,199.4,210.6c36.8,30.1,72.6,62.2,101.5,100.4c31.7,42.1,51.4,90.2,64.6,140.9
			c31.4,119.3,33.3,244.6,66.8,363.4c15.4,54.4,38,105.1,78.6,145.3c38.4,37.9,85.6,65.4,131.8,92.7
			c49.4,29.1,100.2,58.5,139.9,100.4c45.2,47.7,65.9,110.9,82.1,173.2c22,84.3,35.1,170.8,51.2,256.4c15.7,83.2,32.1,168.5,69.9,245
			l19.8-10.4c-74.2-150.9-74.6-328.6-116-489.5C3474.3,5759.5,3453.5,5697.1,3408.6,5649.3z"/>
		
			<linearGradient id="SVGID_00000142152729013878433440000011645453811147946672_" gradientUnits="userSpaceOnUse" x1="-1483.6852" y1="680.6675" x2="-1483.6852" y2="868.9399" gradientTransform="matrix(0.464 0.8858 0.8858 -0.464 2074.8533 4842.7588)">
			<stop  offset="0" style="stop-color:#FFAB1C"/>
			<stop  offset="0.17" style="stop-color:#F0A11A"/>
			<stop  offset="0.48" style="stop-color:#CA8816"/>
			<stop  offset="0.92" style="stop-color:#8D5E0F"/>
			<stop  offset="1" style="stop-color:#80560E"/>
		</linearGradient>
		<path style="fill:url(#SVGID_00000142152729013878433440000011645453811147946672_);" d="M3486.8,5683.9
			c-44.9-51-100.4-91.9-154.3-133c-50.5-38.5-102-76.9-145.4-123.7c-39.7-42.9-64.5-92.3-80-148.3c-30.9-111.9-29.2-229.9-58-342.1
			c-26.2-101.7-86.9-175.8-163.5-244.9c-73.3-66-154.1-129.3-196.9-220.8c-43.3-92.9-44.3-197.6-60.1-297
			c-8.3-52.3-21.1-104.2-45.4-151.6c-24.5-47.8-58.1-89.9-94.6-128.9c-89.5-95.9-187.2-176.9-237.1-302
			c-60.1-150.4-72.8-316.6-146.3-462l0,0l0-0.1l0-0.1l0,0c-71.9-132.3-195-224.7-278.2-348.6c-74.6-110.8-85.2-238-112.6-364.7
			c-11.4-52.9-27.2-105.3-52.9-153.1c-24.7-45.9-59.4-85.2-96.8-121.2c-72.4-69.7-157.6-129.6-210-217.2
			c-51.6-86.5-58.3-188.5-70.6-286c-13.4-105.9-40.2-200.4-112.2-282.1c-76.4-86.7-173.9-152.4-247.4-241.7
			c-36.1-43.9-61.8-91.8-74-147.6c-13.9-63.2-16-128.3-19-192.6c-3-66.2-5.1-133.7-21-198.4c-15.8-63.3-50.3-115.5-93.7-163.4
			C618.6,304.2,486.9,222.7,414.6,92.4l-19.8,10.4c76.4,137.4,214,227.5,316.6,343.4c43.2,48.7,80,101.3,95,165.4
			c14.3,61.2,13.9,125.3,14.6,187.9c0.6,60.9,0.5,122.4,12.7,182.4c11.2,55.5,37.5,102.4,73,145.9c75,91.5,174,159.6,251.8,248.5
			c36,41.1,65.2,86.5,82.6,138.6c15.6,46.5,22.5,95.3,27.8,143.8c10.7,97,15.7,198.5,66.9,284.5c50.6,84.8,133.6,140.9,204.4,207.3
			c80.4,75.5,124.8,165.2,149.2,272c29.4,127.9,42.3,257.3,117.4,368.8c83.5,123.9,206.5,216.2,278.3,348.7
			c73.5,145.4,86.2,311.7,146.3,462.1c50.5,126,148.8,210.3,237.8,308.2c36.3,40.1,70.1,82.9,94.8,131.3
			c23.6,46.2,35.9,96.5,43.3,147.7c14.1,96.3,13.3,196.9,55.1,286.8c42.4,91,124,152.5,197.8,216.8c78.2,68.2,138,141.6,164.6,243.7
			c29.8,114.9,29.3,235.3,61.1,349.6c15.3,55.3,39.2,105.1,79.3,146.7c41.7,43.4,91.6,78,140.6,112.7
			c52.1,36.9,106.1,73.8,149.2,121.4c43.5,48,65.4,107.7,80.7,169.9c37.2,150.8,32.8,315.9,102.4,457.4l19.8-10.4
			c-66.2-134.2-58-289.4-91.7-432.3C3552.1,5789.7,3529.3,5731.9,3486.8,5683.9z"/>
		
			<linearGradient id="SVGID_00000116230072634748023260000004446829690194321051_" gradientUnits="userSpaceOnUse" x1="-1483.4399" y1="738.6261" x2="-1483.4399" y2="919.2061" gradientTransform="matrix(0.464 0.8858 0.8858 -0.464 2074.8533 4842.7588)">
			<stop  offset="0" style="stop-color:#FFAB1C"/>
			<stop  offset="0.17" style="stop-color:#F0A11A"/>
			<stop  offset="0.48" style="stop-color:#CA8816"/>
			<stop  offset="0.92" style="stop-color:#8D5E0F"/>
			<stop  offset="1" style="stop-color:#80560E"/>
		</linearGradient>
		<path style="fill:url(#SVGID_00000116230072634748023260000004446829690194321051_);" d="M3403.9,5570.5
			c-97.7-88-206-177-241.6-308.9c-28.3-104.8-22.8-215.2-49-320.3c-24.9-100.6-87.7-177.1-160.2-248.3
			c-72.1-70.8-150.7-139-194.3-232.2c-47.7-102-53.7-218.1-74.6-327.3c-10.8-56.1-24.8-112.8-51.3-163.9
			c-23.8-46-57.1-86-93.9-122.1c-42.1-41.6-88.4-78.6-129.7-121.1c-46.1-47.5-81-100.7-105.6-162.2
			c-60.1-150.4-72.8-316.6-146.3-462l0,0l0-0.1l0-0.1l0,0c-71.9-132.3-195-224.7-278.2-348.6c-37.2-55.2-60.6-115-73.2-180.2
			c-11.1-57.1-15.3-115.2-25.1-172.5c-8.8-51.5-22.8-102.4-47.6-148.7c-26.5-49.6-64.1-92.7-103.2-132.8
			c-77.5-79.4-169.2-150-226.6-246.5c-52.5-88.2-64.4-191.3-81.3-290.4c-17.7-103.5-45.4-201.3-116.9-281.1
			c-72.1-80.4-165.4-138.8-234.7-222C883.2,974.7,872.6,834,855.9,703.9c-17.4-136.2-29.5-283-129.7-386.5
			c-85-87.3-198.9-142.3-259.5-252.4l-19.8,10.4c65,117.7,186,183.2,275.9,278.8c43.6,46.3,74.5,98.3,91.3,159.8
			c19.4,70.6,25.5,144.6,32.7,217.2c12.6,127.2,21.3,259.5,106.2,361.8c70.9,85.6,165.9,146.6,239.5,229.5
			c71.7,80.5,99,177.1,115,281.6c15.1,98.5,25.1,201.3,77.2,288.8c55.4,93.1,144.7,159.6,220.1,235.3c38.5,38.5,74.8,80,100.7,128.3
			c25.2,46.9,39.8,98.3,49.7,150.4c11.1,58.3,16.7,117.5,28.8,175.6c13.7,65.5,37.5,126.2,75,181.7
			c83.5,123.9,206.5,216.2,278.3,348.7c73.5,145.4,86.2,311.7,146.3,462.1c24.8,62,60,116,105.8,164.5c41.4,44,87.8,82.9,130.1,126
			c36.6,37.3,70.1,78.1,94.1,124.7c25.6,49.7,39.1,104.5,48.9,159.1c19,105.4,23,217.1,69.1,315.6
			c43.3,92.5,122.7,158.8,195.3,227.7c74,70.4,136,146.1,161.5,247c27.1,107.9,23.4,221.1,52.5,328.7
			c34.9,128.8,137.5,211.4,235.4,294.7c56.8,48.3,115.4,96.3,163.4,153.6c40.4,48.1,65.1,102.7,78.2,163.8
			c27.8,128.7,12.4,266,72.4,386.9l19.8-10.4c-56.3-112.9-36.3-238.3-60.3-358.3C3621.8,5756.4,3506.4,5662.7,3403.9,5570.5z"/>
		
			<linearGradient id="SVGID_00000170270391984243480510000015668987905867914892_" gradientUnits="userSpaceOnUse" x1="-1484.1836" y1="794.9677" x2="-1484.1836" y2="972.7873" gradientTransform="matrix(0.464 0.8858 0.8858 -0.464 2074.8533 4842.7588)">
			<stop  offset="0" style="stop-color:#FFAB1C"/>
			<stop  offset="0.17" style="stop-color:#F0A11A"/>
			<stop  offset="0.48" style="stop-color:#CA8816"/>
			<stop  offset="0.92" style="stop-color:#8D5E0F"/>
			<stop  offset="1" style="stop-color:#80560E"/>
		</linearGradient>
		<path style="fill:url(#SVGID_00000170270391984243480510000015668987905867914892_);" d="M3730,5936.4
			c-9-58.8-38.9-109.4-75-155.8c-54.7-70.6-119.4-133.4-182.3-196.5c-97.7-98.3-219.5-202.1-256-341.3
			c-25.8-98.4-17.2-202-40.9-300.8c-49.6-206.5-262.4-308.1-349.4-493.6c-51.6-110.3-62.1-236.2-87.6-354
			c-12.8-59.4-28.1-120.1-56.3-174.4c-23.2-44.6-56.3-82.6-93.3-116.3c-41.6-37.9-87.8-70.5-128.6-109.4
			c-47.1-45-81-96.8-105.2-157.3c-60.1-150.4-72.8-316.6-146.3-462l0,0l0-0.1l0-0.1l0,0c-71.9-132.4-195-224.7-278.3-348.7
			c-36.5-54.1-59.4-112.5-69.4-176.9c-8.4-54.7-9.2-110.2-16.5-165.1c-6.6-50.3-19.1-99.8-43-144.9c-28-52.9-68.2-99-108.8-142.6
			c-82.2-88-179-168-241.2-272.4c-106.5-178.6-66.4-415.2-211.8-574.8c-68.2-74.8-157.9-126.6-223.2-204.3
			c-92.6-110.1-108.3-270.1-133.4-406.3c-15.9-85.8-30.4-172.8-56.7-256.3c-17.9-56.9-42.5-111-86.7-152.4
			c-34.1-32-75.5-53.9-114.2-79.6C580.8,120.6,544.6,85,518.5,37.2l-19.8,10.4c27.6,50.3,66.5,88.4,112.7,121.5
			c41.2,29.6,85.2,55.9,121.8,91.5c103.5,100.6,116.2,266.4,138.6,401c22.3,134.1,36.2,287.7,127,395.8
			c66.7,79.5,157.7,133.6,227.1,210.3c145.3,160.4,101,394.8,207.2,573.7c60.5,101.9,155.6,178.6,236.2,263.7
			c40.2,42.4,79.5,87.5,107,139.3c24.1,45.4,37.1,95.4,44.5,146c8.2,55.7,10.2,112.1,19.4,167.7c10.9,64.7,33.9,123.5,70.6,178
			c83.5,123.9,206.5,216.2,278.3,348.7c73.5,145.4,86.2,311.7,146.3,462.1c24.4,60.8,58.5,113,105.3,158.9
			c40.9,40.1,87.1,74.4,128.9,113.5c36.9,34.5,70,73.1,93.4,118.2c27.6,53.3,42.4,112.5,54.6,170.9
			c23.8,114.9,32.8,237.4,83.2,344.8c86.8,185.5,300.9,282.2,351.1,489.2c24.5,101,17.1,207,43.8,307.4
			c36.2,136.8,153.4,235.6,251.1,330.3c61.5,59.6,124.6,118.9,177.7,186.3c37,47,65.4,98.1,75.7,157.6c8.6,49.6,5.4,100.1,6,150.2
			c0.9,58,9.7,112.8,35.8,165.1l19.8-10.4c-24.8-49.6-33.3-100.6-31.8-155.6C3731.9,6027.9,3737,5982.1,3730,5936.4z"/>
		
			<linearGradient id="SVGID_00000183236217775344035680000016474733445194134696_" gradientUnits="userSpaceOnUse" x1="-1483.0891" y1="852.8537" x2="-1483.0891" y2="1028.9725" gradientTransform="matrix(0.464 0.8858 0.8858 -0.464 2074.8533 4842.7588)">
			<stop  offset="0" style="stop-color:#FFAB1C"/>
			<stop  offset="0.17" style="stop-color:#F0A11A"/>
			<stop  offset="0.48" style="stop-color:#CA8816"/>
			<stop  offset="0.92" style="stop-color:#8D5E0F"/>
			<stop  offset="1" style="stop-color:#80560E"/>
		</linearGradient>
		<path style="fill:url(#SVGID_00000183236217775344035680000016474733445194134696_);" d="M3787.3,6057.1
			c4.4-39.1,13.2-77.3,8.2-116.7c-7.4-58.1-39.3-108.3-74.2-153.9c-57.6-75.1-124.2-143.4-189.1-212.1
			c-61.1-64.8-123.3-129.1-178.5-199c-37.8-47.8-68.6-98-84.1-157.3c-24.7-95-14.1-195-36.6-290.4
			c-48.7-205.9-260.5-314.4-347.4-499.8c-99.6-212.5-54-494-244.8-659.2c-41.4-35.8-87.5-65.9-128-102.9c-47.9-43.8-81-95.8-105-156
			c-60.1-150.4-72.8-316.6-146.3-462l0,0l0-0.1l0-0.1l0,0c-72-132.4-195-224.7-278.3-348.7c-36.3-53.9-59.9-111.6-68.3-176.1
			c-7.1-53.4-5.8-107.4-11.5-160.9c-26.7-250.1-281.4-373.7-400.8-574.6c-106.1-178.6-72.5-418.1-217.9-576.4
			c-66-71.9-153.9-120-217.1-194.8c-38.9-46-61.8-99.2-79.3-156.5c-26.5-86.5-44.1-175.6-62.8-263.9
			c-19.2-90.5-37.1-182.3-65.6-270.5c-17.8-55.3-41-111.2-85.4-150.6c-30.2-26.7-67.2-41.3-102.1-60.3
			c-45.1-24.4-76.8-59-101.5-103.8L551.1,21c24.7,45.2,57.5,79.1,102.1,104.8c35.9,20.7,74,37.1,105.2,65.1
			c44.3,39.7,67.7,95.2,85.5,150.8c28.1,87.1,45.2,177.8,63.5,267.3c18,87.4,34.7,175.3,60.7,260.7c17.5,57.4,40.7,111,79.9,157.2
			c63.8,75.4,152,124.5,218.6,197c145.6,158.5,110.5,397.6,216.9,576.1c64.1,107.5,163.2,191.1,247.1,282.6
			c41.1,44.7,82,91.7,110.5,145.6c23.7,44.7,36,93.6,41.6,143.7c6,53.9,5.4,108.3,12.8,161.9c8.8,64.4,32,122.2,68.2,176.1
			c83.5,123.9,206.5,216.2,278.3,348.7c73.5,145.4,86.2,311.7,146.3,462.1c24.1,60.1,57.3,111.8,105,155.9
			c40.5,37.4,86.5,68.2,128.1,104.6c37.4,32.7,70.1,70.1,93,114.5c28.8,55.4,44.3,117.1,57.8,177.6
			c27.1,121.1,39.5,250.9,92.6,364.5c86.8,185.4,298.8,292.6,347.6,498.6c22.7,96.2,12.7,197,37.7,292.9
			c15.6,59.5,46.4,110,84.4,158c54.5,69,116.3,132,177,195.5c64.4,67.4,130.7,134.3,187.5,208.7c34.9,45.7,66.5,96,74.2,154.1
			c5.4,40.9-2.4,81.1-5.9,121.9c-4.5,52.2,4.3,99.2,27.8,146.1l19.8-10.4C3791.3,6155.5,3781.4,6109,3787.3,6057.1z"/>
	</g>
</g>
</svg>
