<?xml version="1.0" encoding="utf-8"?>
<!-- Generator: Adobe Illustrator 26.3.1, SVG Export Plug-In . SVG Version: 6.00 Build 0)  -->
<svg version="1.1" id="Layer_1" xmlns="http://www.w3.org/2000/svg" xmlns:xlink="http://www.w3.org/1999/xlink" x="0px" y="0px"
	 viewBox="0 0 15691.3 1532.8" style="enable-background:new 0 0 15691.3 1532.8;" xml:space="preserve">
<style type="text/css">
	.st0{fill:url(#SVGID_1_);}
	.st1{fill:url(#SVGID_00000142858662906870403350000004143811561754475684_);}
	.st2{fill:url(#SVGID_00000093168243623967641480000007581204542774452873_);}
	.st3{fill:url(#SVGID_00000016075570384023155340000013646416283540485562_);}
	.st4{fill:url(#SVGID_00000067956940753986175740000014207769822897156245_);}
	.st5{fill:url(#SVGID_00000033362885563878206890000008288212599090521473_);}
	.st6{fill:url(#SVGID_00000181770037141919219980000008776624640354224524_);}
	.st7{fill:url(#SVGID_00000090274686982955119110000000730525484617994372_);}
	.st8{fill:url(#SVGID_00000087373846748417210430000007737533514322359443_);}
	.st9{fill:url(#SVGID_00000057105959193188736030000005981798347165501325_);}
	.st10{fill:url(#SVGID_00000095327543381324048700000000753699040187884189_);}
	.st11{fill:url(#SVGID_00000020395149286939133590000004611066433962445755_);}
	.st12{fill:url(#SVGID_00000180369005855428026740000012272838064883299973_);}
	.st13{fill:url(#SVGID_00000131344553812254262470000010079465369093631131_);}
	.st14{fill:url(#SVGID_00000029741679862393753210000006682318596670390924_);}
	.st15{fill:url(#SVGID_00000084531249711134837480000013878128050640816053_);}
	.st16{fill:url(#SVGID_00000050625685760298754300000005482627874808527803_);}
	.st17{fill:url(#SVGID_00000005240249334648038400000017516678171632307899_);}
	.st18{fill:url(#SVGID_00000183207952604455648520000018202239944025093535_);}
	.st19{fill:url(#SVGID_00000025437959244101257900000010939167693810299520_);}
	.st20{fill:url(#SVGID_00000023273490362536195020000002907131586155350941_);}
	.st21{fill:url(#SVGID_00000027567536438357605840000003974477082396507044_);}
	.st22{fill:url(#SVGID_00000004535397479531426860000008896944929229868454_);}
	.st23{fill:url(#SVGID_00000152987218092322084380000001356223533448592029_);}
</style>
<g id="Layer_2_00000178920206580439251700000003194755077851467685_">
	<g id="Layer_1-2">
		
			<linearGradient id="SVGID_1_" gradientUnits="userSpaceOnUse" x1="7845.5508" y1="-0.8071" x2="7845.5508" y2="203.705" gradientTransform="matrix(1 0 0 -1 0 1532.0022)">
			<stop  offset="0" style="stop-color:#FFAB1C"/>
			<stop  offset="0.17" style="stop-color:#F0A11A"/>
			<stop  offset="0.48" style="stop-color:#CA8816"/>
			<stop  offset="0.92" style="stop-color:#8D5E0F"/>
			<stop  offset="1" style="stop-color:#80560E"/>
		</linearGradient>
		<path class="st0" d="M14547.2,1345.1c-142.5-14.4-288.8-24.7-432.9-8.9c-121,13.2-231.2,40.1-340,66.3
			c-101.6,24.5-204.3,49.4-316.2,63.1c-120.2,14.8-241.3,12.8-361.5-0.8c-244.3-27.6-460.2-89.9-702.9-119.6
			c-221-27.1-415.4-7.6-615.1,38.4c-189.2,43.6-366.4,90.2-586.7,87.5c-241.2-3-471.1-40.9-703.3-66.1
			c-236.1-25.6-465.8-34.3-694.2,8.7c-114.8,21.6-222.2,50.4-338.5,70.6c-139.2,24.1-279.9,30.3-427.8,21.3
			c-414.8-25.3-804.4-121.6-1226.5-124.9h-0.4c-394.4,3.2-751.1,98.9-1137.1,124.6c-147.6,9.8-290,3.1-429-21
			c-117.4-20.4-225.8-49.6-341.9-71.3c-469.2-87.7-917.3,50.7-1388.1,57.9c-219.2,3.4-396.1-41.8-584.1-85.4
			c-93.7-21.8-191-41.6-295.6-50.2c-112.8-9.2-226.2-3.1-335.8,10.7c-240.5,30.3-455.2,92-698.1,119
			c-117.6,13.1-235.6,15.1-353.3,1.2c-113.3-13.4-217.1-38.6-319.6-63.4c-106.1-25.6-213.4-51.9-331-65.5
			c-150.1-17.4-302.5-6.8-451.2,8.5c-197,20.2-388.9,49.1-582.8,74.5C373.5,1444.1,189,1468.2,0,1470.3v22.4
			c190-2,376.2-26.6,557.4-50.2c197.3-25.7,392.8-54.8,593.5-75.2c144.5-14.7,292.2-25,438.4-9.1c117.6,12.8,224.2,39.3,329.1,65.3
			c101.4,25.2,203.6,50.8,316.1,64.7c117.4,14.5,237.5,13.1,355.4,0.3c244.5-26.7,459-90,700.4-120.9c114-14.6,232.3-20.2,349.4-10
			c100.1,8.8,193.1,28,282.4,49.3c187.2,44.6,361.4,89.3,581.1,85.3c239.7-4.4,468.7-40.9,700.4-65.1c235.9-24.7,463.4-33.4,691,9.8
			c113.3,21.5,219.4,49.9,334,70c138.9,24.4,280.8,31.4,428.6,21.7c388.1-25.5,747.4-120.3,1143.5-124.1
			c423.2,4,815.5,98.6,1231.6,124.2c147.7,9.1,287.7,3,426.8-21.1c116.8-20.3,224.7-49.3,340.1-71.2
			c468.5-88.5,925.1,48.7,1396.9,55.9c219.7,3.4,394-43.1,581.2-87.4c197.4-46.6,393.8-65.7,613.3-38.7
			c243,29.9,457.9,93.5,702.6,121.2c120.1,13.6,242.8,15.5,362.9,0.7c111-13.7,212-38.8,312-63.6c107.1-26.6,215.7-53.7,335.8-66.8
			c143.9-15.7,290.2-5.4,432.4,9c197.5,19.9,390.4,48.4,584.7,73.9c185.1,24.3,375.8,49.9,570.2,51.8v-22.4
			c-193.9-2.2-383.5-27.3-568.2-51.7C14931.7,1393.2,14741.9,1364.9,14547.2,1345.1z"/>
		
			<linearGradient id="SVGID_00000090287524738723106940000012323193347521194667_" gradientUnits="userSpaceOnUse" x1="7845.5161" y1="62.5962" x2="7845.5161" y2="257.1714" gradientTransform="matrix(1 0 0 -1 0 1532.0022)">
			<stop  offset="0" style="stop-color:#FFAB1C"/>
			<stop  offset="0.17" style="stop-color:#F0A11A"/>
			<stop  offset="0.48" style="stop-color:#CA8816"/>
			<stop  offset="0.92" style="stop-color:#8D5E0F"/>
			<stop  offset="1" style="stop-color:#80560E"/>
		</linearGradient>
		<path style="fill:url(#SVGID_00000090287524738723106940000012323193347521194667_);" d="M14203.3,1282.3
			c-128.3,12.9-247.9,38.5-366.2,63.4c-110.6,23.3-222.2,47-341.2,60.4c-122.1,13.7-243,12.3-365.2-0.5
			c-243.2-25.4-462.4-82.8-704.2-110.1c-109.8-12.4-221.9-17.5-334-8.4c-107.8,8.7-209.8,27.5-308.9,47.8
			c-203.4,41.6-403.1,90.6-633.6,87.5c-244.1-3.3-474.4-47-706.8-75.7c-234-28.9-463.2-38-691.8,4.3c-112,20.7-216.7,48.5-330,67.8
			c-137.5,23.4-278.2,29.6-423.8,20.2c-403.1-26.1-775.8-127.4-1187.2-130.6h-0.3c-389.1,3.1-734.9,103.6-1114.5,130.3
			c-143.3,10.3-290.1,3.4-425.5-19.9c-114.5-19.5-220.2-47.7-333.4-68.4c-227.2-41.7-455.2-32.5-687.4-3.8
			c-231,28.5-459.4,71.7-701.9,75.8c-229,3.9-428-43.9-629.9-85.4c-103.3-21.3-209.8-41.3-322.6-50.1
			c-113.5-8.8-226.9-3.2-337.7,9.7c-239.8,27.8-457.6,84.7-699.4,109.5c-119.4,12.2-237.2,13.8-356.7,0.8
			c-120.4-13.1-233.2-37.1-344.7-60.6c-115.6-24.3-232.2-49.3-357-62.7c-148.7-15.9-296.7-7.4-443.8,8.2
			c-350.2,37.1-691,115.7-1055.5,119.9v22.3c376.4-4.4,731.3-84.2,1093.5-122c148.2-15.5,298.2-25,447.8-8.3
			c121.4,13.6,233.8,39.1,345,64c107.4,24,216.1,48.6,333.2,61.9c118.6,13.5,235.9,11.6,354.4-1c242.3-25.9,458.8-84.8,698.8-113.8
			c110-13.3,223.1-19.3,336.1-10.3c108.9,8.7,211,28.7,309.9,50.1c195.3,42.4,384,88.9,608.1,85.5c241.1-3.7,469.4-44.4,700.4-71.3
			c233.1-27.2,461.7-35.9,688.6,6.1c114.5,21.2,221.4,49.8,337.3,69.7c138.2,23.7,280.7,30.5,427.4,20.5
			c382.8-26.1,733.6-124.7,1125.4-127.6c416.7,3,797.2,102.3,1206,127.9c146.8,9.2,287.8,2.9,426.2-20.8
			c114.7-19.7,220.6-47.9,333.9-69.1c228.4-42.6,458.1-34,693.1-6.6c232.2,27.1,462.4,68.3,705.1,71.2
			c225.4,2.7,414.6-45.2,611.3-87.5c94.8-20.4,192.7-39.2,296.8-47.8c111.6-9.2,223.2-3.8,332.2,9c242.2,28.5,460,88,703.6,114.5
			c121.2,13.2,241.6,14.9,362.8,0.7c115.7-13.6,223.3-37.8,329.8-61.6c113.9-25.5,229.3-51.6,354.1-64.7
			c143.5-15.1,287.7-5.8,429.5,8.8c364.9,37.5,721.9,118.3,1100.8,122.7v-22.3c-366.9-4.2-709.6-83.8-1062.3-120.6
			C14488,1276.2,14345.9,1267.9,14203.3,1282.3z"/>
		
			<linearGradient id="SVGID_00000171717032822644616650000014445976870031513237_" gradientUnits="userSpaceOnUse" x1="7845.6631" y1="132.5406" x2="7845.6631" y2="307.7669" gradientTransform="matrix(1 0 0 -1 0 1532.0022)">
			<stop  offset="0" style="stop-color:#FFAB1C"/>
			<stop  offset="0.17" style="stop-color:#F0A11A"/>
			<stop  offset="0.48" style="stop-color:#CA8816"/>
			<stop  offset="0.92" style="stop-color:#8D5E0F"/>
			<stop  offset="1" style="stop-color:#80560E"/>
		</linearGradient>
		<path style="fill:url(#SVGID_00000171717032822644616650000014445976870031513237_);" d="M14337.5,1231.2
			c-140.1,12.4-273.4,36.5-405.8,59.7c-242.4,42.5-478.8,79.2-741.8,56.3c-243.4-21.1-466.9-72.8-708.6-96.6
			c-113.1-11.1-227.6-15-342.4-6.6c-124.7,9.1-244.3,29.2-361.1,50c-221.4,39.4-451.7,90.5-696.4,85.1
			c-249.3-5.4-480.6-57.2-714.5-90.8c-232-33.4-458.6-44-688.6-2c-104.8,19.1-203.2,44.7-309.4,62.4
			c-134,22.4-273.2,28.8-414.6,18.7c-386.4-27.6-734.2-135.3-1130.4-139.6h-0.2c-380.7,4.1-710.3,110.3-1080,139
			c-141.9,11-283,4.7-417.8-17.6c-110.4-18.3-212.4-45-321.5-64.5c-228.3-40.8-454.1-29.2-683.3,4.1
			c-231.6,33.6-460.4,84.1-707.1,90.2c-246.1,6.2-478.4-45.5-701-85.1c-117.6-20.9-237.9-41.1-363.5-50.1
			c-115.4-8.3-231-4-344.6,7.3c-239.1,24-460.6,74.6-701.3,95.9c-264.9,23.3-502.6-13.8-746.8-56.6c-128.9-22.6-258.7-46-394.8-58.5
			c-144.8-13.3-286.9-8.2-429.5,7.9c-310.9,34.9-606.3,109.9-932.3,113v22.3c341.2-3.5,654.8-79.9,981.2-115.7
			c144.5-15.8,288.8-22.3,435.3-8c131.6,12.8,256.2,36.9,379.8,60.1c237.9,44.8,467.8,82.4,728.7,57.9
			c241.2-22.7,461.2-75.7,700.6-101.3c112.5-12,227.1-16.8,341.8-8.3c120.4,9,235.2,29.1,347.2,50.1
			c214.5,40.3,433.4,90.4,672.7,85.3c245-5.3,473.7-52.9,705-84.5c230.4-31.5,457.2-42,685-0.9c110.8,20,214.2,47.3,326.2,66.1
			c135.9,22.8,277.6,29.2,420.9,18.5c373.7-27.9,709.8-131.9,1093.9-135.5c402.8,3.8,761,109.3,1154.5,136.1
			c143.2,9.7,283.1,3.2,418.4-19.7c107.8-18.2,207.6-44.3,313.9-63.9c229.6-42.4,457.1-32.8,690.4-1.2
			c233.7,31.7,464.8,80.4,712.4,85c237.7,4.4,454.9-45.2,668.1-85.2c111.2-20.9,225.3-41,344.9-50c113.9-8.6,227.5-4.2,339.4,7.5
			c242,25.3,464.1,79.5,707.9,102c259.1,24,487.4-13.1,723.8-57.6c127-23.9,255-48.7,390.5-61.4c140.7-13.2,279-7.1,417.7,7.7
			c330.4,35.2,646.1,113.2,990.9,116.8v-22.3c-329.4-3.1-626.8-79.7-941.5-114C14612.7,1223.8,14476.5,1218.9,14337.5,1231.2z"/>
		
			<linearGradient id="SVGID_00000111886047206943762080000003405651432702217378_" gradientUnits="userSpaceOnUse" x1="7845.6177" y1="178.6747" x2="7845.6177" y2="384.2511" gradientTransform="matrix(1 0 0 -1 0 1532.0022)">
			<stop  offset="0" style="stop-color:#FFAB1C"/>
			<stop  offset="0.17" style="stop-color:#F0A11A"/>
			<stop  offset="0.48" style="stop-color:#CA8816"/>
			<stop  offset="0.92" style="stop-color:#8D5E0F"/>
			<stop  offset="1" style="stop-color:#80560E"/>
		</linearGradient>
		<path style="fill:url(#SVGID_00000111886047206943762080000003405651432702217378_);" d="M14029.1,1235.1
			c-257.6,38-512.5,73.2-786.2,53.2c-242.4-17.7-469.4-62.9-710.5-83c-262.8-21.9-503,6.8-750.5,45.6
			c-241.7,38-503.9,92.5-766.2,84.9c-253.7-7.4-485.5-66.6-719.6-105.2c-228.7-37.7-453.1-50.8-684.2-9.8
			c-101,17.9-195.8,42.1-298,58.6c-130.7,21.2-268.5,27.3-405.7,16.4c-368.8-29.4-690.5-143-1070.9-148.2l0,0
			c-371.7,5.1-684.2,116.1-1042.8,147.3c-138.1,12-277.9,6.5-410.1-14.4c-106.2-16.8-204.3-42.1-309-60.4
			c-227.8-39.9-450.1-27.3-675.5,9.7c-235.4,38.7-467.4,97.8-722.2,105.8c-267.5,8.4-535.9-48.5-782.4-87
			c-244.1-38.1-480.4-64.9-739-43.2c-237.9,20-461.9,64.2-700.7,82.3c-279.7,21.1-539.3-15.2-802.4-54
			c-271.5-40-545-80.2-831.2-47.2C544.4,1218.5,293.3,1291.9,0,1294v22.4c306.3-2.4,574.5-77.2,865.4-109.9
			c287.3-32.3,551.5,6.1,822.3,48.6c257.7,40.4,510.7,77.4,786.5,55.1c239.1-19.3,462-65.8,700-87.1
			c253.9-22.7,484.3,3.5,723.1,42.5c239.2,39,495.8,94.6,757,87.1c253.1-7.3,485-63.8,720.3-100.7c226.5-35.5,449.6-47.4,677-7.1
			c106.2,18.8,205.5,44.6,313.2,61.8c133.2,21.3,273.4,27,412.7,15.2c362-30.5,680.5-139.5,1054.9-144.2
			c385.9,4.9,717.1,116.3,1092.1,145.1c138.7,10.7,276.9,4.4,408.7-17.2c103.7-17,199.8-41.6,302.1-60
			c230.7-41.4,455.9-29.1,685.7,7.1c234,36.8,465.7,93.3,717.8,100c256,6.9,506.9-46.5,741.5-85c242-39.7,476-67.7,734-44.9
			c241.4,21.4,467.1,69,709.8,87.9c269.8,21,518.3-14.8,770.5-54.4c274.6-43.1,542.2-82.7,833.8-49.6
			c289.8,32.9,557.4,107.2,862.7,109.6V1294c-292.4-2.1-542.8-75-819.2-107.2C14581.6,1153.1,14304.4,1194.5,14029.1,1235.1z"/>
		
			<linearGradient id="SVGID_00000150820756562284336290000015611538501123113605_" gradientUnits="userSpaceOnUse" x1="7845.6631" y1="224.9154" x2="7845.6631" y2="455.681" gradientTransform="matrix(1 0 0 -1 0 1532.0022)">
			<stop  offset="0" style="stop-color:#FFAB1C"/>
			<stop  offset="0.17" style="stop-color:#F0A11A"/>
			<stop  offset="0.48" style="stop-color:#CA8816"/>
			<stop  offset="0.92" style="stop-color:#8D5E0F"/>
			<stop  offset="1" style="stop-color:#80560E"/>
		</linearGradient>
		<path style="fill:url(#SVGID_00000150820756562284336290000015611538501123113605_);" d="M14096.2,1176.8
			c-272.7,35.8-542.6,71.1-829.1,51.7c-238.1-16.2-464.6-55.5-701.9-73.4c-116.7-8.8-234.2-11.5-351.7-3.8
			c-140.7,9.2-277.7,28.4-412.6,47.9c-147.9,21.3-294.5,44.6-444.6,62.8c-123,14.9-253,28.3-381.3,24.2
			c-258-8.2-490.3-73.2-725.5-115c-223.2-39.7-445-52.8-673.4-13.6c-102,17.5-197.5,41.8-300.9,57.8
			c-130.8,20.2-270.7,25.9-406.9,13.5c-353.6-32.1-655.3-147.7-1023.3-152.6l0,0c-367.8,4.8-668.6,120.6-1021.9,152.6
			c-136.2,12.3-276.2,6.8-407.2-13.5c-103.4-16-198.9-40.2-300.9-57.8c-228.4-39.2-450.1-26.1-673.4,13.6
			c-235.1,41.8-467.5,106.8-725.5,115c-128.4,4.1-258.3-9.3-381.3-24.2c-150-18.2-296.7-41.5-444.5-62.8
			c-134.9-19.5-271.9-38.7-412.6-47.9c-117.5-7.7-234.9-4.9-351.7,3.8c-237.3,17.8-463.8,57.2-701.9,73.4
			c-286.5,19.5-556.3-15.9-829.1-51.7c-273.6-35.9-564.2-79.2-849.5-44.8c-255.2,30.8-473,101.1-745.3,103.2v22.4
			c277.6-2,505.3-73.3,766.2-104.3c285.2-34,570.9,8.4,843.6,45.5c270.1,36.7,537.6,72.3,822.3,52.4c238.4-16.6,464-57.6,701.5-75.9
			c264.6-20.4,507.3,6.9,758.3,44c144.6,21.4,287.9,44.7,434.8,62.8c122.3,15.1,251.7,28.4,379.5,24.2
			c257-8.5,489.2-71.5,724.6-112.4c223.9-38.9,445.5-52.2,673.8-12.8c102.8,17.8,199.1,42.3,303.3,58.6
			c131.2,20.4,270.9,25.9,407.5,13.6c354.7-31.9,658.9-146,1027.6-151.1c374.1,5.2,682.8,122.1,1044.2,152.1
			c135.5,11.2,273.1,5,402.6-15.6c100.4-16,193.5-39.5,292.6-56.8c231.6-40.5,455.4-26.7,682.4,12.9c234,40.8,466.1,103.9,722,111.7
			c270.4,8.3,546.5-47.6,797.4-84.8c254.6-37.8,501.5-67,770.6-46.4c240.8,18.5,469.5,60.4,711.4,76.6
			c278.7,18.7,541.2-15.7,805.6-51.7c276.4-37.6,566.2-81.2,855.5-46.4c259.9,31.3,487,102.1,763.7,104v-22.4
			c-272.4-2.1-490.2-72.4-745.4-103.2C14660.4,1097.7,14369.9,1140.9,14096.2,1176.8z"/>
		
			<linearGradient id="SVGID_00000103251418778883000790000015338940223748296603_" gradientUnits="userSpaceOnUse" x1="7845.6182" y1="281.6414" x2="7845.6182" y2="510.8412" gradientTransform="matrix(1 0 0 -1 0 1532.0022)">
			<stop  offset="0" style="stop-color:#FFAB1C"/>
			<stop  offset="0.17" style="stop-color:#F0A11A"/>
			<stop  offset="0.48" style="stop-color:#CA8816"/>
			<stop  offset="0.92" style="stop-color:#8D5E0F"/>
			<stop  offset="1" style="stop-color:#80560E"/>
		</linearGradient>
		<path style="fill:url(#SVGID_00000103251418778883000790000015338940223748296603_);" d="M14085.8,1120.7
			c-261.2,37-520.4,71.1-796.8,52.2c-243.5-16.6-472.8-60-715.2-78.9c-268.6-21-517.6,9-772.2,46c-140.4,20.4-279.8,42.4-422.3,59.7
			c-121.9,14.8-250.9,28.3-378,24.3c-258.4-8.1-495.9-70.5-733.5-110.8c-116.7-19.8-239.7-37.5-365.7-39.2
			c-109.4-1.5-218.2,9.3-320.2,26.2c-101.6,16.8-198,39.4-300.7,55c-130.9,19.8-267.8,26.5-404.3,15.2
			c-358.1-29.7-663.7-143-1034.2-149.2l0,0c-364.9,6.1-665.8,116.8-1017.1,148.3c-137.7,12.3-276.4,6.4-409.1-13.3
			c-106.6-15.8-206.3-39.4-311.6-56.6c-99.3-16.2-204.3-26.4-310.4-25.5c-126.2,1.1-249.8,18.7-366.7,38.4
			c-239.1,40.4-476.6,102.7-736.1,111.5c-127.3,4.3-257-9.2-379-24.1c-148-18-292.6-41-438.4-62c-250.9-36.3-495.5-64.5-759.7-43.7
			c-239,18.8-465.4,61.3-705.3,78.2c-282.3,20-546.4-15.2-813.2-53c-270.5-38.3-551.1-79.5-835.1-45.9
			c-259.5,30.7-485.2,100.6-761,103v22.4c272-2.4,489.5-72.2,744.5-102.8c285.4-34.3,574.4,8.4,847.7,44.8
			c271.6,36.2,541,71.4,826.7,52c238.6-16.2,465.3-56.2,703.1-74.2c266.4-20.1,511,7.8,764.2,44.1c148.2,21.2,295.2,44.4,445.5,62.5
			c122.7,14.8,252.7,28.4,380.6,24.2c258.5-8.4,492.6-73,728.8-114.6c116.2-20.4,238.9-38.2,364.9-39.2
			c105.6-0.8,209.7,9.1,308.1,25.7c102.9,17.3,199.7,41.2,303.9,57.1c131.5,20,270.8,25.8,407.5,13.4
			c352.4-32,652.4-146.3,1019.3-151.8c367.1,5.5,668,119.7,1020.8,151.8c136.6,12.4,275.7,6.6,407.1-13.4
			c104.2-15.9,201-39.8,303.9-57.1c98.4-16.6,202.5-26.5,308.1-25.7c126,1,248.7,18.8,364.9,39.2
			c236.2,41.6,470.4,106.2,728.8,114.6c128,4.2,258-9.4,380.6-24.2c150.4-18.2,297.3-41.3,445.5-62.5
			c253.1-36.3,497.8-64.2,764.2-44.1c237.9,17.9,464.5,57.9,703.1,74.2c285.8,19.4,555-15.8,826.7-52
			c273.3-36.4,562.3-79.2,847.7-44.8c255,30.7,472.5,100.5,744.5,102.8v-22.4c-275-2.4-500.1-71.8-758.6-102.7
			C14644.5,1039.3,14360,1081.8,14085.8,1120.7z"/>
		
			<linearGradient id="SVGID_00000078019835579593254120000000911496438007017358_" gradientUnits="userSpaceOnUse" x1="7845.6626" y1="352.2318" x2="7845.6626" y2="552.4311" gradientTransform="matrix(1 0 0 -1 0 1532.0022)">
			<stop  offset="0" style="stop-color:#FFAB1C"/>
			<stop  offset="0.17" style="stop-color:#F0A11A"/>
			<stop  offset="0.48" style="stop-color:#CA8816"/>
			<stop  offset="0.92" style="stop-color:#8D5E0F"/>
			<stop  offset="1" style="stop-color:#80560E"/>
		</linearGradient>
		<path style="fill:url(#SVGID_00000078019835579593254120000000911496438007017358_);" d="M14458.7,1007.6
			c-135.7,11.8-264,35.8-391.2,59.1c-238.5,43.6-470.4,77.9-730.6,56c-248.6-21-477.6-72.7-724.6-96.3
			c-259.4-24.7-501.4,4.8-747.2,41.9c-241.1,36.4-500.6,88.2-760.5,81.4c-265.3-7-516.1-61.4-766.2-96.7
			c-122-17.2-248.8-32.7-377.6-34.1c-114.3-1.2-227.7,9.4-335.8,25.2c-249.5,36.5-477.6,88-748.6,68.2
			c-358.9-26.2-675.7-127.7-1044.5-132.8l0,0c-357.2,5-660.7,104.3-1006.8,132c-276.3,22.1-509.1-31.2-763.7-68
			c-105.1-15.2-214.6-25.3-325.5-24.6c-128.9,0.9-256.2,16.2-378.4,33.4c-251.4,35.3-502.6,89.8-769,97.3
			c-265.2,7.5-530.7-46.5-776.6-83.4c-242.4-36.4-480.4-64.1-735.8-39.5c-243.7,23.4-469.8,74.1-714.7,95.4
			c-266.1,23.2-501.8-12.2-745.7-56.8c-123.5-22.6-248-45.6-379.5-57.4c-133.5-11.9-266.7-8.5-398.5,5.9
			C555.2,1044.8,297.1,1115.1,0,1117.7v22.4c287.4-2.5,532-72.6,804.3-103.5c280.4-31.8,540,6,802.9,49
			c253.9,41.6,502.5,77,775.5,55.2c242.8-19.4,469-66.7,710.7-88c259.1-22.9,500.6,5.2,746.5,41.5c250.2,36.9,525,93.1,794.4,84.6
			c263.2-8.3,508.6-66,754.7-103.5c119.8-18.2,245.5-34.7,373-35.7c108.6-0.9,216.1,9.4,318.5,25c111.2,16.9,217.4,39.9,329.7,55.5
			c135.3,18.8,275.3,25.1,415.3,13.3c348.3-29.5,650.8-133.5,1011.3-139.2c369.3,5.9,681.5,112.2,1040,140
			c266.8,20.7,486-31.5,729.6-69c105.3-16.2,216.6-27.1,328.6-25.7c127.4,1.6,252.5,18.2,372.1,36.5
			c244.7,37.4,489.9,95.2,752,102.8c264.3,7.7,532.5-46.1,778-82.5c249.4-37,495-66.9,758.3-43.8c245.1,21.5,474.2,69.8,720.6,88.8
			c267,20.6,511.5-13.8,759.9-54.4c266.5-43.7,529.3-82.6,813.8-50.1c271.3,31,515.1,100.7,801.7,103.2v-22.4
			c-296.1-2.6-553.6-72.4-835.2-103.5C14724.8,999.7,14591.9,996,14458.7,1007.6z"/>
		
			<linearGradient id="SVGID_00000168826556514748402220000006697290858457230487_" gradientUnits="userSpaceOnUse" x1="7845.5166" y1="429.6754" x2="7845.5166" y2="591.3585" gradientTransform="matrix(1 0 0 -1 0 1532.0022)">
			<stop  offset="0" style="stop-color:#FFAB1C"/>
			<stop  offset="0.17" style="stop-color:#F0A11A"/>
			<stop  offset="0.48" style="stop-color:#CA8816"/>
			<stop  offset="0.92" style="stop-color:#8D5E0F"/>
			<stop  offset="1" style="stop-color:#80560E"/>
		</linearGradient>
		<path style="fill:url(#SVGID_00000168826556514748402220000006697290858457230487_);" d="M14359.2,949
			c-113.6,12.8-215.3,39.4-315.7,65.4c-93.8,24.3-188.9,48.5-294.2,61.3c-116,14.1-233.8,11.3-349.9-0.9
			c-254.9-26.8-483.6-88.1-736.4-117.9c-248.5-29.2-478.3-1.7-714.2,35.8c-228.2,36.2-462.2,82.1-709.4,78.1
			c-275.5-4.4-542.3-49.8-807.7-78.8c-128.8-14.1-260.7-26.5-393.9-27.1c-121.6-0.5-240.8,9.2-357.4,24
			c-267.5,33.8-520,82.7-804.7,66.1C8515,1034,8185.8,945.7,7818,943.4h-0.3c-349.2,2.2-655.8,89.3-996.7,111.2
			c-289.7,18.6-548.2-33.2-820.4-66.9c-113.7-14.1-230-23.3-348.4-22.7c-134.2,0.7-266.9,13.2-396.7,27.5
			c-262.9,28.9-526.8,73.3-799.7,78.4c-248.7,4.6-484.5-41.7-714-78.2c-237.7-37.7-468.8-65.2-718.9-35.1s-476.6,90.2-728.9,117
			c-117.1,12.4-235.4,15.4-352.4,1.2c-106-12.8-201.8-37.5-296.1-61.9c-97.7-25.3-196.6-51-306.7-64
			c-136.9-16.2-278.9-8.6-414.9,5.5c-308.7,31.9-602,100.7-923.8,103.5v22.4c310.6-2.7,589.7-71.3,886.7-103.3
			c136.4-14.7,276.7-20.8,414.4-6c118.2,12.7,227.2,37.4,335,61.7c104.1,23.4,209.5,47.2,323.5,59.6c119,13,239.3,11.1,358.5-0.6
			c249.8-24.5,476.7-81.1,724.4-108.7c254.3-28.4,490.2-0.1,731.6,37.5c234.5,36.5,480.1,85.2,733.7,79.4
			c268.8-6.2,526.7-53.8,783.8-85.2c127.2-15.5,257.9-29.1,390.4-30.2c115.6-0.9,229.8,8.6,340.4,23.1
			c265.6,34.8,514.7,87.6,799.1,67.7c343.5-24,649.2-116,1001.9-119.3c368.1,3.4,692.7,96.8,1052.7,119.8
			c279.2,17.8,522.7-32.1,783.2-66.9c113.4-15.1,230.3-25.2,349.1-24.5c131.4,0.8,261.4,14.5,387.6,29.8
			c259.5,31.4,520.3,80.3,791.7,85.7c252.2,5,495.8-43.1,729-79.4c239.6-37.3,474.2-65.7,726.8-38.1
			c250.6,27.3,479.4,85,731.8,109.6c118.3,11.5,237.9,13.3,356,0.4c113.2-12.4,217.9-35.8,321.4-59.1c110.9-25,222.8-50.5,344.7-63
			c132.4-13.6,267.1-7.8,398.2,5.8c300.5,31.3,581.6,101.4,895.5,104.2v-22.4c-325.2-2.8-620.7-73.1-933.1-104.5
			C14626.9,941.2,14491.1,934.1,14359.2,949z"/>
		
			<linearGradient id="SVGID_00000181083179923433931960000009826021945985316015_" gradientUnits="userSpaceOnUse" x1="7845.5396" y1="475.3719" x2="7845.5396" y2="658.5146" gradientTransform="matrix(1 0 0 -1 0 1532.0022)">
			<stop  offset="0" style="stop-color:#FFAB1C"/>
			<stop  offset="0.17" style="stop-color:#F0A11A"/>
			<stop  offset="0.48" style="stop-color:#CA8816"/>
			<stop  offset="0.92" style="stop-color:#8D5E0F"/>
			<stop  offset="1" style="stop-color:#80560E"/>
		</linearGradient>
		<path style="fill:url(#SVGID_00000181083179923433931960000009826021945985316015_);" d="M14274.7,889.7
			c-96.2,13.4-173.5,41.8-249.2,70.3c-70.4,26.5-142.1,52.9-230,66.9c-113.6,18.1-233.5,12.2-347.6-2.1
			c-259.5-32.5-486.7-101.8-744.2-136.7c-233.5-31.6-449.6-7.5-672,29.4c-219.4,36.4-435,79.1-673.8,77.1
			c-283.9-2.4-563.3-39.2-840.7-62.7c-266-22.5-517.2-28.6-781.7,0.5c-287.3,31.7-562.4,79-863.8,64.7
			c-361.1-17.2-699.6-92.5-1065.9-93.1h-0.4c-341.2,0.5-650,75.3-985.1,92.8c-302.1,15.8-581.1-33.3-868.9-64.9
			c-262.5-28.8-512.4-22.5-776.3-0.2c-275.9,23.3-553.5,59.8-835.8,62.8c-237.2,2.5-451.5-38.9-669.4-75.3
			c-229-38.2-450.2-63.5-690.7-30c-255.1,35.5-481.2,104.1-739.3,135.9c-111.8,13.8-228.6,19.6-340.2,2.4
			c-89.1-13.7-162.1-40.4-233-67.2c-73.5-27.7-148.6-55.5-241.4-69.5c-133.5-20-282.6-8.3-416.7,4.6C673.1,928,347.6,997.1,0,1000.2
			v22.3c338.8-3,653.4-72,980.1-104.2c134.9-13.3,281.1-23.6,415.9-4.9c98.3,13.6,181.8,40.7,263.7,67.6
			c79.1,25.9,160,51.9,254.6,65.3c113.5,16.1,230.2,11.3,343.8-2c255.9-30.1,482.4-95.7,735.7-129.4c243.8-32.4,468-6.5,700.1,31.6
			c221.9,36.4,443.4,79.4,684.5,76.3c279.1-3.7,552-42.8,823.5-68.1c260.4-24.2,506.6-31.1,766.2-1.4
			c282.6,32.3,554.6,82.4,852.5,65.7c337.2-18.9,645.2-98.2,989.2-99c366.5,0.9,701.6,80.8,1062.2,99.3
			c297,15.2,565.4-33,847.2-65.4c261.4-30.1,509-23.3,771.4,1.1c272.9,25.4,547.7,65.1,828.3,68c242.9,2.5,465.5-41.7,689.2-78.1
			c225.4-36.7,444.3-61.5,681.1-30.9c255.7,33.1,483.3,99.3,740.8,130.1c116,13.9,235.7,18.8,351.4,1.7
			c93.4-13.8,173.1-39.5,251.4-65.1c84.2-27.6,170-55.3,271.8-68.4c130.1-16.8,270.1-7.1,399.9,5.5
			c329.1,32,645.5,101.9,986.7,104.8v-22.3c-349.9-3.1-677.3-73.1-1015.5-105.2C14546.5,882.8,14403.8,871.7,14274.7,889.7z"/>
		
			<linearGradient id="SVGID_00000075139830986116813550000003940914854255030444_" gradientUnits="userSpaceOnUse" x1="7845.5288" y1="525.6945" x2="7845.5288" y2="722.6296" gradientTransform="matrix(1 0 0 -1 0 1532.0022)">
			<stop  offset="0" style="stop-color:#FFAB1C"/>
			<stop  offset="0.17" style="stop-color:#F0A11A"/>
			<stop  offset="0.48" style="stop-color:#CA8816"/>
			<stop  offset="0.92" style="stop-color:#8D5E0F"/>
			<stop  offset="1" style="stop-color:#80560E"/>
		</linearGradient>
		<path style="fill:url(#SVGID_00000075139830986116813550000003940914854255030444_);" d="M14233,830.4
			c-89.8,13.4-154,42.7-216.4,73c-57.7,28.1-117.1,55.5-198.4,69.6c-111.1,19.3-236.1,12.5-347.7-2.2
			c-263-34.5-488.7-109.3-749.6-146.4c-466.7-66.4-854.9,109.6-1314.6,103.9c-288.6-3.5-573.9-34.8-857.8-55.3
			c-140-10.1-282-19.6-424.2-19.8c-123.9-0.1-246.3,9.3-366.7,21.8c-294.1,30.5-579.2,77-885.9,63.1
			c-361.4-16.5-705.4-82.6-1071-84.9h-0.4c-338.2,2.1-649.8,68.5-983.1,84.8c-303.7,14.9-589.9-32.3-880.9-62.7
			c-121.9-12.7-246.1-22.3-371.6-22.1c-139.2,0.3-278.2,9.4-415.3,19.3c-283.8,20.3-568.3,51.3-856.5,55.7
			c-232.1,3.5-439.6-37.1-651.6-73.7C3417,815.9,3195,791.3,2959.3,826c-258.9,38.2-484.1,112.7-747.1,146
			c-109.4,13.8-231.2,19.8-339.7,0.9c-82.3-14.3-142.1-42.3-200.5-70.8c-61.1-29.8-124.4-58.2-212.2-71.5
			c-129.4-19.5-279-6.7-408.8,5.4C702.1,868.5,359.9,938.3,0,941.4v22.4c356.9-3.1,695-72.4,1040.6-104.9
			c133-12.5,286.2-25.8,418.2-4.5c87.1,14,152.2,42.7,215.5,71.6c61,27.9,124.4,55.4,207.9,69.2c109.5,18.1,228.8,11.5,338.6-2.6
			c260.8-33.5,486-106,743.4-143.5c236.2-34.4,456.2-9.7,681.1,28.7c212.8,36.4,420.3,76.7,652.8,74.1
			c286.1-3.2,568.6-35.8,849.7-56.8c136.9-10.3,275.6-19.3,414.8-19.7c125.4-0.3,248.8,8.6,370.5,21.3
			c293.6,30.7,580.4,79,887.2,63.8c332.9-16.5,642.9-85,981-86.1c366,1.1,708.7,70.1,1070.3,86.3c306.1,13.7,589.1-32.8,882.2-63.6
			c120.5-12.7,242.6-21.8,366.8-21.8c142.3-0.1,284.1,9.3,424.1,19.8c282.5,21.2,566.8,54.1,854.5,56.8
			c460.9,4.3,851.8-170.3,1319.5-104c260,36.8,486.3,110,748.4,144.3c111.9,14.7,234.4,21.5,345.7,2.3c82.2-14.2,144.4-41.4,205-69
			c65.3-29.8,132.4-58.9,223.1-72.5c128-19.1,274.3-6.6,402.6,5.2c348.2,32.2,688.2,102.3,1047.5,105.5v-22.4
			c-361.1-3-704.4-73.3-1054.5-105.6C14508.4,824,14361,811.4,14233,830.4z"/>
		
			<linearGradient id="SVGID_00000013177882258452654560000013809853293844809104_" gradientUnits="userSpaceOnUse" x1="7845.5718" y1="586.131" x2="7845.5718" y2="775.4697" gradientTransform="matrix(1 0 0 -1 0 1532.0022)">
			<stop  offset="0" style="stop-color:#FFAB1C"/>
			<stop  offset="0.17" style="stop-color:#F0A11A"/>
			<stop  offset="0.48" style="stop-color:#CA8816"/>
			<stop  offset="0.92" style="stop-color:#8D5E0F"/>
			<stop  offset="1" style="stop-color:#80560E"/>
		</linearGradient>
		<path style="fill:url(#SVGID_00000013177882258452654560000013809853293844809104_);" d="M14287.9,766.1
			c-99.1,14-178.9,43.8-256.9,73.1c-72.7,27.4-146.8,55-237.4,69.6c-113.4,18.3-234.1,12.2-347.9-2
			c-259.2-32.3-486.5-101.2-743.8-135.8c-229.6-30.9-444.5-8.2-663.9,27.3c-213.9,34.7-425.5,75.3-657.6,72.9
			c-288.4-3.1-573.3-37.2-856.2-59.2c-139.8-10.9-281.5-20.7-423.8-20.8c-122.8-0.1-243.3,9.1-362.1,22.4
			c-288,32.2-563.8,80.5-866.5,65.8c-361.1-17.4-698.8-94.5-1065.4-94.9h-0.4c-341.9,0.4-650.1,76.8-985.6,94.7
			c-303.3,16.1-583-34-871.6-66.1c-120.1-13.4-241.9-22.3-365.9-21.9c-139.2,0.5-277.7,10-414.5,20.6
			c-281.5,21.9-564.6,55.5-851.4,59.2c-230.8,3-441.1-36.5-653.7-71.2c-226-36.8-445.8-60.6-682.1-27.8
			c-254.9,35.3-480.9,103.4-738.7,135c-111.6,13.7-229.2,19.7-340.6,2.4c-91.9-14.3-167.3-42.3-240.4-69.9
			c-75.9-28.6-153.5-57.8-249.2-72.3c-132.9-20.2-282.8-8.7-416,5c-331.7,34-651,108.3-996.3,110.2V905
			c352.9-2,683.7-74.2,1024.1-107.3c132.7-12.9,285.3-25.5,417.2-4.6c90.3,14.3,160.2,43.4,228.3,72.3
			c65.6,27.8,133.6,55.7,220.3,69.8c109.8,17.8,228.3,11.2,338.3-2.8c259.6-32.9,485.3-103.7,741.7-140.5
			c235.9-33.8,455.7-9.6,680.8,28.2c211.7,35.5,420.4,75.5,651.2,72.6c286.9-3.6,570.3-36.1,852.3-57.2
			c136.9-10.3,275.6-19.5,414.8-19.9c125-0.4,247.9,8.5,369.1,21.5c292.1,31.3,576.4,80.2,882.2,64.9
			c333.9-16.8,643.1-88.7,982.7-89.2c366.4,0.4,707.1,72.9,1068.7,89.3c305.3,13.9,585.7-33.2,877.2-64.6
			c120-12.9,241.6-22.1,365.4-22c142.3,0.1,284,9.6,424,20.1c283.4,21.2,568.6,54.1,857.1,57.1c232.1,2.4,442-38.9,655.1-74.4
			c218.7-36.4,433.4-59.6,662.6-27.7c259,36.1,485.8,107.6,746.7,141.2c112.2,14.5,233.8,21.4,345.5,2.5
			c85.4-14.5,152.2-42,217.3-69.6c70.1-29.7,142.1-59.3,235.8-73.1c127.8-18.7,273.7-6.9,401.6,5.3c343,32.8,675.7,106,1031,108
			v-22.3c-347.7-1.9-668.7-77.2-1003-110.8C14559.9,758.9,14416.4,748,14287.9,766.1z"/>
		
			<linearGradient id="SVGID_00000044878422114197899320000009261211885145954474_" gradientUnits="userSpaceOnUse" x1="7845.5508" y1="655.2081" x2="7845.5508" y2="845.8229" gradientTransform="matrix(1 0 0 -1 0 1532.0022)">
			<stop  offset="0" style="stop-color:#FFAB1C"/>
			<stop  offset="0.17" style="stop-color:#F0A11A"/>
			<stop  offset="0.48" style="stop-color:#CA8816"/>
			<stop  offset="0.92" style="stop-color:#8D5E0F"/>
			<stop  offset="1" style="stop-color:#80560E"/>
		</linearGradient>
		<path style="fill:url(#SVGID_00000044878422114197899320000009261211885145954474_);" d="M14392.6,695.4
			c-120.6,14.9-227.8,45-333.4,74c-98.8,27-199,54.6-310.8,69.4c-116.5,15.4-235.2,12.5-352.6,0.3
			c-254.6-26.5-483.2-87.2-735.7-116.6c-235-27.4-456.5-5.4-681.9,28c-214.4,31.8-428.6,68.8-658.4,65.5
			c-289.3-4.2-573.9-42.6-856.5-67.2c-135-11.8-272.4-22.8-410.2-23.3c-123-0.5-243.3,9.8-361.1,25.1
			c-270.5,35-527.5,86.7-816.3,69.2c-361-21.8-688.3-113.3-1056.9-115.8h-0.2c-350.5,2.4-655.7,92.6-997.4,115.3
			c-293.7,19.6-557-35.1-832.3-70.1c-114.7-14.6-232.1-24.3-351.8-23.7c-139,0.7-277.3,11.6-413.3,23.5
			c-279.9,24.5-561.6,62-848.2,66.8c-231.4,3.8-447.2-33.5-663.1-65.5c-227.2-33.6-450.1-55.4-686.7-27.3
			c-249.6,29.7-476.3,89.3-728.2,115.7c-118.2,12.4-237.5,15.4-355,0c-112.6-14.8-213.6-42.8-312.8-70
			c-102.8-28.2-207.1-57.3-324-72.4c-136.5-17.7-278.1-10-413,6.8C593.6,740.4,317.6,821,0,823.9v22.4
			c329-2.3,623.1-80.5,935.7-116.4c134.4-15.4,279-24.6,414.2-6c107.8,14.8,201.3,44,293.1,72.4c88.6,27.3,179.2,55.3,283,70
			c115,16.2,233,11.9,348.5-1c254.3-28.6,480.9-91.7,732.6-123.7c236.6-30.1,457.9-7.5,684.8,27.5c214.5,33.1,428.1,71.3,659.2,67.9
			c286.7-4.2,568.9-40.2,849.5-63.7c136.4-11.4,274.7-21.7,413.8-22.3c121.6-0.5,240.8,8.8,357.8,22.9
			c280.8,33.8,551,86.6,848.5,68.5c339.2-20.6,645.6-105.4,992.7-106.7c367.2,1.4,698.4,86.8,1058.7,107
			c296.6,16.6,563-34.3,842.9-68.2c115.8-14,233.5-23.5,353.9-23.5c142.1,0.1,283.7,10.8,423,22.5c282,23.6,566.1,60,854.3,63.6
			c232.5,2.9,447.3-36.4,663.2-69.5c220.5-33.8,436.5-55.2,666.5-26.9c254.1,31.3,481.8,95.1,737.5,124.4
			c118.1,13.5,239.2,17.8,356.5,0.7c102.5-15,191.8-42.6,279.8-69.7c94.3-29,190.2-58.9,301.5-73.2c130.2-16.7,268.7-7.9,397.8,6.7
			c315,35.5,610.8,114.7,942,117v-22.5c-321-2.8-598.6-85.2-901.5-121.8C14659.7,686.4,14524.1,679.1,14392.6,695.4z"/>
		
			<linearGradient id="SVGID_00000000915854044683625500000016081742364165531804_" gradientUnits="userSpaceOnUse" x1="7845.5283" y1="727.6187" x2="7845.5283" y2="916.6693" gradientTransform="matrix(1 0 0 -1 0 1532.0022)">
			<stop  offset="0" style="stop-color:#FFAB1C"/>
			<stop  offset="0.17" style="stop-color:#F0A11A"/>
			<stop  offset="0.48" style="stop-color:#CA8816"/>
			<stop  offset="0.92" style="stop-color:#8D5E0F"/>
			<stop  offset="1" style="stop-color:#80560E"/>
		</linearGradient>
		<path style="fill:url(#SVGID_00000000915854044683625500000016081742364165531804_);" d="M14094.5,696.8
			c-126.4,26.7-254.2,54.3-390.4,69.5c-122.8,13.8-246.4,13.6-370.4,3.3c-248.2-20.7-477.3-71.9-724-95.1
			c-235.1-22.1-460.4-2.6-687,27.4c-218.3,28.9-438.3,63.5-669.1,59.1c-289.1-5.5-572.1-48.1-852.9-75.7
			c-133.9-13.2-271.2-25.7-408.8-26.6c-117.7-0.7-233,10.6-343.9,27.3c-255,38.3-493.3,94.8-771.3,73.5
			c-359.6-27.6-673.4-133.6-1043.8-139.2h-0.1c-359.2,5.4-660.4,109.2-1007.5,138.3c-283.4,23.8-526.4-34.6-786.6-73.4
			c-107.8-16-219.4-26.9-333.4-26.5c-137.6,0.4-275.1,12.9-409,26c-282.1,27.6-566,70.2-856.3,76.2
			c-235.7,4.8-460.2-31.3-682.8-60.6c-223.9-29.4-446.2-47.6-677.9-25.6c-243.4,23.1-469.6,73.3-714.2,94.3
			c-128.6,11-257.4,11.4-384.6-3.4c-136.7-15.9-264.9-43.7-392-70.6c-256.5-54.2-516.5-106.8-801.4-64.1
			C518.6,671.2,293.3,760.9,0,765.1v22.4c303.4-3.7,549.2-90.9,830.6-129.7c130.8-18,263-22.4,396.4-7.1
			c132.4,15.2,254.6,44,375.2,71.9c116.7,27,234.6,54.8,362,70.5c124.8,15.4,251.7,14.1,377.7,2.2
			c246.9-23.2,472.9-76.9,718.3-102.2c231.7-23.9,452.7-4.8,676.2,25.8c221.3,30.4,443.5,67.4,678.8,63
			c290.4-5.5,574.8-46.5,857.6-73c134.3-12.6,271.8-24.4,409.5-24.8c115.9-0.3,229.5,10.2,339.6,25.7
			c265.5,37.4,516.1,94.2,802.9,71.8c344.6-26.9,647.1-125.4,1002.7-129.7c369.6,4.5,688.6,105,1048.7,130.5
			c281.8,19.9,527.3-34.8,787.9-71.9c113.5-16.1,230.6-27.1,350.2-26.5c137.7,0.8,275.1,12.7,409.3,25.3
			c281.5,26.5,565.1,67.5,854.2,72.5c230.5,4,448.3-31.5,665.1-61.5c226.1-31.2,450.1-51.7,685.1-27.6
			c248.9,25.5,477.8,80.3,728.4,103.1c121.8,11.1,243.3,12.1,364-2.2c127-15.1,244.7-42.7,360.8-69.5
			c124.3-28.7,250.1-58.8,386.8-74.1c133-14.9,265-10.1,395.1,8c280.2,39,525.3,125.6,827.8,129.3v-22.4
			c-292.4-4.1-517.2-93.3-784.4-133.8C14617.7,587.6,14354.5,641.8,14094.5,696.8z"/>
		
			<linearGradient id="SVGID_00000002356021739599876910000017841944068605895605_" gradientUnits="userSpaceOnUse" x1="7845.5723" y1="798.3474" x2="7845.5723" y2="988.9111" gradientTransform="matrix(1 0 0 -1 0 1532.0022)">
			<stop  offset="0" style="stop-color:#FFAB1C"/>
			<stop  offset="0.17" style="stop-color:#F0A11A"/>
			<stop  offset="0.48" style="stop-color:#CA8816"/>
			<stop  offset="0.92" style="stop-color:#8D5E0F"/>
			<stop  offset="1" style="stop-color:#80560E"/>
		</linearGradient>
		<path style="fill:url(#SVGID_00000002356021739599876910000017841944068605895605_);" d="M14120.5,627.8
			c-271.3,48.4-536.7,94.7-833.3,74.7c-243.2-16.4-472.6-59.4-714.8-78.2c-235.9-18.3-462.6-0.8-691.1,26.6
			c-220.9,26.5-445.3,59.2-677,54.3c-289-6.1-570.8-52.3-850.1-82.2c-133.1-14.2-270.3-28-407.8-28.9
			c-114.3-0.8-225.7,10.8-332,28.8c-244,41.3-465.5,100.8-737.3,77.1c-359.1-31.3-661.1-150.3-1033.7-156.8l0,0
			C7476,549.6,7178.2,665.7,6825.8,699c-278.1,26.2-503.6-35-753.4-76.9c-103.3-17.3-211.1-28.4-321.9-28
			c-137.5,0.5-274.9,14.1-408,28.3c-280.6,29.9-563.2,76.2-853.5,82.7c-236.6,5.4-465.6-28.8-691.1-55.7s-449.2-43.1-681.8-25
			c-238.8,18.7-465.2,60.7-704.9,77.5c-132.8,9.3-264.3,8.6-395.4-5.2c-156.7-16.5-306.3-44.2-455.2-70.7
			c-265.2-47.3-577.7-114.1-863.3-62.9C454.4,606.6,276.7,701.9,0,706.3v22.4c281-4.5,474.9-98,725.5-140.4
			c286.2-48.3,580.3,13.7,843.6,63.2c141.9,26.7,284.6,54.4,434.7,70.7c130,14.1,261.3,14.7,393,4.8c241.4-18.1,467.6-62.9,708-82.9
			c232.1-19.3,455.7-2.4,680.6,25.3c224.9,27.7,452.1,62.5,688.5,57.2c529.5-11.9,1059.1-165.9,1587.9-80.7
			c253.1,40.8,484.5,101.2,763.9,75.7c350.7-32.1,649.7-143.9,1014.4-150.4c371.7,6.6,677.8,121,1036.9,151.3
			c273.4,23.1,500.6-35.6,748-75.9c532-86.6,1061.8,68.9,1594.6,80c231.5,4.8,454.5-28.5,674.5-55.8c227.7-28.2,454.3-46.4,689.8-27
			c243.7,20.1,472.9,66,717.8,83.7c290.5,20.9,547.4-24.7,811-74.2c266.8-50.2,565.3-114.1,855.4-64.6
			c249.6,42.6,443,135.5,723.2,140v-22.3c-275.9-4.4-453.2-99-695.1-142.8C14706.6,511.1,14389.1,579.8,14120.5,627.8z"/>
		
			<linearGradient id="SVGID_00000149379465009968076570000009482241892404610690_" gradientUnits="userSpaceOnUse" x1="7845.6519" y1="862.0403" x2="7845.6519" y2="1050.5411" gradientTransform="matrix(1 0 0 -1 0 1532.0022)">
			<stop  offset="0" style="stop-color:#FFAB1C"/>
			<stop  offset="0.17" style="stop-color:#F0A11A"/>
			<stop  offset="0.48" style="stop-color:#CA8816"/>
			<stop  offset="0.92" style="stop-color:#8D5E0F"/>
			<stop  offset="1" style="stop-color:#80560E"/>
		</linearGradient>
		<path style="fill:url(#SVGID_00000149379465009968076570000009482241892404610690_);" d="M14120.7,567.1
			c-152.9,26.2-306.9,53.7-467.2,69.8c-126.7,12.7-251.1,13.2-379.4,4.8c-242.4-15.9-473-56-714.5-74
			c-236.7-17.6-461.9-1-691.4,26.1c-221.7,26.2-446.2,58.2-678.5,53.8c-528.3-10.1-1053.4-175.6-1581.1-84.2
			c-242.4,42-460.3,101.8-731.8,77.9c-359.3-31.6-658.6-153.7-1032.1-159.8l0,0c-369,5.9-665.8,125.1-1019.1,158.8
			c-140.7,13.4-282.3,6-417.2-15.1c-113.2-17.7-218.7-43.4-330.5-62.6c-524.8-89.9-1049.4,74.1-1574.6,84.9
			c-237.1,4.9-466.2-28.5-692.6-55.1c-226.4-26.6-448.7-42-682-24.5c-238.2,17.9-465.7,57.1-704.6,73.3c-132.9,9-262.8,8.6-394.1-5
			c-161.1-16.8-315.9-44.4-469.9-70.9c-266.5-45.7-590.6-115.7-876-63C444.1,546.5,276,643.7,0,647.5v22.4
			c139.4-1.8,257.3-25.3,370.8-60c97.9-29.9,190.5-64.4,300.8-85.2c288.7-54.5,623.2,18.7,893.4,64.4
			c154.4,26.1,309.8,53.5,471.2,69.7c126.7,12.7,250.3,13,378.5,4.7c241.5-15.8,471.4-55.2,712-73c237-17.6,462.1-0.9,692.2,25.8
			c221.6,25.7,447.3,57.8,679,53.3c289.1-5.6,570.7-53.4,849.4-84c250.5-27.5,492.4-43.4,738.3-0.2
			c106.8,18.8,207.5,43.7,315.6,61.2c132.8,21.4,273.9,29.6,413.3,17.4c359.7-31.3,656.8-156.6,1031.2-161.3c0-3.7,0-6.5,0-9.2
			c0,2.6,0,5.5,0,9.2c374.4,4.7,671.6,130,1031.3,161.3c139.5,12.2,280.4,4,413.2-17.4c108-17.4,208.8-42.4,315.5-61.2
			c245.8-43.3,487.8-27.3,738.3,0.1c278.6,30.6,560.3,78.4,849.4,84c231.7,4.5,457.4-27.6,679-53.3
			c230.1-26.7,455.1-43.4,692.2-25.8c240.6,17.8,470.5,57.2,712,73c128.2,8.4,251.8,8.1,378.5-4.7c161.5-16.2,316.8-43.6,471.2-69.7
			c270.2-45.7,604.6-118.9,893.4-64.4c110.3,20.8,202.9,55.2,300.8,85.2c113.5,34.7,231.4,58.3,370.8,60v-22.3
			c-275.2-3.8-443-100.3-681.8-144.8C14720.2,448.8,14390.7,520.8,14120.7,567.1z"/>
		
			<linearGradient id="SVGID_00000076575357142740397400000013627763508162582435_" gradientUnits="userSpaceOnUse" x1="7845.5732" y1="918.026" x2="7845.5732" y2="1101.7531" gradientTransform="matrix(1 0 0 -1 0 1532.0022)">
			<stop  offset="0" style="stop-color:#FFAB1C"/>
			<stop  offset="0.17" style="stop-color:#F0A11A"/>
			<stop  offset="0.48" style="stop-color:#CA8816"/>
			<stop  offset="0.92" style="stop-color:#8D5E0F"/>
			<stop  offset="1" style="stop-color:#80560E"/>
		</linearGradient>
		<path style="fill:url(#SVGID_00000076575357142740397400000013627763508162582435_);" d="M14057,513.2
			c-142.6,26.7-286.4,54.6-437.5,70.5c-125.5,13.3-249.8,13.4-376.8,4.3c-248.7-17.7-483.7-61.3-731.3-81.1
			c-236.2-18.9-458.6-1.7-686,28.2c-217.9,28.8-436.9,62.8-667.4,58.3c-271.5-5.2-531.5-53.1-791.3-84
			c-127.2-15.2-258.4-28.5-390.6-29.2c-116.6-0.6-230.4,10.7-339.9,27.9c-251.1,39.3-483.9,96.9-759.4,74.7
			c-359.3-29-669.3-139.1-1040.3-145.3l0,0c-362.1,6-662.2,113.7-1011.2,144.4c-281.3,24.8-518.5-34.7-775.1-74.5
			c-106.2-16.5-216.5-27.4-329.4-27.1c-132.4,0.3-264,13.4-391.4,28.6c-261,31-521.6,78.9-794.2,84.6
			c-235.4,4.9-458.7-30.6-681.2-59.7c-224.5-29.4-444.2-45.3-677-26.5c-244.3,19.7-476.2,62.4-721.3,80.4
			c-131.7,9.7-261.4,9.7-391.4-4.6c-151.7-16.6-296.3-44.7-439.8-71.6c-268.9-50.4-559.7-111.4-852.1-64.3
			C508.8,489.6,292,584.7,0,588.8v22.3c283-4.1,478.7-100.2,730.5-143.3c289.4-49.6,594.6,15.4,862.6,63.6
			c148.4,26.7,297.7,54.6,453.8,71.2c130.6,13.9,260.8,14.2,393.3,4.9c242.4-17.1,472.1-58.3,713.7-77.1
			c232.9-18.2,454-2.5,679.3,25.6c224.7,28,450.4,62.3,686.9,57.5c280.1-5.7,549.5-53.7,818.6-84.6c130.4-15,264.8-28.3,400-28.6
			c111.7-0.2,220.4,10.8,324.9,27.7c252.5,41,483,101.5,762.2,75.8c351-32.3,649.8-144.8,1014.9-151.3
			c371.8,6.7,677.3,121.7,1036.4,152.2c273.1,23.2,499.4-35.6,746.2-76c107.8-17.6,220-29.1,335.2-28.5
			c135.2,0.8,269.2,14.2,399.5,29.2c267.8,30.9,536.5,78.7,815.4,84c231.7,4.4,453-28.5,673.1-56.1
			c228.2-28.7,452.2-45.5,688.5-27.2c244.9,19,477.7,61.1,723.6,77.8c127.7,8.7,252.4,8.4,378.6-4.6c155.3-16,303.9-43.7,451.2-70.2
			c271.6-48.9,581.5-115.8,874.9-65c250.6,43.4,446,138.8,728.1,142.9v-22.3c-291-4.1-507.5-98.5-770-141.2
			C14624.7,399.4,14329.7,462.2,14057,513.2z"/>
		
			<linearGradient id="SVGID_00000031894369827766521700000017119383400869846153_" gradientUnits="userSpaceOnUse" x1="7845.5732" y1="968.5955" x2="7845.5732" y2="1154.8889" gradientTransform="matrix(1 0 0 -1 0 1532.0022)">
			<stop  offset="0" style="stop-color:#FFAB1C"/>
			<stop  offset="0.17" style="stop-color:#F0A11A"/>
			<stop  offset="0.48" style="stop-color:#CA8816"/>
			<stop  offset="0.92" style="stop-color:#8D5E0F"/>
			<stop  offset="1" style="stop-color:#80560E"/>
		</linearGradient>
		<path style="fill:url(#SVGID_00000031894369827766521700000017119383400869846153_);" d="M14375.4,386.1
			c-147.6,16.3-285.4,47.2-421.7,76.4c-127.4,27.3-256.2,55.6-393.6,71.6c-123.1,14.3-245,13.2-369.6,3.2
			c-257.7-20.5-499.4-68.8-756-91.5c-236.8-21-452.7-3-678.2,31.3c-210.1,31.9-422.2,70-648.4,65.4c-247.5-5-479-52.8-713.1-84
			c-117-15.6-237.5-28.3-360.2-29.2c-121.2-0.9-240.4,10.1-355.8,25.7c-265.8,36-517.5,89.1-802.8,70.5
			c-360.5-23.6-683.9-119.4-1052.9-122.8h-0.2c-353.4,3.3-657.7,97.8-1001.4,122.3c-290.6,20.8-548.2-35.3-819.1-71.3
			c-112.5-15-228.8-25.2-346.7-24.3c-123.6,1-244.8,13.8-362.6,29.6c-231.8,31.2-460.8,77.9-705.7,83.5
			c-227.6,5.2-441.6-33.3-652.9-65.4c-227.2-34.5-444.8-52.5-683.2-30.8c-253.7,23.1-493.2,70.4-748.3,90.8
			c-125.3,10-248.3,11.5-372.1-3c-138.3-16.3-267.9-44.8-396.3-72.3c-133-28.5-267.1-58.3-410.5-74.8
			c-144.4-16.6-285.4-11-426.8,8.6C597.5,437.1,322,526.4,0,530v22.4c312-3.9,566.3-97,854.5-138.2c134.7-19.3,267.5-22.9,405.4-8
			c148.6,16.1,288.6,45.5,427.2,73.6c134.4,27.3,269.7,55.7,413,72.3c128.6,14.9,256.8,14.1,387,3.9c250.5-19.7,486.5-65.1,736-86.6
			c233.1-20.1,449.2-3.6,672.7,28.2c217.7,31.1,436.7,69.1,669.5,64.1c258-5.5,501.5-53.4,746.9-84.6
			c121.5-15.4,246.7-28.2,373.6-28.6c115.6-0.4,229,10.3,338.7,25.9c264.7,37.6,514.2,94.6,800.4,72
			c345-27.3,647.3-126.5,1003.4-131c369.7,4.6,688,106,1048,131.8c281.2,20.1,525.6-34.9,785.4-72.1c113.1-16.2,230-27.3,349.4-26.6
			c126.6,0.7,251.4,13.8,372.6,29.2c244.3,31.1,487.3,79,744.2,84c228,4.5,442.8-31.9,656.1-62.6c226.2-32.5,444.9-50.3,681.3-30.1
			c253,21.6,492,68,746.2,87.4c125.7,9.6,248.5,10.2,372.6-3.7c142.7-16,277.6-44.1,411-71.2c142.8-29,287-59.6,440.4-75.9
			c137.5-14.6,270-10.5,403.9,8.8c286.8,41.5,540.6,134,851.6,137.9V530c-325.5-3.7-602.3-94.9-906.1-135.6
			C14649.2,376.2,14514.1,370.7,14375.4,386.1z"/>
		
			<linearGradient id="SVGID_00000002363737392290831220000012510134967297772190_" gradientUnits="userSpaceOnUse" x1="7845.562" y1="1017.7247" x2="7845.562" y2="1207.4994" gradientTransform="matrix(1 0 0 -1 0 1532.0022)">
			<stop  offset="0" style="stop-color:#FFAB1C"/>
			<stop  offset="0.17" style="stop-color:#F0A11A"/>
			<stop  offset="0.48" style="stop-color:#CA8816"/>
			<stop  offset="0.92" style="stop-color:#8D5E0F"/>
			<stop  offset="1" style="stop-color:#80560E"/>
		</linearGradient>
		<path style="fill:url(#SVGID_00000002363737392290831220000012510134967297772190_);" d="M14229.8,333.6
			c-133.1,15.9-254.6,47.1-374.1,76.8c-112.1,27.8-225.2,56.5-348.7,73.1c-124,16.7-248.1,13.7-373.8,2.4
			c-265.6-23.8-513.3-76.1-777.8-101.7c-114.6-11.1-229.6-15.8-346-7.8c-107.3,7.4-210.6,23.3-311.6,40.7
			c-204.9,35.3-412.5,79-637.7,74.3c-223.7-4.6-425.2-51.6-633.2-83.4c-110-16.8-223.6-29.3-340.4-29.8
			c-121.4-0.6-241.3,9.3-358.4,22.8c-284.4,32.9-556,82.4-856,66.9c-360.8-18.6-695.5-99.5-1062.4-100.2h-0.3
			c-344.2,0.7-651.5,81-988.7,100c-300.8,17-576.3-34.3-861.3-67.2c-118.1-13.6-239.3-23.3-361.8-22.3c-113.9,1-224.7,13.2-332,29.6
			c-206.5,31.6-406.6,78.1-628.5,83.5c-223.5,5.4-430.3-37.3-633.6-72.5c-105.4-18.3-213-35.2-325.3-42.7
			c-117.8-7.9-234.6-2.6-350.3,8.9c-262.3,26.1-508.6,77.8-772.6,101.1c-122.9,10.9-243.7,13.8-365.1-1.9
			c-124.8-16.1-239.4-45.3-352.3-73.4c-116.9-29-235.3-59.4-364.8-75.9c-146.9-18.7-295.8-9.6-441.4,7.4
			C689.3,382.1,359.6,468.1,0,471.2v22.4c345.9-3.3,656.5-90.5,983.5-130.9c144.3-17.8,290.2-25.7,436.3-7.8
			c134.5,16.5,258.5,46.7,381.2,75.5c118.5,27.8,238.5,56.7,368.1,73c122.2,15.3,243.8,12.8,367.4,2.3
			c260.8-22.3,504.6-72.4,763.9-97.4c115.4-11.2,232-16,349.4-8.5c113.2,7.2,222.1,23.5,328.9,41.2c206.1,34.1,415.6,75.4,640.5,70
			c229.9-5.5,440.5-52.1,656-83.5c111-16.2,225.5-28.6,342.8-29.6c120.9-1,240.2,8.9,356.5,23c280,34,549.2,87,846.3,68.7
			c339.6-20.9,645.8-106.5,993.4-108c368.3,1.5,699.7,88.4,1061.2,108.4c292.3,16.2,555.1-33.8,830.6-67.8
			c119.2-14.7,242-25.4,366.1-24.3c116.5,1,230.2,13.2,340.6,29.2c217.6,31.5,430.7,79.2,663.1,84c223.5,4.6,431.2-36.1,636.1-70
			c106-17.6,214.3-33.8,326.6-41.1c116.7-7.6,231.8-3,346.7,7.8c262.2,24.7,508.2,75.8,771.7,98.2c123,10.4,243.4,12.6,364.9-2.5
			c128.7-16,247.9-44.7,365.6-72.3c125.8-29.5,253.3-60.8,391.7-77c140.4-16.5,280.2-9,418.7,7.6c331.1,39.7,643.6,128.7,993.2,132
			v-22.3c-362-3.2-693.5-90.3-1038.3-129.7C14513.6,325.7,14370.6,316.7,14229.8,333.6z"/>
		
			<linearGradient id="SVGID_00000148644199941442521900000008680542145063110335_" gradientUnits="userSpaceOnUse" x1="7845.6401" y1="1069.0881" x2="7845.6401" y2="1262.5282" gradientTransform="matrix(1 0 0 -1 0 1532.0022)">
			<stop  offset="0" style="stop-color:#FFAB1C"/>
			<stop  offset="0.17" style="stop-color:#F0A11A"/>
			<stop  offset="0.48" style="stop-color:#CA8816"/>
			<stop  offset="0.92" style="stop-color:#8D5E0F"/>
			<stop  offset="1" style="stop-color:#80560E"/>
		</linearGradient>
		<path style="fill:url(#SVGID_00000148644199941442521900000008680542145063110335_);" d="M14567,286.3
			c-141-14.6-288.4-25.4-430.4-7.5c-124.4,15.7-234.9,47.2-343.5,77.5c-101.5,28.4-204.5,57.5-319.5,73.8
			c-122.5,17.4-246.9,13.7-371.3,2c-271.6-25.6-523.7-81.2-794.3-108.7c-114.7-11.7-230.5-16.8-347.2-8.3
			c-105.9,7.8-206.9,24.6-305.3,43.2c-201,37.9-402.2,83.5-626.7,78.9c-210.4-4.4-390.9-51-583.3-83.5
			c-229.4-38.7-454.8-32.8-690.5-8.1c-293.4,30.8-576.9,77.4-883.3,63.7c-361.6-16.2-704.3-85.1-1070.3-86.2h-0.4
			c-338,1.1-648,69.6-980.7,86c-307.2,15.1-594.4-33.2-888.4-64c-233.8-24.5-457.9-30-685.5,8.4c-190.8,32.2-370,78.4-578.5,83.5
			c-222.9,5.5-423.6-39.1-623-77c-102.7-19.5-208.1-37.4-318.8-45.3c-118.2-8.4-235.7-2.6-351.6,9.5c-268.3,28-518.9,83.1-789,108.1
			c-121.4,11.2-242.8,14.9-362.8-1.5c-116.4-15.9-220.7-45.5-323-74c-106-29.6-213.7-60.4-334.5-76.6
			c-147.8-19.9-301.4-8.6-448.6,6.8c-193.3,20.3-381.2,49.6-571.1,75.4c-177.3,24.1-359.2,48.2-545.7,50v22.4
			c377.1-3.2,731.5-87.4,1093.2-126.4c146.9-15.9,299.6-26.5,447.2-6.9c123.2,16.4,234,47,343.3,76.4
			c105.5,28.4,212.7,57.8,331.4,73.9c120.3,16.2,241,12.7,362.8,1.5c268.3-24.6,517.6-78.5,784.2-106c115.9-12,233.2-17.7,351.4-9.4
			c111.1,7.8,217.1,25.5,320.6,44.6c200.1,37,403,81.3,625.6,75.8c211.9-5.2,397.3-51.6,592.6-83.5c229-37.5,452.5-33.5,687.4-8.1
			c291.7,31.4,575.3,80.5,880.9,65c334.1-16.9,643.2-89.5,983.1-89.9c366.4,0.4,706.8,73.5,1068.3,90
			c304.9,14,584.7-33.3,875.9-64.8c236.8-25.6,461.4-30,692.4,7.9c196.6,32.2,383.5,79,597.4,83.4c224.2,4.7,427.7-40.6,629.4-77.6
			c99.2-18.2,200.7-34.8,307-42.5c116.7-8.5,232.2-3.4,347,8.2c268.7,27,519.6,81.5,789.4,106.6c124.7,11.6,248.5,15.2,371.4-2
			c117.4-16.4,223.4-45.5,328-73.6c111.7-30.1,225.5-61.5,352.3-77.3c141.7-17.7,288.3-7.4,428.9,7.6
			c364.4,38.7,720.6,123.9,1100.4,127.1v-22.4c-191.4-1.7-378.3-27-560-51.9C14943.8,334.9,14758.1,306.1,14567,286.3z"/>
		
			<linearGradient id="SVGID_00000089545717275023946850000014724797860119514303_" gradientUnits="userSpaceOnUse" x1="7845.6069" y1="1125.8334" x2="7845.6069" y2="1319.4424" gradientTransform="matrix(1 0 0 -1 0 1532.0022)">
			<stop  offset="0" style="stop-color:#FFAB1C"/>
			<stop  offset="0.17" style="stop-color:#F0A11A"/>
			<stop  offset="0.48" style="stop-color:#CA8816"/>
			<stop  offset="0.92" style="stop-color:#8D5E0F"/>
			<stop  offset="1" style="stop-color:#80560E"/>
		</linearGradient>
		<path style="fill:url(#SVGID_00000089545717275023946850000014724797860119514303_);" d="M14168.9,221.8
			c-128.8,16-245.4,47.2-360.1,77c-107.4,27.9-216.2,56.8-335.6,73.3c-122.7,17-246.3,14-370.7,2.2
			c-268.2-25.4-515.7-81.7-782.7-109.1c-114.7-11.7-230.6-16.6-347.3-8.1c-106.2,7.7-207.7,24.3-306.8,42.6
			c-201.7,37.1-404.9,82.4-629.2,77.8c-213.3-4.4-399-51.4-594.9-83.7c-230.7-38.1-455.7-33.4-692.2-7.9
			c-292.3,31.6-571.5,78.5-877.5,64.6c-361.4-16.5-705.4-82.4-1071.1-84.8h-0.4c-338.1,2.3-649.7,68.4-983,84.8
			c-303,14.9-583.4-32.6-872.7-64.2c-235.3-25.6-460.7-30.9-690.6,6.9c-195.1,32-379.8,79-591.9,84.3
			c-223.5,5.6-426.5-38.6-627.5-75.9c-100.3-18.6-202.9-35.7-310.4-43.9c-122.5-9.3-244.1-3.9-364.4,8.9
			c-265.5,28.1-512.4,84.3-780.1,108.7c-122,11.1-242.6,13.6-362.6-3.1c-121.1-16.8-231.2-46.3-340.2-74.5
			c-112.2-29.1-226.7-59.6-352.9-75.3c-143.9-17.9-291.1-7.4-434,7.6C728.7,267.9,376.2,349.4,0,353.7v22.4
			c187.3-2.1,369.7-26.1,547.7-50.2c189.9-25.6,378.1-54.8,571.5-74.9c143.2-14.9,291.7-25.9,435.8-7.7
			c122.2,15.5,231.5,46.2,338.5,75.8c103.8,28.6,208.8,58.3,325.8,75c119.5,17,240.9,14.2,362.6,3.1
			c270.9-24.6,521.2-80.8,789.8-109.1c120.3-12.7,242.3-18.3,364.7-8.9c107.1,8.2,209.1,25.6,308.7,44.6
			c200.3,38.1,401.2,82.6,625.1,77c208.8-5.2,387.8-52,579.2-84.1c228.5-38.4,454.6-31.8,689-7c290.8,30.8,575.1,78,878.9,63.1
			c333.4-16.4,645.1-82.5,983.2-84.8c365.7,2.4,709.7,68.3,1071.3,84.8c306.8,14,590-32.6,883.8-63.4
			c235.5-24.7,461.2-30.7,690.5,8.1c192.1,32.5,372.1,79.2,582.2,83.5c224.6,4.6,425.6-41,626.6-79c98.4-18.6,199.3-35.4,305.3-43.2
			c116.7-8.6,232.9-3.6,347.6,8.1c270.1,27.5,521,83.9,792.4,109.5c124.1,11.7,248.5,15.2,370.8-2.2
			c115.5-16.4,219.2-45.5,321.5-73.7c109.3-30.2,220.7-61.7,345.5-77.4c141.9-17.9,289-6.9,429.9,7.6
			c190.7,19.6,376.1,48.2,563.2,73.6c181.8,24.7,368.6,49.7,560,51.8v-22.3c-377.5-4.3-731.1-86.4-1094-124.3
			C14456.5,214.6,14310.6,204.2,14168.9,221.8z"/>
		
			<linearGradient id="SVGID_00000128471302281858868810000000377821340209872015_" gradientUnits="userSpaceOnUse" x1="7845.5723" y1="1183.9093" x2="7845.5723" y2="1372.15" gradientTransform="matrix(1 0 0 -1 0 1532.0022)">
			<stop  offset="0" style="stop-color:#FFAB1C"/>
			<stop  offset="0.17" style="stop-color:#F0A11A"/>
			<stop  offset="0.48" style="stop-color:#CA8816"/>
			<stop  offset="0.92" style="stop-color:#8D5E0F"/>
			<stop  offset="1" style="stop-color:#80560E"/>
		</linearGradient>
		<path style="fill:url(#SVGID_00000128471302281858868810000000377821340209872015_);" d="M14319,168.5
			c-148.2,16.1-287.3,46.4-425,75c-129.2,26.9-259.3,54.7-397.3,71.4c-126.3,15.3-250.7,14.3-378.2,2
			c-254.6-24.6-487.3-80.9-740.8-107.4c-229.6-24-440.1-4.7-657.4,31.1c-207.5,34.3-417.5,76.6-644,72
			c-229.9-4.7-438.9-52.5-653.2-84.6c-112.8-16.9-229.2-29.7-348.7-30.2c-120.4-0.5-239.3,9.7-355,23.9
			c-283.7,34.8-546.7,83.7-847.4,70c-361.4-16.5-705.4-82.4-1071.1-84.8h-0.4c-338.1,2.3-649.8,68.4-983.1,84.8
			c-297.8,14.6-561.9-34.9-842.7-69.6c-117.1-14.5-237.7-24.9-359.7-24.2c-117.1,0.6-231.2,13-341.7,29.4
			c-213.9,31.8-421.8,79.5-650.7,85.2c-225.6,5.6-435.5-35.8-642.2-70.2c-224.6-37.3-440.6-57.4-677.9-31.6
			c-252,27.3-484,83.3-738.4,107c-125,11.6-246.8,12.1-370.4-2.9c-140-17-271.8-45.4-402.9-72.6c-134.7-28-271.2-57.6-416.4-73.4
			c-142.2-15.5-282-9-422.6,7.2C633.7,212.5,334.5,291.3,0,294.9v22.4c352.8-4,675.4-83.9,1012.7-121.2
			c141.8-15.7,284.7-23.9,427.8-7.4c136.7,15.8,263.7,45.8,388.8,74.2c121.6,27.7,244.1,56.4,375.7,73.5
			c121.9,15.8,242.8,14.4,366.4,3c260.1-24,498.6-80.1,756.5-107.8c119.4-12.8,240.1-17.7,361.8-8.9
			c108.6,7.8,212.8,24.3,314.9,42.1c204,35.5,411.1,78.3,635.5,72.7c221.3-5.5,419.4-53,625-84.8c233.8-36.2,458.4-33.8,696.4-6
			c284.7,33.3,555.7,81.9,855.9,67.2c333.4-16.4,645.1-82.5,983.2-84.8c365.7,2.4,709.7,68.3,1071.3,84.8
			c303.2,13.9,573.1-34.2,860.7-67.6c117.5-13.6,237.9-23.6,359.7-23c116.4,0.6,229.3,13,338.7,30.1
			c206.2,32.2,405.3,79.6,627.7,84.2c225.2,4.6,432.5-39.1,637.3-74.5c217.1-37.6,425.5-56.6,656.2-32.6
			c259.3,26.9,498.3,83.2,758.9,108.1c126,12.1,249.7,14,374.3-2.1c129.8-16.8,250.7-45,370.6-72.2c127.7-29,257.2-59.7,396.8-75.8
			c140.9-16.3,282.5-7.9,422,7.3c338.6,37.1,662.2,117.6,1016.2,121.5v-22.3c-335.6-3.6-635.8-83-955.2-119.3
			C14597.6,159.8,14459,153.2,14319,168.5z"/>
		
			<linearGradient id="SVGID_00000170268054309903341280000007821997508869575329_" gradientUnits="userSpaceOnUse" x1="7845.6182" y1="1241.9667" x2="7845.6182" y2="1422.3745" gradientTransform="matrix(1 0 0 -1 0 1532.0022)">
			<stop  offset="0" style="stop-color:#FFAB1C"/>
			<stop  offset="0.17" style="stop-color:#F0A11A"/>
			<stop  offset="0.48" style="stop-color:#CA8816"/>
			<stop  offset="0.92" style="stop-color:#8D5E0F"/>
			<stop  offset="1" style="stop-color:#80560E"/>
		</linearGradient>
		<path style="fill:url(#SVGID_00000170268054309903341280000007821997508869575329_);" d="M14007.3,189.3
			c-276.8,45.7-566.5,100.4-866,70.7c-237.7-23.6-451.7-79.5-688-105.2c-226-24.6-443.5-4.5-660.6,26.7
			c-215.8,30.9-433.2,68.9-664.2,64.3c-252.5-5.1-489.7-53.6-728.4-85.7c-122.8-16.5-250.1-30.4-379.2-30.7
			c-116.3-0.3-230.3,10.8-340.6,26.5c-126.4,18-248.4,41.9-375.8,58.7c-142.5,18.9-284.6,25.1-432.6,18.3
			c-361.4-16.5-705.4-82.4-1071.1-84.8h-0.4c-338.1,2.3-649.8,68.4-983.1,84.8c-148.3,7.3-292,0.3-434.7-18.8
			c-125-16.7-245-40-369.2-57.8c-111.6-16-227.3-27.3-345.1-26.9c-126.5,0.5-251,13.8-371.5,29.9c-238.6,31.8-474.3,80.2-726.2,86.3
			c-230,5.6-447.3-31.7-662.3-62.7c-224.3-32.4-447.5-53.3-680.8-27c-234.9,26.5-448.3,82.2-685.8,104.9
			c-299,28.6-589.9-27.2-865.7-72.8c-288.9-47.8-593.5-105.3-903.6-64.4C510.1,158.3,282.1,233.6,0,236.2v22.3
			c301.8-3,557.9-79.7,841.7-115c137.5-17.1,273.1-20.4,412.9-6.8c160.6,15.7,314,44.6,465.9,71.9c266.3,47.8,538.1,101.5,830,73.8
			c243.9-23.1,464.5-78.9,706-105.7c234.9-26.1,455.2-5.5,679.7,28.8c211.8,32.3,426.3,71.1,654.6,65.6
			c242.9-5.9,468.1-54.1,697.1-85.9c116.7-16.2,237.1-29.2,360-29.7c119.5-0.5,236.9,10.4,350.8,25.8
			c127.5,17.2,251.1,39.7,379.4,55.9c144.4,18.3,290,25.2,439.6,17.9c333.4-16.4,645.1-82.6,983.2-84.8
			c365.7,2.4,709.7,68.3,1071.3,84.8c149.2,6.8,293.2,0.6,437.4-17.4c130.6-16.4,256.3-39.4,386.1-56.9
			c112.2-15.1,228.3-25.9,346.1-25.5c125.4,0.4,248.4,13.8,367.4,30.5c229.4,32.1,455.7,80.4,699.5,85.3
			c229,4.6,443.7-35.1,656.4-67.3c217.2-32.9,432-52.7,659.4-28.4c242.9,26,464.1,81.9,708.3,106c292.6,28.9,563.7-23.7,831.1-71.7
			c155.1-27.9,311.6-57.4,475.6-73.4c137.6-13.4,271.9-10,407.2,6.7c284.9,35.1,541.8,112.4,844.7,115.4v-22.4
			c-283.1-2.5-511.7-78.4-775.4-112.9C14604,82.6,14297.5,141.3,14007.3,189.3z"/>
		
			<linearGradient id="SVGID_00000152967875746790532540000002842614200126066313_" gradientUnits="userSpaceOnUse" x1="7845.4722" y1="1298.2289" x2="7845.4722" y2="1475.8359" gradientTransform="matrix(1 0 0 -1 0 1532.0022)">
			<stop  offset="0" style="stop-color:#FFAB1C"/>
			<stop  offset="0.17" style="stop-color:#F0A11A"/>
			<stop  offset="0.48" style="stop-color:#CA8816"/>
			<stop  offset="0.92" style="stop-color:#8D5E0F"/>
			<stop  offset="1" style="stop-color:#80560E"/>
		</linearGradient>
		<path style="fill:url(#SVGID_00000152967875746790532540000002842614200126066313_);" d="M15074.6,70.2
			c-126.3-19.2-258-16.2-387.7-5.9c-197.4,15.8-389.5,43.8-580.7,70.2c-297.3,41-630.3,100.6-945.5,68.3
			c-222.6-22.8-419.8-78.4-640.8-103.3c-462.1-52-886.1,89.5-1345.4,80.4c-273.1-5.4-534.5-54.5-795.2-86.7
			c-131.5-16.2-267.9-30.8-405.2-31c-112.8-0.2-222.8,11.5-328.2,28.6c-118.7,19.3-231.8,45-351.6,63
			c-138.6,20.9-276.9,26.8-422.3,20.1c-361.4-16.5-705.4-82.4-1071.1-84.8h-0.4c-338.2,2.3-649.8,68.5-983.1,84.8
			c-145.7,7.2-285.5,0.4-424.1-20.7c-117.6-17.9-228.8-43-345.4-62.1c-106.9-17.5-218.3-29.4-332.7-29.1
			c-134.4,0.3-268,14.5-396.9,30.3c-260.7,31.9-520.5,80.6-793.2,87.3c-466.1,11.4-894.7-133.9-1363.5-79.1
			c-219.7,25.7-416.3,81.1-638.7,103c-315.3,31.1-649.8-29.4-946.8-70.3c-187.3-25.8-375.5-53.3-568.8-68.7
			c-131.7-10.5-264.9-13.9-393.1,6c-99.2,15.4-186,41.8-277.3,64.3C230.6,161,122.2,176.5,0,177.4v22.4
			c128.8-1,244.8-17.8,359.2-43.4c101.9-22.8,200-49.5,308.9-65.4c307.7-45,650.8,20.7,941.6,63.3
			c289.9,42.5,609.7,101.4,919.3,71.2c227.6-22.2,430-77.7,654.9-103.6c470.3-54.3,890.4,93.8,1356.6,82.7
			c265.5-6.3,517.2-55.1,770.3-87c126.2-15.9,256.8-29.8,388.6-30.1c115.5-0.3,228.3,11.4,336.7,28.4
			c119.2,18.7,233.5,43.1,353.6,60.6c140,20.4,281,27.3,427.5,20.1c333.4-16.4,645.1-82.6,983.2-84.8
			c365.7,2.4,709.7,68.3,1071.3,84.8c146.3,6.7,285.7,0.6,425.6-19.5c122.4-17.6,238.6-42.6,360-61.5c107-16.7,218.4-28.2,332.2-28
			c134.6,0.2,268,14.6,396.7,30.9c253.2,32.2,506.3,81.1,772.4,86.4c459.4,9.1,874.7-135.5,1338.4-84
			c226.3,25.2,429.3,80.9,657.1,104c309.8,31.4,628.2-26.6,918.6-69.1c182.5-26.8,366.2-55.2,555.5-71c132-11,263.4-12.4,392.2,6.1
			c107.6,15.5,204.5,41.7,304.9,64.3c116.3,26.2,234.3,43.8,365.6,44.8v-22.3c-124.5-1-234.7-17.2-342.7-44
			C15258.5,111.1,15172.7,85.2,15074.6,70.2z"/>
		
			<linearGradient id="SVGID_00000150089792187808768010000006706106259879980186_" gradientUnits="userSpaceOnUse" x1="7845.5732" y1="1356.0641" x2="7845.5732" y2="1532.0022" gradientTransform="matrix(1 0 0 -1 0 1532.0022)">
			<stop  offset="0" style="stop-color:#FFAB1C"/>
			<stop  offset="0.17" style="stop-color:#F0A11A"/>
			<stop  offset="0.48" style="stop-color:#CA8816"/>
			<stop  offset="0.92" style="stop-color:#8D5E0F"/>
			<stop  offset="1" style="stop-color:#80560E"/>
		</linearGradient>
		<path style="fill:url(#SVGID_00000150089792187808768010000006706106259879980186_);" d="M15374.3,75.6
			c-73-22-139.9-47.5-223.7-61.4c-123-20.4-256.4-15.5-383.2-5.8c-209.5,16.1-414.5,43.5-618.9,69.1
			c-192.4,24.1-385.1,49.3-581.7,65.8c-134.5,11.3-266.1,15.4-400.4,1.5c-214.7-22.2-402.4-78-615.5-102.3
			c-460.2-52.5-896.5,84.8-1355.6,75.8c-526.3-10.4-1038.5-181.4-1565.9-89c-114.4,20-222.2,46.9-337.8,65.5
			c-137.1,22.1-275,27.2-419.8,20.6c-361.4-16.5-705.4-82.4-1071.1-84.8h-0.4c-338,2.2-649.7,68.4-982.9,84.8
			c-144.9,7.1-284.3,1.2-421.4-21.2c-113.5-18.5-219.5-44.7-331.8-64.5c-525.3-92.4-1036.3,75.9-1560.1,88.4
			c-465.5,11.1-907-129.8-1373.3-74.5c-211.8,25.1-399,80.6-613.5,102c-132.1,13.1-261.8,8.8-393.9-2.3
			c-199.5-16.8-395.1-42.5-590.4-66.9c-200.1-25-401-51.8-606.1-67.6C798.5-1.2,663-6.6,538.4,14.5c-84.5,14.3-152,40.3-226.2,62.5
			C216.6,105.5,114.9,117.6,0,118.6V141c115.6-0.9,217.2-14.2,314.6-41.8C393,77.1,465.7,51,553.6,36.3
			c125.1-20.8,259.9-15.7,388.8-5.8c202.5,15.6,400.5,42.5,597.6,67.8c192.2,24.7,384.8,50.6,581.6,67.2
			c132.4,11.2,263.2,15.4,395.6,2.3c216.4-21.5,405.9-76.9,619.6-102.2c466.9-55.3,905.6,86.6,1371.3,75.3
			c280.6-6.9,550.2-55.8,819.3-87.7c131.6-15.6,267.8-30,404.7-30.4c113.5-0.3,223.6,11.6,328.9,29.8
			c113.4,19.6,220.8,45.5,335.3,63.9c137.2,22,276.2,28.3,421.1,21.2c333.4-16.4,645.1-82.5,983.2-84.8
			c365.7,2.4,709.7,68.3,1071.3,84.8c144.6,6.6,282.1,1.1,419.4-20.7c116.7-18.5,225.9-45,341.4-64.9
			c103.9-17.9,212.6-29.5,324.5-29.4c139.9,0.2,279.1,15.1,413.2,31.2c269,32.2,540.1,81.5,821.1,87.1
			c459.1,9.1,892.9-129,1353.5-76.5c215,24.5,405,80.1,621.5,102.5c134.6,13.9,267.3,9.9,402.2-1.4c193.9-16.3,383.7-41.7,573.1-66
			c201.3-25.8,403.4-53.4,610.2-69.3c127.2-9.8,260-14.4,383.5,5.8c87,14.2,158.9,39.8,236.2,61.8c98.9,28.2,201.8,42.2,319.5,43.2
			v-22.4C15574.1,117.6,15471.3,104.9,15374.3,75.6z"/>
	</g>
</g>
</svg>
