<?xml version="1.0" encoding="utf-8"?>
<!-- Generator: Adobe Illustrator 26.0.3, SVG Export Plug-In . SVG Version: 6.00 Build 0)  -->
<svg version="1.1" id="Layer_1" xmlns="http://www.w3.org/2000/svg" xmlns:xlink="http://www.w3.org/1999/xlink" x="0px" y="0px"
	 viewBox="0 0 1920 1080" style="enable-background:new 0 0 1920 1080;" xml:space="preserve">
<style type="text/css">
	.st0{fill:url(#SVGID_1_);}
	.st1{fill:url(#SVGID_00000018208511426397856460000009152444612180521374_);}
	.st2{fill:url(#SVGID_00000096741949480931235960000013124753538828339638_);}
	.st3{fill:url(#SVGID_00000040546044987370924430000014872633483884739507_);}
	.st4{fill:url(#SVGID_00000027606043145882830210000011984644326067714461_);}
	.st5{fill:url(#SVGID_00000066487536364903332770000015484675437023643283_);}
	.st6{fill:url(#SVGID_00000137811499198187718170000012671682780071008397_);}
	.st7{fill:url(#SVGID_00000112602716547647524120000016780331021829384340_);}
	.st8{fill:url(#SVGID_00000002355607421158026420000007425387355502138263_);}
	.st9{fill:url(#SVGID_00000081619973086941648850000016723701499682794663_);}
	.st10{fill:url(#SVGID_00000008137964904931535700000007579814397494684557_);}
	.st11{fill:url(#SVGID_00000152980303363398510850000000755550071568609412_);}
	.st12{fill:url(#SVGID_00000004531357152219176820000007618545867021057469_);}
	.st13{fill:url(#SVGID_00000114060819535001764560000014056401591380459406_);}
	.st14{fill:url(#SVGID_00000044177418384734873670000002893124468196495265_);}
	.st15{fill:url(#SVGID_00000093876940286328246900000010708043387493180324_);}
	.st16{fill:url(#SVGID_00000171709707706820068050000007372705092001215630_);}
	.st17{fill:url(#SVGID_00000170982614790083390930000001680168873743927182_);}
	.st18{fill:url(#SVGID_00000099630045908208458340000016736658993084886696_);}
	.st19{fill:url(#SVGID_00000114758468236998523460000016286590190611620759_);}
	.st20{fill:url(#SVGID_00000008117664218255204860000004934751681822071688_);}
	.st21{fill:url(#SVGID_00000054230126220446118080000000235828116791028403_);}
	.st22{fill:url(#SVGID_00000086692733302741503470000004492343448918223787_);}
	.st23{fill:url(#SVGID_00000057136415034555329640000012860309115002409365_);}
</style>
<g id="Layer_2_00000178920206580439251700000003194755077851467685_">
	<g id="Layer_1-2_00000082366321819073698420000011666407901793712297_">
		
			<linearGradient id="SVGID_1_" gradientUnits="userSpaceOnUse" x1="2354.9119" y1="-2333.5444" x2="2354.9119" y2="-2254.9785" gradientTransform="matrix(-0.4471 0.2695 0.3737 0.6198 2717.0476 1230.5773)">
			<stop  offset="0" style="stop-color:#FFAB1C"/>
			<stop  offset="0.17" style="stop-color:#F0A11A"/>
			<stop  offset="0.48" style="stop-color:#CA8816"/>
			<stop  offset="0.92" style="stop-color:#8D5E0F"/>
			<stop  offset="1" style="stop-color:#80560E"/>
		</linearGradient>
		<path class="st0" d="M-331.8,1157.5c26.5-11.3,53.1-24,75.6-42.7c18.9-15.6,33.9-33.5,48.9-51c13.9-16.4,28-32.9,45.3-47.7
			c18.5-15.9,39.6-28,62.2-37.3C-54,960.1-7.9,952.6,38,934.6c41.8-16.5,72.4-41.2,100.1-72.8c26.2-30,50-59.4,88.2-81.6
			c41.9-24.2,86.8-39,130.3-57c44.2-18.4,84.9-40.1,117.9-74c16.6-17.1,31-35,48-51.9c20.4-20.1,43.7-36.1,70.4-49.4
			c74.9-36.9,155.6-54.4,228.5-97.3l0.1-0.1c67.3-41.6,114.8-101.3,177.4-147.4c24-17.6,49.3-30.8,76.6-39.4
			c23.1-7.3,45.9-11.6,69-18.4c93.2-27.7,150.3-107.1,230-157.5c37.1-23.5,74-31.1,112.6-40.1c19.2-4.5,38.8-9.9,57.9-18.6
			c20.7-9.4,39.3-22.7,56.2-37.3c37-32.1,65-69,102.8-100.6c18.3-15.3,38.3-28,60.6-36.9c21.4-8.5,42.8-13.3,64-18
			c21.9-4.9,44.1-9.8,66.2-18.7c28.3-11.4,52.9-29.7,76.3-48.7c30.9-25.3,59.8-52,89.4-78c27.5-24.3,55.8-49.2,87.9-69.3l-3.2-5.4
			c-32.3,20.1-60.8,45.3-88.5,69.7c-30.2,26.5-59.6,53.7-91.1,79.4c-22.7,18.5-46.6,36.2-74,47.5c-22,9.1-44.1,13.8-65.9,18.5
			c-21.1,4.5-42.2,9-63.6,17.4c-22.2,8.7-42.7,21.5-61.1,36.8c-38.1,31.7-65.9,69-102.9,101.3c-17.5,15.3-37,28.8-58.5,38.6
			c-18.5,8.2-37.2,13.3-55.6,17.5c-38.6,8.8-74.9,16.2-112,39.9c-40.5,25.8-74.6,58.3-110.9,88c-36.9,30.3-74.8,55.9-120.1,69.2
			c-22.6,6.7-44.8,10.8-67.4,17.9c-27.3,8.6-52.7,21.6-76.7,39.2C934,343.3,885.9,403.1,818.3,445C745.1,487.9,664.1,506,589,543
			c-26.7,13.1-49.9,29.1-70.3,49.2c-17.1,16.9-31.6,35-48.2,52.2c-67.8,69.6-165.8,84.2-247.9,131.3c-38.2,21.9-61.5,51.1-87.2,81
			c-27.2,31.5-58.2,56.4-99.8,72.7c-46,18.1-92.1,25.2-138,43.8c-22.6,9.2-43.9,21.5-62.4,37.4c-17,14.7-30.8,31.2-44.4,47.5
			c-14.6,17.4-29.3,35.1-48,50.7c-22.5,18.7-49.1,31.3-75.6,42.6c-36.8,15.7-74,28.9-111,43c-35.3,13.4-71.7,27.1-105.3,46.7
			l3.2,5.4c33.6-19.5,69.8-33.2,105-46.5C-404.7,1185.8-368.1,1173-331.8,1157.5z"/>
		
			<linearGradient id="SVGID_00000048459903282102749820000010358887730335226506_" gradientUnits="userSpaceOnUse" x1="2355.6577" y1="-2309.252" x2="2355.6577" y2="-2234.4939" gradientTransform="matrix(-0.4471 0.2695 0.3737 0.6198 2717.0476 1230.5773)">
			<stop  offset="0" style="stop-color:#FFAB1C"/>
			<stop  offset="0.17" style="stop-color:#F0A11A"/>
			<stop  offset="0.48" style="stop-color:#CA8816"/>
			<stop  offset="0.92" style="stop-color:#8D5E0F"/>
			<stop  offset="1" style="stop-color:#80560E"/>
		</linearGradient>
		<path style="fill:url(#SVGID_00000048459903282102749820000010358887730335226506_);" d="M-263.8,1136.8
			c20.2-16.4,37.1-34.9,53.8-53c15.7-17,31.4-34.2,50-49.7c19-15.9,40-28.1,62.8-37.7c45.4-19.2,91.3-28.2,136.8-46.7
			c20.7-8.4,40.6-18.8,58.5-32.6c17.3-13.2,32.1-28.3,46.2-43.3c29-31,56.2-63.3,96.2-86.4c42.4-24.5,88.2-37.9,132.2-55.2
			c44.4-17.3,85-38.9,118.2-72.7c16.2-16.6,30.2-34,47-50.3c20.2-19.8,43.5-35.8,69.9-48.6c73-35.5,151.5-50,222.6-91.8l0,0
			c66.3-41,111.3-100.7,172.7-146.4c23.1-17.3,49.3-30.9,75.9-39.3c22.4-7.2,44.7-11.5,67.1-18.3c45-13.6,82.9-39.4,118.6-70.2
			c35.6-30.7,68.6-64.6,109.7-90.7c38.7-24.6,79.8-33.9,120.4-44.8c20.8-5.6,42-11.8,62.6-21.5c20.8-9.6,39.4-22.7,56.6-37.3
			c37.2-31.4,66.4-67.5,104.3-98.4c18.7-15.3,38.8-27.8,61.1-37.2c22.6-9.4,45.3-15.3,67.9-21.3c23.3-6.2,46.9-12.3,70.3-22.1
			c27.8-11.6,52-29,75-47.9c54.8-45.1,102.1-99.1,164-137.8l-3.2-5.3c-64,40-113.5,95.7-170.3,142.2c-23.3,19-47.6,36.9-75.7,48.4
			c-22.8,9.3-45.7,14.9-68.4,20.5c-21.9,5.4-44,10.8-66.1,19.8c-22.3,9.1-42.2,21.6-60.8,36.9c-37.9,31.2-66.6,67.7-103.7,99.4
			c-17,14.5-35.5,27.7-56.3,37.3c-20,9.2-40.4,15-60.5,20.2c-39.6,10.2-78.7,18.6-116.7,42.6c-40.9,25.8-74.3,59.2-110,89.5
			c-36.1,30.6-74.2,56.4-119.2,69.8c-22.7,6.8-45.2,11.1-67.9,18.3c-27.1,8.6-52.6,21.8-76.4,39.4c-62,45.8-108.1,105.6-174.9,146.9
			c-72,42.5-151.6,58.2-225.5,94.4c-26.6,13-49.9,29.1-70.2,49.1c-16.9,16.5-31,34.2-47.4,51c-33.1,33.8-73.8,55.5-118.1,73.4
			c-43.8,17.6-89.3,31.6-131.3,56c-39.1,22.7-64.8,53.7-92.5,84.1c-13.3,14.7-27.4,29.3-44.1,42.1c-17.9,13.7-37.8,24-58.4,32.3
			C-6.4,962.3-52.4,970.6-98,989.5c-22.8,9.4-43.6,21.5-62.4,37.4c-17.9,15.2-32.9,32.1-47.8,48.8c-15.9,17.8-32,36-51.5,52.1
			c-22.4,18.5-48.5,31.2-75,42.4c-68,28.8-140.9,46.5-206.7,84.7l3.2,5.3c63.6-37,133.9-53.5,199.8-81.2
			C-311.8,1167.7-286.2,1155-263.8,1136.8z"/>
		
			<linearGradient id="SVGID_00000032618094721287460980000010199002385808597378_" gradientUnits="userSpaceOnUse" x1="2355.3137" y1="-2282.3203" x2="2355.3137" y2="-2215.0234" gradientTransform="matrix(-0.4471 0.2695 0.3737 0.6198 2717.0476 1230.5773)">
			<stop  offset="0" style="stop-color:#FFAB1C"/>
			<stop  offset="0.17" style="stop-color:#F0A11A"/>
			<stop  offset="0.48" style="stop-color:#CA8816"/>
			<stop  offset="0.92" style="stop-color:#8D5E0F"/>
			<stop  offset="1" style="stop-color:#80560E"/>
		</linearGradient>
		<path style="fill:url(#SVGID_00000032618094721287460980000010199002385808597378_);" d="M-279.4,1162.9
			c22.3-17.4,41.7-37,61.1-56.2c35.5-35.2,70.9-68.5,119.3-90.2c44.9-20.2,90.7-31,135.5-50.4c21-9.1,41.2-20,59.7-33.9
			c20.1-15,37.8-32.2,54.8-49.3c32.4-32.3,64.5-68.4,107.3-92.4c43.6-24.5,90.8-36.1,135.7-52.4c44.6-16.1,85-37,118.5-70.8
			c15.3-15.4,28.5-31.7,44.2-46.8c19.8-19.2,42.8-35.1,68.5-47.4c70.3-33.4,145.5-43.8,214.1-83.8l0,0
			c64.8-40.3,106.1-99.8,165.5-144.9c22.7-17.3,48-30.4,74.2-39.1c21.6-7.1,42.9-11.3,64.5-17.9c45.1-13.9,82.2-40.1,116.8-71.7
			c34.9-32,67-67.7,108.5-94.7c41.4-27,88.7-38.7,132.6-52.3c23.2-7.2,46.8-14.8,69.6-25.7c21-9.9,40.2-23,58.1-37.4
			C1666.9-25,1697.7-60,1735.9-90c42.1-32.9,88.3-48.7,136.4-63.8c25.4-8,51-15.9,76.2-26.9c26.8-11.9,50.4-27.8,72.6-46.3
			c48.4-40.5,88.4-88.9,143.9-123.4l-3.2-5.3c-58.1,36.1-101,86.8-151.9,129.1c-22.5,18.7-46.4,35.2-73.6,46.9
			c-24.4,10.6-49.3,17.7-73.8,25c-47.2,14-92.2,28.8-133.4,61.6c-38.1,30.4-68.3,65.8-105.8,96.6c-17.6,14.5-36.6,27.5-57.5,37.3
			c-22,10.3-44.6,17.4-66.8,24c-42.6,12.6-87.4,23.3-127.8,49.4c-41.3,26.6-73.7,61.6-109,93.1c-35,31.4-72.5,57.4-117.5,71.2
			c-21.9,6.7-43.6,11-65.5,18.1c-26.6,8.7-51.9,21.8-74.9,39.1C944,381,901.2,440.6,835.9,481.2C766.2,522,689.5,534,618.1,568.3
			c-26,12.5-49.1,28.5-69,48c-15.9,15.5-29.3,32.1-44.7,47.7c-33.3,33.8-73.8,55.1-118.4,71.7c-44.7,16.6-91.3,29-134.6,53.6
			c-41.4,23.6-71.6,57.9-102.5,89.4c-16.1,16.5-32.8,33.1-52.1,47.6c-18.3,13.8-38.4,24.6-59.4,33.4c-45.2,19-91.1,29.1-136.2,49
			c-47.9,21.1-81.8,53.6-116.1,88.7c-18.4,18.9-36.8,38-58.3,55.1c-22.3,17.7-46.9,30.6-72.9,41.4c-61.8,25.8-127.2,40-186.9,74.8
			l3.2,5.3c57.1-33.4,119.1-46,178-70.4C-325.7,1193.2-301.6,1180.2-279.4,1162.9z"/>
		
			<linearGradient id="SVGID_00000165938962139186352540000005193252026894600847_" gradientUnits="userSpaceOnUse" x1="2354.9202" y1="-2264.625" x2="2354.9202" y2="-2185.6658" gradientTransform="matrix(-0.4471 0.2695 0.3737 0.6198 2717.0476 1230.5773)">
			<stop  offset="0" style="stop-color:#FFAB1C"/>
			<stop  offset="0.17" style="stop-color:#F0A11A"/>
			<stop  offset="0.48" style="stop-color:#CA8816"/>
			<stop  offset="0.92" style="stop-color:#8D5E0F"/>
			<stop  offset="1" style="stop-color:#80560E"/>
		</linearGradient>
		<path style="fill:url(#SVGID_00000165938962139186352540000005193252026894600847_);" d="M-227.1,1130
			c38.7-35.7,77.5-70.4,127.3-94.1c44.2-20.8,89.6-33.6,133.9-53.8c48.2-22,85.4-53.7,122.4-88.6c36.1-34,73.3-74.2,119.4-99.5
			c44.7-24.5,93-34.4,138.7-49.4c44.7-14.7,85.1-34.8,118.9-68.5c14.8-14.7,27.6-30.3,42.7-44.8c19.5-18.6,42.2-34.3,67.3-45.9
			c67.5-31.2,139.1-37.4,205.2-75.6l0,0c63.1-39.7,100.8-98.4,157.9-143c22-17.1,46.8-30.3,72.5-39c20.6-7,41.1-11.2,61.8-17.6
			c44.8-14.1,81.2-40.1,114.6-72.3c34.9-33.5,66.2-71.6,108.8-100c44.8-29.7,99-44,146.8-60.3c47.4-16.2,91.9-34.3,133.1-66.2
			c38-29.4,70.1-63.1,108.6-92.2c45-34,94.8-52.2,145.6-70.2c52.4-18.5,105.1-37.3,149.5-74.8c43.1-36.4,75.6-79.9,125.7-110.6
			l-3.2-5.4c-52.2,32.3-87.6,77.8-132.8,115.7c-44.7,37.5-95.6,55.7-148.2,73.6c-50.1,17.1-98.8,34.5-143,68.4
			c-38.3,29.4-69.9,63.5-107.7,93.2c-40.4,31.7-83.6,49.3-130.3,64.7s-98.7,28.8-142.5,57.7c-42.4,27.9-74.2,65.4-109.2,98.5
			c-33.8,31.9-70.5,57.9-115.3,71.8c-21,6.6-41.7,10.6-62.7,17.7c-25.9,8.8-50.8,21.8-73.1,39.1C948,403.4,909,462.3,845.3,502.2
			c-67,38.8-139.9,46.5-208.4,78.5c-25.4,11.8-48.2,27.7-67.8,46.4c-15.4,14.7-28.3,30.6-43.3,45.6c-33.7,33.7-74.1,54.1-118.7,69.3
			c-45.5,15.5-93.3,26-137.6,50.5c-44.9,24.8-80.4,63.5-115.1,97c-35.8,34.5-72,65.4-119.6,86.7c-44.5,19.9-90.1,31.9-134.5,52.6
			c-49.3,22.9-86.8,57.2-124.5,92.7c-40.9,38.7-81.3,75.8-136,98.1c-54.5,22.2-111.1,32.2-163.9,63.2l3.2,5.3
			c50.5-29.8,104-38.4,156-59.3C-310.2,1206.7-268.5,1168.2-227.1,1130z"/>
		
			<linearGradient id="SVGID_00000114765404731021825640000000705553684480577462_" gradientUnits="userSpaceOnUse" x1="2355.3276" y1="-2246.8474" x2="2355.3276" y2="-2158.2134" gradientTransform="matrix(-0.4471 0.2695 0.3737 0.6198 2717.0476 1230.5773)">
			<stop  offset="0" style="stop-color:#FFAB1C"/>
			<stop  offset="0.17" style="stop-color:#F0A11A"/>
			<stop  offset="0.48" style="stop-color:#CA8816"/>
			<stop  offset="0.92" style="stop-color:#8D5E0F"/>
			<stop  offset="1" style="stop-color:#80560E"/>
		</linearGradient>
		<path style="fill:url(#SVGID_00000114765404731021825640000000705553684480577462_);" d="M-230.2,1150.9
			c41.7-36.7,83-73.1,135-98.2c43.2-20.8,87.7-34.9,131.1-55.2c21.3-10,41.9-21.5,60.9-35.5c22.8-16.7,43.6-35.5,64-54.1
			c22.3-20.3,44.1-41.1,67.3-61c19-16.3,39.4-32.9,62-45.2c45.5-24.7,94.7-33.3,141.1-47.8c44.1-13.7,84-33.5,117.6-66.5
			c15-14.7,27.9-30.4,43.4-44.9c19.6-18.4,42.8-34.2,68-45.3c65.3-29,133.7-32.7,197.6-69.6l0,0c62.5-39.2,97.5-98,153.6-142.1
			c21.6-17,46.5-30.2,71.9-38.9c20.1-6.9,39.9-11,60-17.4c44.9-14.3,81.1-40.4,113.7-73c34.4-34.2,64.9-73.8,108.1-102.5
			c21.4-14.2,45.7-24.6,68.9-33.7c28.4-11.2,56.9-20.8,85.3-31c26-9.3,52.3-19,77.7-31.3c21.3-10.4,41-23.2,59.9-37.4
			c38.2-28.8,71.5-61.6,110-90.1c46.4-34.3,97.8-53.8,149.8-73.5c52.2-19.8,108.2-39.5,152.3-77.3c39.4-33.8,66.7-73.1,113.1-101.8
			l-3.2-5.4c-47.4,29.2-76.3,69.8-116.6,104.1c-44.1,37.6-99.2,57.1-151.4,76.5c-51.6,19.2-102.7,38.5-148.7,72.7
			c-38.6,28.6-71.4,61.7-109.6,90.7c-42.5,32.3-88.1,50.9-136.6,68.1c-27.9,9.9-55.8,19.2-83.7,30.1c-23.2,9-47.3,19.3-68.7,33.5
			c-42.9,28.6-73.7,67.7-108.3,101.8c-32.9,32.5-69,58.6-113.9,72.8c-20.2,6.5-40.3,10.5-60.5,17.4c-25.4,8.8-50.3,21.9-72,39
			c-56.3,44.4-92.2,103-154.7,142.4c-64.9,37.1-134.7,41.3-201.1,71.6c-24.9,11.3-47.6,27.1-66.9,45.4c-15,14.2-27.5,29.4-42.1,43.9
			c-34,33.7-74.4,53.5-119,67.6c-46,14.5-95,23.5-140,48.1c-47.7,26-87,67.9-124.8,102.7c-38.3,35.3-76.5,67.9-125.7,90.8
			c-44,20.5-89.3,34.2-133.2,55.5c-50.6,24.4-90.7,59.8-131,95.7c-42.1,37.5-85.6,77.9-140.3,99.6c-49.1,19.4-98.3,26.1-146.1,54.3
			l3.2,5.4c47.1-27.7,94.6-33.5,142.8-52.6C-315.7,1228.1-272,1187.7-230.2,1150.9z"/>
		
			<linearGradient id="SVGID_00000140001245968843131770000015696903490836528015_" gradientUnits="userSpaceOnUse" x1="2354.9844" y1="-2225.0259" x2="2354.9844" y2="-2137.042" gradientTransform="matrix(-0.4471 0.2695 0.3737 0.6198 2717.0476 1230.5773)">
			<stop  offset="0" style="stop-color:#FFAB1C"/>
			<stop  offset="0.17" style="stop-color:#F0A11A"/>
			<stop  offset="0.48" style="stop-color:#CA8816"/>
			<stop  offset="0.92" style="stop-color:#8D5E0F"/>
			<stop  offset="1" style="stop-color:#80560E"/>
		</linearGradient>
		<path style="fill:url(#SVGID_00000140001245968843131770000015696903490836528015_);" d="M-220.3,1163.1
			c39.5-35.8,79.2-70.8,129.3-95c44.2-21.2,89.8-34.7,134.1-55.2c49.1-22.8,87.6-55.7,126-90.9c21.2-19.4,42-39.1,64-58
			c18.8-16.1,39-32.7,61.5-45c45.5-24.8,95.2-34.5,141.9-49.5c22.8-7.4,46.5-15.9,68.4-28.5c19-10.9,36.2-24.8,51.2-39.4
			c15-14.5,28.3-29.9,43.7-44.2c19.7-18.3,42.2-34,67.2-45.5c65.8-30,134.5-34.7,199.1-71.6l0,0c61.8-39.2,97.6-96.7,153.3-140.6
			c21.8-17.2,46.5-30.1,72.1-39.2c20.6-7.2,41.1-12,61.7-18.8c19.4-6.5,38.9-14.8,56.9-26.1c21.5-13.3,40.2-30.3,57.5-47.1
			c35.3-34.4,67.1-73.8,110.4-102.7c21.2-14.2,45.4-24.4,68.6-33.5c28-11.1,56.2-20.5,84.1-30.6c48.3-17.3,94.3-35.9,136.7-68.2
			c38.3-29.2,71.1-62.8,109.9-91.6c45.6-34,96-53,147.3-71.6c51.9-18.8,106-38.1,150-75.5c40.1-34.2,68.9-74.2,115.9-103.3l-3.2-5.4
			c-46.4,28.8-73.7,67.9-113.1,101.6c-44.1,37.7-99.9,57.5-152,77.1c-51.8,19.5-103.2,39-149.4,73.2
			c-38.6,28.5-71.8,61.5-110.1,90.4c-42.9,32.4-88.8,51-137.6,68.6c-28.5,10.3-57.1,20-85.5,31.3c-23.2,9.2-47.5,19.3-68.8,33.6
			c-43.2,28.8-74.1,68.4-108.7,102.7c-17,16.9-35.6,33.9-57,47.1c-18,11.1-37.3,19.5-56.6,25.8c-20.2,6.5-40.3,10.9-60.4,17.9
			c-25.4,8.9-50.2,21.9-71.9,39c-55.9,44.1-91,102.4-153.3,141.7C799,572.8,731,576.7,665.8,605.6c-25.2,11.2-48.3,26.9-68,45.3
			c-15.6,14.6-28.8,30.2-43.9,45.1c-14.6,14.2-30.9,27.3-49.2,38c-21.7,12.8-45.4,21.3-68.3,28.5c-46.5,14.5-96,23.4-141.6,48.1
			c-22.6,12.3-42.9,28.9-61.9,45.1c-23.2,19.9-45.1,40.6-67.5,61C127,951.6,89,983.6,40.4,1006.3c-43.4,20.3-88.1,34.4-131.4,55.1
			c-51.9,25-93,61.2-134.5,98c-41.7,36.9-85.2,77-139.1,98.4c-48.2,19.1-95.5,25-142.6,52.6l3.2,5.4c47.5-27.9,96.2-34.7,145-54.1
			C-304.6,1240.4-261.9,1200.8-220.3,1163.1z"/>
		
			<linearGradient id="SVGID_00000154396209956063236640000006844925569799149242_" gradientUnits="userSpaceOnUse" x1="2354.957" y1="-2197.9187" x2="2354.957" y2="-2121.0579" gradientTransform="matrix(-0.4471 0.2695 0.3737 0.6198 2717.0476 1230.5773)">
			<stop  offset="0" style="stop-color:#FFAB1C"/>
			<stop  offset="0.17" style="stop-color:#F0A11A"/>
			<stop  offset="0.48" style="stop-color:#CA8816"/>
			<stop  offset="0.92" style="stop-color:#8D5E0F"/>
			<stop  offset="1" style="stop-color:#80560E"/>
		</linearGradient>
		<path style="fill:url(#SVGID_00000154396209956063236640000006844925569799149242_);" d="M-268.1,1228.7
			c21.6-16.8,40.2-35.8,58.7-54.6c34.7-35,69.6-67.2,117.4-89c45.7-20.8,92.4-32.1,138.3-52.1c48.1-21,85.4-53,122.3-87.3
			c36.2-33.6,73.3-72.8,118.9-98.1c46.5-25.8,97.4-38.8,145.5-56.3c23.4-8.5,47.5-18,69.7-31c19.8-11.5,37.8-25.8,54.1-40.7
			c37.6-34.5,69.4-70.4,118.8-93.7c65.4-30.9,134.4-39.6,198.4-76.5l0,0c60.7-38.1,98.5-93.3,154-135.7
			c44.2-33.9,91.9-45.3,140.9-62.9c20.2-7.2,40.5-16.2,59.4-27.8c22-13.6,41.7-30.4,60.2-47.1c38.1-34.4,73.4-73.4,118.1-102.8
			c44.5-29.2,97.8-43.9,145.3-60.6c46.9-16.4,91.7-34.4,132-66.7C1722.4,14.9,1754-20.6,1793-51c42.4-33.1,87.9-49.1,136.2-63.7
			c24.4-7.4,49.1-14.9,73.4-25.7c24.6-11,47-25.6,67.6-42.7c44-36.7,78.3-80.1,128.9-111.4l-3.2-5.4c-49,30.4-80.9,72.3-123.2,108
			c-43.6,36.6-93.6,54.5-144.9,71.5c-49.6,16.4-97.4,33.7-141.1,67.2c-38.9,29.7-71,64.4-109.4,94.5
			c-41.2,32.3-86.7,50.6-134.1,67.4c-48.3,17.1-103.5,32.2-148.5,62.1c-44,29.3-77.9,68.4-114.8,102.8c-17.9,16.7-37.2,33.7-59,47.1
			c-18.5,11.4-38.4,20.1-58.3,27c-21.5,7.5-43,13-64.6,20.9c-25.9,9.5-50.9,22.5-73.3,39.8c-55.5,43.1-92.6,99.2-153.7,137.8
			c-64.2,36.9-133.2,43.9-198.7,74.4c-48.8,22.7-78.9,57.8-115.4,91.9c-15.8,14.7-33.3,28.9-52.8,40.2
			c-22.1,12.8-45.9,21.8-69.1,29.8c-47.4,16.5-97.8,28.1-143.9,53.4c-46.5,25.5-84.8,66.1-121.7,100.2
			c-37.5,34.7-75.4,67.2-123.9,89c-45.2,20.2-91.4,32.5-136.5,53.5c-48.8,22.7-85.8,56.2-122.6,91.6c-39.5,38-79,74.5-132.5,96.2
			c-51,20.7-102.9,29.4-152.5,58.4l3.2,5.4c51.2-30,105.4-40,158.3-61.9C-312.7,1258.1-289.4,1245.2-268.1,1228.7z"/>
		
			<linearGradient id="SVGID_00000059273946872894857220000001761554031550837634_" gradientUnits="userSpaceOnUse" x1="2355.1902" y1="-2168.2178" x2="2355.1902" y2="-2106.135" gradientTransform="matrix(-0.4471 0.2695 0.3737 0.6198 2717.0476 1230.5773)">
			<stop  offset="0" style="stop-color:#FFAB1C"/>
			<stop  offset="0.17" style="stop-color:#F0A11A"/>
			<stop  offset="0.48" style="stop-color:#CA8816"/>
			<stop  offset="0.92" style="stop-color:#8D5E0F"/>
			<stop  offset="1" style="stop-color:#80560E"/>
		</linearGradient>
		<path style="fill:url(#SVGID_00000059273946872894857220000001761554031550837634_);" d="M-242.6,1232.3
			c17.6-14.8,31.3-31.7,44.8-48.2c12.7-15.5,25.4-31.1,41.7-45c17.9-15.4,38.5-26.9,60.2-36c47.6-20,95.7-29.1,143.4-48.2
			c46.9-18.8,82.3-49.1,117.5-82.5c34-32.2,67.6-67.4,110.6-92.1c47.9-27.5,100.3-44.3,150-64.9c24.2-10,48.6-20.6,71.5-34.3
			c21-12.5,40-27.1,57.9-42.7c41.1-35.7,77.4-73.5,128.7-99c65-32.3,134.1-45.4,197.7-82.9l0,0c59.6-36.6,99.8-89.1,155.2-129.6
			c47.1-34.4,98.9-48.8,150.5-69c21.5-8.5,42.8-18.2,63.1-30.6c22.9-14.1,43.9-30.7,64.1-47.6c41-34.1,80-72,126.1-101.5
			c42-26.8,89.2-40.2,133.8-55.3c46.2-15.7,89.9-33,128.5-66.1c38.7-33,68.9-70.8,108.4-103.3c18.3-15.1,38.2-28,60.3-36.8
			c20.1-7.9,40-11.9,59.7-16c20.4-4.1,41.1-8.3,61.9-16.5c25.8-10.3,49.1-26.8,70.5-44.3c48.4-39.6,88.9-86.3,143.8-120.3l-3.2-5.4
			c-52.9,32.8-91.1,78-137.5,116.4c-21.3,17.6-44.6,33.6-70.3,44.4c-22.1,9.2-44.4,14.7-66.4,20c-21.2,5.2-42.8,10.5-64.1,19.3
			c-22.3,9.2-42.7,22.2-61.5,37.2c-39.4,31.7-70.2,68.6-108.8,100.9c-39.6,33.1-84.2,50.8-131,66.8c-45.5,15.6-94.7,29.4-137.4,57.1
			c-45.3,29.3-82.7,67.3-122.4,101.4c-19.6,16.8-40.1,33.6-62.7,47.6c-19.7,12.2-40.7,21.8-61.7,29.8
			c-50.6,19.2-101,32.5-146.9,66.6c-55.6,41.2-94.8,94.8-155,132.1c-63.7,37.3-132.9,48.7-197.9,80.5c-50.5,24.6-85.1,61.8-124.9,97
			c-17.3,15.3-35.9,29.9-56.4,42c-22.7,13.4-47,23.6-70.8,33c-49.1,19.4-100.8,34.7-148.2,61.6c-44,24.9-79,61.6-113.8,94.4
			c-35.8,33.7-72,64.8-119.3,84.4c-46.9,19.5-94.5,29.4-141.4,49.6c-22,9.5-42.8,21.5-61.2,36.7c-17.6,14.7-32.2,31.1-46.7,47.3
			c-15.5,17.4-31,35.1-50.2,50.6c-20.8,16.9-44.7,29.5-69.3,39.8c-56.1,23.7-114.4,36.1-168.7,67.9l3.2,5.4
			c56.3-33,117-46.8,175.2-71.7C-287.6,1261.9-263.2,1249.5-242.6,1232.3z"/>
		
			<linearGradient id="SVGID_00000025436354628735610180000010819544564062392244_" gradientUnits="userSpaceOnUse" x1="2355.2307" y1="-2150.679" x2="2355.2307" y2="-2080.2996" gradientTransform="matrix(-0.4471 0.2695 0.3737 0.6198 2717.0476 1230.5773)">
			<stop  offset="0" style="stop-color:#FFAB1C"/>
			<stop  offset="0.17" style="stop-color:#F0A11A"/>
			<stop  offset="0.48" style="stop-color:#CA8816"/>
			<stop  offset="0.92" style="stop-color:#8D5E0F"/>
			<stop  offset="1" style="stop-color:#80560E"/>
		</linearGradient>
		<path style="fill:url(#SVGID_00000025436354628735610180000010819544564062392244_);" d="M-219.7,1237.7
			c14.6-13.2,23.8-27.9,32.7-42.5c8.3-13.6,16.8-27.3,29.9-39.7c16.9-16,38.4-27,60-35.5c49.2-19.1,98.1-26.1,147.4-44.5
			c44.6-16.7,78.3-44.7,111.2-76.6c32.4-31.4,63.4-63.9,104.7-88.1c49.1-28.8,102.4-49,153.3-72.1c48.9-22.2,92.9-46.7,134.2-81
			c44.8-37.3,85.3-77,139-104.9c64.4-33.3,133.4-50.4,196.4-88.2l0.1-0.1c58.5-35.4,100.8-85.2,155.8-124.1
			c49.6-35,104.5-52.2,158.5-74.5c49.2-20.3,91.2-47.7,133.3-80.4c44-34.1,86.5-71.6,134.5-101.5c40.4-25.2,83.1-37.5,125.8-51.4
			c44.8-14.7,86.4-31.5,122.9-64.4c38.7-34.8,67.7-74.6,107.5-108.9c17.2-14.9,36.4-28.3,58-35.8c17.2-6,33.6-7.2,49.6-8.1
			c16.6-1,33.4-2.1,51.4-8.4c25.8-9.1,49.7-27.3,70.9-44.2c53-42.5,98.9-92.7,158.2-129.4l-3.2-5.3
			c-57.8,35.8-101.9,84.8-153.3,126.3c-21.2,17.1-44.9,34.7-70.7,44.2c-18.8,7-37.1,9.1-54.9,11.2c-17.3,2-34.9,4.2-53.1,10.8
			c-21.8,7.9-41.1,21.1-58.8,36.1c-39.6,33.7-69.1,72.7-107.8,107c-37.2,33-79.4,50-124.8,64.9c-43.3,14.3-87.5,27-128.5,52.7
			c-47.4,29.8-88.6,67.3-131.7,101.5c-41.2,32.8-82.5,59.9-131.4,79.7c-53.2,21.6-107,37.8-155.8,72.6
			C986.5,474.4,945,525.2,886,561c-63.1,37.7-132.1,53.4-196.6,86.4c-53.2,27.1-92.3,66.4-136.1,103.2
			c-40.6,34.2-84.1,58.2-132.7,79.6c-50.5,22.2-103.4,41.2-152,69.5c-42.1,24.6-73.9,58.2-107.1,90c-33.5,32-67.4,60.6-112.6,77.8
			C0.2,1086.2-48.4,1094-97,1113.4c-21.9,8.7-43.2,19.9-60.6,36c-14.1,12.9-24,27.3-33.8,41.5c-10.5,15.3-21.3,30.7-36.9,44.4
			c-19.9,17.4-45.3,29.6-69.4,40.1c-61.1,26.4-125.4,42.5-184.5,77.2l3.2,5.3c60.5-35.5,126.8-52.7,189.5-80.1
			C-265.4,1267.4-239.2,1255.3-219.7,1237.7z"/>
		
			<linearGradient id="SVGID_00000165917354409122339480000009142829719066664837_" gradientUnits="userSpaceOnUse" x1="2354.8201" y1="-2131.3733" x2="2354.8201" y2="-2055.7229" gradientTransform="matrix(-0.4471 0.2695 0.3737 0.6198 2717.0476 1230.5773)">
			<stop  offset="0" style="stop-color:#FFAB1C"/>
			<stop  offset="0.17" style="stop-color:#F0A11A"/>
			<stop  offset="0.48" style="stop-color:#CA8816"/>
			<stop  offset="0.92" style="stop-color:#8D5E0F"/>
			<stop  offset="1" style="stop-color:#80560E"/>
		</linearGradient>
		<path style="fill:url(#SVGID_00000165917354409122339480000009142829719066664837_);" d="M-204,1247.5
			c13.5-12.5,20.3-26.1,26.7-39.8c5.9-12.7,12.1-25.4,24.1-37.2c16.3-16.1,38.8-27.4,60-35.5c50.1-19,99.6-24.6,149.7-42.7
			c89.7-32.5,131.1-114.6,210.9-160.8c50.1-29,103.6-51.1,155.3-75.7c25.5-12.1,51.2-24.6,75.7-39.2c21.3-12.8,41-27.7,59.8-43.1
			c46.1-37.7,88.4-78.3,143.1-106.7c64.4-33.5,133-53.4,196.1-90.7l0.1-0.1c57.8-35.5,101.8-83.6,156.7-122
			c50.1-35,106-53.3,160.3-76.3c22.8-9.6,45.4-20.1,67-33.2c23.9-14.5,46.4-31,68.5-47.6c45.8-34.2,90.2-71,139.1-101.9
			c39.4-24.8,80.9-36.7,122.5-49.9c44.1-14.1,85.7-31.1,121.2-63.8c39-35.9,66.9-76.9,107.3-112.1c16.8-14.6,36.8-28.7,58.2-35.4
			c16.2-5.1,30.4-4.6,44.6-3.9c14.8,0.8,29.8,1,46.7-4.9c25-8.8,48.9-27.3,69.4-43.6c55.2-43.8,104-95.9,165.3-133.9l-3.2-5.4
			c-60.8,37.7-109,89.2-163.7,132.7c-21,16.8-45.5,35.7-71.1,44.3c-17,5.7-32.2,5.6-47.3,5.3c-14.4-0.3-29.3-0.4-45.7,5.1
			c-21.4,7-41,20.9-57.8,35.6c-40,35-68.3,75.5-107.1,111.1c-35.7,32.7-77,49.5-121.1,63.7c-41.7,13.4-83.2,25.2-122.8,49.9
			c-48.6,30.4-92.5,67.4-137.7,101.5c-22,16.6-44.5,33.1-68.4,47.6c-21.5,13-44,23.7-66.7,33.3c-54.8,23.1-111,41.3-161.5,76.7
			c-54.8,38.4-98.2,86.8-156.1,122c-63,37.7-131.7,56.7-196.1,90.3c-54.5,28.4-96.4,68.8-142.4,106.5
			c-18.9,15.5-38.5,30.3-59.9,43.2c-24.5,14.8-50.1,27.2-75.6,39.2c-51.6,24.2-105.1,45.8-154.9,75
			c-79.8,46.7-121.8,128.8-211.7,161.4c-49.9,18.2-99.3,24.2-149.3,43.1c-21.4,8.1-43.4,19.2-59.7,35.3
			c-12.1,11.9-18.8,24.8-25.3,37.6c-6.9,13.9-14.3,27.8-27.9,40.3c-19.3,17.8-46.2,30-69.9,40.5c-64.4,28.4-132.8,46.9-195,83.4
			l3.2,5.4c62.4-36.6,131.5-55.5,196.3-84C-250.4,1277.5-223.2,1265.3-204,1247.5z"/>
		
			<linearGradient id="SVGID_00000019642265697892249060000016565684377609726906_" gradientUnits="userSpaceOnUse" x1="2355.0525" y1="-2108.1504" x2="2355.0525" y2="-2035.4279" gradientTransform="matrix(-0.4471 0.2695 0.3737 0.6198 2717.0476 1230.5773)">
			<stop  offset="0" style="stop-color:#FFAB1C"/>
			<stop  offset="0.17" style="stop-color:#F0A11A"/>
			<stop  offset="0.48" style="stop-color:#CA8816"/>
			<stop  offset="0.92" style="stop-color:#8D5E0F"/>
			<stop  offset="1" style="stop-color:#80560E"/>
		</linearGradient>
		<path style="fill:url(#SVGID_00000019642265697892249060000016565684377609726906_);" d="M-204.2,1268.5c15-13.6,24.4-29,33.6-44
			c8.6-14.1,17.3-28.3,30.8-41.2c16.9-16.1,38.5-27.1,60-35.6c49.2-19.1,98.1-26.3,147.2-44.7c43.9-16.4,77.5-44.1,110.1-75.2
			c31.8-30.4,62.3-62,102.4-85.5c50-29.2,103.8-50.5,155.6-74.5c25.6-11.9,51.3-24.3,75.8-38.9c21.1-12.7,40.5-27.4,59-42.8
			c44.8-37.5,85.3-77.5,139.4-105.4c64.5-33.2,133.5-49.8,196.6-87.7l0.1-0.1C965,557.5,1007,507.4,1062,468.4
			c49.8-35.2,105-52.2,159.2-74.5c22.5-9.3,44.8-19.7,65.9-32.7c23.8-14.5,46.3-31.1,68.2-47.8c45.2-34.3,89-71.6,137.7-102.3
			c39.2-24.6,81-37,122.5-50.8c44.1-14.6,85.3-31.7,121.1-64c38.7-34.7,67.8-74.4,107.5-108.6c17.2-14.8,36.6-28.5,58.1-35.8
			c17.9-6.1,34.8-7.3,51.3-8.3c17.1-1.1,34.6-2.1,53.1-8.6c25.8-9,49.8-27.3,70.7-44.2c52.1-42.5,96.3-93.2,155.3-129.4l-3.3-5.4
			c-60.3,37.1-106.8,88.4-160.5,131.6c-21,16.8-45.3,35.7-71,44.3c-17.5,5.9-33.8,6.2-49.6,6.5c-15.2,0.2-30.9,0.6-47.9,6.2
			c-21.4,7.1-40.8,21-57.7,35.6C1803,15,1774.3,55.2,1735.6,90.5c-35.7,32.5-76.9,49.5-121,63.8c-41.5,13.4-83,25.6-122.2,50.1
			c-48.8,30.5-92.7,67.7-138.2,101.9c-22,16.6-44.6,33.2-68.3,47.7c-21.4,13.1-43.8,23.7-66.4,33.1
			c-54.7,22.8-110.5,40.5-160.8,75.9c-54.9,38.6-97.7,87.7-155.9,122.9c-63,37.9-131.9,55.9-196.3,89.4
			c-54.4,28.3-95.9,68.6-141.4,106.2c-18.8,15.5-38.3,30.3-59.6,43.1c-24.4,14.7-50.2,27.1-75.7,39.1
			c-51.7,24.3-105.4,46-155.4,75.1c-40.2,23.5-70.4,55.1-101.8,85.5c-32.3,31.3-65.9,59.1-109.9,75.2
			c-49.7,18.2-98.9,24.7-148.5,43.7c-21.4,8.1-43.2,19.1-59.6,35.2c-12.6,12.3-20.1,25.8-27.3,39.1c-7.8,14.4-15.9,28.8-30,41.8
			c-19.2,17.7-46,29.9-69.8,40.3c-63.6,27.7-131.2,44.7-192.5,81.1l3.2,5.3c60-35.6,125.9-50.9,188.1-77.5
			C-249.8,1298.3-223.7,1286.1-204.2,1268.5z"/>
		
			<linearGradient id="SVGID_00000085969607636203680540000006295612624839396256_" gradientUnits="userSpaceOnUse" x1="2354.9158" y1="-2081.5776" x2="2354.9158" y2="-2008.2959" gradientTransform="matrix(-0.4471 0.2695 0.3737 0.6198 2717.0476 1230.5773)">
			<stop  offset="0" style="stop-color:#FFAB1C"/>
			<stop  offset="0.17" style="stop-color:#F0A11A"/>
			<stop  offset="0.48" style="stop-color:#CA8816"/>
			<stop  offset="0.92" style="stop-color:#8D5E0F"/>
			<stop  offset="1" style="stop-color:#80560E"/>
		</linearGradient>
		<path style="fill:url(#SVGID_00000085969607636203680540000006295612624839396256_);" d="M-212,1296.2
			c18.5-16,32.6-34.3,46.6-52.1c13.1-16.7,26.3-33.6,43.4-48.7c17.8-15.7,38.6-27.4,60.5-36.6c47.6-20,95.5-29.2,143.1-48.5
			c44.3-17.8,79.1-46,113.1-77.2c32.2-29.8,63.8-60.8,103.7-83.7c50.3-29,104.7-49.3,156.8-72.7c24.8-11.2,50.1-22.8,73.8-36.9
			c21.2-12.6,40.3-27.5,58.4-43.4c41.4-36.3,78.1-75.3,130.3-101c65.1-32.2,134.4-44.3,198.1-81.8l0,0
			c59.9-36.9,99.3-89.9,154.7-130.7c47.6-35.1,100.7-49.3,153-69.5c21.8-8.4,43.3-18.2,63.8-30.7c23.7-14.6,46-31.5,67.7-48.4
			c44.5-34.8,87.6-72.9,136-103.7c39.2-24.9,81.7-38.4,123.3-53.1c43.8-15.6,85.2-33.4,121.9-64.6c38.6-32.9,69-70.6,108.5-102.9
			c18.5-15.1,38.6-28.3,61-36.8c21.5-8.1,42.8-11.9,63.8-15.8c21.7-3.9,43.8-7.8,66-16.3c26-9.9,49.2-26.4,70-44.3
			c46-39.9,81.8-87.6,136-121.2l-3.2-5.4c-56.2,34.6-95.5,83.7-144,124.6c-20.9,17.6-44.3,34.7-70.3,44.4
			c-20.7,7.6-40.9,10.3-60.8,13.1c-19.2,2.7-38.7,5.4-58.6,12.6c-22,8-41.7,21.2-59.7,36.3c-39.6,33.2-69.4,71.6-108.1,105.3
			c-36.3,31.6-77.6,49.2-121.5,64.3c-41.6,14.4-83.7,27.3-122.9,52.1c-48.6,30.7-91.9,68.5-136.7,103.1
			c-21.8,16.9-44.1,33.6-67.9,48.2c-20.8,12.7-42.6,22.9-64.7,31.6c-53.1,21-107.1,36.4-155.5,71.5c-55.3,40-95.7,91.9-155.2,128.2
			c-63.3,37.7-132.4,51.6-197.2,84.1c-53.3,26.8-91.7,66.5-135,103.5c-17.9,15.3-36.7,29.8-57.4,42.3
			c-24.4,14.7-50.3,26.8-75.8,38.4C395,897.5,341,918.2,290.9,947.2c-40.3,23.4-71.6,54.9-103.9,85.2c-33,30.9-67.1,58.3-110.6,75.4
			c-48.2,18.9-96.4,27.3-144.5,46.7c-22.2,9-43.6,20.5-61.3,36.7c-15.4,14.1-26.8,30-38,45.5c-12.1,16.6-24.2,33.7-41.3,48.6
			c-19.9,17.4-45,29.7-69.3,39.6c-59.2,24.2-121.4,35.9-178.5,69.7l3.3,5.4c55.5-32.6,115-41.7,172.3-64.3
			C-256.6,1326-232.2,1313.6-212,1296.2z"/>
		
			<linearGradient id="SVGID_00000172422926428158496060000006549842048050870665_" gradientUnits="userSpaceOnUse" x1="2354.8752" y1="-2053.7874" x2="2354.8752" y2="-1981.1298" gradientTransform="matrix(-0.4471 0.2695 0.3737 0.6198 2717.0476 1230.5773)">
			<stop  offset="0" style="stop-color:#FFAB1C"/>
			<stop  offset="0.17" style="stop-color:#F0A11A"/>
			<stop  offset="0.48" style="stop-color:#CA8816"/>
			<stop  offset="0.92" style="stop-color:#8D5E0F"/>
			<stop  offset="1" style="stop-color:#80560E"/>
		</linearGradient>
		<path style="fill:url(#SVGID_00000172422926428158496060000006549842048050870665_);" d="M-161,1264.9
			c17.9-19.5,35.9-39.2,57.1-56.9c19.1-16,40.4-28.8,63.1-39.1c45.6-20.8,92.3-32.4,138-52.3c43.5-19.1,79.4-47.1,114.1-77.7
			c33.3-29.4,66.1-60.5,106.4-83.3c50.5-28.7,105.2-47.8,157.4-70.3c24.9-10.7,50.3-22,74.1-36c20.3-12,38.5-26.6,55.1-42.1
			c38.3-35.5,71.1-73.7,121.9-97.4c65.7-30.7,134.8-37.9,199.2-74.9l0,0c60.9-38.5,97.7-94.3,153.2-137.2
			c45.3-35,95.4-46.3,145.6-64c20.8-7.4,41.5-16.3,61.1-28.2c23.6-14.3,45.4-31.5,66.5-48.5c44.5-35.8,87.1-75.3,136.1-106.8
			c39.8-25.5,83.6-40.2,126-56.2c42.6-16.2,83.4-34.9,120.1-64.1c38.5-30.7,70.1-66.1,109.1-96.4c20.5-15.9,42.5-29.3,66.5-39
			c25.7-10.4,51.8-17,77.4-23.8c51.8-13.6,104.1-28,146.8-67.7c40.3-37.4,66.2-82.1,115.9-113.4l-3.2-5.4
			c-51.5,32.3-81.2,78.5-124.1,116.9c-19.9,17.8-42,32.6-67,42.7c-24.9,10.1-50.1,15.9-74.8,21.7c-23.9,5.6-48.1,11.2-72.3,20.7
			c-23.6,9.2-45.3,22.7-65.2,38.6c-39.1,31.1-70.1,67.3-108.7,98.7c-36.4,29.7-77,48.1-119.8,63.9c-42.4,15.6-85.8,29.8-125.6,55.3
			c-49.1,31.3-92.1,70.6-136.8,106.2c-21.3,16.9-43.2,33.9-66.8,48.3c-19.9,12.1-40.9,21.4-62,29c-51,18.6-102.2,31-148.2,66
			c-55.3,42.1-93.1,96.8-153.5,134.7c-64.1,37.2-133.4,46.3-198.8,77.5c-51.3,24.5-85.5,62.9-125,98.7
			c-17.2,15.6-35.7,30.3-56.3,42.6c-23.8,14-49.1,25.5-74,36.3c-52.1,22.8-106.7,42.5-157.1,71.2c-40.2,22.9-72.5,53.9-105.4,83.5
			c-34.3,30.8-69.8,58.9-113.7,77.5c-46.4,19.7-93.6,30.4-139.9,50.9c-22.5,10-43.5,22.3-62.2,38.2c-19.7,16.7-35.9,35.5-52,53.9
			c-17.2,19.7-34.5,39.9-55.8,57.6c-20.7,17.3-44,29.8-69,39c-53.7,19.7-108.2,24.4-160.7,54.9l3.2,5.4
			c50.8-29.3,102.2-31.4,153.9-49.3C-235.2,1345.1-197.8,1304.9-161,1264.9z"/>
		
			<linearGradient id="SVGID_00000078009888717512989250000012059819763737559718_" gradientUnits="userSpaceOnUse" x1="2354.6104" y1="-2026.6501" x2="2354.6104" y2="-1953.468" gradientTransform="matrix(-0.4471 0.2695 0.3737 0.6198 2717.0476 1230.5773)">
			<stop  offset="0" style="stop-color:#FFAB1C"/>
			<stop  offset="0.17" style="stop-color:#F0A11A"/>
			<stop  offset="0.48" style="stop-color:#CA8816"/>
			<stop  offset="0.92" style="stop-color:#8D5E0F"/>
			<stop  offset="1" style="stop-color:#80560E"/>
		</linearGradient>
		<path style="fill:url(#SVGID_00000078009888717512989250000012059819763737559718_);" d="M-155.6,1284.1
			c39.6-39.6,78.5-78.1,132.4-104c44.2-21.2,89.7-34.8,133.9-55.4c43.1-20,79.6-47.7,114.9-77.9c34.1-29.1,68-60.2,108.5-83
			c50.5-28.5,105.5-46.6,157.8-68.4c24.8-10.4,50.4-21.4,74.2-35.3c19.7-11.6,37.2-26,52.8-41.2c36-35.1,65.5-72.2,115.5-94.7
			c66.2-29.7,135.1-32.7,200.1-69.7l0,0c62.2-39.5,96.6-98,152.4-142.4c44-35,91.5-43.8,140.4-59.7c20.2-6.5,40.3-15.1,59.3-26.7
			c23.6-14.4,45.2-31.8,66-49c43.9-36.2,85.8-76.4,134.7-108.1c39.8-25.8,84-41.4,126.7-58.3c42.6-16.9,83.3-36.3,120.7-64.6
			c38.3-29.2,71.1-62.7,109.9-91.4c21.4-16,44.1-29.4,68.6-39.7c29.3-12.3,59-21.2,88.3-30.3c52.4-16.2,115.6-32.7,157.3-74.4
			c35.5-35.5,52.3-76.6,99.1-106.2l-3.2-5.4c-47.6,30.1-67.5,72.5-104.5,108.5c-42.2,41.1-101.7,56.8-153.9,72.3
			c-28.2,8.3-56.6,16.5-84.8,28.1c-24.4,10.1-47,23.6-68.2,39.5c-38.8,29.3-71.2,63.4-109.7,93.1c-37.1,28.6-77.9,47.7-120.5,64.4
			c-42.5,16.7-86.6,31.9-126.4,57.7c-89.2,57.6-158,149.1-261.1,183.6c-49.3,16.5-97.7,26-142,61.1
			c-55.7,43.9-90.9,101.5-152.6,140.8c-64.8,36.9-133.7,41.4-199.8,71.3c-50.3,22.8-80.9,60.3-117.6,95.5
			c-78.9,75.7-192.3,93.5-285.3,146c-40.5,22.8-74,53.9-107.8,83.1c-35.1,30.3-71.4,58.1-114.6,77.8
			c-44.7,20.4-90.7,33.2-135.2,54.4c-52.9,25.1-90.5,62.6-128.6,101.7c-38.6,39.5-80.7,85.7-137.6,103.9
			c-48.9,15.7-95.6,13.6-144.3,41.5l3.2,5.3c48-27.5,92-23.4,139.9-37.9C-239.5,1372.5-194.8,1323.3-155.6,1284.1z"/>
		
			<linearGradient id="SVGID_00000126303173056990558140000004806485115812871855_" gradientUnits="userSpaceOnUse" x1="2355.1631" y1="-2002.1604" x2="2355.1631" y2="-1929.75" gradientTransform="matrix(-0.4471 0.2695 0.3737 0.6198 2717.0476 1230.5773)">
			<stop  offset="0" style="stop-color:#FFAB1C"/>
			<stop  offset="0.17" style="stop-color:#F0A11A"/>
			<stop  offset="0.48" style="stop-color:#CA8816"/>
			<stop  offset="0.92" style="stop-color:#8D5E0F"/>
			<stop  offset="1" style="stop-color:#80560E"/>
		</linearGradient>
		<path style="fill:url(#SVGID_00000126303173056990558140000004806485115812871855_);" d="M-146.9,1298.6c22.5-22,45-44.6,70.3-65
			c19.9-16.2,41.2-29.2,64.4-40.4c43.9-21.3,89.3-35.6,133.3-56.4c43.2-20.3,79.4-47.6,115-77.8c34.3-29.2,68.3-60,108.8-83.1
			c92.2-52.2,206.1-67.2,283.6-143.6c35.6-35.1,64.4-71.9,114.5-94.3c66.3-29.7,135.1-31.6,200.1-68.8l0,0
			c62.5-39.6,96.4-98.7,152.2-143.3c22.3-17.7,47.6-30.6,73.8-39.6c22-7.5,43.8-12.3,65.7-19.3c103-32.9,169.6-126.3,258.2-183.2
			c40-25.8,84.2-41.4,126.8-58.6c42.7-17.1,83-36.5,120.6-64.8c38.3-28.9,71.8-61.8,110.5-90.4c21.5-15.9,43.9-29.3,68.4-39.6
			c30.1-12.7,60.6-22.2,90.9-31.8c52.3-16.7,118-33.7,159.5-75.7c34.9-35.4,49.8-76,96.6-105.4l-3.2-5.4
			c-23.7,14.8-40.5,32.6-55.1,52.7c-12.5,17.3-23.5,35.1-39.5,51.4C2126.9-41,2059-23.8,2006-6.7c-30.2,9.7-60.8,19.4-91,32.2
			c-23.6,10.1-44.8,22.8-65.7,38.1c-39.2,28.8-73,62-111.8,91.1c-38.2,28.7-79.2,48-122.6,65.5c-41.7,16.9-85.1,32.5-124.3,57.6
			c-48.9,31.3-90.3,71.8-133.8,107.9c-39.1,32.5-78.3,61.3-126.7,76.5c-21,6.6-41.9,11.1-63,18.1c-25.9,8.7-51.3,21.3-73.4,38.6
			c-57.3,44.7-90.3,105.3-154,145.1c0.6,0.9,0.9,1.6,1.3,2.2c-0.3-0.6-0.8-1.3-1.3-2.2c-64.9,37.7-134,38.6-200.2,68.4
			c-25.7,11.5-48.8,28.1-68.5,46.9c-16,15.4-29.8,31.7-45.4,47.2c-36,35.8-79.9,57-126.8,76.4c-52.2,21.6-107.5,39.3-157.9,67.9
			c-40.5,22.9-74.6,53.9-108.9,83c-35.7,30.2-71.9,57.5-115.2,77.8c-43.9,20.6-89,35.1-132.7,56.3c-23.2,11.3-44.4,24.1-64.3,40.3
			c-25.4,20.6-48.2,43.1-70.9,65.3c-39.8,39.1-86.7,91.2-144.1,108.1c-21.9,6.5-42.7,7.9-63.9,10.8c-24.4,3.5-48.1,10-72.3,24.1
			l3.2,5.3c47.8-27.5,90.5-22,137.9-36.1C-232.9,1388.8-186.7,1337.5-146.9,1298.6z"/>
		
			<linearGradient id="SVGID_00000073711056236323690820000014706594204414601640_" gradientUnits="userSpaceOnUse" x1="2354.9287" y1="-1980.6654" x2="2354.9287" y2="-1910.1217" gradientTransform="matrix(-0.4471 0.2695 0.3737 0.6198 2717.0476 1230.5773)">
			<stop  offset="0" style="stop-color:#FFAB1C"/>
			<stop  offset="0.17" style="stop-color:#F0A11A"/>
			<stop  offset="0.48" style="stop-color:#CA8816"/>
			<stop  offset="0.92" style="stop-color:#8D5E0F"/>
			<stop  offset="1" style="stop-color:#80560E"/>
		</linearGradient>
		<path style="fill:url(#SVGID_00000073711056236323690820000014706594204414601640_);" d="M-128.2,1304.8
			c20.7-21.1,41.3-42.7,65.1-62.1c19.6-16.1,41-29,64-40c45.2-21.6,91.9-35.5,137.2-56.4c43.3-20,79-47.1,113.8-77.7
			c33.3-29.4,66.1-60.2,106.2-83c47.4-26.9,98.9-42.4,147.9-62c24-9.5,48.4-20,71.3-33.5c20.1-11.9,38-26.4,54.4-41.8
			c37.5-35.3,69.2-73.1,119.7-96.4c65.9-30.3,134.9-36.1,199.5-73.1l0,0c61.3-38.9,97.4-95.7,153-139.1c44.7-35,94-45.5,143.8-62.5
			c20.6-7,41.1-15.9,60.4-27.7c22.6-13.7,43.4-30.5,63.1-47.4c40.4-34.4,78.3-72.8,124.2-102.4c39.8-25.5,83.2-40.2,125.6-56.3
			c42.7-16.2,82.7-35.2,120-63.8c39.1-30,72.8-64.2,112.4-93.9c21.2-15.9,43.5-29.4,67.9-39.4c28.4-11.8,57.3-20.1,85.8-28.5
			C2060.5,2,2119.2-13.6,2162.6-55c39.1-37.4,62.7-82.4,112.3-113.6l-3.2-5.3c-48,30.2-67.8,73.4-104.9,109.7
			c-42.6,41.8-104.4,57.9-157.2,74.2c-29.3,9-59,17.8-88.2,30c-24.4,10.2-46.8,23.6-68.2,39.6c-39.2,29.2-72.7,62.7-111.5,92.2
			c-37.4,28.5-77.6,47.6-120.3,64.2c-42.6,16.5-86.3,31.8-126.3,57.4c-47.3,30.3-86.7,69.7-128.4,104.9
			c-20.2,17.1-41.4,34.2-64.6,48.2c-19.1,11.6-39.4,20.3-59.8,27.1c-49.2,16.4-97.5,25.8-141.8,60.8
			c-55.7,44-90.8,101.8-152.6,141.1c-64.8,36.9-133.8,41.2-199.8,71.1c-50.3,22.8-80.7,60.2-117.2,95.4
			c-16,15.4-33.6,29.7-53.5,41.5c-23.3,13.8-48.3,24.5-72.8,34.4c-50.5,20.4-103.4,36.8-152.1,64.5c-40.4,22.9-73.7,53.6-107.5,83.1
			c-35.1,30.5-71.1,57.7-114.3,77.8c-44.7,20.8-90.9,34.9-135.4,56.4c-23.2,11.2-44.6,24.2-64.4,40.2
			c-24.3,19.9-45.9,41.9-67.4,63.5c-39.6,39.8-83.2,87.7-140.9,106.1c-49.3,15.6-96.5,13.1-145.5,41.3l3.2,5.3
			c50.6-29.1,101.3-29.1,152.5-46.1C-209.4,1390.6-167.8,1345.2-128.2,1304.8z"/>
		
			<linearGradient id="SVGID_00000027573867630210214540000006544476802181445553_" gradientUnits="userSpaceOnUse" x1="2354.7937" y1="-1961.2448" x2="2354.7937" y2="-1889.6108" gradientTransform="matrix(-0.4471 0.2695 0.3737 0.6198 2717.0476 1230.5773)">
			<stop  offset="0" style="stop-color:#FFAB1C"/>
			<stop  offset="0.17" style="stop-color:#F0A11A"/>
			<stop  offset="0.48" style="stop-color:#CA8816"/>
			<stop  offset="0.92" style="stop-color:#8D5E0F"/>
			<stop  offset="1" style="stop-color:#80560E"/>
		</linearGradient>
		<path style="fill:url(#SVGID_00000027573867630210214540000006544476802181445553_);" d="M-164.7,1368
			c23-19.2,42.2-40.8,61.5-61.8c18-19.7,36-39.8,57.3-57.8c19.1-16.2,40.2-28.5,63-39c47.2-21.8,95.6-35.3,143-56.5
			c43.6-19.5,78.2-46.1,111.9-77.7c31.5-29.3,62.5-60.4,101.9-82.7c43.2-24.4,89.8-37,134.5-53.9c22.3-8.4,44.9-17.8,66-30.3
			c20.9-12.3,39.8-27.3,57.4-42.9c40.5-36.1,76.1-74.8,127.8-99.9c65.3-31.7,134.5-42.4,198.4-79.8l0,0
			c60.2-37.4,98.9-91.4,154.4-132.7c47-35.1,99.2-48.4,150.9-67.9c21.5-8.1,42.9-17.7,63-30.2c21.1-13,40-28.7,58.1-44.6
			c35.3-31.4,67.9-66.3,109.2-93c38.3-24.8,80.6-37.8,121.5-52c44-15.3,83.9-33.5,121.8-63.4c40.2-31.7,74.6-67.9,115.5-99.1
			c20.1-15.3,41-28.4,64.3-37.8c26.1-10.5,52.4-17.1,78.4-23.9c26.9-6.9,54.2-13.8,81.2-24.7c27.1-11,50.6-27,72.1-46.2
			c45.6-41,80-90.7,134.8-124.9l-3.2-5.4c-53,33.2-83.3,81.7-126.9,121.4c-20.3,18.6-42.7,33.1-68.5,43.9
			c-27.9,11.6-56.1,19.1-84,26.7c-27,7.4-54.3,14.7-81.4,25.6c-24.2,9.8-46.1,23.2-67,39.1c-40.2,30.6-74.2,65.9-114,96.8
			c-37.2,28.9-76.7,47.4-119.6,63c-41.9,15.2-85,28.8-124.2,54.1c-43.5,28-78.5,64.7-116.1,97.5c-18.7,16.3-38.3,32.2-60,45.5
			c-19.8,12.1-40.9,21.3-61.9,28.9c-50.9,18.4-101.9,30.7-147.8,65.7c-55.3,42.2-93,97.1-153.5,135.1
			c-64.1,37.2-133.4,46-198.9,77.2c-51.1,24.3-85.3,62.7-124.5,98.5c-17.1,15.6-35.6,30.3-56.2,42.5c-21.9,13-45.1,22.8-68.2,31.6
			c-46.4,17.9-95,31.7-139.9,57c-39.8,22.5-71.4,53.4-103.6,82.8c-34.2,31.2-69.1,58.1-112.7,77.7c-46.5,21-94.2,34.8-140.7,56.4
			c-23,10.7-44.2,23.3-63.4,39.5c-22.2,18.6-41.4,39.3-60.3,59.5c-20.4,21.7-40.7,43.9-64.8,63.6c-21.5,17.7-44.8,30.4-70.6,39.7
			c-55.2,19.8-112.1,24.1-166.1,55.3l3.2,5.3c56.4-32.8,117.1-39.7,175.1-61.6C-210.3,1398.7-186.3,1386-164.7,1368z"/>
		
			<linearGradient id="SVGID_00000078761561427710680320000017431085593283942578_" gradientUnits="userSpaceOnUse" x1="2354.7034" y1="-1942.2911" x2="2354.7034" y2="-1869.395" gradientTransform="matrix(-0.4471 0.2695 0.3737 0.6198 2717.0476 1230.5773)">
			<stop  offset="0" style="stop-color:#FFAB1C"/>
			<stop  offset="0.17" style="stop-color:#F0A11A"/>
			<stop  offset="0.48" style="stop-color:#CA8816"/>
			<stop  offset="0.92" style="stop-color:#8D5E0F"/>
			<stop  offset="1" style="stop-color:#80560E"/>
		</linearGradient>
		<path style="fill:url(#SVGID_00000078761561427710680320000017431085593283942578_);" d="M-132.1,1365.4
			c20.6-17.6,37-37.6,53.2-57c15.3-18.2,30.5-36.7,49.4-53.5c18.9-16.8,40.7-28.9,63.9-39.3c49.1-21.8,99.1-35.1,148.2-56.4
			c21.2-9.2,41.7-20,60.5-34c17.4-12.9,32.8-27.3,47.7-41.9c30.1-29.6,59.5-61.5,98.9-83.7c39.1-22.1,80.4-31.7,120.8-45.7
			c21.3-7.4,42.6-16.2,62.7-28.2c21-12.4,40.1-27.2,58.2-42.5c44.1-37.3,83.7-77.2,137.4-104.6c64.6-32.9,133.7-48.3,196.8-86.2l0,0
			c59-35.8,100.2-86.7,155.4-126.2c49.2-35.2,103.9-51.5,157.6-73.2c22.3-9,44.4-19.2,65.3-32.1c19.4-12,36.7-26.4,52.8-41.4
			c30.9-28.9,58.6-60.7,96-84.9c37.6-24.4,79.2-35.6,119.3-48.3c20.7-6.5,41.6-13.7,62-23.5c21.3-10.4,40.7-23.7,58.9-38.4
			c41.3-33.3,76.1-71.2,118.2-104c19.5-15.3,39.9-28.5,63-37.4c23.7-9.1,47.6-14,71.1-19c24.3-5.2,49-10.2,73.6-19.7
			c28-10.8,52.1-28.3,74.7-47.5c53.1-45,97.4-99.6,158.7-137.5l-3.2-5.4c-58.9,36.6-99.7,89.5-150.1,133
			c-22.2,19.2-46.1,36.1-73.8,47c-25.4,10-51.1,15.7-76.3,21.5c-24.4,5.6-49.1,11.2-73.7,20.7c-23.2,9-43.7,22.2-63.4,37.5
			c-41.6,32.3-76.2,69.5-117.2,102.3c-18.2,14.6-37.6,27.8-58.8,38.2c-20.5,10-41.6,17.4-62.4,24.3c-40.2,13.2-82.2,25.1-120.1,49.6
			c-38.7,25.1-68.2,58-100.7,87.8c-16.7,15.4-34.7,30.2-54.6,42.5c-20.7,12.8-42.5,22.7-64.5,31.5c-52.9,20.9-106.8,36.1-155.2,71.3
			c-55.3,40.1-95.6,92.2-155.1,128.6c-63.5,37.7-132.9,51.3-197.8,84c-52.5,26.4-90.4,65.5-132.9,102.2
			c-18.4,15.9-37.9,31.1-59.4,43.7c-20.1,11.8-41.4,20.7-62.6,28.3c-41.9,15.1-85.3,25.8-126,48.7c-39,22-68.8,53.3-99.2,82.6
			c-15.7,15.2-32,30.3-50.2,43.6c-19,13.9-39.4,24.7-60.6,34.1c-48.5,21.2-98.2,34.6-146.6,56.6c-22.6,10.3-43.6,22.2-62.3,38.4
			c-19.8,17.2-36.2,36.3-52.4,55.1c-17.4,20-34.8,40.7-56.2,58.9c-21.8,18.4-46.8,31.2-73,41.5c-62.6,24.8-129,36-189.5,71.4
			l3.2,5.3c62.6-36.7,132-50.3,196.9-76.6C-179.7,1396.7-153.9,1384-132.1,1365.4z"/>
		
			<linearGradient id="SVGID_00000012472998564629675660000014996422496244788895_" gradientUnits="userSpaceOnUse" x1="2354.6636" y1="-1922.5824" x2="2354.6636" y2="-1848.3069" gradientTransform="matrix(-0.4471 0.2695 0.3737 0.6198 2717.0476 1230.5773)">
			<stop  offset="0" style="stop-color:#FFAB1C"/>
			<stop  offset="0.17" style="stop-color:#F0A11A"/>
			<stop  offset="0.48" style="stop-color:#CA8816"/>
			<stop  offset="0.92" style="stop-color:#8D5E0F"/>
			<stop  offset="1" style="stop-color:#80560E"/>
		</linearGradient>
		<path style="fill:url(#SVGID_00000012472998564629675660000014996422496244788895_);" d="M-183.3,1411.6
			c26.3-11.1,53.2-23.8,75-42.8c19.1-16.7,33.5-35.5,47.9-54c13.4-17.3,26.8-34.8,44.2-50.6c18.5-16.8,40.5-28.9,63.5-38.9
			c50.3-22.1,101.5-34.9,152-56.4c21.4-9.1,42-19.8,60.8-34c17.1-12.9,32-27.2,46.2-41.9c29.1-29.8,57.1-61.5,96.3-83.7
			c36.7-20.7,74.4-28.3,112.2-40.5c44.9-14.5,82.8-39.2,119.8-69.5c46-37.7,88-78.1,142.6-106.6c64.4-33.6,133.2-52.6,196.1-90.3
			l0.1-0.1c57.9-35.2,101.3-83.6,156.1-122c50.6-35.4,106.8-53.6,161.8-76.7c43.6-18.3,82.9-40.3,116.5-73
			c28.1-27.4,52.3-56.9,87.3-79.8c37.5-24.4,78.4-34.6,118.1-46.2c20.5-6,41.1-12.6,61.2-22.2c21.5-10.2,40.9-23.8,59-38.6
			c42-34.4,77.2-73.5,120-107.4c19.2-15.3,39.6-28.7,62.5-37.2c22.3-8.3,44.4-12,66.1-15.9c22.5-3.9,45.3-7.8,68.4-16.4
			c28.2-10.5,53-29.2,76.1-48.1c30.2-24.8,58.3-51.3,87.2-77.1c27-24.1,54.8-48.6,86.6-68.4l-3.2-5.4
			c-64.3,39.8-113,96.5-169.6,143.3c-23,19-47.6,37.3-75.8,48c-23.5,8.9-46.9,13.1-69.9,17.4c-22.1,4.1-44.8,8.2-67.5,16.7
			c-22.9,8.6-43.3,21.9-62.5,37.2c-42.5,33.6-77.6,72.3-119.5,106.4c-18.1,14.8-37.5,28.3-59,38.6c-20.2,9.7-40.9,16.4-61.4,22.6
			c-39.6,11.9-80.9,22.4-118.3,46.7c-35.7,23.2-60.8,53.4-89.8,81.3c-33.9,32.6-72.9,54.8-116.8,73.1
			c-54.6,22.8-110.3,40.4-160.6,75.7c-54.9,38.7-97.6,87.9-155.9,123.2c-63,37.9-132,55.7-196.4,89.2
			c-54.3,28.2-95.6,68.4-141.1,106.1c-37,30.6-74.9,54.9-120,69.8c-38.4,12.7-77.2,20.9-114.6,42c-39.2,22.1-67.7,54-96.9,83.6
			c-14.4,14.6-29.5,29-46.6,41.9c-18.8,14.1-39.4,24.8-60.8,34c-50,21.4-100.9,34.4-150.8,56.4c-23,10.1-44.9,22.1-63.5,38.9
			c-17.8,16.1-31.9,34-45.8,51.5c-14.9,18.8-29.9,38-49.4,54.9c-21.8,18.9-48.4,31.6-74.7,42.6c-68.1,28.5-141.6,45.1-207.2,83.7
			l3.2,5.4c33.1-19.5,68.9-32.7,103.6-45.6C-255,1439.1-218.9,1426.7-183.3,1411.6z"/>
		
			<linearGradient id="SVGID_00000011713505540824864190000007571315790569915272_" gradientUnits="userSpaceOnUse" x1="2354.9106" y1="-1900.8352" x2="2354.9106" y2="-1826.4586" gradientTransform="matrix(-0.4471 0.2695 0.3737 0.6198 2717.0476 1230.5773)">
			<stop  offset="0" style="stop-color:#FFAB1C"/>
			<stop  offset="0.17" style="stop-color:#F0A11A"/>
			<stop  offset="0.48" style="stop-color:#CA8816"/>
			<stop  offset="0.92" style="stop-color:#8D5E0F"/>
			<stop  offset="1" style="stop-color:#80560E"/>
		</linearGradient>
		<path style="fill:url(#SVGID_00000011713505540824864190000007571315790569915272_);" d="M-105.6,1385.7
			c19.8-17.2,35.4-36.6,50.8-55.6c14.5-17.8,28.9-35.9,47.1-52.2c18.6-16.8,40.3-28.8,63.4-38.9c49.7-21.7,100.2-33.9,150-55
			c21.4-9.1,42-19.9,60.8-34c17.2-12.8,32.2-27.3,46.6-41.9c29.3-29.7,57.7-61.6,96.9-83.6c37.3-21.1,75.9-29.1,114.2-41.7
			c45.1-14.8,83-39.2,120-69.8c45.7-37.8,86.9-77.9,141.4-106.2c64.4-33.5,133-53.5,196.1-90.7l0.1-0.1
			c57.7-35.6,101.8-83.5,156.7-122c49.9-34.9,104.8-52.7,159.1-75c44.1-18.2,83.5-40.3,117.6-73.1c28.9-27.8,53.9-58.1,89.5-81.3
			c37.6-24.5,78.8-35,118.6-46.9c19.9-5.9,40-12.5,59.6-21.7c22.3-10.5,42.5-24.4,61.3-39.8c41.6-34.1,75.8-73.1,118.3-106.6
			c19.3-15.2,39.7-28.4,62.7-36.8c23.2-8.5,46.3-12.9,69.1-17.5c23.4-4.7,47.5-9.3,71.4-18.7c27.3-10.7,51.1-28.4,73.5-46.7
			c56.7-46.4,105.5-102.4,169.4-142.3l-3.2-5.4c-31.8,19.9-59.8,44.5-86.8,68.6c-28.9,25.8-57.1,52.2-87.4,77
			c-22.4,18.4-46.4,36.4-73.7,46.9c-23.2,8.9-46.4,13-69,17c-21.9,4-44.3,7.8-66.7,15.9c-23,8.3-43.4,21.5-62.7,36.8
			c-43,33.9-77.9,73.2-120,107.8c-18.9,15.4-39,29.4-61.4,39.9c-19.6,9.1-39.5,15.5-59.4,21.3c-39.9,11.7-80.7,21.8-118.4,46.4
			c-35.1,22.9-59.1,52.5-87.4,80c-33.8,32.8-73.5,54.7-117.3,73c-54.4,22.7-110,41-160,76c-54.9,38.4-99,86.4-156.7,122
			c-63.2,37.3-131.7,57.2-196.1,90.7c-54.7,28.4-96.6,68.9-142.7,106.6c-36.9,30.2-74.8,55-119.8,69.5
			c-37.6,12.1-75.2,19.7-112,40.4c-39.2,22.2-67.2,53.8-96.3,83.7c-14.2,14.6-29.1,29.1-46.2,41.9c-18.8,14.1-39.5,25-60.8,34.1
			c-50.3,21.4-101.5,34-151.8,56c-23,10-44.9,22.1-63.4,38.9c-17.5,15.9-31.1,33.5-44.7,50.8c-14.5,18.5-29,37.5-48.2,54.2
			c-21.8,18.9-48.6,31.5-74.9,42.7c-35.5,15.1-71.5,27.5-107.3,40.8c-34.7,12.9-70.4,26.3-103.6,45.6l3.2,5.3
			c65.4-38,138-55.2,205.7-83.7C-154,1417.2-127.4,1404.6-105.6,1385.7z"/>
		
			<linearGradient id="SVGID_00000032650231452018310290000012308512828031029179_" gradientUnits="userSpaceOnUse" x1="2355.1423" y1="-1878.5225" x2="2355.1423" y2="-1806.2061" gradientTransform="matrix(-0.4471 0.2695 0.3737 0.6198 2717.0476 1230.5773)">
			<stop  offset="0" style="stop-color:#FFAB1C"/>
			<stop  offset="0.17" style="stop-color:#F0A11A"/>
			<stop  offset="0.48" style="stop-color:#CA8816"/>
			<stop  offset="0.92" style="stop-color:#8D5E0F"/>
			<stop  offset="1" style="stop-color:#80560E"/>
		</linearGradient>
		<path style="fill:url(#SVGID_00000032650231452018310290000012308512828031029179_);" d="M-123.8,1414
			c23.1-19.2,42.7-40.8,62.2-61.8c18.3-19.8,36.6-39.8,58-58.2c19.5-16.8,41-29.3,64.6-39.6c47.3-20.5,95.3-31.2,142.6-51.1
			c42.9-18,76.2-44.5,108.5-75.4c30.7-29.7,60.7-61.5,100.3-83.8c40.1-22.7,82.9-33,124.3-47.5c21.8-7.6,43.6-16.7,64.2-28.9
			c20.8-12.4,39.7-27.1,57.5-42.4c43.7-37.6,81.8-76.5,135.5-104.4c64.4-33.5,133-53.5,196.1-90.7l0.1-0.1
			c57.7-35.6,101.8-83.6,156.7-122c49-34.3,101.5-49.9,154.7-70.6c22.2-8.7,44.4-18.6,65.3-31.5c20-12.2,37.9-27.1,54.5-42.4
			c32.2-29.7,61-62.6,99.5-87.7c37.9-24.7,79.9-36.5,120.4-49.7c43.9-14.4,83.9-32,120.9-62.6c39.3-32.5,71.2-69.9,111.4-101.9
			c19.8-15.7,40.7-28.4,64.1-37.7c26.5-10.5,53.2-17.4,79.6-24.4c27.1-7.3,54.8-14.3,82-25.6c26.7-11,49.7-27.1,71.5-45.5
			c49.3-41.6,89.5-91.4,146.4-126.8l-3.2-5.4c-60,37.5-103.9,89.9-156.5,133.7c-22.1,18.4-45.4,35.1-72.4,46.1
			c-25.7,10.4-51.8,16.4-77.4,22.5c-24.8,6-50,11.8-75.1,21.4c-23.2,8.8-43.8,21.7-63.4,37.2c-41.2,32.7-74.1,70.7-114.5,104
			c-18.7,15.4-38.7,29.1-60.8,39.6c-19.7,9.4-40,16.2-60.2,22.6c-40.1,12.7-81.8,23.9-119.6,48.5c-37.2,24.2-64.5,56-95.2,84.9
			c-34.9,32.8-73.9,55.6-118.7,73.5c-53.7,21.5-107.2,38-156.7,72.6c-54.9,38.4-99,86.4-156.7,122c-63.2,37.3-131.7,57.2-196.1,90.7
			c-54.1,28.1-93.6,67.5-138.1,105.2c-18.2,15.4-37.5,30.3-58.5,42.7c-20.1,11.9-41.3,20.7-62.4,27.9c-40.1,13.7-81,23-119.9,45
			c-39.3,22.2-68.7,54.1-98.8,83.7c-31.9,31.5-64.9,57.5-108,75.7c-48.3,20.4-97.5,31.8-145.9,52.8c-23.3,10.2-44.9,22.5-64,39.3
			c-19.9,17.4-36.6,36.6-53.2,55.5c-17.8,20.1-35.6,40.9-57.2,59.1c-21.9,18.5-47.4,31.2-73.5,41.9
			c-63.5,26.2-130.6,40.6-191.9,76.3l3.2,5.3c58.2-33.9,121.1-46,181.2-70.5C-170.4,1444.9-145.6,1432.1-123.8,1414z"/>
		
			<linearGradient id="SVGID_00000049938630894183396290000012301104117469326000_" gradientUnits="userSpaceOnUse" x1="2355.2766" y1="-1856.1866" x2="2355.2766" y2="-1786.8912" gradientTransform="matrix(-0.4471 0.2695 0.3737 0.6198 2717.0476 1230.5773)">
			<stop  offset="0" style="stop-color:#FFAB1C"/>
			<stop  offset="0.17" style="stop-color:#F0A11A"/>
			<stop  offset="0.48" style="stop-color:#CA8816"/>
			<stop  offset="0.92" style="stop-color:#8D5E0F"/>
			<stop  offset="1" style="stop-color:#80560E"/>
		</linearGradient>
		<path style="fill:url(#SVGID_00000049938630894183396290000012301104117469326000_);" d="M-73.2,1376.7
			c40.9-39.6,82.8-82.6,138.6-106.5c44.2-19,89-27.8,133.2-46.2c42.4-17.5,76.8-44.8,109.7-74.8c32.6-29.7,64.5-61.3,104.8-84.1
			c44.1-25,91.8-37.9,137.4-55c23.5-8.8,47.3-18.6,69.6-32c20-12,38-26.4,54.7-41.6c19.1-17.3,36.7-35.7,56.1-52.9
			c21.7-19.2,45.3-35.5,71.6-49.2c64.4-33.5,133-53.5,196.1-90.7l0.1-0.1c57.7-35.6,101.8-83.6,156.7-122
			c24.4-17.1,50.1-30.3,77.3-40.5c23.8-9,47.8-15.9,71.7-24.4c21.5-7.7,42.9-17.1,63.1-29.4c21.6-13.2,41.2-29.3,59.5-45.6
			c36.4-32.3,70-68.2,112.3-95.7c38.7-25.1,81.4-38.7,122.7-53.6c43.2-15.5,84.5-33.7,120.8-64c36.5-30.6,65.1-66,102.7-95.9
			c47.2-37.7,105.2-54.6,159.1-72.3c56.4-18.5,117-36.4,164.5-78.2c40-35.4,68.4-77,116.5-106.8l-3.2-5.3
			c-51.4,31.9-84.3,76.8-128.1,114.6c-21.1,18.3-44,33.2-70,44.3c-29.8,12.9-60.3,21.9-90.3,31.1c-52.6,16.2-107,31.6-153.1,68.4
			c-38.6,30.8-68.5,66.9-106,98.2c-36.6,30.5-77.4,48.5-120.8,63.5c-41,14.2-83.4,27.2-121.9,52.2c-40.9,26.5-72.6,61.3-107.4,92.6
			c-17.7,15.9-36.5,31.5-57.6,44.3c-20.5,12.5-42.2,22-64,30.2c-24.3,9.1-48.9,16.6-73.2,26c-27.4,10.6-53.4,24-78.1,41.3
			c-54.9,38.4-98.9,86.4-156.7,122C932,776.1,863.5,796,799,829.5c-26.6,13.9-50.4,30.2-72.6,49.4c-20,17.4-38.4,35.9-58.1,53.6
			c-17.1,15.2-35.4,29.8-55.7,41.9c-21.6,12.9-44.6,22.4-67.4,30.8c-44,16.1-89.9,28.1-132.4,52.1c-40,22.6-71.1,54.3-103,84
			c-32.5,30.3-66.6,57.2-109.1,75.1c-45.5,19-91.4,28.6-136.8,48.1c-54.4,23.4-93.4,64-132.5,103.1c-22.6,22.7-45.2,45.9-71.2,66.7
			c-21.7,17.5-45.3,30.5-70.9,40.6c-54,21.2-109.2,29.4-161.7,60l3.2,5.4c49-28.7,99.2-34.3,149.3-53.4
			C-160.3,1463.9-116.1,1418.2-73.2,1376.7z"/>
		
			<linearGradient id="SVGID_00000041992709587946556510000014386051833575730835_" gradientUnits="userSpaceOnUse" x1="2354.7097" y1="-1834.6315" x2="2354.7097" y2="-1766.3512" gradientTransform="matrix(-0.4471 0.2695 0.3737 0.6198 2717.0476 1230.5773)">
			<stop  offset="0" style="stop-color:#FFAB1C"/>
			<stop  offset="0.17" style="stop-color:#F0A11A"/>
			<stop  offset="0.48" style="stop-color:#CA8816"/>
			<stop  offset="0.92" style="stop-color:#8D5E0F"/>
			<stop  offset="1" style="stop-color:#80560E"/>
		</linearGradient>
		<path style="fill:url(#SVGID_00000041992709587946556510000014386051833575730835_);" d="M-239.4,1515.6
			c24.5-8.5,46.6-22.9,67.4-38.7c31.6-24.2,60.6-50.7,89.6-76.8c45.2-40.6,93.8-89.2,152.6-114.1c41.5-17.6,83.3-24.8,124.8-41.7
			c86.8-35.4,139.3-113.1,219.5-158.4c47.7-27,99.6-42.3,149-61.7c24.9-9.8,50.4-20.4,74-34.6c19.4-11.6,36.6-25.8,52.3-40.8
			c17.6-16.9,33.3-34.7,51.3-51.4c20.8-19.4,43.7-35.1,69.6-48.5c64.4-33.5,133-53.5,196.1-90.7l0.1-0.1
			c57.8-35.5,101.8-83.6,156.7-122c24-16.8,49-29.7,75.8-39c22.8-7.9,45.5-13.4,68.2-21c20.9-6.9,41.7-15.6,61.3-27.6
			c23-14,44-31.2,63.8-48.3c40.2-34.6,77.8-73.1,123.6-102.9c78.4-50.9,172.8-60.7,245.5-122.3c34-28.9,59.9-62.4,94.9-90.6
			c49.6-40.1,115.8-60.3,172.7-81.3c35.9-13.2,72.1-26.2,107.5-42.5c24.2-11.1,47.5-24.1,66.6-42.1c14.8-13.9,25.9-29.2,38.4-44
			c14.4-17.2,30.9-32.2,51.7-45l-3.2-5.4c-22,13.6-39.5,29.6-55.5,47.5c-14.2,16-27.2,32.5-43.7,47.6
			c-46.4,42.6-114.7,62.4-170.7,82.4c-55.9,19.9-119.2,39-168.1,78.3c-35.9,28.8-62.7,63.1-97.6,92.5
			c-72.9,61.6-166.4,69.8-244.8,120.8c-44.7,29-80.9,66.7-119.8,100.4c-19.4,16.9-39.8,33.7-62.4,47.3c-19.8,12-40.9,20.9-61.9,28.1
			c-23.2,7.9-46.3,13.9-69.4,22.2c-27,9.7-52.2,22.6-76.3,39.5c-54.9,38.4-98.9,86.4-156.7,122c-63.2,37.3-131.7,57.2-196.1,90.7
			c-26.1,13.6-49.2,29.5-70.3,48.7c-18.5,16.9-34.8,34.8-53,51.9c-16,15.1-33.5,29.3-53,41.1c-23.2,13.9-48.1,24.3-72.5,33.7
			c-48.1,18.5-98.6,33.1-145,59.4c-80.2,45.4-130.8,122.9-217.8,158.5c-42.5,17.5-85.3,25.2-127.8,43.2
			c-57.7,24.6-104,71.3-147.9,111.6c-27.5,25.3-55,51-85.2,74.4c-21.1,16.3-43.4,30.2-68.2,39.1c-20.7,7.5-41.1,11.3-61.6,16.3
			c-23.7,5.8-46.5,13.8-69.2,27.2l3.2,5.3c21.5-12.7,42.7-20.2,65.1-25C-276.8,1524.9-258.4,1522.2-239.4,1515.6z"/>
		
			<linearGradient id="SVGID_00000104674890833779403290000014085879978053883559_" gradientUnits="userSpaceOnUse" x1="2354.926" y1="-1812.3817" x2="2354.926" y2="-1744.8071" gradientTransform="matrix(-0.4471 0.2695 0.3737 0.6198 2717.0476 1230.5773)">
			<stop  offset="0" style="stop-color:#FFAB1C"/>
			<stop  offset="0.17" style="stop-color:#F0A11A"/>
			<stop  offset="0.48" style="stop-color:#CA8816"/>
			<stop  offset="0.92" style="stop-color:#8D5E0F"/>
			<stop  offset="1" style="stop-color:#80560E"/>
		</linearGradient>
		<path style="fill:url(#SVGID_00000104674890833779403290000014085879978053883559_);" d="M-291.7,1545.3
			c15.7-2.3,30.9-3.2,47.2-8.5c24-7.9,46.2-22.9,66.6-38.3c33.7-25.5,64.9-53.3,96.4-80.5c29.6-25.7,59.1-51.6,90.4-75.8
			c21.5-16.7,43.5-31.2,68.6-41.8c40.1-17,80.3-23.1,120.4-39.4c86.5-35.1,141.8-113,221.9-158.4c91.9-52,204.4-64.3,281.7-141
			c16.8-16.6,31.4-34.2,48.6-50.5c20.3-19.5,43.3-35,69.1-48.3c64.4-33.5,133-53.5,196.1-90.7l0.1-0.1
			c57.7-35.6,101.8-83.5,156.7-122c23.8-16.7,48.7-29.7,75.4-38.6c22.2-7.3,44.2-12.1,66.2-19c103.5-32.4,167-125.4,255.3-182.6
			c78.4-50.8,174.4-63,246.5-124.4c32.7-27.9,57-60.5,90.7-87.8c20.8-16.8,43.7-29.2,68-40.2c36.7-16.6,74-30.8,111-45.2
			c38-14.8,76.3-29.2,113.8-46.7c23.5-10.9,47.6-23.6,65.9-41.5c12.4-12.2,20.3-25.3,29.8-38.3c12.4-16.7,28-30.1,47.6-42.2
			l-3.2-5.4c-19.7,12.2-35.3,25.9-48,42.5c-10.3,13.4-19,27.1-32,39.7c-18.5,17.9-42.4,30.6-65.9,41.6
			c-37,17.2-74.9,31.3-112.4,45.7c-36.6,14-73.3,27.8-109.5,44.2c-24.3,11.1-47.4,23.5-68.2,40.4c-34.1,27.5-58.7,60.3-91.8,88.5
			c-72.2,61.5-168,73.1-246.3,124c-47.2,30.7-86.5,70.3-128.1,105.7c-20.3,17.3-41.7,34.9-65.1,49.1c-19.4,11.8-40.1,20.4-60.7,26.9
			c-22.3,7.1-44.4,12-66.7,19.5c-26.7,8.9-51.5,21.9-75.4,38.5c-54.9,38.4-99,86.4-156.7,122c-63.2,37.3-131.7,57.2-196.1,90.7
			c-25.8,13.4-48.6,28.9-69,48.4c-17.4,16.5-32.3,34.1-49.3,50.7c-15.3,15.1-32.2,29-51.5,40.6c-24.1,14.5-50.1,25.3-75.5,35.4
			c-50.8,20.2-104.5,36.5-153.6,64.3c-80.2,45.3-134.8,123.1-221.5,158.3c-40.4,16.4-81.1,22.8-121.4,39.9
			c-25.1,10.6-47.3,25.3-68.9,42c-31,24-59.9,49.6-89,75c-30.9,27-61.6,54.5-94.9,79.6c-20.5,15.5-42.6,30.4-66.6,38.3
			c-17,5.6-33,7-49.4,9.7c-21,3.5-40.7,10.9-61.1,22.7l3.2,5.4C-332,1556-312.5,1548.4-291.7,1545.3z"/>
	</g>
</g>
</svg>
